<?xml version="1.0" encoding="utf-8"?>
<!-- Generator: Adobe Illustrator 23.0.2, SVG Export Plug-In . SVG Version: 6.00 Build 0)  -->
<svg version="1.1" id="Слой_1" xmlns="http://www.w3.org/2000/svg" xmlns:xlink="http://www.w3.org/1999/xlink" x="0px" y="0px"
	 viewBox="0 0 132 47" style="enable-background:new 0 0 132 47;" xml:space="preserve">
<style type="text/css">
	.st0{fill:#E31F25;}
	.st1{fill:#EAECEC;}
	.st2{fill:#FBFBFB;}
	.st3{fill:#F9F9F9;}
	.st4{fill:#D8D8D8;}
	.st5{fill:#1D61AB;}
	.st6{fill:#FFFFFF;}
	.st7{fill:none;}
	.st8{fill:#E32023;}
	.st9{fill:#2B2929;}
	.st10{fill:#292929;}
	.st11{fill:#2B2929;stroke:#2B2929;stroke-width:0.5;stroke-miterlimit:10;}
	.st12{fill:#1A1A18;}
</style>
<g>
	<path class="st0" d="M12.7,45.1C12.7,45.1,12.8,45,12.7,45.1"/>
	<path class="st0" d="M41.2,35.4L41.2,35.4C41,35.3,41.3,35.5,41.2,35.4"/>
	<path class="st0" d="M7.6,45.3L7.6,45.3C7.6,45.3,7.6,45.3,7.6,45.3C7.6,45.3,7.6,45.3,7.6,45.3"/>
	<path class="st0" d="M28.2,29.3c-0.1,0.3-0.4,0.3-0.6,0.2l0-0.1c0.2-0.1,0.2,0,0.3-0.1c0.1-0.1,0-0.2,0.2-0.3
		C28.2,29.1,28.3,29,28.2,29.3 M49.2,25.7c-0.3-0.1-2.4,0.4-3.1,0.5c-0.3,0-0.5,0-0.8,0.1c-0.3,0.1-1.4,0.3-1.6,0.2
		c0.3,0,0.5-0.1,0.8-0.1c0.3-0.1,0.5-0.1,0.7-0.2l1.5-0.3c0.4-0.1,2.9-0.5,3-0.7c-0.1,0-0.2,0-0.3,0c-0.4,0.1-0.4,0.1-0.8,0.2
		c-0.2,0-0.4,0-0.6,0.1c-0.7,0.2-0.5,0.1-0.6,0l0.6-0.2c-0.2-0.1-0.1,0-0.2,0c0,0,0,0,0,0l-0.1,0c-0.5,0.1-0.4,0.2-0.7,0.1l-0.5,0
		c0.1-0.1,0.1,0,0.2-0.1c-0.1,0-0.2,0-0.2,0c-0.1,0-0.1,0-0.1,0c0.3,0,1.1-0.2,1.5-0.3l0.5-0.1c0.3-0.1,0.6-0.1,0.8-0.3
		c-0.2,0-0.4,0-0.6,0c-0.1,0-0.1,0-0.2,0c0,0-0.1,0-0.1,0c-0.1,0-0.1,0-0.2,0c0,0,0,0,0,0l0.4-0.2c0.1,0,0.1,0,0.1-0.1
		c-0.1-0.1-0.7,0.1-0.9,0.1c0-0.1,0,0,0-0.1c0,0,0,0,0,0l0-0.1c-0.3,0-0.4,0.1-0.6,0.1c-0.6,0.1-0.2-0.1-0.6-0.1
		c-0.3,0-1,0.1-1.3,0.2c-0.3,0-2.3,0.3-2.6,0.4c0.1-0.1,3.4-0.6,3.8-0.6c0.1,0,0.2,0,0.3,0l0.1,0c0,0,0,0,0,0c0.1-0.1,0,0,0.1-0.1
		c-0.1,0-0.4,0-0.6,0c-0.3,0-0.5,0.1-0.7,0.1c0.1-0.1,0.1-0.1,0.4-0.1c0.2,0,0.2-0.1,0.4-0.1c0.1,0,0.4,0,0.5-0.1
		c0.1-0.1-0.1,0,0.1-0.1c0,0,0,0,0,0c-0.4,0-0.6,0-0.9,0c-0.1,0-0.1,0-0.1,0c0,0,0,0,0,0l0-0.1c0,0,0,0,0,0c0,0,0,0,0,0l-0.9,0.1
		c-0.2,0-0.4-0.1-0.8,0c0,0,0,0,0,0c0,0,0,0,0,0L42.8,24c-0.4,0-0.5,0.1-0.6-0.1c-0.4,0.1-0.8,0.2-1.2,0.4c-0.3,0.1-0.8,0.3-1.1,0.4
		c-0.4,0.1-2.1,0.6-2.2,0.8c-0.1,0,0,0-0.2,0c0,0-0.1,0-0.2,0.1L36.2,26c-0.6,0.2-4,1.4-4.4,1.5c-0.1,0.1-4,1.4-4.2,1.4
		c0,0,0.1,0-0.1,0.1c0,0,0,0,0,0c0.2-0.1-0.2,0.1,0,0c0,0,0,0,0,0c-0.1,0-0.1,0-0.2,0l-2.6,0.9c-4.4,1.5-8.9,3-13.3,4.5
		c-1.6,0.5-3.8,1.3-5.3,1.8l-0.1,0c-0.2,0.2-2.1,0.7-2.3,0.8c-0.8,0.3-0.6,0.5-1.4,0.8c0,0.4,0,0.3-0.2,0.5l0.4,0.2L2,38.7l0.5,0
		c-0.1,0.1-0.2,0.2-0.3,0.3c0.3,0,0.2,0,0.5-0.1c-0.1,0.2-0.3,0.2-0.5,0.3l0.1,0c0.1,0,0.1,0,0.2,0c0.4,0,0.6-0.4,0.9-0.5
		c0.2,0,0.1,0.3,0.1,0.3l0.1,0c0.1,0.2,0,0,0.1,0.1C3.8,39.1,3.9,39,4,38.8c-0.1,0.3-0.3,0.4-0.7,0.8C3.2,39.7,3.2,39.8,3,40
		c0.3-0.1,0.4-0.2,0.7-0.5L4.3,39c0.1-0.1,0-0.1,0.2-0.1c-0.2,0.2-0.3,0.2-0.2,0.3c0,0,0,0.1,0,0.1c0,0,0,0,0.1,0
		c0.1-0.2-0.1,0,0.1-0.2C4.6,39,4.6,39,4.6,38.9c0,0.1,0.1,0,0.2,0.1c0,0,0.1,0,0.1,0c0,0,0,0,0,0c0.1,0,0-0.1,0.1-0.1
		c0.1-0.1,0.1-0.1,0.3-0.1c-0.1,0.2-0.2,0.1-0.4,0.3L4.6,39l0.2,0.2c0,0,0,0,0,0c0,0,0.1-0.1,0.1-0.1l0.1-0.1c0.1-0.1,0,0,0.1-0.1
		c0.1-0.1,0-0.1,0.1-0.1l0.5-0.3l-1.1,0.9c-0.1,0-0.1,0-0.2,0.1c0,0-0.1,0.1-0.1,0.1c-0.1,0.1-0.1,0-0.1,0c0,0-0.1,0.1-0.1,0.1
		C4.2,39.9,4,40,3.9,40.2l-0.3,0.4c-0.1,0.1-0.4,0.2-0.2,0.3c0.1-0.1,0.2-0.1,0.3-0.2l0.9-0.8c0.1,0.2-0.4,0.4-0.7,0.9
		c-0.1,0.1-0.2,0.4-0.4,0.5c-0.2,0.1-0.4,0.1-0.5,0.4c0.1-0.1,0.2-0.1,0.4-0.2l-0.2,0.3c0.2,0.3,0.2,0,0,0.4c0,0.1,0,0.1-0.1,0.2
		c-0.2,0.1-0.2,0-0.2,0.2c0.2,0.1,0.3-0.1,0.6-0.1l-0.7,0.4c-0.1,0-0.1,0-0.1,0c-0.1,0.1-0.2,0.2-0.2,0.3c0,0,0.1,0,0.1,0
		c0,0,0.1,0,0.2,0l-0.2,0.2c0.3,0.1,0.1,0.1,0.3,0l0.7-0.3c0.2-0.1,0.8-0.3,0.9-0.3l-1,0.5c-0.1,0.1-0.9,0.5-1,0.7
		c0.3-0.1,0.4-0.2,0.6-0.2c-0.1,0.2-0.1,0-0.2,0.3c0.5-0.1,0.5-0.2,0.8-0.2c0.2,0,0.1,0.1,0.3-0.1L4,43.4c0.2-0.1,0.7,0,1-0.2
		c0.4,0,0.8-0.3,1.1-0.4l-2.3,1c-0.2,0.1-0.4,0.2-0.5,0.3l0.3,0.1l-0.3,0.2c0.2,0,0.2,0,0.4,0.1l1.1-0.4C5,44.1,5,44.1,5.1,44
		l0.2,0.1C5.4,44,5.5,44,5.6,44L5.7,44c0.1,0,0,0,0.1,0c-0.1,0.1-0.2,0.1-0.2,0.2c0,0,0,0,0,0c0,0,0,0,0,0.1c-0.4-0.1-0.2,0-0.4,0
		c-0.4,0.1,0.1-0.2-0.3,0c-0.2,0-0.6,0.3-0.7,0.4c0.2-0.1,0.6-0.3,0.8-0.3c-0.1,0.1,0,0.2-0.3,0.3l-0.3,0.1C4.3,45,4.4,45,4.2,45.2
		c0,0-0.1,0-0.1,0.1h0.6c0.1,0,0.1,0,0.1,0h2c0.1-0.1,0.1-0.1,0.4-0.2l0.7-0.2c-0.1,0.2-0.3,0.2-0.7,0.4c0,0-0.1,0-0.1,0h1.8
		c0.1,0,0.1,0,0.2,0h0.1l0-0.1c0,0,0,0,0.1,0c0,0,0.1,0,0.2,0c0,0,0,0,0.1,0c0,0,0,0,0,0c-0.1-0.2,0.1-0.1-0.2-0.1c-0.2,0,0,0-0.1,0
		c0,0,0,0-0.1,0c0,0,0,0,0,0c0.2,0,0.3-0.1,0.4-0.1c0.1,0.4,0.3,0.3,0.6,0.1l0.1,0l2.3-0.9c0,0.1,0.1,0,0,0.3l0.2,0
		c0.3,0.4,0.8,0.3,1.3,0.3c0.3,0,0.4-0.1,0.7-0.1c0.1,0,0.1,0,0.1,0l0.1,0c0.4,0,0.6-0.3,0.8-0.4c0.1-0.1,0,0,0.1-0.1
		c0.1,0,0,0,0.1-0.1c0.7-0.4,0.5-0.2,0.9-0.4c0.2-0.1,1.1-0.4,1.4-0.6c0.1-0.1,0.2-0.1,0.3-0.1l2.2-0.6c0.3-0.1,0.6-0.3,1-0.2
		c0.7,0,0-0.2,0.6,0c0.2-0.2-0.1-0.1,0.4-0.2c0.1,0,0.1,0,0.2-0.1c0,0,0,0,0,0c0.5-0.2,0.2,0.1,0.6-0.1c0.4-0.1,0.1,0.1,0.5,0
		l0.5-0.2c0.3-0.1,0.1,0,0.3-0.1c0.1,0.1,0.3,0.1,0.4,0.1c0.2,0,0.2-0.1,0.3-0.2c0.7,0.2,0.2-0.1,0.7-0.1l0.4-0.1
		c0.2,0,0.3-0.1,0.4-0.1l0,0.1l0.5-0.2c0.2-0.1,0.1-0.1,0.3-0.1c0.2,0,0.1,0,0.2-0.1c0,0,0,0,0,0c0,0.1,0.1-0.1,0.1-0.1l0.1,0
		c0.3,0,0.1,0.1,0.3-0.1c0.1-0.1,0.1,0,0.1-0.2c0.2,0,0,0,0.2,0.1c0.2-0.1,0.1-0.1,0.3-0.1c0.1,0.1,0,0,0.1,0l0.3-0.1l0.3-0.1
		c0-0.1-0.1-0.1,0-0.2l0.1,0c0.2,0,0.1,0.2,0.4,0.1c0.1,0,0,0,0.2-0.1c0,0,0.2,0,0.2-0.1c0.3-0.1,0.1-0.2,0.4-0.2
		c0.3,0,0.3,0.1,0.4-0.2c0.1,0,0.1,0,0.2,0.1c0.1-0.1,0.1,0,0.1-0.2c0,0,0.1,0.1,0.2,0.1c0.1,0,0.1,0,0.2-0.1c0.2-0.1,0.4,0,0.4-0.2
		l0.2,0c0.1-0.1,0.1-0.1,0.1-0.2c0.2,0.1,0.1,0.3,0.4,0c0.2,0,0.1,0,0.2-0.1c0.1,0,0,0.1,0.1-0.1c0.1,0.1,0.1,0.1,0.2,0.1
		c0-0.1,0,0,0-0.2c0.3,0.1,0,0.1,0.2,0.1c0-0.1,0-0.1-0.1-0.2c0,0,0.2,0,0.2,0c0.1,0,0,0,0.1,0l0.1-0.1c0.7-0.4,0.3-0.2,0.2-0.3
		c0.2-0.1,0.4-0.2,0.6-0.2c-0.2,0.1-0.1,0-0.2,0.2c0.2,0,0,0,0.2,0c0.2-0.1,0.1,0,0.1-0.1c-0.1-0.1,0.2,0.1,0,0c0,0,0,0,0,0
		c0,0,0,0,0.1,0.1c0.1,0.1-0.1,0,0.1,0.1c0.1-0.1,0.1-0.1,0.2-0.1c0-0.1,0.1-0.2,0.1-0.2c0.4,0,0.1,0,0.3,0.1l0.1-0.1
		c0,0,0.2-0.2,0.2-0.4l0.2,0.3c0.3-0.1,0.3-0.2,0.5-0.4c0.2-0.1,0.1-0.1,0.2-0.1c0,0,0.1,0,0.2,0c0.1-0.1-0.1-0.1,0.2-0.1l0.1,0
		c0.4-0.1,0.4-0.2,0.5-0.3c0.2-0.1,0.3-0.1,0.5-0.2c0.3-0.2,0.1-0.1,0.4-0.1c0.1,0,0.3-0.1,0.4-0.3c-0.3,0.1,0.1,0.1-0.2,0.1
		c-0.1,0,0.1,0-0.1,0c-0.2,0-1.1,0.5-1.4,0.6c-0.2,0.1-0.2,0.1-0.4,0.1l-0.7,0.3c0.2-0.1,1.9-0.8,2.2-1C39.2,36,39.2,36,38.9,36
		c-0.2,0-0.4,0.1-0.8,0.3c-0.6,0.3-0.3,0.1-0.7,0.3c-0.2,0.1-0.1-0.1-0.3,0.2C37,36.7,37,36.7,36.6,37l-0.2,0.2
		c-0.5-0.1-0.1,0-0.7,0.2c-0.5,0.2-0.5,0.1-0.6,0.4c-0.1-0.2-0.1-0.1-0.6,0.2L34.4,38c-0.3,0-0.6,0.3-0.8,0.2
		c0.4-0.3,1.2-0.5,1.4-0.6c0.1,0,0.2-0.1,0.2-0.1c0.1-0.1,0.1-0.2,0.4-0.3l0.2-0.1c0,0,0,0,0,0c0.7-0.1,0.2-0.3,1-0.4c0,0,0,0,0,0
		l0.6-0.3c0.2-0.1,0.1-0.1,0.3-0.2l0.1,0c0,0,0,0,0,0c1.5-0.6,0.6-0.4,1.1-0.6l1.7-0.7c0.1-0.1,0.1,0,0.2-0.1
		c0.1-0.1,0.2-0.1,0.3-0.1c-0.1,0.2,0,0-0.2,0.2l-0.6,0.3c-0.3,0.1-0.2-0.1-0.2,0.2c0.2,0,0.4-0.1,0.6-0.2c0,0,0,0,0,0c0,0,0,0,0,0
		c0,0.1,0,0.2-0.1,0.2c0,0,0,0,0,0c0,0,0,0,0,0l-0.1,0c-0.2,0-0.1,0.1-0.3,0.2l-0.2,0.1c-0.1,0,0,0-0.1,0c-0.1,0.1-0.4,0.2-0.4,0.3
		c0-0.3,0.1-0.1-0.2-0.2c-0.1,0.2-0.1,0.1,0,0.3c-0.2,0-0.1,0-0.3,0.1c0.2,0.2,0.3,0,0.8-0.2l0.4-0.1c-0.1,0.2-0.1,0.1-0.1,0.3
		c0.1-0.1,0.2-0.1,0.3-0.2c0.1-0.1,0.2-0.2,0.3-0.2c0.1-0.1,0.1-0.3,0.3-0.3c0,0,0,0,0,0c0,0,0.1,0,0,0c0,0,0,0,0,0
		c0,0,0.1,0.1,0.1,0.1l0.5-0.3c0.3-0.2-0.2,0,0.6-0.3c0.3-0.1,0.5-0.3,0.8-0.4c0,0,0.1,0,0.2-0.1l0.2-0.2c-0.1,0-0.8,0.3-1,0.4
		c-0.2,0.1-0.3,0.1-0.4,0.1L42,34.8c-0.2,0.1-0.1,0-0.2,0.1c0,0-0.3,0,0,0c0,0,0,0,0,0c0,0,0,0-0.1-0.1c-0.1,0-0.2,0.1-0.4,0
		c0.1,0,0.3-0.1,0.4-0.1c0.2,0.1,0,0,0.1,0.1l0.1,0.1c0.1-0.2,0.1-0.1,0-0.3c-0.2,0.1-0.1,0.2-0.4,0.1c0.2-0.1,0.2-0.1,0.5-0.2
		l0.2-0.1c0.3-0.2,0.2,0,0.5-0.2c0.2-0.1,0,0,0.2-0.1c0.3,0,0.3-0.1,0.5-0.1C43,34.1,42.8,34,43,34.3c0.2-0.2-0.1-0.2,0.7-0.5
		c0.1,0,0.3-0.1,0.4-0.2l0.4-0.3c-0.1-0.1,0.1-0.1-0.1,0l-0.7,0.4c-0.2,0.1-0.1,0.1-0.4,0.1l0-0.2c0.1,0,0.2,0,0.3-0.1
		c0.7-0.4,0.1,0,0.6-0.2c0.1,0,0.2-0.1,0.3-0.1c-0.2,0,0-0.2-0.3-0.1c-0.2,0.1-0.1,0.2-0.5,0.1c0.1-0.2,1-0.5,1.3-0.6
		c0.2-0.1,0.4-0.2,0.6-0.3c0.1,0,0.2-0.1,0.3-0.2C46,32,46,32.1,46,31.9c-0.2,0.1,0,0.1-0.3,0.1c-0.2,0,0-0.1-0.3,0.1
		c-0.3,0.2-1.6,0.8-1.8,0.8c0.1-0.1,0.9-0.5,1.1-0.6c0.2-0.1,0.2,0,0.3-0.1c0.1-0.1,0,0,0.1-0.1c0.5-0.2,0.1-0.1,0.4-0.3
		c0.1-0.1,0.2-0.1,0.3-0.2l-0.4,0.1c0.1-0.1,0.1-0.1,0.1-0.2l-0.8,0.3c0.2-0.1,0.4-0.3,0.6-0.4c-0.3,0-0.3,0.2-0.6,0.1
		c-0.1,0.1-0.1,0.1-0.3,0.2c-0.8,0.3-1.3,0.5-2.2,0.8l1.1-0.5c0.2-0.1,0.2,0,0.3-0.2L42,32.5l0.1-0.3c-0.3,0-0.5,0.1-0.7,0.2
		c0.3-0.2,0.2-0.1,0.1-0.2c-0.1,0.1-0.1,0.1-0.3,0.1c-0.2,0-0.2,0-0.4,0.2c-0.2,0.2-0.1,0-0.4,0.2c-0.1,0-0.3,0.1-0.4,0.1
		c-0.1,0-0.2,0.1-0.2,0.1c0,0-0.1,0-0.1,0c-0.1,0,0,0-0.1,0c0.1-0.1,0.2-0.1,0.4-0.2c0.1-0.1,0.2-0.1,0.4-0.2l2.4-1
		c0-0.2,0.1-0.1-0.1-0.1c-0.1,0.1-1.4,0.5-1.5,0.6c-0.3,0.1-1.3,0.6-1.5,0.5l1.3-0.5c0.2,0,0.4-0.1,0.6-0.2c0,0,0,0,0,0c0,0,0,0,0,0
		c0,0,0,0,0,0l0.3-0.1c-0.1-0.1,0-0.1-0.2-0.1c-0.1,0-0.1,0-0.2,0c0.1-0.2,0-0.1,0.1-0.2c0,0,0,0,0,0c0.2-0.1,0.3-0.1,0.5-0.3
		c-0.2,0-0.9,0.3-1,0.4c-0.2,0.1-0.1,0.1-0.3,0.1c0.1,0.1,0,0,0,0.2c-0.4,0-0.8,0.2-1.1,0.3L39,32.4c-0.2,0.1,0,0-0.2,0.2l-0.1,0
		l0-0.1c0.1-0.3,0.5-0.4,0.8-0.6l-0.1,0c0.2-0.3,0.4-0.2,0.7-0.4c0.1-0.1,0.1,0.1,0.1-0.2c0.5,0.2,0.3-0.1,0.5-0.2
		c0.2-0.1,0,0,0.3,0l0.1-0.2c-0.3,0-0.5,0.3-0.8,0.3c0.2-0.1,0.1-0.1,0.3-0.1l0.1-0.2l0.4-0.2c0.3,0,0.1,0,0.3,0l0.3,0
		c0.1,0-0.1,0,0.1,0c0.1-0.1,0-0.1,0.1-0.1c0.1-0.1,0,0,0.1-0.1c-0.5,0-0.1,0-0.2-0.1c0.2,0,0.1,0,0.2-0.1c0.1,0.1,0,0,0.1,0.1
		c0,0.1,0,0,0,0.1l0.5-0.1l0.2-0.3c-0.3,0-0.2,0.1-0.5,0.1l0-0.1c0.2-0.1,0.5-0.2,0.7-0.2c-0.1-0.1-0.1,0-0.1-0.1
		c-0.1-0.1,0,0-0.1-0.1l0.3-0.1l0,0.2c0.2,0,0.3,0,0.4-0.2c0.3,0.1,0.3,0.1,0.6,0.2l0.3-0.2l0-0.3c0,0,0,0,0,0l0,0l0,0.2
		c0.3-0.1,0.3-0.1,0.6,0l0.1-0.1c0.1-0.2,0-0.1,0.2-0.2c0.2-0.1,0.1,0.1,0.2-0.2l0.1,0.1c0.1,0-0.1,0,0.1,0c0.1,0,0.1-0.2,0.3-0.1
		l0.1,0.1c0,0,0,0,0,0c0,0,0-0.1,0.2-0.2l0.2-0.1l0.1,0.2c0.2-0.1,0.3-0.1,0.4-0.2c-0.2-0.2,0,0-0.2-0.1l-0.1-0.1c-0.1,0,0,0-0.2,0
		c-0.5-0.1-0.1,0-0.6,0c-0.2,0-0.2,0-0.3,0.1c0,0-0.1,0-0.1-0.1c0,0,0,0,0.1,0c0.1-0.1,0.4-0.1,0.5-0.1c0.1,0,0.2-0.1,0.3-0.1
		c0.1,0,0.2-0.1,0.3-0.2c-0.2-0.1-0.1,0.1-0.5,0l0.3-0.1c-0.2-0.2-0.2,0-0.6,0c-0.5,0-0.3-0.1-0.6,0.1c0,0.1,0.1,0.1,0.1,0.2
		c-0.3,0.1,0-0.1-0.4,0c0,0,0,0-0.1,0c0.2,0-0.1,0,0,0c0,0,0,0,0,0c0,0-0.2,0-0.2,0l-0.1,0.1c-0.1,0-0.2,0-0.3,0
		c-0.2,0-0.3,0.1-0.2,0.1c0.1,0,0,0,0,0c0,0,0.1,0,0.1,0c0,0,0.2,0.1,0,0.1l-0.1,0c0,0-0.1,0-0.1,0c0,0,0-0.1,0-0.1c0,0,0,0,0,0
		c0,0,0,0,0,0c0,0,0,0,0-0.1c0.1-0.1,0.2-0.1,0.3-0.1c0.3-0.1,0.2,0.1,0.5-0.1l0.1-0.1c-0.1,0,0-0.1-0.1-0.1c-0.1,0-0.1,0-0.2,0
		c0-0.2,0-0.2-0.1-0.3c0.1,0,0.2,0,0.3,0c0.4-0.1,0.1-0.1,0.8-0.2c0.1,0,0.2-0.1,0.4-0.1c0.3,0,0.5-0.3,0.7-0.1
		c-0.2,0.1-0.4,0.1-0.6,0.2c0.1,0,0.9-0.1,1-0.2c0,0,0,0,0,0l-0.1,0c-0.2,0-0.1,0.1-0.2,0c0.1-0.1,0.2-0.1,0.3-0.1l0.4-0.1
		c-0.2-0.3-0.4,0-0.8,0c-0.4,0-0.6,0.1-0.9,0.2c-0.3,0-0.2,0-0.4,0.1l-0.1-0.1c-0.1-0.1-0.1-0.2,0.1-0.2c0.2,0,0.2,0,0.4,0.1
		c0,0,0,0,0-0.1c0,0,0,0,0,0c0.1-0.2,0.1-0.1,0,0c0.4,0,0.2,0,0.4-0.1c0.1,0,0.2,0,0.2,0c0.1-0.1-0.1-0.1,0.3-0.2
		c0.2,0,0.3-0.1,0.4-0.1c-0.2-0.2-0.4,0.1-0.7,0l0.1-0.2c0,0,0,0,0,0c0.1,0,0,0,0.1,0c0.1,0,0.1,0,0.2,0c-0.1-0.1-0.1-0.1-0.2-0.2
		c0.2-0.1,0.7-0.2,1-0.2c0.2,0.1-0.1,0,0.1,0c0,0,0.2,0,0.2,0c-0.2-0.1-0.1,0-0.1-0.1l0.3,0.1c-0.1-0.3-0.1-0.1,0.2-0.2l0.9-0.3
		c0.2-0.1,0.3,0,0.4-0.2C49.3,25.7,49.7,25.9,49.2,25.7z"/>
	<path class="st0" d="M43.1,31.1c0,0.2,0,0.2,0.2,0.2c0.1-0.1,0.1-0.2,0.1-0.3c0.2,0,0.2,0,0.3,0l0-0.2C43.3,30.6,43,30.8,43.1,31.1
		"/>
	<path class="st0" d="M8.5,39.4l-0.2,0c-0.2,0.1,0,0.1-0.3,0.3c0.1-0.1,0.1-0.1,0.2-0.3c-0.3,0-0.2,0-0.3,0.2l-0.5,0.5
		c-0.1,0,0,0-0.1,0.1c0,0-0.1,0.1-0.1,0.1c0,0.1,0,0.1,0.1,0.1c-0.1,0.1-0.1,0.2-0.2,0.3c0.2,0,0.1,0,0.4-0.3l0.2-0.2
		C8,39.7,7.6,40.2,8,39.9c0.2-0.2,0-0.1,0.2-0.1c0,0,0.1,0,0.1,0c0.1-0.1,0.1-0.1,0.2-0.1C8.4,39.5,8.5,39.4,8.5,39.4"/>
	<path class="st1" d="M36.6,7.8l-1.7-0.3l0.2-1.8L36.8,6L36.6,7.8z M17,7.8c0,0.4-0.3,0.2-0.2,0C17,7.8,16.8,7.8,17,7.8z M27.9,11.7
		c0,0.1,0,0.2-0.1,0.2c-0.1,0.1,0,0.1-0.1,0.1c-0.1-0.1-0.1,0-0.1-0.3c0.1-0.3,0.3-0.3,0.6-0.2l0,0.2L27.9,11.7z M13.9,9.6l-0.2,0
		c0-0.3,0.1-0.6,0.4-0.5c0.3,0.1,0.2,0,0.2,0.2c-0.1,0.1,0,0.1-0.1,0.1c0,0-0.1,0-0.2,0L13.9,9.6z M14.5,9.6c0.1,0.1,0.2,0,0.1,0.3
		c-0.1,0.3-0.4,0.3-0.6,0.2l0-0.2c0.4,0.1,0.3,0,0.3-0.2C14.4,9.6,14.4,9.7,14.5,9.6z M28.4,12.1c0.1,0.1,0.1,0,0.1,0.3
		c0,0.2-0.2,0.3-0.4,0.3c-0.3-0.1-0.2-0.1-0.2-0.2c0.1-0.2,0.2,0,0.3-0.1C28.4,12.3,28.2,12.2,28.4,12.1z M20.5,17.1
		c-0.2,0.1-0.2,0-0.3,0.1c-0.1,0.1,0,0.2-0.2,0.3c-0.1-0.1-0.2,0-0.1-0.3c0.1-0.3,0.4-0.3,0.6-0.2L20.5,17.1z M16.9,18.9
		c0.1-0.1,3.5-1.3,3.6-1.3c0,0-0.1,0,0.1-0.1c0.3-0.2-0.2,0.1,0.1,0c0.1,0,0.1,0,0.2,0l2.3-0.8c3.9-1.4,7.7-2.8,11.6-4.1
		c1.4-0.5,3.3-1.2,4.6-1.7l-1-1.2c-0.2-0.2-0.1,0-0.3-0.3c0,0,0,0,0,0c0,0,0,0,0,0l-0.2-0.2c0,0,0,0,0,0c-0.1-0.1-0.1-0.1-0.1-0.1
		l-0.5-0.6C37,8.1,37.1,8.2,36.9,8l0,0c0,0,0,0,0,0l0-1.8c0.1-0.1,0.1,0,0.1,0l0.3-0.2c0.1-0.1,0.1-0.1,0.2-0.1c0,0,0.1,0,0.1-0.1
		c0.2-0.1,0.2-0.1,0.5-0.4c0.1-0.1,0.3-0.2,0.4-0.3C39,4.8,39,4.9,39.3,4.6c0.3-0.3-0.2,0.1,0.2-0.1l0.3-0.1c0.2-0.1-0.1,0,0.2-0.2
		c0.2-0.1,0.2,0,0.1-0.2l-0.1-0.1c-0.3,0-0.7,0.3-1,0.4l2-1c0.2-0.1,0.3-0.2,0.4-0.3l-0.2-0.1l0.2-0.2c-0.1,0-0.2,0-0.3-0.1L40.2,3
		c-0.1,0-0.2,0-0.3,0.1c-0.1,0.2-0.4,0.3-0.5,0.3c-0.3,0-0.1,0-0.2-0.1c0,0.1,0,0.3-0.2,0.3c-0.4,0-0.1,0-0.2-0.1c0.1,0,0,0,0,0.1
		l0,0c0,0,0.1-0.1,0,0.1c-0.1,0.2,0,0-0.1,0.1c0,0,0,0,0-0.1c0-0.1-0.1-0.1,0.1-0.2c-0.3,0-0.2,0.1-0.4,0.1c-0.1,0-0.1,0-0.2,0
		c0.2,0,0.1,0,0,0.2c-0.2,0-0.2,0-0.4,0.1L37.4,4c-0.2,0-0.1,0-0.2,0l-0.1,0.1c0,0,0,0,0,0c0,0,0,0,0,0c0,0,0,0,0,0
		c-0.1,0,0,0.1,0,0c0,0,0,0.1,0,0.2c0,0,0,0,0,0c0,0,0,0,0,0c0,0,0,0,0,0l-0.2,0c-0.3,0-0.2-0.1-0.5,0c-0.2,0.1,0,0.1-0.2,0.1
		C36,4.6,36,4.3,36,4.4c0,0,0,0,0,0c0,0.2,0,0.2-0.1,0.3l-0.3,0.1c0.1,0.2,0,0.1-0.1,0.1c0,0.1,0,0-0.1,0c-0.2,0-0.4,0.2-0.6,0.2
		l-0.1,0.1c-0.2,0.1-0.1,0.1-0.4,0.1c0-0.2,0-0.2,0.1-0.3c0.1-0.1,0,0,0,0l0-0.1c0,0,0,0,0,0c-0.1-0.3-0.1-0.2-0.2-0.4
		c-0.3,0-0.1,0.1-0.5,0.1l0.2-0.4c0-0.1-0.2,0,0.1-0.1c-0.2,0-0.1,0-0.2,0c0-0.3-0.1-0.3-0.2-0.3l-0.1-0.1c-0.1-0.1-0.2-0.3-0.2-0.4
		c0-0.1,0.1-0.2,0.2-0.3c-0.2,0-0.1,0-0.3-0.1c0.1-0.1,0-0.1,0.2-0.1c0.1,0,0.1,0,0.1,0.1l-0.1-0.2c0.1-0.2,0.1-0.1,0.1,0
		c-0.1-0.1,0,0-0.1-0.1c-0.2-0.4-0.7-0.3-1.1-0.3c-0.2,0-0.4,0.1-0.6,0.1c-0.1,0-0.1,0-0.1,0l-0.1,0c-0.3,0-0.5,0.3-0.7,0.4
		c-0.1,0,0,0-0.1,0.1c-0.1,0,0,0-0.1,0.1c-0.6,0.4-0.5,0.2-0.8,0.4c-0.2,0.1-1,0.4-1.3,0.5C28.4,3.9,28.3,4,28.2,4l-1.9,0.6
		c-0.3,0.1-0.5,0.2-0.9,0.2c-0.6,0,0,0.2-0.5,0C24.7,5.1,25,5,24.6,5c-0.1,0-0.1,0-0.1,0c0,0,0,0,0,0c-0.5,0.2-0.2-0.1-0.6,0.1
		c-0.3,0.1-0.1-0.1-0.5,0l-0.5,0.2c-0.2,0.1-0.1,0-0.3,0.1c-0.1-0.1-0.3-0.1-0.4-0.1c-0.2,0-0.2,0.1-0.3,0.2
		c-0.6-0.3-0.2,0.1-0.6,0.1L21,5.7c-0.2,0-0.2,0.1-0.4,0.1c0,0,0,0,0,0c0,0,0,0,0,0c-0.1,0-0.1,0-0.1,0c0,0,0,0,0,0
		c0.1,0.2,0.2,0.3,0,0.5L20.2,6c-0.2,0-0.1,0.1-0.3,0.1L19.8,6c-0.1,0-0.1,0-0.1,0.1c0,0.3-0.2,0.4-0.3,0.5c-0.2-0.1,0,0-0.1-0.1
		c-0.1,0,0,0-0.1-0.1c-0.2,0,0,0-0.2-0.1c-0.1,0-0.1,0.1-0.3,0.1l-0.1,0.1c0.2,0.3,0.2,0.4,0,0.7c0.2,0,0.2-0.1,0.3,0
		c-0.1,0.1-0.1,0-0.2,0c-0.3,0-0.4,0.2-0.7-0.1c0.2-0.3,0.1,0,0.4-0.2c0,0,0.1-0.1,0.1-0.2c0-0.2,0-0.1-0.2-0.1c0,0,0,0,0,0
		c0,0,0,0,0,0c0,0,0,0,0,0l-0.1-0.1l-0.3,0c0,0.1,0,0.1,0,0.2l-0.1,0l0,0.2c-0.2,0,0.2,0-0.2-0.1c0,0.2,0.3,0.6,0.4,0.9
		c0.1,0.1,0.1,0.1,0.1,0.3L18,7.9c-0.1-0.1-0.1-0.1-0.2-0.2c-0.1-0.1-0.1-0.2-0.1-0.3l-0.3,0c-0.1,0.4,0,0.2-0.3,0.4
		c0-0.1,0-0.1,0-0.1l0-0.1c0,0,0,0,0,0l-1,0.4C15.9,8,15.9,8.1,15.7,8l0,0.2c0,0,0,0,0,0c0,0,0,0,0,0c-0.1,0-0.1-0.1-0.2,0
		c-0.2,0.1-0.1,0.1-0.3,0.1c0.1-0.3,0-0.2,0.3-0.3c0.2-0.1,0.1,0,0.3-0.1c0.2-0.1,0.4-0.1,0.6-0.2c0.2-0.1,0,0,0.3-0.1
		c0.1,0,0.1-0.1,0.3-0.1c0.3-0.1,0.4,0.1,0.5-0.3c-0.6-0.3-0.3,0-0.8,0c-0.1,0-0.1,0-0.2-0.1c-0.1,0.1-0.1,0-0.1,0.2
		c0,0-0.1-0.1-0.1-0.1c-0.1,0-0.1,0-0.2,0.1c-0.2,0.1-0.3,0-0.3,0.2l-0.1,0.2c0.4-0.1,0-0.1,0.5-0.2c-0.1,0.2-0.1,0.1-0.3,0.2
		c-0.5,0.2,0,0.4-0.8,0.5c0.1-0.2,0-0.2,0.2-0.2c-0.3,0-0.1,0-0.1-0.1c0,0,0.1,0,0.1,0c0.1,0,0,0,0.1-0.1l-0.2-0.1
		c-0.2,0-0.1,0-0.1,0.1c0,0.4,0,0.1-0.1,0.2c-0.2-0.1,0.1-0.1,0,0.1c-0.1,0.2-0.2,0.1-0.2,0.1c-0.1-0.1,0-0.1,0-0.1
		c-0.1,0.3,0,0.2-0.1,0.4c0-0.1-0.1,0,0,0c0.3,0,0.5-0.3,0.7-0.1c-0.3,0.3-1,0.4-1.2,0.5c-0.1,0-0.2,0.1-0.2,0.1
		C13.5,9,13.5,9,13.3,9.1l-0.2,0.1c0,0,0,0,0,0c-0.6,0.1-0.1,0.2-0.9,0.4c0,0,0,0,0,0l-0.5,0.3c-0.2,0.1-0.1,0.1-0.3,0.2l-0.1,0
		c0,0,0,0,0,0c-1.3,0.6-0.5,0.4-1,0.6l-1.5,0.7c-0.1,0.1-0.1,0-0.1,0.1c0,0,0,0.1-0.1,0.1c-0.1,0.2-0.4,0.3-0.6,0.3l-1,0.4
		c0,0,0,0,0,0l-0.2,0.1c-0.1,0-0.1,0-0.1,0.1c-0.1,0,0.1,0-0.1,0c-0.1,0-0.2,0-0.3,0.1c-0.6,0.4-0.1,0-0.5,0.2
		c-0.1,0-0.2,0.1-0.3,0.1c0.2,0,0,0.2,0.3,0.1C6.1,13,6,12.9,6.3,12.9c-0.1,0.1-0.9,0.5-1.1,0.6c-0.2,0.1-0.3,0.2-0.5,0.3
		c-0.1,0-0.2,0.1-0.3,0.2C4.3,14,4.2,14,4.2,14.1C4.4,14,4.2,14,4.4,14c0.2,0,0,0.1,0.2-0.1C5,13.8,6,13.3,6.2,13.3
		c-0.1,0.1-0.8,0.5-1,0.6l0.1,0.5c0,0-0.1,0-0.2,0c-0.1,0.1-0.4,0.3-0.5,0.4c0.2,0,0.3-0.2,0.5-0.1c0.1-0.1,0.1-0.1,0.3-0.2
		c0.7-0.3,1.1-0.5,1.9-0.7l-0.9,0.4c-0.2,0.1-0.2,0-0.2,0.2l1.5-0.6c0.2-0.2,0.6-0.3,0.9-0.4c0.2-0.1,0.6-0.4,0.8-0.3
		c0.2,0.1,0,0,0,0c0,0.2,0.1,0,0,0.1c-0.1,0.1-0.6,0.2-0.8,0.4c0.4,0.1,0.1-0.2,0.5-0.1c0.1,0,0.2-0.1,0.4-0.1c0,0,0.2-0.1,0.2-0.1
		c0,0,0.1,0,0.1,0c0.1,0,0,0,0.1,0c-0.1,0.1-0.2,0.1-0.3,0.2c-0.1,0-0.2,0.1-0.3,0.2l-2.1,0.9c0,0.2-0.1,0.1,0.1,0.1
		c0.1-0.1,1.2-0.5,1.3-0.5c0.3-0.1,1.1-0.6,1.3-0.5l-1.1,0.5c0.4,0,0.4-0.4,0.8-0.1c-0.1,0.3,0,0.1-0.2,0.1c-0.1,0-0.1-0.1-0.2,0
		c-0.2,0.3-0.3,0.1-0.3,0.1c-0.1,0.1-0.1,0,0,0.2c0.4,0,0.7-0.2,1-0.3l0.7-0.3c0.2-0.1,0,0,0.2-0.2c0.1-0.1,0.1-0.1,0.3-0.2
		c0.1,0,0.1,0,0.2-0.1l0,0.2c0,0.1,0,0.1-0.1,0.2c-0.3,0-0.2-0.1-0.4,0c-0.1,0.3-0.4,0.4-0.7,0.5l0.1,0.1c-0.2,0.3-0.3,0.2-0.6,0.4
		c-0.1,0.2,0.1,0.2,0,0.3c0,0,0,0,0,0c0,0,0,0,0,0l0,0.1c-0.1,0.1,0,0.2-0.3,0.2l-0.4,0.2c0,0.1-0.1,0.1,0.3,0c0,0.2,0,0.1-0.1,0.3
		c-0.2-0.1-0.1-0.1-0.2-0.2c-0.1,0.2,0,0.1-0.3,0.2l0,0.2c-0.2,0-0.2,0.1-0.2,0.2c-0.2,0.2-0.6,0.2-0.8,0.2c0.1-0.2,0-0.1,0.3-0.2
		l-0.2,0c0.2-0.1,0.2-0.1,0.4-0.1c0.2,0,0.3-0.2,0.3-0.2c0,0,0,0,0,0c-0.1-0.1,0-0.1-0.1-0.1c-0.2,0-0.1,0-0.2,0.1L7.8,16l-0.2,0
		c-0.2,0.1-0.5,0.1-0.6,0.2C7,16.3,7,16.3,7,16.4c0.1,0.1,0,0,0.1,0.1l-0.2,0.1c-0.3,0-0.2,0-0.4,0.1c-0.5,0.1-0.4,0.1-0.5,0l0-0.1
		c0,0.2,0,0.1-0.1,0.3H5.7l0,0c-0.1,0.1-0.1,0,0,0.1c0.1,0,0.2-0.1,0.3,0c0,0,0.1,0.1,0.1,0.1c0,0.1,0-0.1,0,0.1c0.2-0.1,0,0,0.2,0
		c-0.1-0.2-0.1,0,0-0.3c0.2,0,0.2,0.1,0.4-0.1c0.1,0.1,0.1,0,0.1,0.2c0,0,0,0,0,0L7,16.8l0,0.1C7.1,17,7.1,17,7.2,17.1c0,0,0,0,0,0
		C7,17.2,7,17.2,7,17.3c0.2,0.1,0.4-0.1,0.5-0.1c-0.1-0.1-0.3-0.2-0.4-0.2c0.1-0.2-0.1-0.1,0.2-0.2c0,0-0.1,0-0.3,0
		c0.3-0.2,0.4-0.3,0.9-0.3c-0.1,0-0.2,0.1-0.3,0.1c0.1,0.1,0,0,0.1,0.1l0.1,0c0.2,0-0.1-0.1,0.1,0l0,0.2c0.3,0,0.6-0.2,0.9-0.1
		l0.1,0C9,17,8.7,17,9.1,17c0.1-0.1,0-0.1,0-0.2c0.1,0,0,0,0.1,0c0.2,0.1,0,0,0.1,0.1c0.2,0.2,0,0,0.3,0c0.2,0,0,0,0.1,0
		c0.1,0,0.2-0.1,0.2-0.1c0,0,0,0,0,0c0.1,0.1,0,0,0.1,0.1c0.1-0.1-0.1-0.1,0.1-0.1c0.2,0,0.1,0.1,0.2,0.3c-0.1-0.2,0.2-0.1,0.3,0
		l0.4,0.1c0,0.3-0.1,0.1,0.1,0.2c0.1,0,0.1,0,0.1,0c0,0.1,0,0.1-0.1,0.1c-0.3-0.1-0.1-0.1-0.4,0.1l-0.1,0c0,0,0,0,0,0l-0.1,0
		c0,0,0,0,0,0c-0.2,0-0.1,0.1-0.3,0.1l0.1,0.2c0,0.1,0,0,0,0.2c-0.2-0.1,0,0-0.2,0l-0.6,0.1c-0.1,0-0.1,0-0.2,0.1
		c-0.4,0.1-0.1-0.3-0.3,0c0.1,0,0-0.1,0.1,0.1l0.2,0.3c0.1,0.1,0.1,0.1,0.1,0.2L9.7,19c0,0,0,0,0,0l0.6,0.6c0,0,0.1,0.1,0.1,0.2
		l0.2,0.1c0.1,0.1,0.2,0.2,0.3,0.3c0.1,0.1,0,0,0.2,0.1c0.1,0.1,0.1,0,0.1,0.1c0.2,0,0.1,0,0.3,0c0.2,0.3-0.1,0.1,0.2,0.2
		c0.1,0,0,0,0.2,0c0,0,0.1,0,0.2-0.1l1-0.3C13.5,20.1,16.5,19,16.9,18.9z M4,22.1l1.1-0.2L5.2,22c0.1,0.1,0.2,0,0.6,0.1l0,0.1
		l1.5-0.1c0.4,0,0.4-0.1,0.5,0.1c0.4-0.1,0.7-0.2,1.1-0.4c0.3-0.1,0.7-0.2,1-0.4c0.3-0.1,1.8-0.6,2-0.7c-0.2-0.1,0.1,0.1-0.2-0.2
		c-0.2,0-0.1,0-0.3,0c-0.1-0.1,0-0.1-0.1-0.1c-0.1-0.1-0.1,0-0.2-0.1c-0.1-0.1-0.2-0.2-0.3-0.3l-0.2-0.1c-0.1-0.1-0.1-0.1-0.1-0.2
		L9.7,19c0,0,0,0,0,0l-0.3-0.3c-0.1-0.1-0.1-0.1-0.1-0.2L9,18.3c-0.1-0.1,0.1,0-0.1-0.1c0.2-0.3-0.1,0.1,0.3,0c0.1,0,0.1,0,0.2-0.1
		L10,18c0.2-0.1,0-0.1,0.2,0c0-0.2,0-0.1,0-0.2l-0.1-0.2c0.2,0,0.1,0,0.3-0.1c0,0,0,0,0,0l0.1,0c0,0,0,0,0,0l0.1,0
		c0.4-0.2,0.2-0.2,0.4-0.1c0-0.1,0,0,0.1-0.1c0,0-0.1,0.1-0.1,0c-0.1-0.1-0.1,0.1-0.1-0.2l-0.4-0.1c-0.1,0-0.3-0.2-0.3,0
		c0-0.1,0-0.3-0.2-0.3c-0.2,0,0-0.1-0.1,0.1l0,0.1c-0.1,0.1,0,0-0.1,0.1l-0.6,0.2c-0.2,0.1-0.2,0-0.4,0c0,0,0,0,0,0c0,0-0.1,0-0.1,0
		c-0.7,0.2-0.4,0-1.1,0.3c-0.1,0.1-0.7,0.1-0.9,0.1c-0.1,0.1-0.6,0.1-0.7,0.1c0,0,0,0-0.1,0.1c-0.1,0,0,0-0.1,0c-0.1,0-0.2,0-0.2,0
		c-0.1,0-0.2,0-0.3,0c-0.4,0-0.1,0.1-0.7,0.1c-0.1,0-0.2,0.1-0.3,0.1c0.1,0.1,0,0,0.1,0.1c0,0,0,0,0,0c0,0,0,0,0,0
		c0.2,0,0.2,0,0.4-0.1l0.5-0.1c0.2,0,0.3,0,0.5-0.1C6,18.1,6,18,6.2,18.2c0-0.1,0-0.1,0.1-0.2l0.3,0.2c0.2-0.3-0.2,0,0.1-0.1
		c0.1,0,0.2-0.1,0.3,0c0.2,0.1,0-0.1,0.1,0.1c-0.3,0-0.3,0-0.6,0.1c-0.2,0-0.2,0-0.4,0l-0.4,0.2c0.3,0.1,0,0,0.1,0.2
		c0.3,0,0.5-0.2,0.7,0c-0.3,0.1-0.8,0.2-1.1,0.2c-0.1-0.1,0.1-0.1-0.2-0.1l-0.3,0.1l0.3,0c0,0.1-0.2,0.1-0.3,0.2
		c-0.4,0.1-0.4,0.2-0.6,0c-0.2,0.2,0,0.1-0.2,0.1c-0.5-0.1-0.2-0.2-0.3,0.1l-0.1,0.1c-0.1-0.1,0-0.1,0-0.3l-0.1,0c-0.1,0,0,0-0.1,0
		c-0.1,0-0.1,0-0.2,0c0.1,0.1,0.1,0.1,0.2,0.2c-0.1,0.1-0.7,0.2-0.8,0.2c-0.1-0.1,0.1,0-0.1,0c0,0-0.2,0-0.2,0
		c0.1,0.1,0.1,0,0.1,0.1l-0.3-0.1c0.1,0.3,0.1,0.1-0.2,0.2L1.3,20c-0.2,0.1-0.2,0-0.3,0.2c0.5,0,0.1-0.2,0.6,0
		c0.2,0.1,2.1-0.4,2.7-0.4c0.3,0,0.5,0,0.7-0.1c0.2-0.1,1.3-0.3,1.4-0.2c-0.2,0-0.5,0-0.7,0.1c-0.2,0.1-0.4,0.1-0.7,0.1L3.7,20
		c-0.4,0.1-2.5,0.5-2.6,0.6c0.1,0,0.1,0,0.2,0c0.3-0.1,0.3-0.1,0.7-0.2c0.2,0,0.3,0,0.5-0.1c0.6-0.2,0.4-0.1,0.5,0l-0.6,0.2
		c0.1,0.1,0.1,0,0.1,0c0,0,0,0,0,0l0.1,0c0.4-0.1,0.4-0.1,0.6-0.1c0.1-0.1,0.1-0.1,0.3-0.1c0.3,0,0.1,0,0.3-0.1
		c0.2-0.1,0.5-0.1,0.6-0.1l0,0.1l0.8-0.1c-0.1,0.1,0,0-0.1,0.1l-0.1,0.1c0,0,0,0,0,0L5,20.4c0,0,0,0,0,0c-0.1-0.2-0.4,0-0.5,0.1
		l-0.6,0.2c-0.2,0-1,0.2-1.3,0.2L2.2,21c-0.2,0.1-0.5,0.1-0.7,0.3c0.1,0,0.3,0,0.5,0c0.1,0,0.1,0,0.2,0c0,0,0.1,0,0.1,0
		c0.1,0,0.1,0,0.1,0c0,0,0,0,0,0L2,21.5c-0.1,0-0.1,0-0.1,0.1c0.1,0.1,0.6-0.1,0.8-0.1c0,0.1,0,0,0,0.1c0,0,0,0,0,0l0,0.1
		c0.2,0,0.3,0,0.5-0.1c0.5-0.1,0.2,0.1,0.5,0.1c0.2,0,0.9-0.1,1.2-0.2c0.2,0,2-0.2,2.3-0.3c-0.1,0.1-2.9,0.5-3.3,0.5
		c-0.1,0-0.2,0-0.3,0l-0.1,0c0,0,0,0,0,0c-0.1,0.1,0,0-0.1,0.1c0.1,0,0.4,0,0.5,0c0.2,0,0.4-0.1,0.6-0.1c-0.1,0.1-0.1,0-0.3,0.1
		c-0.2,0-0.2,0.1-0.4,0.1c-0.1,0-0.3,0-0.4,0.1c-0.1,0.1,0.1,0-0.1,0.1c0,0,0,0,0,0C3.6,22.2,3.8,22.1,4,22.1z M43.5,9.4
		c0-0.4,0-0.3,0.2-0.5l-0.4-0.2l0.4-0.3l-0.4,0c0.1-0.1,0.2-0.2,0.2-0.3c-0.3,0-0.2,0-0.4,0.1c0.1-0.2,0.2-0.2,0.4-0.3l-0.1,0
		c-0.1,0-0.1,0-0.1,0c-0.4,0-0.8,0.3-1.1,0.3l-0.1,0c0,0,0,0,0,0c-0.2,0.1,0,0.1-0.3,0.1c-0.2,0,0,0.1-0.2,0.1
		c0.1-0.2,0.1-0.1,0.2-0.3c0-0.1-0.1-0.1-0.1-0.2l-0.1,0l-0.5,0.5c-0.2,0.2-0.2,0.4-0.5,0.5c0-0.4,0-0.1,0.1-0.5
		c-0.1,0.1-0.1,0.2-0.3,0.2c-0.3,0.2-0.6,0.6-0.8,0.7c0,0,0,0,0,0l0-0.1c0,0,0.1-0.1,0.1-0.1l-0.1-0.1c0.1-0.2,0.2-0.3,0.4-0.4
		c0.1,0,0,0,0.1-0.1L40,8.3c-0.2,0-0.5,0.4-0.6,0.5c-0.2-0.1,0-0.2-0.3-0.1c0.1-0.2,0.4-0.4,0.4-0.4c0,0,0,0,0,0l0.9-0.9
		c-0.1-0.2,0.1-0.1-0.1-0.1c-0.2,0.4-0.7,0.7-0.9,1c-0.1,0.1-0.2,0.3-0.4,0.3c-0.1-0.3,0.3-0.5,0.8-1.1c-0.6,0.3-0.2,0.2-0.5,0.4
		c-0.2,0.1-0.2,0.2-0.6,0.5c0-0.1,0.5-0.6,0.6-0.7c0.3-0.3,0.3-0.4,0.5-0.6c0.2-0.2,0.1,0,0.2-0.2c0-0.2,0,0-0.1-0.1l-0.1,0
		c-0.1,0-0.1,0.1-0.2,0.2c-0.2-0.1,0,0.1-0.1-0.1c-0.2-0.2,0,0,0-0.1c-0.1,0.2,0,0-0.1,0.2c-0.1,0.1-0.1,0.1-0.2,0.2
		C39.3,7.4,39,7.7,39,7.8c-0.2-0.1,0-0.1-0.2-0.1c-0.1,0.1-0.1,0.1-0.2,0.1c0.1-0.2,0.1-0.1,0.2-0.2c0,0,0,0,0.1-0.1c0,0,0,0,0-0.1
		C39,7.3,39.2,7.1,39.4,7l-0.1-0.1c0-0.1,0,0-0.1-0.1L39,7c0.1-0.4,0.1-0.1,0.3-0.4c-0.1,0.1-0.2,0.2-0.3,0.3
		C38.9,6.9,38.8,7,38.6,7c0.1-0.2,0,0,0.2-0.2c0.2-0.3-0.1,0.1,0-0.2c0.2-0.1,0.4-0.2,0.6-0.3c0.1-0.1,0.1-0.1,0.3-0.1
		c0.3-0.1,0.1,0,0.3-0.2c0.1-0.1,0.2-0.1,0.6-0.3c0.1-0.1,0.3-0.4,0.5-0.4c0,0.4-0.1,0.3-0.3,0.5c-0.1,0.1-0.1,0.1-0.2,0.2
		C40.5,6,40.4,6,40.4,6.2c0.1,0,0.1-0.1,0.2-0.1c0.1-0.1,0.2-0.3,0.3-0.3l0.3-0.4c0.2-0.2,0.3-0.3,0.5-0.4c0-0.1,0-0.1,0.1-0.2
		c0.1-0.1,0.1,0,0.1-0.2c-0.2-0.1-0.3,0.1-0.5,0.1L42,4.4c0.1,0,0,0,0.1,0c0.1-0.1,0.1-0.2,0.2-0.3c0,0,0,0-0.1,0c0,0-0.1,0-0.2,0
		l0.2-0.2c-0.2-0.1-0.1-0.1-0.2,0l-0.6,0.3c-0.2,0.1-0.7,0.3-0.8,0.3L41.5,4c0.1-0.1,0.8-0.5,0.8-0.7c-0.2,0-0.3,0.2-0.6,0.2
		c0.1-0.2,0.1,0,0.2-0.2c-0.4,0.1-0.4,0.2-0.7,0.2c-0.2,0-0.1-0.1-0.2,0.1l-0.1,0.1c-0.2,0.1-0.7,0-0.9,0.2l0.1,0.1
		C40.2,4.1,40.2,4,40,4.1c-0.3,0.2,0,0.1-0.2,0.2l-0.3,0.1c-0.4,0.2,0.2-0.2-0.2,0.1C39,4.9,39,4.8,38.6,5.1
		c-0.1,0.1-0.3,0.2-0.4,0.3c-0.4,0.2-0.3,0.2-0.5,0.4c0,0-0.1,0-0.1,0.1c-0.1,0-0.1,0.1-0.2,0.1L37,6.1c0,0,0,0-0.1,0l0,1.8
		c0,0,0,0,0,0l0,0c0.2,0.2,0.1,0.1,0.3,0.3l0.5,0.6c0,0.1,0,0.1,0.1,0.1c0,0,0,0,0,0L38,9.3c0,0,0,0,0,0c0,0,0,0,0,0
		c0.2,0.3,0.2,0.2,0.3,0.3l1,1.2l0.1,0c0.2-0.1,1.8-0.7,2-0.8C42.1,9.8,42.8,9.6,43.5,9.4z M34.8,5.1l0-0.2c0.1-0.1,0-0.1,0.3-0.2
		c0.1,0,0.2-0.1,0.4-0.1l0,0.2c0.1,0,0.1,0.1,0.1,0c0.1,0,0.2,0.1,0.1-0.1c0,0,0,0-0.1-0.2c0.1,0,0.2-0.1,0.3-0.2c0,0,0,0,0,0
		c0,0,0,0,0,0c0,0,0,0,0,0c0.3-0.1,0.1-0.1,0.7-0.1c0,0.1,0,0.1-0.1,0.1c0,0,0,0-0.1,0.1c0.2-0.1,0.2,0,0.5,0l0.2,0c0,0,0,0,0,0
		c0,0,0,0,0,0c0,0,0,0,0,0c0,0,0-0.1,0-0.2c0,0.1-0.1,0.1,0,0c0,0,0,0,0,0c0,0,0,0,0,0c0,0,0,0,0,0L37.2,4c0.1-0.1,0,0,0.2,0
		l0.4-0.2C38,3.6,38,3.7,38.2,3.6c0-0.2,0.2-0.1,0-0.2c0.1,0,0.1,0,0.2,0c0.2,0,0.1-0.1,0.4-0.1c-0.2,0.1-0.1,0.1-0.1,0.2
		c0,0,0,0,0,0.1c0.2,0,0,0.1,0.1-0.1c0.1-0.2,0-0.1,0-0.1l0,0c0-0.1,0.1,0,0-0.1c0.1,0.1-0.2,0.1,0.2,0.1c0.2,0,0.3-0.2,0.2-0.3
		c0,0.1-0.1,0.1,0.2,0.1c0.1,0,0.3-0.1,0.5-0.3L39.8,3C39.7,3,39.6,3,39.5,3.1L39.4,3c-0.1,0,0,0-0.1,0c0.1-0.1,0.1-0.1,0.1-0.2
		c0,0,0,0,0,0c0,0,0,0,0-0.1c0.3,0.1,0.2,0,0.4,0c0.4-0.1-0.1,0.2,0.3,0c0.1,0,0.5-0.2,0.6-0.3c-0.2,0.1-0.5,0.3-0.7,0.3
		c0.1-0.1,0-0.2,0.2-0.3l0-0.3c-0.1-0.1-0.3,0-0.4,0.1c-0.2,0.1-0.1,0.2-0.4,0.2c0.1-0.1,0.2-0.1,0.3-0.2c-0.1,0-0.3,0.1-0.4,0.1
		c-0.2,0.1-0.2,0.1-0.4,0.2c0.1-0.1,0.5-0.3,0.8-0.4C40,1.8,40,1.8,40.2,1.7c0.2,0,0.5-0.2,0.6-0.3c0.3-0.1,0.1-0.1,0.2-0.3
		c0.1-0.1,0.2-0.1,0.2-0.3l-0.8,0.4c0-0.1,0.5-0.4,0.6-0.5l0.4-0.3c-0.1,0-0.3,0.1-0.4,0.2c-0.1,0.1-0.3,0.1-0.4,0.2
		c-0.5,0.3-0.7,0.1-0.8,0.4c-0.4-0.2-0.3,0.2-1.2,0.4c-0.4,0.1-0.2,0.2-0.6,0.3l-0.6,0.2c0-0.2,0.3-0.2,0.6-0.4c0.2-0.1,1.9-0.9,2-1
		L39.6,1c-0.2,0.1-0.6,0.3-0.9,0.4L40,0.8c0.3-0.1,0.2-0.1,0.5-0.3c0.1-0.1,0.1,0,0.2-0.1l-0.3,0.1c-0.3,0.1-0.1,0.1-0.6,0.3
		c-0.4,0.1-1.5,0.6-1.7,0.6c-0.1,0.1-0.7,0.5-0.9,0.4c0,0,0,0,0,0l-0.1,0c0,0.1,0,0.1,0,0.2c-0.2,0-0.5,0.1-0.5,0.2c0,0,0,0,0,0
		c-0.1,0-0.2,0.1-0.4,0.1c-0.1,0.1,0,0.1-0.2,0.1c-0.2,0.1-0.1,0-0.2,0c0.1-0.3,0,0.1-0.1-0.3l-0.1,0l0,0.2c0,0.3-0.1,0.2-0.2,0.3
		c-0.1-0.1,0,0-0.1-0.1c0,0,0,0,0,0c0,0,0,0,0,0l0,0.1c-0.1,0.2,0,0.1-0.1,0.2c-0.2,0.1,0-0.2-0.2,0.2c0.4,0,0.3,0.2,0.3,0.3
		c-0.3-0.1,0,0-0.6,0.1c0.2-0.1,0.2-0.1,0.3-0.5c-0.2,0-0.1,0-0.2,0l-0.1,0.1c-0.1,0,0,0-0.1,0.1l-0.4,0.2C33.8,3.1,34,3,33.9,3.2
		l-0.1-0.2c-0.1-0.1,0-0.1-0.2-0.1l-0.3,0c0.1-0.1,0-0.1,0.1-0.2c-0.2,0-0.1,0-0.2,0.1C33.3,3,33.2,3,33.4,3
		c-0.1,0.1-0.2,0.1-0.2,0.3c0,0.1,0.1,0.2,0.2,0.4l0.1,0.1c0.1,0.1,0.2,0.1,0.2,0.3c0.1,0,0.1,0,0.2,0c-0.3,0.1-0.1,0-0.1,0.1
		l-0.2,0.4c0.4,0,0.2-0.1,0.5-0.1c0.1,0.2,0.1,0.1,0.2,0.4c0,0,0,0,0,0l0,0.1c0-0.1,0.1-0.1,0,0c-0.1,0.1-0.1,0.1-0.1,0.3
		c0.3,0,0.3,0,0.4-0.1L34.8,5.1z M40.2,6.6l0.2,0c0.1,0,0,0,0.2,0l-0.1,0.1C40.3,7,40.4,6.8,40.2,7c0-0.1,0-0.1,0-0.1
		c0.1-0.1,0,0.1,0.1-0.1c0,0,0,0,0,0l-0.1-0.1C40.2,6.7,40.2,6.8,40.2,6.6z M40.4,7.5c0.2,0,0.3-0.2,0.4-0.3
		c0.1-0.1,0.2-0.2,0.3-0.4l0.2-0.4c0.1-0.1,0.3-0.1,0.2-0.3c-0.1,0.1-0.2,0.1-0.3,0.2l-0.8,0.8c-0.1-0.2,0.3-0.4,0.6-0.9
		c0.1-0.1,0.2-0.4,0.3-0.5c0.2-0.1,0.3-0.1,0.4-0.4c-0.1,0.1-0.2,0.1-0.3,0.2l0.1-0.3c-0.2-0.3-0.2,0,0-0.4
		c-0.2,0.1-0.3,0.1-0.5,0.4l-0.3,0.4l0.1,0C41,5.6,41,5.7,41.2,5.5l0.2-0.2c0.1,0,0,0,0.1,0c0.1,0.2,0.1,0.1,0,0.3
		c0,0.1,0.2,0.1-0.1,0.2C41.2,6,41.2,5.8,41.1,6c-0.1,0.2-0.1,0.2-0.3,0.2c0-0.2,0-0.2-0.1-0.3c-0.1,0.3,0,0.1-0.2,0.2
		c0,0.2-0.3,0.4-0.4,0.5c-0.2,0,0,0-0.1-0.1l0-0.4c-0.2,0-0.1,0-0.2,0.1l-0.4,0.4c0.1,0-0.1,0.1,0,0c0,0,0-0.1,0.1-0.1
		c0.1-0.1,0.1-0.1,0.1-0.2c-0.2,0.1,0.1,0-0.3,0.2c-0.1,0.1-0.1,0-0.1,0.1c-0.1,0.2,0,0-0.1,0.2c0.1,0.1,0,0,0.1,0.1L39.4,7
		c-0.2,0.1-0.4,0.3-0.5,0.5c0,0,0,0,0,0.1c0,0.1,0,0-0.1,0.1c-0.1,0.1-0.1,0.1-0.2,0.2c0.1-0.1,0.1-0.1,0.2-0.1
		c0.1-0.1-0.1-0.1,0.2,0.1c0-0.1,0.3-0.4,0.4-0.4c0.1-0.1,0.2,0,0.2-0.2c0.1-0.2-0.1-0.1,0.1-0.2c0,0-0.1-0.1,0,0.1
		c0.1,0.1-0.1,0,0.1,0.1c0.1-0.1,0.1-0.2,0.2-0.2l0.1,0c0.1,0.1,0-0.1,0.1,0.1c-0.1,0.1,0,0-0.2,0.2c-0.2,0.2-0.2,0.3-0.5,0.6
		c-0.1,0.1-0.6,0.6-0.6,0.7c0.3-0.3,0.3-0.3,0.6-0.5c0.3-0.2,0-0.1,0.5-0.4c-0.5,0.6-1,0.7-0.8,1.1c0.2-0.1,0.3-0.2,0.4-0.3
		c0.2-0.3,0.8-0.6,0.9-1C40.5,7.4,40.3,7.4,40.4,7.5z M36,6.2l0,0.2c-0.2,0.1-0.1,0-0.3,0c-0.2,0.3,0.1,0.3-0.3,0.3
		c0-0.1,0,0.1,0-0.2C35.4,6.2,35.7,6.1,36,6.2z M36.3,6.8c0,0.4-0.1,0.6-0.5,0.5c-0.3-0.1-0.1,0-0.1-0.1c0.1-0.3,0-0.1,0.3-0.1
		l0.1-0.3L36.3,6.8z M36.8,6l-1.7-0.3l-0.2,1.8l1.7,0.3L36.8,6z M14.4,8.4C14.3,8.3,14.3,8.3,14.4,8.4c0.1-0.2,0-0.1,0.1-0.4
		c0,0-0.1,0,0,0.1c0,0,0.1,0.2,0.2-0.1c0.1-0.2-0.2-0.2,0-0.1c0.1-0.1,0.1,0.2,0.1-0.2c-0.1,0,0-0.1-0.1,0.1
		c-0.1-0.1-0.1-0.1-0.2-0.1c0,0.1,0,0,0,0.2c-0.2-0.1,0-0.1-0.2-0.1c0,0.1,0,0.1,0.1,0.2c0,0-0.1,0-0.2,0c-0.1,0,0,0-0.1,0L14,8
		c-0.6,0.4-0.2,0.2-0.2,0.3c-0.2,0.1-0.4,0.2-0.5,0.2c0.2,0,0.1,0,0.2-0.2c-0.1,0,0,0-0.2,0c-0.2,0-0.1,0-0.1,0.1
		c-0.2-0.1,0.1,0.1-0.1-0.1c-0.1-0.1,0.1,0-0.1-0.1c-0.1,0.1-0.1,0.1-0.1,0.1c0,0.1-0.1,0.2-0.1,0.2c-0.3,0-0.1,0-0.2-0.1l-0.1,0.1
		c0,0-0.1,0.2-0.2,0.4l-0.2-0.3c-0.3,0.1-0.2,0.2-0.4,0.3c-0.2,0.1-0.1,0-0.2,0.1c0,0-0.1,0-0.2,0c-0.1,0.1,0,0.1-0.2,0.1l-0.1,0
		c-0.4,0.1-0.4,0.2-0.5,0.2c-0.1,0.1-0.3,0-0.5,0.2c-0.3,0.2-0.1,0.1-0.3,0.1c-0.1,0-0.3,0.1-0.3,0.3c0.3-0.1-0.1-0.1,0.2-0.1
		c0.1,0-0.1,0,0.1,0c0.2,0,1-0.5,1.2-0.5c0.2-0.1,0.2-0.1,0.3-0.1L12,9.2c-0.1,0.1-1.7,0.8-1.9,1c0.1,0.1,0.1,0.1,0.3,0.1
		c0.2,0,0.4-0.1,0.7-0.3c0.6-0.2,0.3-0.1,0.6-0.3c0.2-0.1,0.1,0.1,0.2-0.2c0.2,0.1,0.2,0.1,0.5-0.1l0.2-0.2c0.5,0.1,0.1,0,0.6-0.2
		c0.4-0.2,0.5-0.1,0.5-0.3c0.1,0.2,0.1,0.1,0.5-0.1L14.4,8.4z M6.6,12.5C6.8,12.5,6.6,12.5,6.6,12.5c0.2,0,0.1,0,0.2-0.1L7,12.3
		c0,0,0,0,0,0l1-0.4c0.1-0.1,0.5-0.1,0.6-0.3c0,0,0-0.1,0.1-0.1c-0.1,0.1-0.1,0.1-0.3,0.1c0.1-0.1,0,0,0.2-0.1L9,11.2
		C9.2,11,9.2,11.2,9.2,11c-0.2,0-0.3,0.1-0.5,0.2c0,0,0,0,0,0c0,0,0,0,0,0c0-0.1,0-0.2,0.1-0.2c0,0,0,0,0,0c0,0,0,0,0,0l0.1,0
		C9,11,9,10.9,9.1,10.8l0.1-0.1c0.1,0,0,0,0.1,0c0.1-0.1,0.3-0.2,0.4-0.3c0,0.3,0,0.1,0.1,0.2c0-0.2,0.1-0.1,0-0.3
		c0.2,0,0.1,0,0.3-0.1c-0.2-0.3-0.2,0-0.7,0.2L9,10.6c0.1-0.2,0.1-0.1,0.1-0.3C9,10.3,9,10.3,8.9,10.4c-0.1,0.1-0.2,0.2-0.3,0.2
		c-0.1,0.1-0.1,0.3-0.3,0.3c-0.2,0,0,0-0.1,0c-0.2-0.2,0.1,0.1-0.1-0.1l-0.5,0.3c-0.3,0.2,0.2,0-0.5,0.3c-0.3,0.1-0.4,0.3-0.7,0.3
		c0,0-0.1,0-0.1,0L6.2,12c0.1,0,0.7-0.3,0.9-0.4c0.2-0.1,0.3-0.1,0.4-0.1l0.2-0.2c0.1-0.1,0.1,0,0.2-0.1c0.3,0.1-0.2-0.1,0.1,0.1
		c0.1,0,0.1-0.1,0.3,0c-0.1,0-0.2,0.1-0.3,0.1c-0.2-0.1,0,0-0.1-0.1l-0.1-0.1c-0.1,0.2-0.1,0.1,0,0.3c0.2-0.1,0.1-0.2,0.3-0.1
		c-0.1,0.1-0.1,0.1-0.4,0.2l-0.1,0.1c-0.3,0.2-0.2,0-0.4,0.2c-0.1,0.1,0,0-0.2,0.1c-0.3,0-0.2,0.1-0.4,0.1c0.2-0.2,0.3-0.1,0.1-0.4
		c-0.2,0.2,0.1,0.2-0.6,0.4c-0.1,0-0.3,0.1-0.4,0.2l-0.3,0.3c0.1,0.1-0.1,0.1,0.1,0l0.6-0.3c0.2-0.1,0.1-0.1,0.3-0.1L6.6,12.5z
		 M41.4,8c-0.1-0.2,0,0-0.1-0.1C41.2,8,41.1,8.1,41,8.2c0-0.3,0.3-0.4,0.6-0.7c0.1-0.1,0.1-0.1,0.2-0.4c-0.2,0.1-0.4,0.2-0.6,0.5
		l-0.5,0.5c-0.1,0.1,0,0.1-0.2,0.1c0.1-0.2,0.2-0.2,0.2-0.3c-0.1-0.1,0-0.1-0.1,0c-0.1,0.2,0.1,0,0,0.2c-0.1,0.1-0.1,0-0.2,0.2
		c0.1-0.1,0-0.1-0.1-0.2c-0.2,0.1,0,0-0.1,0.1c0,0,0,0.1-0.1,0.1C40,8.3,40,8.2,39.9,8.3C40,8.1,40.1,8.2,40.2,8L40.5,8l-0.2-0.2
		c0,0,0,0,0,0c0,0-0.1,0.1-0.1,0.1l-0.1,0.1C40,7.9,40,7.9,40,8c-0.1,0.1,0,0.1-0.1,0.1l-0.4,0.3c0,0,0,0,0,0c0,0-0.3,0.2-0.4,0.4
		c0.4-0.1,0.2-0.1,0.3,0.1c0.1-0.1,0.4-0.5,0.6-0.5l-0.2,0.3c-0.1,0.1,0,0-0.1,0.1c-0.1,0.1-0.3,0.2-0.4,0.4l0.1,0.1
		c0,0-0.1,0-0.1,0.1l0,0.1c0,0,0,0,0,0c0.2-0.1,0.6-0.5,0.8-0.7c0.1-0.1,0.2-0.1,0.3-0.2c-0.2,0.4-0.1,0.1-0.1,0.5
		c0.3-0.1,0.4-0.3,0.5-0.5L41.4,8z M10.1,17c-0.1,0-0.5,0-0.6,0c-0.7,0-0.3-0.2-0.9,0.1c-0.2,0.1,0.1-0.1-0.3,0
		c-0.2,0,0,0.1-0.4,0.1c-0.1,0,0,0-0.1,0c0.1-0.2,0.1,0.2,0.2-0.2l-0.3,0.1c-0.2,0-0.4,0.2-0.5,0.1c0-0.1,0,0,0.1-0.2c0,0,0,0,0,0
		c-0.1,0-0.1,0-0.2-0.1l0-0.1l-0.1,0.1c0,0,0,0,0,0c0-0.2,0,0-0.1-0.2c-0.2,0.2-0.1,0.1-0.4,0.1c-0.1,0.3-0.1,0.1,0,0.3
		c-0.2,0,0,0-0.2,0c0.1,0.1-0.1,0,0.1,0.1c-0.1,0,0,0-0.1,0.1l0.2,0c0.1,0.1,0.1-0.1,0,0.2c0.2-0.1,0.1-0.1,0.3-0.1
		c-0.2,0-0.1,0-0.2,0.2l0.3,0l-0.1,0.1c0.2-0.1,0.8-0.1,0.9-0.1c0.7-0.3,0.5-0.1,1.1-0.3c0,0,0.1,0,0.1,0c0,0,0,0,0,0
		c0.3,0,0.2,0.1,0.4,0l0.6-0.2C10,17.1,10,17.1,10.1,17z M17.9,6.6c-0.2,0-0.1-0.2-0.4-0.1c-0.1,0,0,0-0.2,0.1c0,0-0.2,0-0.2,0
		c-0.3,0.1-0.1,0.2-0.3,0.2c-0.2,0-0.3-0.1-0.4,0.2c0.5,0,0.2-0.3,0.8,0c0,0.4-0.2,0.2-0.5,0.3c-0.1,0-0.1,0.1-0.3,0.1
		c-0.2,0,0,0-0.3,0.1c-0.2,0.1-0.4,0-0.6,0.2c-0.1,0.1-0.1,0.1-0.3,0.1c-0.3,0.1-0.2,0-0.3,0.3c0.2,0,0.1,0,0.3-0.1
		c0.1,0,0.1,0,0.2,0c0,0,0,0,0,0c0,0,0,0,0,0l0-0.2c0.2,0,0.2,0,0.4-0.1l1-0.4c0,0,0,0,0,0l0,0.1c0,0.1,0,0,0,0.1
		c0.3-0.2,0.1,0,0.3-0.4l0.3,0c0,0.1,0.1,0.2,0.1,0.3c0.1,0.2,0.1,0.1,0.2,0.2l0.1-0.1c0-0.1,0-0.1-0.1-0.3
		c-0.1-0.2-0.4-0.7-0.4-0.9c0.4,0.2,0,0.1,0.2,0.1L17.9,6.6z M5.1,18.9C4.9,18.9,5,19,5.1,18.9c-0.1-0.1,0-0.2,0-0.2c0,0,0,0,0,0
		l0-0.1c0,0,0,0,0,0c0,0,0,0,0,0c-0.2-0.1,0,0.1-0.1-0.1c0.1-0.1,0,0,0.1,0c0.3-0.1,0.4,0.1,0.4-0.2c0-0.1,0-0.1-0.1-0.1
		c0,0,0,0,0,0l-0.2,0l-0.5,0.1l0.1,0.1c0.1,0.1,0.1,0.2-0.1,0.2c-0.2,0-0.2,0-0.3-0.1c0,0.1,0,0.3,0,0.1c-0.4-0.1-0.2,0-0.4,0.1
		c-0.1,0-0.1,0-0.2,0c-0.1,0.1,0.1,0.1-0.3,0.2c-0.1,0-0.3,0.1-0.4,0.1c0.2,0.2,0.3-0.1,0.6,0l-0.1,0.2c0,0,0,0,0,0l0.1,0
		c0,0.2,0,0.2,0,0.3l0.1-0.1c0.1-0.3-0.2-0.2,0.3-0.1c0.2,0,0,0.1,0.2-0.1c0.2,0.2,0.2,0.1,0.6,0c0.1,0,0.3-0.1,0.3-0.2L5.1,18.9z
		 M35.6,2.1l-2,0.8c0-0.1-0.1,0,0-0.3l-0.1,0c0.1,0.1-0.1,0,0.1,0.1c0,0,0-0.2-0.1,0l0.1,0.2c0-0.1,0,0-0.1-0.1
		c-0.1,0.1,0,0.1-0.1,0.2l0.3,0c0.2,0,0.1,0,0.2,0.1l0.1,0.2c0.1-0.2,0-0.1,0.2-0.1l0.4-0.2c0.1-0.1,0.1,0,0.1-0.1l0.1-0.1
		c0.1,0,0,0,0.2,0c-0.1,0.4-0.1,0.4-0.3,0.5c0.6-0.1,0.4-0.2,0.6-0.1c0-0.1,0.1-0.4-0.3-0.3c0.2-0.4,0-0.1,0.2-0.2
		c0.1-0.1,0,0.1,0.1-0.2l0-0.1c0,0,0,0.1,0,0c0,0,0,0,0,0c0.1,0.1,0,0,0.1,0.1c0.1-0.1,0.1-0.1,0.2-0.3L35.6,2.1z M6.1,17.2
		c0-0.2,0,0,0-0.1c0,0-0.1-0.1-0.1-0.1c-0.1-0.1-0.2,0-0.3,0c0-0.1-0.1,0,0-0.1l0-0.2c-0.3,0.1-0.2,0.1-0.5,0l0,0.1l0.3,0l0,0.1
		c0-0.2,0-0.1,0.1-0.2c0.2,0.2,0,0,0.1,0.2c0.1,0.2,0,0,0,0.1C5.4,17,5.5,17,5.2,17c0,0,0,0,0,0c-0.1,0.2-0.2,0.1-0.5,0.2
		c0.2,0.1,0.1,0,0,0.1c-0.1,0.1-0.4,0.1-0.4,0.1c-0.1,0-0.2,0-0.3,0.1c-0.1,0-0.2,0.1-0.2,0.2c0.2,0.1,0.1-0.1,0.5,0L4,17.8
		c0.2,0.2,0.2,0,0.5,0c0.5,0,0.2,0.1,0.5-0.1c0-0.1-0.1-0.1-0.1-0.2c0.3-0.1,0,0.1,0.3,0c0.2-0.1-0.1,0,0.1,0c0,0,0.2,0,0.2,0
		l0.1-0.1c0.1,0,0.2,0,0.3,0C6.3,17.2,6,17.2,6.1,17.2c-0.1,0-0.2-0.1-0.1-0.1L6.1,17.2C6,17.1,6.1,17.1,6.1,17.2z M10.1,17L10.1,17
		C10,16.8,10,17,10,16.8c0,0,0,0,0,0c0,0-0.1,0.1-0.2,0.1c-0.1,0,0.1,0-0.1,0c-0.2,0-0.1,0.1-0.3,0c-0.1-0.1,0.1,0-0.1-0.1
		c-0.1,0.1,0,0-0.1,0c0,0.1,0.1,0.1,0,0.2c-0.4,0-0.1,0-0.3-0.1l-0.1,0c-0.2-0.1-0.5,0.1-0.9,0.1l0-0.2c-0.2-0.1,0.1,0-0.1,0l-0.1,0
		c-0.1,0,0,0.1-0.1-0.1c0.1,0,0.2-0.1,0.3-0.1c-0.5,0-0.6,0.1-0.9,0.3c0.2,0,0.2,0,0.3,0c-0.3,0.1-0.1,0-0.2,0.2
		c0.1,0,0.4,0.1,0.4,0.2l0.3-0.1c-0.1,0.5-0.1,0.1-0.2,0.2c0.1,0,0,0,0.1,0c0.5-0.1,0.3-0.1,0.4-0.1c0.3-0.1,0,0.1,0.3,0
		c0.6-0.3,0.2-0.1,0.9-0.1C9.6,17,9.9,17,10.1,17z M39.2,6.8c0.1-0.2,0,0,0.1-0.2c0.1-0.1,0-0.1,0.1-0.1c0.4-0.2,0.1-0.2,0.3-0.2
		c0,0.1-0.1,0.1-0.1,0.2c0,0-0.1,0.1-0.1,0.1c-0.1,0.2,0,0,0,0L40,6.2c0.1-0.1,0,0,0.2-0.1l0,0.4c0,0-0.1,0,0.1,0.1
		c0.1-0.2,0.3-0.3,0.4-0.5c-0.1,0-0.1,0.1-0.2,0.1C40.4,6,40.5,6,40.5,6c0.1-0.1,0.1-0.1,0.2-0.2C40.9,5.6,41,5.6,41,5.3
		c-0.1,0-0.3,0.3-0.5,0.4C40.2,5.9,40,5.9,39.9,6c-0.2,0.1,0,0.1-0.3,0.2c-0.2,0-0.2,0-0.3,0.1c-0.2,0.1-0.4,0.2-0.6,0.3
		c-0.1,0.3,0.2-0.1,0,0.2c-0.1,0.2-0.1,0-0.2,0.2c0.2,0,0.2-0.1,0.4-0.2c0.1-0.1,0.2-0.2,0.3-0.3C39.1,6.9,39.1,6.5,39,7L39.2,6.8z
		 M5.2,18.3l0.2,0c0,0,0,0,0,0c0.1,0,0.1,0,0.1,0.1c0,0.3-0.1,0.1-0.4,0.2c-0.1,0,0,0-0.1,0c0.1,0.2-0.1,0,0.1,0.1c0,0,0,0,0,0
		c0,0,0,0,0,0l0,0.1c0,0,0,0,0,0c0,0-0.1,0.1-0.1,0.1c0.1,0.1-0.1,0,0.1,0.1l0.3-0.1c0.3,0,0.1,0,0.2,0.1c0.3-0.1,0.7-0.1,1.1-0.2
		c-0.1-0.1-0.4,0.1-0.7,0c-0.1-0.3,0.2-0.1-0.1-0.2l0.4-0.2c0.2-0.1,0.1,0,0.4,0c0.3,0,0.3-0.1,0.6-0.1C7,18,7.2,18.2,7,18.1
		c-0.1-0.1-0.2-0.1-0.3,0c-0.3,0.1,0.1-0.2-0.1,0.1L6.3,18c-0.1,0.1-0.2,0.1-0.1,0.2C6,18,6,18.1,5.7,18.2
		C5.5,18.2,5.4,18.2,5.2,18.3z M4.7,17.2c0.3-0.1,0.4,0,0.5-0.2c0,0,0,0,0,0c0.3,0,0.2,0,0.4,0c0-0.1,0,0,0-0.1
		c-0.1-0.2,0.1,0-0.1-0.2c-0.1,0.1-0.1,0.1-0.1,0.2l0-0.1l-0.3,0c-0.1,0.2,0,0.1-0.2,0.2c-0.2,0.1-0.1-0.1-0.1,0.2l-0.1-0.1
		c-0.1,0,0.1,0-0.1,0c-0.1,0-0.1,0.1-0.2,0.1l-0.1-0.1c0,0,0,0,0,0c0,0,0,0.1-0.1,0.2l-0.2,0.1L3.8,17C3.7,17,3.6,17,3.5,17.1
		c0.1,0.2,0,0,0.2,0.1l0.1,0.1c0.1,0,0,0,0.1,0c0.4,0.1,0.1,0,0.5,0C4.6,17.3,4.6,17.3,4.7,17.2z M9.1,13.4
		c-0.4-0.1-0.1,0.2-0.5,0.1c0.2-0.2,0.7-0.3,0.8-0.4c0.1-0.2,0,0,0-0.1c0,0,0.1,0,0,0c-0.1-0.1-0.5,0.2-0.8,0.3
		c-0.2,0.1-0.6,0.2-0.9,0.4l-0.1,0.3c0.3,0,0.4-0.1,0.6-0.2c-0.3,0.2-0.1,0.1-0.1,0.2c0.1-0.1,0.1-0.1,0.2-0.1c0.2,0,0.2,0,0.3-0.1
		C9,13.4,8.9,13.6,9.1,13.4z M8.7,15.5c-0.2-0.1-0.1,0-0.3,0l-0.2,0c-0.1,0,0.1,0-0.1,0c0,0.1,0,0.1-0.1,0.1c-0.1,0.1,0,0-0.1,0.1
		c0.4,0,0.1,0,0.2,0.1c0.1,0,0.1,0,0.1,0.1c0,0,0,0,0,0c0,0-0.1,0.1-0.3,0.2c-0.2,0-0.2,0-0.4,0.1l0.2,0c-0.2,0.1-0.2,0-0.3,0.2
		c0.2,0,0.6,0,0.8-0.2c0.1-0.1,0.1-0.1,0.2-0.2l0-0.2c0.3,0,0.1,0,0.3-0.2c0.1,0,0,0.1,0.2,0.2C9,15.7,9,15.8,9,15.6
		C8.6,15.6,8.7,15.6,8.7,15.5z M8.7,14.4c-0.1-0.2-0.1-0.1,0-0.2c0.1,0,0.1,0.2,0.3-0.1c0.1-0.1,0.1,0,0.2,0c0.2-0.1,0,0.1,0.2-0.1
		c-0.4-0.2-0.4,0.1-0.8,0.1c-0.1,0-0.3,0.1-0.5,0.2c0,0,0,0,0,0c0,0,0,0,0,0c0,0,0,0,0,0l-0.3,0.1c0.1,0.1,0,0.1,0.1,0.1
		c0.1,0,0.1,0,0.2,0c-0.1,0.2,0,0.1-0.1,0.2c0,0,0,0,0,0c-0.2,0.1-0.3,0.1-0.4,0.3c0.2,0,0.8-0.3,0.9-0.4c0.2-0.1,0.1-0.1,0.3,0
		C8.7,14.5,8.8,14.6,8.7,14.4z M41,7.4c-0.1,0.1-0.1,0.1-0.2,0.3c0.3,0,0.2,0,0.3-0.2L41.6,7c0.1,0,0,0,0.1-0.1c0,0,0.1-0.1,0.1-0.1
		c0-0.1,0-0.1-0.1-0.1c0.1-0.1,0.1-0.2,0.2-0.3c-0.2,0-0.1,0-0.4,0.3l-0.2,0.2c-0.4,0.6-0.1,0.1-0.4,0.4c-0.2,0.2,0,0.1-0.2,0.1
		c-0.1,0,0-0.1-0.1,0c-0.1,0.1-0.1,0.2-0.2,0.3l0.2,0C40.9,7.6,40.7,7.5,41,7.4z M40.2,2.4l0.2-0.1c0.2-0.1,0.1-0.2,0.3-0.4
		c0.1-0.1,0.2-0.1,0.2-0.2c0.3,0.1-0.1,0.1,0.1,0.1c0,0,0,0,0-0.1c0,0,0,0,0-0.2c-0.2,0-0.1,0-0.2-0.1c0.1,0,0.2,0,0.2-0.1
		c-0.1,0-0.2,0.1-0.2,0.1c-0.1,0.1-0.1,0.1-0.1,0.2c-0.1,0-0.1,0-0.2,0c-0.2,0,0,0-0.1,0c-0.1,0,0,0-0.1,0.1c-0.4,0.1-0.1,0-0.2-0.1
		C40,1.8,40,1.8,39.8,1.9c-0.3,0.2-0.7,0.3-0.8,0.4c0.2,0,0.2-0.1,0.4-0.2c0.1,0,0.3-0.1,0.4-0.1c-0.1,0.1-0.2,0.1-0.3,0.2
		c0.2,0,0.2-0.1,0.4-0.2c0.1,0,0.3-0.1,0.4-0.1L40.2,2.4z M3.3,20.4l0.5,0c-0.1,0.1-0.1,0-0.2,0.1c0.1,0,0.1,0,0.2,0
		c0.1,0,0.1,0,0.1,0l0.6-0.2c0.1-0.1,0.4-0.2,0.5-0.1c0,0,0,0,0,0l0.1-0.1c0,0,0,0,0,0l0.1-0.1c0.1-0.1,0,0,0.1-0.1l-0.8,0.1l0-0.1
		c-0.2,0-0.5,0.1-0.6,0.1c-0.3,0.1,0,0.1-0.3,0.1C3.4,20.3,3.4,20.3,3.3,20.4z M38,1.4c-0.3,0-0.5,0.1-0.6,0.1
		c-0.3,0.1,0-0.1-0.4,0.1c0,0-0.2,0-0.2,0.1c-0.1,0-0.3,0.1-0.4,0l0.1,0.2c0,0,0,0,0,0c0,0-0.1,0-0.2,0c-0.2,0.1,0-0.1-0.1,0.1
		C36.2,2.1,36,2,36.3,2.1c0.2,0,0,0,0.1,0c0.1,0,0-0.1,0.1,0c0,0,0,0,0,0c0,0,0.4-0.2,0.5-0.2c0-0.1,0-0.1,0-0.2l0.1,0c0,0,0,0,0,0
		C37.4,1.9,38,1.5,38,1.4z M5.8,22.2l0-0.1C5.4,22,5.3,22.2,5.2,22l-0.1-0.1L4,22.1c0.2,0.1,0,0,0.1,0.1l0,0.1c0,0,0,0,0,0
		c0,0,0,0,0,0l0.8-0.1C5.1,22.2,5.3,22.3,5.8,22.2C5.7,22.2,5.7,22.2,5.8,22.2C5.7,22.2,5.8,22.2,5.8,22.2z M18.6,6.3
		C18.6,6.1,18.6,6.2,18.6,6.3l-0.4,0.1l0.1,0.1c0,0,0,0,0,0c0,0,0,0,0,0c0,0,0,0,0,0c0.2,0,0.2-0.1,0.2,0.1c0,0.1-0.1,0.2-0.1,0.2
		C18.1,7,18.1,6.7,17.9,7c0.2,0.3,0.4,0.1,0.7,0.1c0.1,0,0.1,0,0.2,0c-0.1-0.1-0.1,0-0.3,0C18.7,6.7,18.8,6.6,18.6,6.3L18.6,6.3z
		 M5.2,14.3c0,0,0.1,0,0.2,0l-0.1-0.5c-0.1,0.1-0.2,0-0.3,0.1c-0.1,0.1,0,0-0.1,0.1c-0.4,0.2,0,0.1-0.3,0.3
		c-0.1,0.1-0.1,0.1-0.2,0.2l0.3-0.1c-0.1,0.1-0.1,0.1-0.1,0.2L5.2,14.3z M40.9,5.7c-0.1,0.1-0.2,0.2-0.3,0.3
		c0.2-0.1,0.2,0.1,0.2-0.2c0.1,0.1,0,0.1,0.1,0.3c0.2,0,0.3,0,0.3-0.2c0.1-0.3,0.1-0.1,0.2-0.2c0.2-0.1,0-0.1,0.1-0.2
		c0.1-0.2,0.1-0.1,0-0.3c-0.1,0,0,0-0.1,0l-0.2,0.2C41,5.7,41,5.6,41,5.8L40.9,5.7z M4.4,18.4C4.4,18.4,4.4,18.4,4.4,18.4
		C4.4,18.4,4.3,18.3,4.4,18.4c-0.1-0.2,0-0.1-0.1-0.2c-0.2,0-0.4,0.2-0.6,0.1c0.2-0.1,0.4-0.1,0.6-0.2c-0.1,0-0.7,0.1-0.9,0.2
		c0,0,0,0,0,0l0.1,0c0.2,0,0.1-0.1,0.2,0.1c-0.1,0.1-0.2,0.1-0.3,0.1l-0.3,0.1c0.2,0.3,0.4,0,0.7,0C3.9,18.6,4.1,18.5,4.4,18.4z
		 M15.5,7.4l-0.2,0c-0.1,0.1-0.1,0.1-0.1,0.2c-0.2-0.1-0.1-0.3-0.3,0l0.2,0.1c-0.1,0.1,0,0-0.1,0.1c0,0-0.1,0-0.1,0
		c0,0.2-0.2,0.1,0.1,0.1c-0.2-0.1-0.1,0-0.2,0.2c0.8-0.1,0.3-0.3,0.8-0.5c0.3-0.1,0.2,0,0.3-0.2c-0.5,0.1-0.1,0.1-0.5,0.2L15.5,7.4z
		 M6.9,16.6l0-0.2c-0.2,0-0.3,0-0.3,0.2c-0.3-0.1-0.2-0.1-0.5-0.2l-0.3,0.1l0,0.3c0,0,0,0,0,0h0.2c0.1-0.1,0,0,0.1-0.3l0,0.1
		c0.1,0.1-0.1,0.1,0.5,0C6.7,16.6,6.6,16.5,6.9,16.6z M36.4,4.4C36.4,4.4,36.4,4.4,36.4,4.4c0.1-0.1,0.1-0.1,0.1-0.2
		c-0.6,0-0.4,0-0.7,0.1c0,0,0,0,0,0c0,0,0,0,0,0c0,0,0,0,0,0c-0.1,0.1-0.2,0.1-0.3,0.2c0,0.2,0.1,0.2,0.1,0.2l0.3-0.1
		c0.1-0.1,0.1,0,0.1-0.3c0,0,0,0,0,0c0.1-0.1,0,0.1,0.2,0.1C36.4,4.5,36.1,4.5,36.4,4.4z M6.1,17.8c0.1,0,0.5-0.1,0.7-0.1l0.1-0.1
		l-0.3,0c0.1-0.2-0.1-0.2,0.2-0.2c-0.2,0-0.1,0-0.3,0.1c-0.3,0,0.1,0.1-0.3,0.1c0,0,0-0.1,0-0.1l-0.1,0c0,0.2,0,0.2,0,0.3L6.1,17.8z
		 M6.1,17.8l-0.2,0.1c0-0.2,0-0.2,0-0.3l-0.2,0l0.1-0.2c-0.2,0.1-0.1-0.1-0.5,0.1l-0.1,0.1c0,0.1,0,0.1,0.1,0.1c0.1,0,0.1,0,0.2,0
		c0,0.2,0,0.2,0.1,0.3c0.1,0,0.2,0,0.2,0C5.9,17.9,5.9,17.9,6.1,17.8C6,17.9,6,17.9,6.1,17.8 M9.5,14.8c-0.1,0-0.1-0.1-0.1,0.2
		c-0.4-0.2-0.3,0.1-0.5,0.2c-0.2,0.1,0,0-0.3,0l0,0.2c0.3,0,0.5-0.3,0.7-0.2c-0.1,0.1-0.1,0.1-0.2,0.1l-0.1,0.2
		c0.3,0,0.2-0.1,0.3-0.2l0-0.1c0,0,0,0,0,0c0,0,0,0,0,0C9.6,15,9.5,14.9,9.5,14.8z M36,6.2c-0.4-0.1-0.6-0.1-0.6,0.3
		c0,0.2,0,0.1,0,0.2c0.3,0,0.1,0,0.3-0.3c0.2,0,0.1,0,0.3,0L36,6.2z M6.3,14.8c-0.1,0.1-0.1,0.2-0.1,0.3c-0.2,0-0.2,0-0.3,0l0,0.2
		c0.4,0.1,0.6,0,0.6-0.3C6.5,14.8,6.5,14.8,6.3,14.8z M36.3,6.8l-0.2,0L36,7.1c-0.3,0-0.2-0.2-0.3,0.1c0.1,0.1-0.1,0,0.1,0.1
		C36.2,7.4,36.3,7.2,36.3,6.8z M27.9,11.7l0.3,0l0-0.2c-0.3-0.1-0.5-0.1-0.6,0.2c-0.1,0.3,0,0.2,0.1,0.3c0.1,0,0.1,0,0.1-0.1
		C27.9,11.9,27.9,11.8,27.9,11.7z M14.5,9.6c-0.1,0-0.1,0-0.1,0.1C14.3,9.9,14.5,10,14,9.9l0,0.2c0.2,0.1,0.5,0.1,0.6-0.2
		C14.6,9.6,14.6,9.7,14.5,9.6z M14,9.2c0,0,0.2,0,0.2,0c0.1,0,0.1,0,0.1-0.1C14.3,9,14.4,9,14.1,9c-0.3-0.1-0.4,0.2-0.4,0.5l0.2,0
		L14,9.2z M20.6,5.8l0-0.1l-0.5,0.2C19.9,6,20,6,19.8,6l0.1,0.1C20.1,6.1,20,6,20.2,6l0.2,0.3c0.3-0.2,0.1-0.3,0-0.5c0,0,0,0,0,0
		C20.4,5.8,20.4,5.9,20.6,5.8C20.6,5.8,20.6,5.8,20.6,5.8C20.6,5.8,20.6,5.8,20.6,5.8z M28.4,12.1c-0.2,0.1-0.1,0.2-0.2,0.3
		c-0.1,0.1-0.2-0.1-0.3,0.1c0,0.1-0.1,0.1,0.2,0.2c0.2,0,0.3-0.1,0.4-0.3C28.6,12.1,28.5,12.2,28.4,12.1z M19.7,6
		C19.7,6,19.6,6.1,19.7,6C19.6,6,19.6,6.1,19.7,6l-0.2,0c-0.2,0-0.1-0.1-0.3,0.1c-0.1,0.1-0.1,0-0.1,0.2c0.2,0.1,0.1,0,0.1,0.1
		c0.1,0.1-0.1,0,0.1,0.1C19.5,6.4,19.6,6.3,19.7,6z M36.1,2.2c-0.1-0.4-0.3-0.3-0.5-0.1c0.1,0.4,0.2,0,0.1,0.3c0.1,0,0,0,0.2,0
		C36.1,2.3,36,2.3,36.1,2.2z M7.9,15.9c-0.1-0.1,0,0-0.1-0.1c0-0.1,0,0,0-0.1l-0.5,0L7.2,16c0.2,0,0.2-0.1,0.4-0.1l0,0.1l0.2,0
		L7.9,15.9z M35.4,4.8l0-0.2c-0.1,0-0.2,0-0.4,0.1c-0.2,0.1-0.2,0.1-0.3,0.2l0,0.2C35,5,35.2,4.8,35.4,4.8z M10.6,13.7l0.1,0l0,0.1
		c0.2-0.1,0.1,0,0.4,0c0.1-0.1,0.1-0.1,0.1-0.2l0-0.2c-0.1,0-0.1,0.1-0.2,0.1C10.6,13.6,10.7,13.5,10.6,13.7z M6.3,17.5
		c0.1-0.3,0-0.1,0-0.2l-0.2,0c-0.1,0.1-0.2,0.1-0.3,0.1l-0.1,0.2l0.2,0l0.1,0c0,0.1,0,0.1,0,0.1C6.4,17.6,6,17.6,6.3,17.5z
		 M40.2,6.6c0,0.2,0.1,0.1-0.1,0.1l0.1,0.1c0,0,0,0,0,0c-0.1,0.2,0,0-0.1,0.1c0,0,0,0,0,0.1c0.3-0.3,0.1,0,0.3-0.3l0.1-0.1
		c-0.2,0-0.1,0-0.2,0L40.2,6.6z M17,7.8c-0.2-0.1,0-0.1-0.2,0C16.7,8,17,8.2,17,7.8z"/>
	<path class="st2" d="M28.1,6.9C28,7.1,28,7,27.7,6.9l-0.1,0.3c0.2,0,0.1,0,0.3-0.1c0.3-0.1,0.2,0,0.3,0.1c-0.1,0.2,0,0-0.2,0.1
		l-0.6,0.1c-0.4,0.2-0.4,0.1-0.8,0.2c0,0,0.1-0.1,0.2-0.1c0.1-0.1,0.1,0,0.1-0.2c-0.3-0.1-0.9,0.1-1.2,0.2l0,0.1c0,0,0,0,0,0
		c0,0,0,0.1,0,0.1c-0.4-0.1,0.1,0-0.2-0.2c-0.1,0.1-0.4,0.1-0.6,0.2c-0.1,0-0.2,0-0.3,0.1c-0.1,0,0,0-0.2,0.1c-0.1,0,0,0-0.1,0
		l-0.6,0.1c-0.2,0-0.5,0.1-0.6,0.1c0,0,0-0.1,0.1,0c0.1,0.1,0,0,0,0.1c-0.2,0-0.2-0.1-0.4,0l-1.1,0.3c-0.2,0-0.3,0-0.4,0.1
		c-0.1,0-0.2,0.1-0.3,0.1c-0.1,0.1-0.2,0.1-0.4,0.1c-0.2,0.1-0.1,0.1-0.3,0l-0.1-0.1c0.1,0,0.2-0.1,0.4-0.1c0.4-0.1,0.9-0.3,1.2-0.4
		c-0.1-0.1-0.1-0.1-0.1-0.1c-0.1,0,0,0-0.1,0.1c-0.2,0.1-0.2-0.1-0.4,0.1l-0.6,0.3c-0.1,0-0.2,0-0.2-0.1c0.1,0,0.2,0,0.3-0.1
		c-0.2,0-0.3,0-0.4,0.2c0,0.1,0.2-0.1,0,0c-0.1,0-0.2-0.1-0.2-0.1c0.2,0,0.3-0.2,0.4-0.2c0,0,0,0,0,0c0.1,0,0,0.1,0.1,0
		c0.2-0.2,0-0.2,0-0.2c-0.3,0,0,0-0.2,0.1c0,0,0,0,0,0l-0.2,0.1c-0.1-0.1,0-0.2-0.1-0.3c-0.6,0,0,0.3-0.5,0.4l-0.4,0.1
		c0.1,0.2,0.1,0,0.2,0.3c0,0,0,0,0,0C19,8.9,19.4,9,18.9,9l0.2-0.1c-0.1,0-0.1,0-0.1,0c0,0,0,0,0,0c0,0,0,0,0,0
		c-0.2,0.1-0.2,0.1-0.4,0.1l0,0.1c0,0.2-0.2,0.2-0.3,0.2c0.2,0.3,0.6-0.1,0.7-0.2c0.1,0,0.6-0.2,0.8-0.2C19.6,9,19.6,9,19.4,9.1
		l-0.2,0c-0.4,0.1-1.7,0.5-1.8,0.8c-0.2-0.1-0.1-0.1-0.4,0c-0.1,0-0.2,0.1-0.2,0.1c-0.3,0.2-0.6,0.1-0.8,0.3
		c-0.2,0.2-0.4,0.2-0.6,0.3c0.2-0.2,0.1-0.1,0.2-0.4c-0.3,0-0.1,0-0.3,0.1c-0.1,0-0.1,0-0.1,0.1c-0.1,0,0,0-0.1,0.1
		c0,0.3-0.1,0.2,0.1,0.3c-0.2,0-0.2,0.1-0.2,0.2c-0.1,0.3-0.1,0.2-0.4,0.1c0.1-0.2,0.1-0.1,0.1-0.3l-0.2,0c-0.1,0-0.1,0-0.1,0.1
		c-0.2-0.2,0.2,0.2-0.1-0.1l-0.1-0.1l-0.9,0.6c-0.2,0.1-0.2,0-0.5,0.4c0.2,0.1,0.2,0.1,0.3,0c0,0,0.1-0.2,0.1-0.2
		c0.3,0.1,0.2,0.2,0,0.3c0.2-0.1,0.1-0.1,0.4-0.1c0,0.1-0.1,0.2-0.1,0.3c-0.1,0.1,0,0-0.2,0.1l-0.2,0.1c0,0,0,0,0,0l-0.2,0
		c0.1,0.1,0.3,0,0.3,0c0.1-0.1,0.2-0.1,0.2,0c0,0.2,0,0.1,0,0c0-0.1,0.2-0.1,0.2-0.1c-0.1,0-0.1,0-0.1-0.2l0.2-0.2
		c0.1-0.1,0.1,0,0.2-0.1c0.1,0.2,0.5,0.6,0.7,0.8l1,1.2c0.1,0.1,0,0,0.1,0.1c0.1,0.1,0.3,0.4,0.4,0.4c-0.2,0.1-0.3,0.1-0.3,0.5
		l0.1,0.3c0.4,0.1,0.2,0.1,0.3-0.2c0.1-0.2,0.1-0.1,0.3-0.1c0-0.1,0,0,0-0.2c0-0.3,0.4-0.2,0.5-0.3l0.1-0.1c0.1-0.1,0.2-0.1,0.4-0.2
		c0.1-0.1,0.1-0.1,0.2-0.1l1.8-1.1c0.3-0.1,0.5-0.3,0.8-0.5l1-0.6c0.2-0.1,0.4-0.3,0.6-0.4c0.1,0,0.1,0,0.1,0
		c0.2-0.2,0.5-0.4,0.7-0.5l0.2-0.2c0.2-0.2,0.2-0.1,0.3-0.3l0-0.1c0.1,0.2,0.3,0.3,0.6,0.3c0.2-0.1,0.1,0,0.2-0.2l0,0
		c0.1-0.6,0.1-0.5-0.1-0.6c0.1-0.1,0.1-0.1,0.2-0.1c0.2-0.1,0.3,0,0.4-0.1c0,0,0,0,0,0c0.1,0,0,0,0.1,0l1.7-0.4c0,0,0.1,0,0.2-0.1
		l0.1,0c0,0,0,0,0,0l0.1,0c0,0,0,0,0,0c0.1,0,0.1,0,0.2-0.1l1-0.3c0.2,0,0.5-0.1,0.7-0.2c0,0,0,0,0.1,0c0.1,0,0,0,0.1,0l0.7-0.1
		c0.1,0,0.1,0,0.2,0c0,0,0.1,0,0.1,0c0,0,0,0,0,0l0.1,0c-0.2-0.1-0.1,0-0.1-0.1l0.7-0.2c-0.2,0-0.7,0.1-1.1,0.1
		c-0.2,0-0.6,0.2-0.8-0.1c0.1,0,0,0,0.1,0c0.2,0,0.1-0.1,0.3-0.1c0.2,0,0.4-0.1,0.6-0.1c0.3-0.1,0.9-0.1,1.2-0.3l-0.4,0
		c0.1-0.1,0.2-0.1,0.2-0.1c-0.2,0-0.4,0.1-0.6,0.1c-0.3,0-0.6-0.1-1,0c-0.2,0.1-0.7,0.2-0.9,0.2C28.5,7,28.3,7,28.8,6.9
		c0.1,0,0.3,0,0.4-0.1c0.3-0.1,0.6-0.1,0.9-0.2l0-0.2c-0.2,0.1,0,0.1-0.1,0.2c-0.1,0.1-0.1,0-0.2,0c-0.3-0.2-0.1,0.1-0.5,0
		C29,6.6,28.2,6.7,28.1,6.9"/>
	<path class="st3" d="M6.8,15.2c0.3,0,0.3-0.1,0.6-0.3L8,14.5c0.1-0.1,0.1,0,0.1-0.1l0.2,0.2c0.1,0.1,0.4,0.6,0.6,0.7
		c-0.2,0.1-0.3,0.1-0.4,0.4c0.2,0,0.4,0,0.5-0.2c0.1,0.1,0.1,0.2,0.2,0.3c0.1,0,0.2,0,0.3,0c0-0.2,0.1-0.3,0.3-0.3l0.1,0.1
		c0.1,0.1,0.1,0.2,0,0.3c0.1,0,0.1,0,0.2,0c0.1,0,0.1,0,0.2,0l0,0c0.1-0.1,0.2-0.1,0.2-0.3c0.2,0,0.3,0,0.3-0.2
		c-0.4-0.1-0.4,0.2-0.7,0c0-0.1,0.2-0.2,0.3-0.3c0.3-0.3,0.3-0.1,0.3-0.6c-0.3,0-0.1-0.2-0.2,0.2c-0.1-0.2,0.4-0.3,0.4-0.5
		c0-0.1,0-0.2,0.2-0.2l0.2,0c0,0,0,0,0,0c0,0.3,0.1,0.2,0.1,0.4l0,0c0.1,0,0,0,0.1-0.1c0.1,0,0.1,0,0.2,0.1l0,0.2c0,0,0,0,0,0.1
		c0.2-0.1,0.4-0.2,0.5-0.4c0,0,0,0,0,0c0,0.1-0.3-0.2-0.3-0.2l-0.1-0.1l0.2-0.2c0.1-0.1,0.1-0.1,0.3-0.1l0.2,0.3c0-0.3,0-0.1,0-0.3
		c0-0.2,0.2-0.4,0.4-0.4c0,0,0,0.1,0,0.2c0,0,0,0.1-0.1,0.1c-0.2,0.2,0.2,0-0.1,0c0,0-0.1,0-0.2,0c0,0.1,0,0.1,0,0.2
		c-0.2,0.1-0.3,0.1-0.3,0.4c0.3,0,0.1,0,0.2,0c0,0,0,0,0,0l0.5-0.5c0-0.1,0-0.1,0.1-0.1l0.1,0.1c0.1,0-0.1,0,0.1,0
		c0.2,0,0.2-0.2,0.2-0.3c0-0.1,0.3-0.2,0.4-0.2c0,0-0.1,0.1,0,0c0,0,0,0,0,0l0.1-0.2c0,0,0,0,0,0l0.4-0.3c0.1-0.1,0,0,0-0.2
		c0,0,0-0.1,0-0.1l0.1-0.2c0.1-0.1,0.2-0.1,0.3-0.2l1-0.7c0,0,0,0,0.1-0.1c-0.2,0-0.4,0-0.5,0.2c0-0.2-0.1-0.2,0.1-0.3
		c0-0.1-0.1-0.1-0.1-0.2c0.4-0.4,0.3,0,0.6-0.5l0.2-0.2c-0.2,0.1-1.1,0.7-1.2,0.8c-0.2,0.2-0.3,0.1-0.6,0.5
		c-0.2,0.3-0.4,0.1-0.9,0.7c-0.1,0.1-0.9,0.6-1,0.6c0.1-0.2,0.2-0.3,0.4-0.4l2.5-1.9c0.1-0.1,0.1-0.1,0.3-0.2
		c0.1-0.1,0.3-0.2,0.4-0.3l0.1-0.1c0.1-0.1,0.4-0.2,0.5-0.3C17.4,9,16.9,9.2,17.6,9L18,8.8c0.2-0.1,0.4-0.3,0.7-0.4L19.5,8
		c0.3-0.1,0.6-0.2,0.9-0.4c0.1,0,0.1,0,0.2,0c0.1,0,0.1,0,0.1-0.1c0.1,0,0.2-0.1,0.3,0c-0.2,0.1-0.3,0.1-0.5,0.1c0,0.4,0,0-0.1,0.4
		c0.2,0,0.3,0.1,0.4-0.1c0-0.1,0,0,0-0.1l0-0.1c0.1,0.1,0.1,0,0.3-0.1c0.1-0.1,0.2,0,0.3-0.1c-0.1-0.1-0.1,0-0.2-0.1
		c0.1-0.1,0.2-0.1,0.4-0.2c0.1,0,0.1-0.1,0.2-0.1C22,7.1,22.2,7.1,22.4,7l0.4-0.2c-0.1-0.2-0.1-0.1-0.2-0.1c0.1-0.1,0.4-0.2,0.5-0.1
		c-0.1,0-0.2,0.1-0.2,0.2c0.2,0,0.4-0.1,0.6-0.1l-0.2-0.2c0.1,0,0.5-0.3,0.7-0.2c0,0.1-0.2,0.1-0.3,0.1l-0.2,0.1l0.3,0l-0.1,0.1
		c-0.1,0.1,0,0-0.1,0.1l0.2,0.1c0,0,0,0.1,0,0.1l0,0.1c0.3,0.1,0.4,0,0.6-0.1c0.2-0.1,0.1,0,0.2-0.1l-0.2-0.3c0,0,0,0,0,0
		c0,0,0,0,0,0c0,0,0.1,0,0.1,0c0.1-0.1,0,0,0.1-0.1c0.2-0.1,0-0.1,0.3-0.1c-0.1,0.3,0,0.1-0.1,0.2l-0.2,0.2c0,0,0,0,0,0
		c0.1,0.2,0,0,0.1,0c0.2,0,0.3,0,0.4-0.1L26,6.6c-0.7-0.2-0.2,0-0.8,0.2c-0.1,0-0.3,0-0.4,0l0.2-0.2C25,6.5,25,6.4,25,6.4l0.1,0.2
		c0,0,0,0,0,0c0.1-0.1,0.1-0.1,0.2-0.2c-0.1-0.1-0.1-0.1-0.1-0.1C25.1,6.1,25,6,24.9,6c0.2-0.1,0.3-0.1,0.6-0.2
		c0.3-0.1,0.5,0,0.7-0.1l0.3-0.1c0.1,0,0.1,0,0.2-0.1c0.1-0.1,0.1-0.1,0.2-0.1c0,0,0.1,0,0.1,0l0.2,0.1c-0.1,0.1-0.2,0.1-0.3,0.1
		c-0.1,0.1,0.1,0,0,0.2c-0.1,0-0.2,0.1-0.4,0.1c-0.2,0-0.3,0-0.5,0.1C25.8,6,26,6.1,25.9,6l0,0c-0.2,0-0.5,0-0.7,0.1c0,0,0,0,0,0
		c0.2,0.1,0.4-0.1,0.6,0l-0.3,0.1c-0.1,0.1,0,0-0.1,0.1c0.3,0.1,0.3,0,0.5,0.1c0,0,0.2-0.2,0.2-0.3C26.3,6,26.5,6.1,26.8,6l0.4-0.1
		c0.1,0.6,0.1-0.1,0.8-0.2c0,0,0.1,0,0.1,0l0.3-0.1c0,0,0,0,0,0c0,0-0.2-0.2-0.2-0.2c0.2,0,0,0,0.2-0.1l-0.7,0.1
		c-0.2,0-0.3,0.2-0.5,0.1c0.1-0.2,0-0.2,0.4-0.2c0.3,0,0.9-0.3,1.2-0.3c0.1,0.3-0.1,0.2,0.2,0.2c0-0.1,0,0,0-0.1
		c0-0.2,0.6-0.2,1.1-0.4l-0.2-0.2c-0.3-0.2-0.5,0.1-0.8,0.1c-0.2,0-0.3,0.1-0.4,0c0.1-0.1,1.2-0.4,1.4-0.4c0.1,0,0.2,0,0.2,0
		c0.4-0.1,0.2,0,0.5-0.1C30.8,4,31.6,3.9,32,3.7c0,0,0,0,0,0l-0.7,0.1c-0.3,0.1-0.5,0.1-0.8,0.2l-7.7,2l-2.6,0.9
		c-0.4,0,0-0.2-0.3-0.1c0,0.3,0.4,0.1-0.4,0.4c-0.2,0.1-0.5,0.2-0.7,0.3l-3.2,1.8c0,0-0.1,0.1-0.2,0.1l-0.5,0.2
		c-0.1,0.1-0.1,0.2-0.2,0.3l-0.3-0.2c-0.1,0.2-0.9,0.7-1.3,1c-0.5,0.5-0.3,0-0.6,0.2c-0.2,0.1-0.1,0.1-0.1,0.3c0,0,0,0,0,0
		c0,0,0,0,0,0c0,0,0,0,0-0.1l0,0.2l-0.1-0.1c-0.1,0,0,0,0,0c0,0.1,0,0,0,0.2c0,0,0,0,0,0.2l0,0c-0.2-0.1,0,0-0.2-0.1l0,0.4
		c-0.2-0.1-0.1-0.1-0.3-0.1c-0.4,0.4-0.1,0.2-0.4,0.4c-0.1,0.1,0,0,0,0c-0.1,0.2,0-0.1,0,0.1c-0.4,0-0.5,0.2-0.8,0.4
		c-0.1,0.1-0.1,0.1-0.2,0.3c-0.1-0.2,0-0.1-0.1-0.1c-0.1,0.1-0.1,0.2-0.3,0.3c-0.2,0.1-0.2,0.1-0.3,0.3l-0.1,0.1
		c-0.6,0.4-0.2,0.1-0.4,0.4l-0.1,0.1l-0.1,0c-0.1-0.1-0.1-0.1-0.4,0.2c-0.4,0.4-1,0.7-1.4,0.9C6.9,15.1,6.9,15,6.8,15.2 M11.5,19.1
		c0,0,0,0.1,0.1,0.1l0.1,0L11.5,19.1z"/>
	<path class="st4" d="M36.3,2.6c-0.2,0-1.3,0.3-1.4,0.4c0.1,0.1,0.2,0,0.4,0c0.3,0,0.5-0.3,0.8-0.1l0.2,0.2
		c-0.4,0.2-1.1,0.2-1.1,0.4c0,0.1,0.1,0,0,0.1c-0.3,0,0,0.1-0.2-0.2c-0.4,0-0.9,0.3-1.2,0.3c-0.4,0-0.3,0-0.4,0.2
		c0.2,0.1,0.3-0.1,0.5-0.1l0.7-0.1c-0.2,0,0,0-0.2,0.1c0,0,0.2,0.2,0.2,0.2c0,0,0,0,0,0l-0.3,0.1c0,0-0.1,0-0.1,0
		c-0.7,0.1-0.7,0.8-0.8,0.2l-0.4,0.1c-0.3,0.1-0.5,0-0.7,0.2c0,0-0.2,0.2-0.2,0.3c-0.2-0.2-0.2-0.1-0.5-0.1c0.1-0.1,0,0,0.1-0.1
		l0.3-0.1c-0.1-0.1-0.3,0.1-0.6,0c0,0,0,0,0,0c0.2-0.1,0.4-0.1,0.7-0.1l0,0c0.1,0.1-0.1,0,0.1,0.1c0.2-0.1,0.3,0,0.5-0.1
		c0.1,0,0.2-0.1,0.4-0.1c0.1-0.2-0.1-0.1,0-0.2c0.1-0.1,0.2,0,0.3-0.1l-0.2-0.1c0,0-0.1,0-0.1,0c-0.1,0-0.1,0-0.2,0.1
		c-0.1,0,0,0-0.2,0.1l-0.3,0.1c-0.2,0.1-0.4,0-0.7,0.1c-0.2,0.1-0.3,0.1-0.6,0.2c0.1,0.1,0.2,0.2,0.3,0.3c0,0,0.1,0,0.1,0.1
		c-0.1,0.1-0.1,0.1-0.2,0.2c0,0,0,0,0,0l-0.1-0.2c-0.1,0.1,0,0.1-0.1,0.2l-0.2,0.2c0.1,0,0.3,0,0.4,0C32.2,5,31.6,4.9,32.3,5
		l-0.9,0.3c-0.2,0.1-0.2,0.1-0.4,0.1c0,0,0,0.2-0.1,0c0,0,0,0,0,0l0.2-0.2c0.1-0.2,0.1,0.1,0.1-0.2C31,4.8,31.1,4.8,30.9,5
		c-0.1,0.1,0,0-0.1,0.1c0,0-0.1,0-0.1,0c0,0,0,0,0,0c0,0,0,0,0,0l0.2,0.3c-0.1,0.2,0,0.1-0.2,0.1c-0.2,0.1-0.3,0.1-0.6,0.1l0-0.1
		c0,0,0-0.1,0-0.1l-0.2-0.1c0.1-0.1,0-0.1,0.1-0.1L30.1,5l-0.3,0L30,4.9c0,0,0.2-0.1,0.3-0.1C30.1,4.7,29.8,5,29.6,5l0.2,0.2
		c-0.2,0-0.4,0.1-0.6,0.1c0.1-0.1,0.1-0.2,0.2-0.2C29.3,5,29,5.1,29,5.2c0.2,0,0.1-0.1,0.2,0.1l-0.4,0.2c-0.3,0.1-0.4,0.1-0.7,0.2
		c-0.1,0-0.1,0.1-0.2,0.1c-0.2,0.1-0.3,0.1-0.4,0.2c0.1,0,0.2,0,0.2,0.1c-0.2,0.1-0.2,0-0.3,0.1c-0.1,0.1-0.2,0.2-0.3,0.1l0,0.1
		c0,0.1,0,0,0,0.1c-0.1,0.2-0.2,0.2-0.4,0.1c0.1-0.4,0.1,0.1,0.1-0.4c0.2,0,0.3,0,0.5-0.1c-0.1-0.1-0.2,0-0.3,0
		c-0.1,0-0.1,0-0.1,0.1c-0.1,0-0.1,0-0.2,0c-0.3,0.1-0.6,0.3-0.9,0.4L25,6.8c-0.3,0.1-0.5,0.3-0.7,0.4l-0.4,0.2
		c-0.7,0.2-0.2,0-0.8,0.4C22.9,8,22.7,8,22.5,8.2l-0.1,0.1c-0.1,0.1-0.3,0.2-0.4,0.3c-0.1,0.1-0.1,0.1-0.3,0.2l-2.5,1.9
		c-0.2,0.1-0.3,0.3-0.4,0.4c0,0,0.9-0.6,1-0.6c0.5-0.6,0.7-0.4,0.9-0.7c0.3-0.4,0.4-0.3,0.6-0.5c0.1-0.1,1-0.7,1.2-0.8l-0.2,0.2
		c-0.3,0.5-0.3,0.1-0.6,0.5c0,0.1,0.1,0.1,0.1,0.2c-0.2,0.1-0.1,0.2-0.1,0.3c0.1-0.2,0.2-0.3,0.5-0.2c0,0,0,0-0.1,0.1l-1,0.7
		c-0.1,0.1-0.2,0.1-0.3,0.2l-0.1,0.2c0,0,0,0,0,0.1c0.3-0.1,0.5-0.3,0.7-0.5c0.2-0.3,0.5-0.1,0.6-0.5c0.1,0,0.1,0,0.2-0.1l0.2-0.1
		c0.1-0.1,0.1,0,0.2-0.1c0.1-0.1,0.1-0.2,0.1-0.3c-0.2,0-0.2,0.1-0.4,0.1c0.1-0.1,0.2-0.2,0-0.3c0,0-0.1,0.2-0.1,0.2
		c-0.1,0.1,0,0.2-0.3,0c0.3-0.3,0.3-0.2,0.5-0.4l0.9-0.6l0.1,0.1c0.3,0.3-0.2-0.1,0.1,0.1c0.1,0,0,0,0.1-0.1l0.2,0
		c0,0.1,0,0.1-0.1,0.3c0.3,0.1,0.3,0.1,0.4-0.1c0.1-0.2,0.1-0.2,0.2-0.2c-0.1-0.1-0.1,0-0.1-0.3c0.1-0.1,0,0,0.1-0.1
		c0.1,0,0.1,0,0.1-0.1c0.2-0.1,0-0.1,0.3-0.1c-0.1,0.3,0,0.2-0.2,0.4c0.3-0.1,0.5-0.1,0.6-0.3c0.2-0.2,0.5-0.1,0.8-0.3
		c0,0,0.1-0.1,0.2-0.1c0.2-0.1,0.2-0.1,0.4,0c0.1-0.3,1.6-0.7,2-0.9c0.2-0.1,0.2-0.1,0.4-0.2c-0.2,0-0.8,0.1-0.8,0.2
		c-0.1,0-0.5,0.4-0.7,0.2c0.1,0,0.4,0,0.3-0.2l0-0.1c0.2,0.1,0.2,0,0.4-0.1c0.1,0,0.1,0,0.2,0l-0.2,0.1c0.5,0,0.1-0.1,0.5-0.3
		c0,0,0,0,0,0c-0.1-0.3-0.1-0.1-0.2-0.3l0.4-0.1c0.5-0.1-0.1-0.3,0.5-0.4c0,0.1,0,0.2,0.1,0.3l0.2-0.1c0,0,0,0,0,0
		c0.2-0.1,0-0.1,0.2-0.1c0,0,0.2,0.1,0,0.2c-0.1,0.1,0,0-0.1,0c0,0,0,0,0,0c-0.1,0-0.2,0.2-0.4,0.2c0,0.1,0.1,0.2,0.2,0.1
		c0.2-0.1,0,0.1,0,0c0.1-0.2,0.2-0.2,0.4-0.2C29.8,6,29.7,6,29.6,6c0.1,0.1,0.1,0.1,0.2,0.1l0.6-0.3c0.2-0.2,0.3,0,0.4-0.1
		c0.1-0.1,0-0.1,0.1-0.1c0,0,0-0.1,0.1,0.1c-0.3,0.1-0.8,0.3-1.2,0.4c-0.2,0-0.3,0.1-0.4,0.1l0.1,0.1c0.2,0.1,0.1,0.1,0.3,0
		c0.1,0,0.2-0.1,0.4-0.1c0.1,0,0.3-0.1,0.3-0.1c0.2,0,0.3,0,0.4-0.1l1.1-0.3c0.2-0.1,0.2,0,0.4,0c0-0.1,0,0,0-0.1
		c-0.1-0.1,0,0-0.1,0c0.1,0,0.4-0.1,0.6-0.1l0.6-0.1c0.1,0,0.1,0,0.1,0c0.1,0,0.1,0,0.2-0.1c0.1,0,0.2-0.1,0.3-0.1
		c0.1,0,0.5,0,0.6-0.2c0.3,0.1-0.2,0,0.2,0.2c0,0,0-0.1,0-0.1l0-0.1c0.3-0.1,0.9-0.3,1.2-0.2c0,0.2,0,0.1-0.1,0.2
		c0,0-0.1,0.1-0.2,0.1c0.4-0.1,0.4,0,0.8-0.2l0.5-0.1c0,0,0-0.1-0.1-0.1c-0.1,0-0.1,0.1-0.3,0L37,4.5c0,0,0.1,0,0.1,0.1
		c0,0,0-0.1,0-0.1c0-0.1,0-0.1,0.1-0.2c0,0,0-0.1-0.1-0.1C37,3.9,37,3.9,37,3.8c-0.1-0.1,0,0-0.1-0.1c-0.1-0.1,0-0.2,0-0.3
		c0.2,0,0.1-0.1,0.4,0c0,0,0,0.1,0,0.1l0-0.2l0,0l0,0c-0.1-0.1-0.2-0.1-0.3-0.1c-0.2,0.1-0.2,0.3-0.4,0L37,3c0.2,0,0.2,0,0.3-0.1
		c0,0,0-0.1,0-0.1l0,0.1c0-0.1,0-0.2,0-0.3c-0.1,0-0.3,0.1-0.5,0.1c-0.1,0-0.2,0.1-0.3,0.1c0,0,0,0-0.1,0c-0.2,0,0,0-0.2,0.1
		C36.3,2.8,36.3,2.8,36.3,2.6 M39,1.5C39,1.5,38.9,1.5,39,1.5C38.9,1.5,38.9,1.5,39,1.5L39,1.5z"/>
	<path class="st5" d="M9.6,29.6c0.3,0.1,0.3-0.2,0.7,0c0.1,0.2,0.2,0.4,0,0.6c-0.1,0.1-0.4,0.3-0.6,0.3c0-0.3,0-0.2,0.2-0.3
		c0.1-0.1,0.2-0.1,0.2-0.3c-0.3-0.1-0.8,0.3-0.9-0.2c-0.1-0.4,0.4-0.7,0.7-0.6C10,29.5,9.5,29.1,9.6,29.6 M10.3,28.7
		c0.2,0,0.5-0.5,0.9,0c0.1,0.2,0.4,0.6,0.4,0.8l-0.1,0.1c-0.3-0.2-0.4-1.2-0.9-0.6c0,0.3,0.4,0.6,0.4,0.9l-0.2,0.1
		c-0.1,0-0.9-1.4-0.9-1.5C10,28.1,10.2,28.6,10.3,28.7z M11.8,27.8c0.2-0.1,0.1-0.1,0.4,0.3c0.1,0.2,0.3,0.4,0.3,0.6
		c-0.1,0.3-0.6,0.6-0.9,0.3c-0.1-0.1-0.5-0.7-0.5-0.9l0.2-0.1c0.1,0.1,0.2,0.4,0.3,0.5c0.2,0.3,0.3,0.4,0.6,0.1
		C12.2,28.5,11.8,28.2,11.8,27.8z M12.1,27.4c-0.1-0.2-0.1-0.1,0.1-0.4l0.2,0.4c0.2,0,0.3-0.1,0.4-0.2c0-0.3-0.2-0.2,0-0.5
		c0.1,0.1,0.1,0.2,0.2,0.3c0.1-0.1,0.3-0.2,0.3,0c0.1,0.2,0,0.1-0.2,0.3c0,0.1,0.2,0.3,0.2,0.4c0.2,0.3,0.3-0.1,0.4,0.2
		c0.1,0.2-0.3,0.3-0.6,0.1c-0.1-0.2-0.2-0.4-0.4-0.6c-0.1,0.1-0.2,0.1-0.4,0.2c0,0.1,0.2,0.4,0.3,0.5c0.3,0.3,0.3-0.2,0.4,0.2
		C12.9,29,12.5,28,12.5,28c-0.1-0.2-0.2-0.2-0.3-0.2C12.1,27.6,12.2,27.7,12.1,27.4z M14.8,27.3c0,0.4-0.3,0.6-0.6,0.5
		c-0.2,0-0.3-0.1-0.3-0.3c0-0.1-0.2-0.3-0.2-0.4c-0.2-0.6,0.7-1.1,1-0.2c-0.2,0.2-0.5,0.2-0.6,0.5c0.2,0.1,0.2,0.1,0.4,0
		C14.7,27.3,14.5,27.2,14.8,27.3z M14.9,26c0,0,0.1-0.1,0.2,0.1c0.1,0.3-0.4,0.1-0.1,0.6c0.1,0.1,0.5,0.6,0.2,0.7
		c-0.2,0.1-0.2-0.2-0.3-0.2C14.8,26.8,14.3,26.2,14.9,26z M15.6,26.9c0-0.3,0-0.2,0.2-0.3c0.1,0,0.2-0.1,0.3-0.2
		c0.1-0.3-0.4-0.1-0.5-0.1c-0.6,0-0.3-1,0.3-0.9c0.1,0.5-0.4,0-0.4,0.6c0.3,0.1,0.3-0.1,0.5-0.1C16.8,26,16.2,27.1,15.6,26.9z
		 M16.7,25.8c0.1,0.2,0.1,0.1,0.3,0.1c0.1,0,0-0.1,0.1,0c0.1,0.2-0.2,0.3-0.4,0.2c-0.2-0.1-0.3-0.5-0.4-0.6c-0.2-0.2-0.3,0-0.3-0.3
		c0-0.4-0.2-0.2,0-0.6c0.1,0.1,0.2,0.2,0.3,0.3c0.1,0,0.3-0.2,0.3,0c0.1,0.2,0,0.1-0.2,0.3C16.5,25.4,16.7,25.7,16.7,25.8z M18,25.5
		c-0.1,0.1-0.2,0.2-0.3,0.2l-0.1-0.2l0.2-0.2c0-0.2-0.2-0.3-0.1-0.4C18,24.8,18.2,25.3,18,25.5z M17.1,25.4
		c-0.6-0.4,0.1-1.1,0.3-0.7c0,0.1-0.1,0.2-0.2,0.3c0.1,0.2,0.1,0.2,0.1,0.4L17.1,25.4z M19,24.6c0.2,0.3-0.2,0.6-0.4,0.6
		c-0.4,0.1-1-0.8-0.6-1.1c0.1-0.1,0.5-0.4,0.7-0.1c-0.1,0.3-0.2,0-0.5,0.2c-0.1,0.4,0.3,1,0.6,0.6C18.9,24.6,18.7,24.6,19,24.6z
		 M19.2,23.9c0.1-0.4,0-0.6,0.4-0.7l-0.1,0.8c0.2,0,0.6,0.2,0.8,0.3c-0.3,0.3-0.4,0-0.8,0c-0.1,0.3,0.1,0.2,0.1,0.5l-0.1,0.1
		c-0.2-0.1-0.1-0.1-0.3-0.4l-0.5-0.8c-0.2-0.4-0.2-0.3-0.1-0.4C18.8,23,18.9,23.8,19.2,23.9z M22.9,21.4l0.2,0
		c0.1,0.5-0.2,0.6-0.6,0.5l0-0.2l0.3,0L22.9,21.4z M22.3,21.3c-0.1-0.1-0.1,0-0.1-0.3c0-0.1,0.1-0.2,0.1-0.2c0.1,0,0.5-0.2,0.5,0.1
		c0,0.1-0.2,0-0.3,0.1C22.3,21.1,22.5,21.2,22.3,21.3z M36.1,11.2L20,17c-2.7,1-5.4,2-8,2.9c-1.4,0.5-2.7,1-4,1.4
		c-0.6,0.2-1.4,0.5-2,0.7c-0.6,0.2-1.4,0.5-1.9,0.7C3.9,23,4,23,3.9,23.1C4,23.1,4,23,4.2,23.2c0.1,0.1-0.1-0.1,0.1,0.1l0.1,0
		c0.2,0.1,0-0.1,0.2,0c-0.1,0.2-0.2,0.2-0.2,0.4c0.2-0.1,0-0.2,0.3,0c0,0.1,0,0.1,0,0.2l0.2,0c0,0.4-0.1,0.2,0.1,0.4
		c-0.1,0.2-0.5,0.6-0.6,0.7l0.1,0.1c0,0,0,0,0,0c0,0,0,0,0,0l-0.2,0.3l0.3,0l0,0.3c0.8,0,0.4-0.2,0.9-0.2c-0.1,0.2-0.2,0.2-0.4,0.3
		L4.6,26c-0.1,0.1,0,0-0.1,0.1l0.6-0.1c-0.1,0.4,0,0.4-0.4,0.5c0.1,0,0.2-0.1,0.4-0.1c0.2,0,0.1,0,0.3,0c0.2,0,0-0.1,0.3,0
		c-0.1,0.1-0.1,0.1-0.2,0.2l0.5-0.2l-0.3,0.3c0.2,0,0.1-0.1,0.2,0c-0.1,0.1-0.2,0.1-0.3,0.2c0.2,0,0.2-0.1,0.5-0.2L6,26.9
		c-0.2,0.3,0.1,0.2-0.3,0.5c0.2,0,0.3-0.2,0.5-0.2c-0.2,0.2-0.4,0.3-0.6,0.5c0.2,0,0.3-0.1,0.4-0.2c-0.2,0.2-0.7,0.4-0.9,0.7
		c0.3,0-0.1,0,0.3-0.1c0,0.3,0,0.2-0.3,0.4l-1.2,0.9c0,0.1,0,0.2,0,0.3l0.2,0.1c0.3,0.2,0.1,0.1,0.3,0.3c0.1,0.2,0,0,0.3,0.3L5,30.8
		c0.1,0.1,0.1,0,0.1,0.1c0.2,0.2,0.2,0.3,0.2,0.5c0.2,0,0.4,0.1,0.4,0.3c0.2,0.1,0.4,0,0.5,0.2l0,0.2c-0.3,0-0.3-0.1-0.4,0.1l0.3,0
		c0.1,0.1,0.1,0.2,0.1,0.2l0,0.3c0,0,0,0,0,0c0-0.1,0-0.1,0.1-0.2l0.2-0.1c0,0.2-0.1,0.4-0.1,0.5l-0.1,0.2l0.2,0.3c0,0,0,0,0,0
		l0.3,0.3c0,0,0,0,0,0c0,0,0,0,0,0c0,0,0,0,0,0l0.4,0.5c0,0,0,0,0,0l0.9,1.1c0.3,0.2,0,0,0.4,0.4L8.7,36c0,0,0,0.1,0,0.1l0.1,0
		c1.4-0.4,3.5-1.3,5-1.8c4.1-1.5,8.3-3,12.4-4.5l2.5-0.9c0-0.2,0-0.4,0.2-0.5c0.1-0.1,0.1-0.1,0.2,0c0.3,0,0.2,0,0.2,0.2
		c-0.2,0.2-0.2,0-0.4,0.1c0,0.1-0.1,0.1,0.1,0.1c0.2,0,3.8-1.3,3.9-1.4c0.1-0.1,0.1-0.1,0-0.2c-0.1-0.1,0.1,0.1-0.1-0.1
		c-0.1-0.1,0,0.1-0.1-0.1l0-0.2c0.2-0.1,0.5-0.1,0.5-0.4c-0.3-0.1-0.3,0-0.5,0c-0.6,0-0.6-0.9,0.3-0.9c0.1-0.1,0,0,0.1-0.2
		c0-0.1-0.1-0.1-0.1-0.2c-0.1-0.3,0.1-0.4,0.3,0.1c0.1,0,0.3-0.1,0.4-0.2c0.1-0.2,0-0.1,0.2-0.1c0.1,0,0.1,0,0.2,0.1
		c0-0.3,0.1-0.1-0.2-0.2c0,0,0.1,0,0.1-0.1c0-0.1-0.2-0.1,0.1-0.2c0.1,0,0.1,0,0.2,0c0.2,0.1,0.2,0.1,0.2,0.2c0,0.1,0.2,0.4,0.3,0.6
		c0.2,0.3,0.3,0.3,0.5,0.1c0-0.4-0.5-0.7-0.4-1c0.1-0.1,0.1-0.1,0.3-0.2c0.1-0.2-0.3-0.2,0.1-0.5l0.2,0.3c0.3-0.1-0.2-0.1,0.3-0.2
		c0-0.3-0.2-0.1,0-0.5c0.2,0.1,0.1,0.2,0.3,0.3c0.1,0,0.1,0,0.2-0.1c0.2-0.1,0.2-0.1,0.4-0.2c0.2-0.1,0.2-0.3,0.5-0.3
		c0.4,0,0.3,0.2,0.5,0.3c0-0.2,0,0,0-0.1c0-0.2-0.1-0.3,0-0.6c0.2-0.4,0.4-0.1,0.4-0.1c-0.1,0.3-0.2,0-0.2,0.4
		c0.2,0,0.3-0.1,0.5-0.1c-0.4-0.4,0-0.9,0.5-0.9l0,0.2c-0.2,0.2-0.4,0-0.4,0.4c0.3,0.1,0.3-0.1,0.6-0.1c0.4,0,0.1,0.1,0.4,0.1
		c-0.1-0.1-0.1-0.2-0.2-0.4c-0.2-0.4-0.1,0-0.3-0.2c-0.1-0.2,0-0.1,0-0.2c0-0.1,0-0.1,0-0.1l-0.1-0.2c0-0.2,0,0,0-0.1
		c-0.2,0-0.1,0.1-0.3,0c0-0.1-0.1,0,0.1-0.1c0,0,0.1,0,0.2,0c0.3-0.1,0.7-0.1,1.1-0.2c0.2,0,0.3-0.1,0.5-0.1c0.2-0.1,0.3,0,0.5-0.2
		c-0.4,0-2.5,0.7-2.6,0.6c0.1-0.1,0.6-0.2,0.8-0.2l2.3-0.6l-0.2-0.1c-0.2-0.1-0.1,0-0.2-0.2L41,20.4l-0.2-0.1
		c-0.1,0-0.8,0.1-0.9,0.1c-0.5,0.1-1.8,0.4-2.1,0.5c-0.3,0.1-0.8,0.1-1.1,0.1c0-0.2,0.1,0.2,0-0.1c-0.5,0.1,0-0.2-0.6,0
		c-0.2-0.2,0.1-0.1-0.2-0.2c-0.3-0.1-0.8-0.2-1-0.1c0-0.1,0,0.1,0.2-0.2c-0.4,0-0.1,0-0.5-0.1c-0.1,0-0.3,0-0.4,0
		c0.1-0.2,0.2-0.3,0.2-0.3c0,0,0,0,0,0c0-0.3-0.1-0.2,0.2-0.2c-0.3-0.2-0.2-0.2-0.2-0.3l-0.1-0.1c0,0,0,0,0,0
		c-0.1-0.2,0-0.2-0.2-0.3l-0.2-0.2c-0.1-0.1,0,0-0.1-0.1c0,0,0,0,0,0l-0.4-0.4c0,0,0,0,0,0c0,0,0,0,0,0c0,0,0,0,0,0L33,18.1
		c-0.1-0.1,0-0.1-0.2-0.1c0,0,0,0,0,0l-0.2,0l0-0.2c0,0,0,0,0,0l-0.2-0.3c0,0,0-0.1-0.1-0.1l-0.2-0.1c-0.3-0.4-0.3-0.1-0.3-0.4
		c-0.4,0-1.5-0.1-1.7-0.3c-0.1-0.2,0.1-1.4,0.2-1.7c0.1,0,0,0,0.2,0c0.4,0,1.3,0.3,1.7,0.2c0-0.1-0.1-0.1-0.1-0.3
		c0.3,0.1,0.6,0,0.8-0.1l0.1-0.1c0,0,0,0,0,0l0.5-0.3c0.1,0,0.1-0.1,0.1-0.1c0.2-0.2,0.2,0,0.4-0.2l0.2-0.2c0.1-0.1,0.1,0,0.4,0
		c0-0.1,0-0.1,0.1-0.2c0.1-0.1,0,0,0.1-0.1l0.3-0.2c0,0,0,0,0,0l0.3-0.2c0.3-0.1,0.1,0.1,0.3-0.2c0.1-0.1,0,0,0.1-0.1l0.4-0.2
		c0.2-0.1,0.1-0.1,0.3-0.2c0,0,0,0,0.1,0c0.1-0.1,0.2-0.1,0.2-0.2c-0.1,0,0.1,0-0.1,0l-0.3,0.1c-0.1,0-0.3,0.1-0.4,0.1
		c-0.1,0,0,0.2-0.1,0c0,0,0,0,0,0c0.1-0.1,0-0.1,0.3-0.2l0.7-0.2c0.3-0.1,1.1-0.4,1.3-0.3c0.3,0,1.1-0.4,1.5-0.4
		c0-0.1,0.1,0-0.1-0.1c-0.1-0.1-0.1,0.1-0.3,0c0.2-0.1,0.1,0,0.2-0.1l-0.1,0l-2.5,0.6c0-0.1,0-0.1,0.1-0.1c0.1-0.1,1.1-0.3,1.4-0.5
		C37.7,10.6,36.3,11.2,36.1,11.2z M38.1,11.4c-0.2,0-1,0.3-1.3,0.3L36,12c-0.3,0.1-0.2,0-0.3,0.2c0,0,0,0,0,0c0.1,0.2,0,0,0.1,0
		c0.1,0,0.2,0,0.4-0.1l0.3-0.1c0.2,0,0,0,0.1,0c0,0-0.1,0.1-0.2,0.2c0,0,0,0-0.1,0c-0.2,0.2,0,0.1-0.3,0.2l-0.4,0.2
		c-0.1,0.1,0,0-0.1,0.1c-0.3,0.3-0.1,0-0.3,0.2L35,13.2c0,0,0,0,0,0l-0.3,0.2c-0.1,0.1,0,0-0.1,0.1c-0.1,0.1-0.1,0.1-0.1,0.2
		c-0.3-0.1-0.3-0.1-0.4,0l-0.2,0.2c-0.2,0.2-0.1,0-0.4,0.2c-0.1,0.1-0.1,0.1-0.1,0.1l-0.5,0.3c0,0,0,0,0,0l-0.1,0.1
		c-0.1,0.1-0.5,0.2-0.8,0.1c0.1,0.2,0.1,0.1,0.1,0.3c-0.3,0.1-1.2-0.1-1.7-0.2c-0.2,0-0.1,0-0.2,0c0.2-0.1,1.5,0.1,1.8,0.2l-0.2,1.7
		c0,0.2,0,0,0.3,0.4l0.2,0.1c0.1,0.1,0.1,0.1,0.1,0.1l0.2,0.3c0,0,0,0,0,0l0,0.2l0.2,0c0,0,0,0,0,0c0.2,0.1,0.1,0.1,0.2,0.1l0.3,0.4
		c0,0,0,0,0,0c0,0,0,0,0,0c0,0,0,0,0,0l0.4,0.4c0,0,0,0,0,0c0.1,0.1,0,0,0.1,0.1l0.2,0.2c0.1,0.1,0.1,0.1,0.2,0.3c0,0,0,0,0,0
		l0.1,0.1c0,0-0.1,0.1,0.2,0.3c-0.2,0-0.1-0.1-0.2,0.2c0.2,0,0.3-0.1,0.7-0.3c0.2-0.1,0.2-0.1,0.3-0.2c0,0,0,0,0,0c0,0,0,0,0,0
		c0.1,0,0,0,0.1,0c0.4-0.1,0.3-0.1,0.5-0.2l1.1-0.4c0.2-0.1,0.2,0,0.7-0.2c0.2-0.1,0.5-0.2,0.7-0.3c0.1,0,1.1-0.7,1.2-0.8l-0.1-0.1
		c0.2-0.1,0.3,0,0.2-0.2c-0.1-0.1,0,0-0.2,0l0-0.2c-0.3,0-0.1,0.1-0.3-0.2c-0.3,0-0.3,0.1-0.6,0.1c0.1-0.1,0.2-0.1,0.3-0.2
		c-0.2-0.2-0.4-0.2-0.6-0.2c-0.2,0-0.1,0.1-0.3,0c0.1,0,0.1-0.1,0.2-0.2c-0.3,0-0.3,0.2-0.6,0c0-0.2,0.1-0.2,0.3-0.3l0.1-0.1
		c-0.6,0.1-0.2,0-0.6,0.2l-0.1-0.1c0,0,0,0,0,0c0-0.1-0.1,0,0-0.2c0.1-0.1,0.2,0,0.3,0c0.2,0,0.1,0,0.2-0.1c-0.2,0-0.3,0.1-0.4,0.1
		c-0.1-0.1-0.1,0.1,0-0.1c-0.3,0.1,0.3,0-0.5,0.3c-0.1,0,0-0.1-0.1-0.1c-0.2,0.1-0.2,0.1-0.4,0.1c0.1-0.1,0.2-0.1,0.3-0.2
		c0.2-0.1,0.3,0,0.3-0.2l-0.8,0.2c0.2-0.4,1-0.4,1.4-0.6c0.5-0.2,0.3,0,0.5-0.1l0.6-0.2c0.3-0.1-0.2,0,0.5-0.2l0.4-0.1l2-0.7
		c0.1-0.1,0.6-0.3,0.7-0.3c-0.3,0-1.4,0.4-1.7,0.5c-1.1,0.3-3.1,1.1-4.2,1.3c-0.4,0.1-0.6,0.3-0.8,0.2c0.3-0.1,0.6-0.2,0.9-0.3
		c0-0.1,0.1-0.1,0-0.1l-1.2,0.2C35,15.7,35,15.5,35,15.5c0,0,0,0,0,0c0.2,0,0.1,0,0.4-0.1c0,0,0,0,0,0c0.6-0.3,0.5,0,1-0.3l0.1,0
		c0,0,0,0,0,0c0,0,0,0,0,0l0.3-0.1c0,0,0,0,0,0c0.2-0.1-0.1-0.1,0.2-0.1c0.2,0,0.1,0,0.2,0.1c-0.2,0.3-0.4,0-0.5,0.4c0,0,0,0,0,0
		c0.3-0.1,1-0.3,1.3-0.4c-0.1-0.1,0,0-0.1-0.1c0,0,0.1,0,0,0.1c-0.2,0.1,0.2,0-0.2,0.1c0-0.1,0,0-0.1-0.1l0-0.1c0,0,0,0,0,0
		c-0.2,0.1,0,0.1-0.2,0l0.2,0.3c-0.4-0.1-0.1-0.1-0.3-0.3l0.6-0.2c0.3,0,0.2,0,0.4-0.1c0,0-0.1,0.2,0-0.1l0.2-0.1c0,0,0,0,0,0
		l0.7-0.2c0.2-0.1,0.2-0.1,0.4-0.2c0.3-0.1,0.2,0,0.4-0.1c0.2,0,0.3,0,0.5-0.1c0.2-0.1,0.2-0.1,0.4-0.1c0.2,0,0.3-0.1,0.4-0.2
		c-0.2-0.2,0,0-0.3-0.1c-0.4-0.1-0.4-0.3-0.5-0.1c0,0.1-0.1,0.2-0.4,0.4c-0.1,0-0.1,0.1-0.2,0c0.1,0,0.2-0.1,0.2-0.1l0.2-0.1
		c0,0,0,0,0,0c0,0,0,0,0,0L40.2,13c-0.1,0,0,0.1-0.1,0c0.1-0.1,0.1-0.1,0.3-0.1c0,0,0,0,0,0l0.6-0.2c0-0.1,0,0-0.1-0.1
		c-0.3,0-0.7,0.2-1,0.2c0.1-0.1,0-0.1,0.1-0.1c0.1,0,0.1,0,0.2-0.1l2.3-0.9c-0.3,0-0.5,0.2-0.8,0.2c0,0,0,0,0,0l0.2-0.2
		c-0.3,0-0.3,0.1-0.5-0.1c0.1-0.1,0.1,0,0.2-0.1l0.3-0.1c-0.5-0.1-1.3,0.5-1.8,0.5c0.2-0.1,0.5-0.2,0.7-0.3c0.5-0.3,0.1-0.1,0.7-0.3
		c0.3-0.1,0.3-0.2,0.4-0.3c-0.3,0-1.1,0.4-1.4,0.4c-0.2,0,0,0-0.2,0l-0.6,0.1c0.2-0.3,0.6-0.1,1-0.6c-0.2,0-0.2,0-0.6,0.2
		c-0.6,0.2-0.4,0.1-0.7,0.1l-0.5,0.1c-0.2,0.1-0.1,0.1-0.4,0.1C38,11.5,38.1,11.5,38.1,11.4z M4.4,37.7c0.8-0.3,1.4-0.5,2.2-0.8
		c0.2-0.1,2-0.7,2.2-0.8c0,0,0-0.1,0-0.1l-0.2-0.2c-0.4-0.4-0.1-0.2-0.4-0.4l-0.9-1.1c0,0,0,0,0,0l-0.4-0.5c0,0,0,0,0,0c0,0,0,0,0,0
		c0,0,0,0,0,0l-0.3-0.3c0,0,0,0,0,0l-0.2-0.3L6.4,33c-0.2,0-0.3,0.1-0.5,0c0-0.3,0.1-0.1,0.3-0.2c0,0,0,0,0,0l0-0.3
		c0-0.1,0-0.1-0.1-0.2l-0.3,0c0,0.2,0,0.2-0.2,0.2c0-0.5,0.2-0.6,0.6-0.5c-0.2-0.2-0.3-0.1-0.5-0.2c0-0.2-0.1-0.3-0.4-0.3
		c0-0.2,0-0.3-0.2-0.5c-0.1-0.1,0,0-0.1-0.1l-0.3-0.3c-0.2-0.3-0.1-0.1-0.3-0.3c-0.2-0.2,0-0.1-0.3-0.3l-0.2-0.1
		c-0.1-0.1-0.1-0.1,0-0.3c-0.2,0.1-0.4,0.2-0.5,0.4C3.2,30,3,30.2,2.9,30.3c0.2-0.1,0.2,0,0.3,0c0.2-0.1,0.1-0.1,0.3-0.1
		c-0.3,0.3-0.7,0.4-0.8,0.9c0.4,0,0.3-0.1,0.6-0.1c0,0-0.2,0.4-0.3,0.4c-0.1,0.1-0.3,0.1-0.4,0.3c0.4,0,0.4-0.3,0.7-0.2l-0.7,0.5
		c0,0,0.2,0,0.2,0c0.3,0,0,0.1,0.4-0.1c0.1,0,0.4-0.1,0.6-0.3l-0.6,0.4c0.2,0,0.3-0.1,0.5-0.2c0.1-0.1,0.1,0,0.2-0.1l0.3-0.1
		c-0.1,0.1,0,0.1-0.1,0.1c-0.3,0.3-0.4,0-0.4,0.5c0,0,0,0,0,0.1c-0.1,0.3-0.1,0.2-0.3,0.4c0.2,0.1,0.1,0,0.1,0.1l0.3-0.1L4,32.9
		C3.9,33,3.8,33,3.8,33.1c0.1,0,0.1-0.1,0.2,0c-0.1,0.1-0.4,0.3-0.5,0.4c0.1,0.1-0.1,0,0.2,0c-0.1,0.3-0.3,0.3-0.2,0.5L3.6,34
		c0,0,0,0,0,0l0.1,0.1c-0.1,0.2-0.2,0.3-0.4,0.3l0.3,0.2c-0.1,0-0.2,0.1-0.3,0.2c0.4-0.1,0-0.2,0.4-0.2c0,0.1,0,0,0,0.1l0.1,0.9
		c0,0,0,0.1,0,0.1C4.2,36,3.9,35.9,4.1,36c0.1,0,0,0,0.1,0c-0.2,0.2-0.1,0.1-0.2,0.3c-0.1,0.3,0.1,0,0,0.4l0.2,0
		c-0.1,0.1-0.1,0.1-0.1,0.2c0.5,0,0.4-0.1,0.6-0.1c-0.1,0.3-0.1-0.1-0.2,0.3c-0.1,0.2-0.1,0.2-0.2,0.4c0,0,0,0.1,0.2,0L4.4,37.7z
		 M39.8,23c-0.1,0.1-0.2,0.1-0.3,0.2c-0.1,0.1-0.1,0.1-0.3,0.2c-0.2,0.1-0.7,0.3-0.4-0.1l-0.2-0.1c0.1,0,0.1,0,0.2,0
		c0.1,0,0.1,0,0.1-0.1l-0.3,0c0,0,0,0,0,0c-0.2,0.1-0.3,0.1-0.4,0.1c0.2,0,0.3-0.1,0.5,0c-0.2,0.1-0.2,0.1-0.4,0.1
		c0.1,0.3,0.3,0.4,0.1,0.5c-0.2,0-0.2-0.1-0.3-0.3c0-0.1-0.1-0.1-0.1-0.2l-0.1-0.1c-0.1-0.2,0,0-0.1-0.1c-0.1,0.1,0,0,0,0.1
		c0,0.5-0.5,0.3-0.6,0.7c0.4,0.4,0.3-0.2,0.7-0.1c0,0.4-0.4,0.7-0.8,0.4c-0.1-0.1-0.2-0.3-0.3-0.4c-0.2-0.3-0.2-0.2-0.1-0.6
		c-0.1,0-0.2,0-0.4,0.2c0.2,0.1,0.1,0,0.2,0.1c-0.1,0.3,0,0-0.2,0.3c0.5,1,0.4,0.3,0.7,0.6c-0.1,0.1-0.1,0.2-0.2,0.2
		c-0.4,0-0.5-0.4-0.7-0.7l-0.4,0.2c0,0.1,0.1,0.4,0.2,0.5c0.3,0.3,0.3-0.1,0.5,0.3c-0.4,0.6-0.9-0.4-0.9-0.5c-0.1-0.1,0,0-0.1-0.1
		c-0.2-0.1-0.2,0-0.2-0.3c-0.2,0.1-0.3,0.1-0.3,0.2l0.2,0l0.6,1c-0.1,0.3-0.6,0.7-1,0.3c-0.1-0.1-0.2-0.3-0.3-0.5
		c-0.1-0.2-0.3-0.4,0.1-0.4c0-0.1,0-0.1-0.2-0.2c-0.1,0-0.1,0-0.2,0c-0.2,0.1,0,0.1-0.1,0.2c0,0.1-0.1,0.1-0.1,0.1
		c0.4,0.1,0.2-0.1,0.2,0.2C34.1,25,34.1,25,34,25c-0.2,0-0.1-0.1-0.2,0.1c0.5,0,0.5,0.2,0.6,0.4c0.1,0.1,0.1,0.2,0.2,0.3
		c0.1,0.2,0.1,0.2,0,0.3c-0.4-0.1-0.5-1.2-1-0.6c0,0.4,0.4,0.6,0.4,0.9l-0.1,0.1c-0.2-0.1-0.5-0.8-0.6-0.9c-0.1-0.1,0-0.1-0.1-0.1
		c0,0.2,0,0.1-0.1,0.2l0,0.3c-0.2,0-0.4,0.1-0.4,0.3c0.3,0.1,0.8-0.3,0.9,0.2c0.1,0.4-0.4,0.6-0.8,0.6c0.1,0.2-0.1,0,0.1,0.1
		c0.2,0.2,0,0,0.1,0.1c0.1,0.1,0.1,0.1,0,0.2c0.3,0,3.6-1.2,4.1-1.5l1-0.4c0,0,0.2-0.1,0.2-0.1c0.2,0,0.1,0,0.2,0
		c0.2-0.2,1.7-0.7,2.1-0.8c0.3-0.1,0.8-0.3,1.1-0.4c0.4-0.1,0.7-0.3,1.1-0.4c0,0,0,0,0.1,0c0.1-0.1,0,0,0.1-0.1
		c-0.3,0-0.4,0.1-1.4,0.1l-0.9,0.2c-0.2,0.1-0.1,0.1-0.3,0c-0.1,0.1-0.5,0.1-0.7,0.1l0-0.1c-0.1-0.1,0.1,0,0.1-0.2
		c0-0.1-0.1,0,0-0.1c0.1,0,0.4-0.1,0.6-0.2c0.1,0,0,0,0.1-0.1c0.2-0.1,0.1,0,0.2-0.1c0.2,0,0.1,0,0.2-0.1l0.4-0.1c0,0,0,0,0,0
		l0.2-0.1l0.2,0c0-0.2,0-0.1,0-0.1c-0.2,0.1-0.2,0-0.5,0.1c0,0,0,0,0,0l-0.1,0c0,0,0,0,0,0c-0.1,0.1-0.1,0.1-0.3,0.1
		c-0.1,0-0.3,0-0.4,0c0.3-0.3,1-0.3,1.3-0.6c0,0,0,0,0,0l0.2-0.1c0,0,0,0,0,0c-0.3-0.1-0.1-0.1-0.2,0c-0.4,0.2,0.3-0.1-0.1,0.1
		c-0.1,0.1-0.4,0.1-0.6,0.1c0.1-0.1,0,0,0.1-0.1c0.1,0,0.1,0,0.1,0c-0.1-0.1-0.2-0.1-0.1-0.1c0.1-0.1,0.1-0.1,0.2-0.1
		c-0.1-0.1,0.2,0-0.2-0.1l0,0c-0.2,0.1-0.2,0-0.5,0.1c-0.1,0.2,0.1,0.1-0.1,0.2C40.6,22.9,40,23,39.8,23z M40.1,21.3
		c0.1,0.1-0.1-0.1-0.1,0.3c0,0.2,0.1,0.5,0.2,0.5c0.3,0,0-0.4,0-0.4l0.3-0.3c0.2-0.2,0.2,0,0.2,0c0.1,0.2,0,0,0,0l0,0c0,0,0,0,0,0
		c0.3,0,0.3-0.1,0.4,0c0,0,0.4,0.5,0.4,0.5l-0.3,0c0,0,0-0.1,0-0.1c-0.1-0.2,0-0.2-0.2-0.3c-0.1,0-0.1,0-0.2,0.1
		c0,0.1,0.1,0.1,0.1,0.3c-0.1,0.1-0.4,0.2-0.5,0.3c-0.2,0.1-0.5,0.6-0.9-0.3c0.2-0.2,0.2-0.1,0.2-0.3c-0.2,0-0.1,0-0.3,0.1
		c-0.1-0.2-0.1-0.2-0.1-0.3c-0.2,0-0.1,0.1-0.3,0c0,0-0.1,0-0.2,0c-0.2,0.1-0.1,0-0.1,0.1c0.2,0.1,0.1,0,0.3,0c0,0.1,0-0.1,0,0.1
		l0.1,0.2c0,0.1,0,0,0,0.1c0,0.1-0.1,0,0,0.2c0.2,0.2,0.1-0.1,0.3,0.2c0.1,0.1,0.1,0.3,0.2,0.4c-0.4,0.1,0,0-0.4-0.1
		c-0.3,0-0.3,0.1-0.6,0.1c0-0.4,0.2-0.2,0.4-0.4l0-0.2c-0.5,0-0.9,0.5-0.5,0.9c-0.2,0-0.3,0.1-0.5,0.1c0-0.4,0.1-0.2,0.2-0.4
		c0,0-0.1-0.3-0.4,0.1c-0.2,0.2-0.1,0.3,0,0.6c0.1,0.1,0-0.1,0.1,0.1l0.1,0.1c0,0.1,0.1,0.1,0.1,0.2c0.1,0.2,0.1,0.3,0.3,0.3
		c0.2-0.2,0-0.3-0.1-0.5c0.2,0,0.2,0,0.4-0.1c-0.2-0.2-0.3,0-0.5,0c0.2-0.1,0.3-0.1,0.4-0.1c0,0,0,0,0,0c0-0.2,0,0,0-0.2
		c0.3-0.1,0.4-0.2,0.6-0.1c0.3,0,0.2,0.1,0.2,0.2c0.1,0.3,0,0,0,0l0,0c0.5,0.2,0.1,0.1,0.4,0l0,0.1c0.2,0,0.8-0.1,0.9-0.2
		c0.2-0.1,0.1,0,0.1-0.2c0.2,0,0.3,0,0.5-0.1c-0.2,0-0.1,0-0.1-0.1c0.2,0,0.5-0.1,0.7-0.2c0.7-0.2,1.4-0.4,2-0.7
		c-0.2-0.1-3.1,0.8-3.5,0.9c0.1-0.3,0.6-0.2,0.7-0.3c0.4-0.2,0.3-0.1,0.8-0.3c0.1,0,0.2-0.1,0.3-0.1c0.3-0.1,0.2,0,0.3-0.1
		c0,0,0,0,0-0.1c-0.2,0.1-0.2,0.1-0.4,0.1c0.1-0.2,0.1-0.3,0.2-0.4c0.2,0.1,0.2,0.2,0.2,0.1c0,0,0,0,0,0c0.1,0,0.1,0,0.2-0.1
		c0.2-0.1-0.1,0,0.1,0l0.1,0c-0.2,0-0.1,0-0.1-0.1l0.4-0.1C43,21,43.3,21,42.9,21c-0.2,0-0.3,0.3-0.5,0.2c0.2-0.2,0.3,0,0.6-0.3
		c-0.4,0-0.1,0-0.6,0.2l-0.1,0c0.1,0,0.1,0,0.1,0.1c-0.1,0-0.3,0-0.3,0.1c0,0,0,0,0,0c0,0,0,0.1,0,0.1c-0.2,0.4-0.4,0.1-0.5,0
		c0,0,0,0,0,0l0.1-0.1c0,0,0,0,0,0c0.1-0.1,0,0,0.1-0.1c0-0.1,0.1,0,0.2-0.2c0,0,0,0,0,0c-0.5-0.1-0.1,0.1-0.5,0.1
		c0.1-0.1,0.1,0,0.2-0.1c0.5-0.3,0.4,0,0.5-0.2c-0.1-0.1,0.1,0-0.1,0c-0.1,0-0.5,0.1-0.7,0.1c0,0,0,0,0,0l0,0.2
		c-0.4,0.1-0.3,0-0.5-0.1C40.8,21.1,40.3,21.2,40.1,21.3z M30.8,16.3l0-0.2l0.3,0l0.1-0.3l0.2,0C31.5,16.3,31.3,16.5,30.8,16.3z
		 M30.5,15.7c0-0.5,0.2-0.7,0.7-0.5l0,0.2h-0.3c0,0,0,0,0,0l-0.1,0.3L30.5,15.7z M31.8,16.8L32,15c-0.3-0.1-1.5-0.3-1.8-0.2
		c-0.1,0.3-0.3,1.5-0.2,1.7C30.3,16.6,31.4,16.8,31.8,16.8z M39.9,13.6c-0.2,0.1-0.1,0.1-0.4,0.1c-0.2,0.1-0.3,0.1-0.4,0.2l-0.7,0.2
		c0,0,0,0,0,0l-0.2,0.1c0,0.3,0,0.1,0,0.1c-0.2,0.1-0.1,0.1-0.4,0.1l-0.6,0.2c0.2,0.2-0.1,0.2,0.3,0.3l-0.2-0.3c0.2,0,0.1,0.1,0.2,0
		c0,0,0,0,0,0l0,0.1c0,0.1,0,0,0.1,0.1c0.4-0.1,0,0.1,0.2-0.1c0.1-0.1,0-0.1,0-0.1c0.2,0.1,0.1,0,0.1,0.1c-0.2,0.1-1,0.3-1.3,0.4
		c0,0,0,0,0,0c0.1-0.4,0.4-0.1,0.5-0.4c-0.1-0.1,0-0.1-0.2-0.1c-0.3,0,0,0-0.2,0.1c0,0,0,0,0,0L36.6,15c0,0,0,0,0,0c0,0,0,0,0,0
		l-0.1,0c-0.5,0.3-0.4,0-1,0.3c0,0,0,0,0,0c-0.2,0.1-0.1,0.1-0.4,0.1c0,0,0,0,0,0c0,0,0,0.2,0.4,0.1l1.2-0.2c0.1,0.1,0,0,0,0.1
		c0.5-0.1,1.6-0.6,1.9-0.6l-0.1-0.1c0,0,0,0,0,0l-0.1,0c0,0,0,0,0,0c0.1-0.1,0.1-0.2,0.2-0.2c0,0,0,0,0,0c0.3,0.1-0.2,0.2,1-0.2
		c0.1,0,0.5-0.2,0.7-0.3c0.1-0.1,0.2-0.1,0.3-0.2l0.3-0.1c0.2-0.1,0.2-0.1,0.2-0.2c-0.2,0-0.3,0-0.4,0l-0.5,0.1c0,0,0.1-0.1,0.1-0.1
		l0,0c-0.2,0.1-0.1,0-0.2,0.1C39.7,13.7,40,13.7,39.9,13.6z M39.7,15.2c-0.2,0-0.5,0.1-0.7,0.2l-0.2,0.1c0.3,0,0.1-0.1,0.4-0.1
		l0.1,0.2c0,0,0,0,0,0c-0.1,0.2,0.1-0.1-0.4,0c-0.3,0.1-0.2,0.1-0.5,0.1c0,0,0,0,0,0l0.2-0.1c0.1-0.1,0,0,0.2-0.1
		c-0.3,0-0.2,0.1-0.3,0c0.2,0,0.7-0.2,1-0.3l1-0.4c0.1-0.3,0,0-0.1-0.2c-0.1,0.1-0.4,0.1-0.6,0.2c-0.1-0.1,0,0,0-0.1l-0.4,0.1
		c-0.8,0.2-0.2,0.1-0.5,0.2l-0.6,0.2l0.3,0c0,0,0,0,0,0c-0.1,0.2-1.1,0.2-1.3,0.5c0.2,0.2,0.3,0,0.5,0c0.4-0.1,0.4-0.2,0.6-0.2
		c-0.1,0.2,0,0.3-0.3,0.3c-0.1,0-0.1,0-0.1,0c-0.1,0,0,0-0.1-0.1c-0.1,0.1,0,0-0.1,0.1L37.4,16c0,0.2,0,0,0,0.1
		c0.1,0,0.3-0.1,0.4-0.1c-0.1,0.1,0,0.1-0.2,0.1c-0.1,0-0.1,0-0.3,0c0,0.2,0,0.1,0,0.2c0,0,0,0,0,0l0.1,0.1c0.4-0.2-0.1-0.1,0.6-0.2
		L38,16.3c0.2,0,0.4-0.1,0.6-0.2c0.1-0.1,0.3-0.2,0.5-0.2c0-0.2,0,0.1-0.1-0.1c0,0-0.1,0,0,0c0.1-0.1,0.6,0.2,0.8-0.2
		c0-0.1-0.2,0,0.3-0.1c0.1,0,0.2-0.1,0.4-0.1c0.1,0,0.3-0.1,0.4-0.2c0.2,0,0,0,0.1,0c0.2,0,0.3-0.1,0.6-0.2c0,0,0-0.1,0-0.1
		c0,0,0,0,0,0c0,0,0,0,0,0c0,0-0.2,0,0.1,0c0.4,0-0.3,0.2,0.2,0c0.1,0,0,0,0.1-0.1l0.5-0.1c0.1-0.1,0.1-0.1,0.1-0.2
		c0.4,0.1,0.3,0.1,0.6-0.1c0.5-0.2,0.2,0,0.4-0.3c-0.3,0-2.5,0.9-3,1c-0.2,0-0.4,0.1-0.5,0.1c-0.3,0.1,0.4,0-0.5,0.2
		c-0.2,0-0.1,0-0.2,0c0.1-0.1,0,0,0.2-0.1C39.6,15.3,39.6,15.3,39.7,15.2L39.7,15.2z M35.2,24.2c0,0.2,0,0.2,0.2,0.3
		c0.1,0.1,0,0,0.1,0.1c0,0,0.5,1.1,0.9,0.5c-0.2-0.4-0.2,0.1-0.5-0.3c-0.1-0.1-0.2-0.3-0.2-0.5l0.4-0.2c0.2,0.3,0.3,0.7,0.7,0.7
		c0.2,0,0.2-0.1,0.2-0.2c-0.3-0.4-0.2,0.4-0.7-0.6c0.2-0.2,0.1,0,0.2-0.3c-0.1-0.1,0,0-0.2-0.1c-0.1,0.1-0.1,0.1-0.2,0.1
		c-0.1-0.2-0.1-0.2-0.3-0.3c-0.2,0.4,0,0.2,0,0.5c-0.5,0.2,0,0.1-0.3,0.2l-0.2-0.3C35,24,35.3,24,35.2,24.2z M12.8,27.2
		c-0.1,0.1-0.2,0.2-0.4,0.2l-0.2-0.4c-0.2,0.3-0.1,0.1-0.1,0.4c0.1,0.2,0,0.2,0.1,0.3c0,0.1,0.2,0.1,0.3,0.2c0,0,0.5,1,0.9,0.4
		c-0.2-0.4-0.1,0.1-0.4-0.2c-0.1-0.1-0.2-0.4-0.3-0.5c0.1-0.1,0.2-0.2,0.4-0.2c0.2,0.2,0.2,0.4,0.4,0.6c0.2,0.3,0.7,0.1,0.6-0.1
		c-0.2-0.2-0.2,0.1-0.4-0.2c-0.1-0.1-0.2-0.3-0.2-0.4c0.1-0.2,0.3-0.1,0.2-0.3c-0.1-0.2-0.2,0-0.3,0c-0.1-0.2-0.1-0.2-0.2-0.3
		C12.6,27,12.8,26.9,12.8,27.2z M40.1,21.3l-0.7,0.1c-0.1,0.1,0,0.1,0.1,0.3c0.2-0.1,0.1-0.1,0.3-0.1c0.1,0.2,0,0.2-0.2,0.3
		c0.4,0.9,0.7,0.4,0.9,0.3c0.1-0.1,0.4-0.1,0.5-0.3c0-0.2-0.1-0.2-0.1-0.3c0.1-0.1,0.1-0.1,0.2-0.1c0.1,0.1,0.1,0.1,0.2,0.3
		c0,0,0,0.1,0,0.1l0.3,0c0,0-0.4-0.5-0.4-0.5c-0.2,0-0.2,0.1-0.4,0c0,0,0,0,0,0l0,0c0,0,0.1,0.2,0,0c0,0,0.1-0.2-0.2,0l-0.3,0.3
		c0,0,0.3,0.4,0,0.4c-0.2,0-0.3-0.3-0.2-0.5C40,21.2,40.2,21.4,40.1,21.3z M41.4,22.6c0.3,0,0.1,0,0.2,0.1c-0.2,0.1-0.1,0-0.2,0.1
		c-0.1,0,0,0,0.1,0.1c-0.1,0-0.1,0-0.1,0c-0.1,0.1,0,0-0.1,0.1c0.1,0.1,0.5,0,0.6-0.1c0.4-0.2-0.3,0.2,0.1-0.1
		c0.1-0.1-0.1-0.1,0.2,0c0,0,0,0,0,0L41.7,23c0,0,0,0,0,0c-0.3,0.2-1.1,0.3-1.3,0.6c0.1,0,0.3,0,0.4,0c0.2,0,0.2,0,0.3-0.1
		c0,0,0,0,0,0l0.1,0c0,0,0,0,0,0c0.3-0.1,0.3,0,0.5-0.1c0.1,0.1,0,0,0,0.1l0.6-0.2c0,0,0,0,0,0c0.1,0,0.1,0,0.2-0.1
		c-0.1-0.1-0.5,0.1-0.8,0.1c0.2-0.2,0.3-0.1,0.8-0.3c0.4-0.2,0.5-0.1,0.8-0.3c-0.1,0-0.1,0-0.2,0c-0.1,0-0.1,0-0.1,0
		c-0.2-0.1-0.8,0.2-1.1,0.2c0.2-0.1,0.7-0.2,0.8-0.3c-0.3,0-0.4,0.1-0.7,0.1c-0.2,0-0.3-0.1-0.4,0c-0.2,0,0,0-0.2,0L41.4,22.6
		C41.4,22.6,41.4,22.6,41.4,22.6C41.4,22.6,41.4,22.6,41.4,22.6z M40.2,14.7c0.1,0.1,0.2-0.1,0.1,0.2l-1,0.4c-0.3,0.1-0.7,0.3-1,0.3
		c0.1,0.1,0,0.1,0.3,0c-0.2,0.1-0.1,0-0.2,0.1l-0.2,0.1c0,0,0,0,0,0c0.4,0.1,0.2,0,0.5-0.1c0.5-0.1,0.3,0.2,0.4,0c0,0,0,0,0,0
		l-0.1-0.2c-0.3,0-0.1,0.1-0.4,0.1l0.2-0.1c0.2-0.1,0.4-0.2,0.7-0.2c0.3,0.1,0.9-0.3,1.4-0.4l0.2-0.1c0,0,0,0,0,0c0.1,0,0.1,0,0.2,0
		l0.3-0.2c-0.2-0.2-0.1-0.2-0.2-0.3c-0.1,0-0.1,0.1-0.2,0.1l-0.2,0c-0.3,0.1-0.2,0.2-0.6,0.2c0,0,0,0,0,0l-0.1,0.2
		C40.4,14.7,40.4,14.6,40.2,14.7z M19.2,23.9c-0.3-0.1-0.4-0.9-0.7-0.7c-0.1,0.1-0.1,0,0.1,0.4l0.5,0.8c0.2,0.3,0.1,0.3,0.3,0.4
		l0.1-0.1c0-0.3-0.2-0.2-0.1-0.5c0.4,0.1,0.5,0.4,0.8,0c-0.2-0.1-0.6-0.3-0.8-0.3l0.1-0.8C19.2,23.3,19.3,23.5,19.2,23.9z
		 M11.2,28.7c-0.3-0.5-0.7-0.1-0.9,0c-0.1-0.1-0.3-0.6-0.4-0.3c-0.1,0.1,0.8,1.5,0.9,1.5l0.2-0.1c-0.1-0.3-0.4-0.7-0.4-0.9
		c0.5-0.6,0.6,0.4,0.9,0.6l0.1-0.1C11.6,29.3,11.3,28.9,11.2,28.7z M33.1,25.5c0.1,0.1,0.1,0,0.1,0.1c0.1,0.2,0.5,0.9,0.6,0.9
		l0.1-0.1c-0.1-0.4-0.4-0.5-0.4-0.9c0.5-0.6,0.6,0.5,1,0.6c0.2-0.1,0.1-0.1,0-0.3c-0.1-0.1-0.1-0.2-0.2-0.3
		c-0.2-0.3-0.1-0.4-0.6-0.4c-0.1,0.1-0.3,0.2-0.4,0.2c-0.2-0.5-0.5-0.4-0.3-0.1C33.1,25.3,33.1,25.3,33.1,25.5z M37,23.5
		c0.2-0.1,0.2-0.1,0.4-0.1l-0.2,0.1c0.2,0,0.1,0.1,0.1,0.1c-0.1,0.1-0.2,0.1-0.3,0.1L37,23.5z M36.7,23.4c0,0.4,0,0.3,0.1,0.6
		c0.1,0.1,0.2,0.3,0.3,0.4c0.3,0.2,0.8-0.1,0.8-0.4c-0.4-0.1-0.3,0.5-0.7,0.1c0.1-0.3,0.6-0.2,0.6-0.7c-0.3-0.1-0.1-0.3-0.5-0.3
		C36.9,23.1,36.9,23.3,36.7,23.4z M40.9,12.5c0.1,0.1,0.1,0,0.1,0.1l-0.6,0.2c0,0,0,0,0,0c-0.2,0.1-0.1,0-0.3,0.1c0.1,0.1,0,0,0.1,0
		l0.2,0.1c0,0,0,0,0,0c0,0,0,0,0,0L40,13.2c-0.1,0-0.2,0.1-0.2,0.1c0.1,0.1,0.1,0.1,0.2,0c0.3-0.1,0.4-0.3,0.4-0.4
		c0.1-0.2,0.1,0.1,0.5,0.1c0.3,0.1,0.1-0.2,0.3,0.1c0.2,0,0.2-0.1,0.3-0.1c0.4-0.1,0,0.1,0.3,0c0.1,0,0.2-0.1,0.2-0.1l0-0.1
		c-0.3,0.1-0.3,0.1-0.6,0.1c0.3-0.2,0.6-0.1,0.8-0.4c-0.2,0-0.3,0.1-0.5,0.1c-0.3,0.1-0.2,0.1-0.4,0.1c0.2-0.1,0.2-0.1,0.3-0.2
		c-0.4,0.1,0,0.1-0.4,0l-0.1,0c0,0,0,0,0,0c-0.1,0,0,0-0.1,0c0.5-0.1,0.4-0.1,0.8-0.2c0.2-0.1,0.2-0.1,0.3-0.2
		c-0.3,0-0.5,0.2-0.9,0.2C40.9,12.4,41,12.4,40.9,12.5z M13.9,27.1c-0.1-0.3,0.2-0.5,0.4-0.2c-0.1,0.1,0,0.1-0.2,0.2
		C14,27.2,14.1,27.2,13.9,27.1z M14.8,27.3c-0.3,0-0.1,0-0.3,0.2c-0.1,0.1-0.2,0.1-0.4,0c0.1-0.2,0.4-0.3,0.6-0.5
		c-0.3-0.9-1.3-0.4-1,0.2c0,0.1,0.2,0.3,0.2,0.4c0.1,0.1,0.2,0.2,0.3,0.3C14.5,27.8,14.8,27.6,14.8,27.3z M12.6,28.8
		c-0.1-0.2-0.2-0.4-0.3-0.6c-0.3-0.5-0.2-0.5-0.4-0.3c0,0.3,0.4,0.6,0.4,1c-0.3,0.2-0.4,0.2-0.6-0.1c-0.1-0.2-0.2-0.4-0.3-0.5
		l-0.2,0.1c0,0.2,0.4,0.8,0.5,0.9C12,29.4,12.4,29,12.6,28.8z M34.9,24.4c-0.1,0.4,0.4,0.6,0.4,1c-0.3,0.2-0.4,0.2-0.5-0.1
		c-0.1-0.1-0.3-0.5-0.3-0.6c-0.4,0-0.2,0.2-0.1,0.4c0.1,0.2,0.2,0.3,0.3,0.5c0.3,0.4,0.8,0,1-0.3l-0.6-1L34.9,24.4z M15.6,26.9
		c0.6,0.2,1.1-0.9,0.4-0.9c-0.3,0-0.2,0.1-0.5,0.1c0-0.5,0.5-0.1,0.4-0.6c-0.6-0.1-1,0.9-0.3,0.9c0.1,0,0.6-0.3,0.5,0.1
		c0,0.1-0.2,0.2-0.3,0.2C15.6,26.7,15.6,26.6,15.6,26.9z M9.6,29.6c-0.1-0.5,0.4-0.1,0.4-0.6c-0.3-0.1-0.7,0.2-0.7,0.6
		c0.1,0.5,0.6,0.2,0.9,0.2c0,0.2-0.1,0.3-0.2,0.3c-0.3,0.1-0.3,0-0.2,0.3c0.3,0,0.5-0.1,0.6-0.3c0.2-0.3,0.1-0.4,0-0.6
		C9.9,29.5,9.9,29.7,9.6,29.6z M32.8,27.1c0.3,0,0.8-0.2,0.8-0.6c-0.1-0.5-0.6-0.2-0.9-0.2c0-0.3,0.2-0.3,0.4-0.3l0-0.3
		c-0.8,0-0.9,0.9-0.3,0.9c0.2,0,0.2-0.2,0.5,0c0,0.3-0.3,0.3-0.5,0.4L32.8,27.1z M40.4,24.2l-0.3,0c0.1,0,0.1,0,0.2-0.1l0-0.1
		c0.1,0.1,0.1,0.1,0.3,0.1c0.2-0.3,0.3,0,0.9-0.3c0.1,0.1-0.1-0.1,0,0.1l0.3,0l-0.2-0.1l0.2-0.1c0,0,0,0,0,0l-0.2-0.1l-0.2,0.1
		c0,0,0,0,0,0L41,23.6c-0.1,0-0.1,0-0.2,0.1c-0.2,0,0,0-0.2,0.1c-0.1,0,0,0-0.1,0.1c-0.2,0.1-0.6,0.1-0.6,0.2c-0.1,0.1,0,0,0,0.1
		c0,0.2-0.2,0.1-0.1,0.2l0,0.1C39.8,24.3,40.3,24.3,40.4,24.2z M19,24.6c-0.3,0-0.1,0-0.3,0.2c-0.3,0.4-0.7-0.2-0.6-0.6
		c0.3-0.2,0.4,0.1,0.5-0.2c-0.2-0.3-0.6-0.1-0.7,0.1c-0.4,0.4,0.2,1.2,0.6,1.1C18.8,25.2,19.2,24.9,19,24.6z M37.4,16l0.2-0.1
		c0.1-0.1,0,0,0.1-0.1c0.1,0.1,0,0.1,0.1,0.1c0,0,0,0,0.1,0c0.2,0,0.2,0,0.3-0.3c-0.3,0-0.2,0.1-0.6,0.2c-0.3,0.1-0.3,0.2-0.5,0
		c0.2-0.3,1.2-0.3,1.3-0.5c0,0,0,0,0,0l-0.3,0c-0.1,0.1,0-0.1-0.5,0.1c-0.4,0.1-1.2,0.2-1.4,0.6l0.8-0.2c-0.1,0.2-0.1,0.1-0.3,0.2
		c-0.1,0.1-0.2,0.1-0.3,0.2c0.2,0,0.3,0,0.4-0.1c0.1,0.1,0.1,0.1,0.1,0.1C37.7,16,37.1,16.1,37.4,16z M17.1,26
		C17,25.9,17.2,26,17.1,26c-0.3-0.1-0.3,0-0.4-0.2c0-0.1-0.2-0.3-0.2-0.4c0.1-0.2,0.3-0.1,0.2-0.3c-0.1-0.2-0.2,0-0.3,0
		c-0.1-0.1-0.1-0.3-0.3-0.3c-0.2,0.3,0,0.1,0,0.6c0,0.3,0,0.1,0.3,0.3c0.1,0.1,0.2,0.5,0.4,0.6C16.9,26.3,17.3,26.2,17.1,26z
		 M38.6,23l0.3,0c-0.1,0,0,0-0.1,0.1C38.7,23.1,38.7,23.1,38.6,23l0.2,0.2c-0.3,0.4,0.2,0.3,0.4,0.1c0.1-0.1,0.2-0.1,0.3-0.2
		c0.1-0.1,0.2-0.1,0.3-0.2l0-0.1c-0.4,0,0,0.1-0.4,0l0,0c0,0,0.1,0.3,0,0c0,0,0.1-0.1-0.2-0.2c-0.2,0-0.2,0.1-0.6,0.1
		C38.6,23,38.6,22.9,38.6,23z M39.9,13.6c0.1,0.2-0.2,0.1,0.2,0.2c0.1-0.1-0.1,0,0.2-0.1l0,0c0,0-0.1,0.1-0.1,0.1l0.5-0.1
		c0.2-0.1,0.3-0.1,0.4,0c0,0,0,0.1-0.2,0.2l0,0c0,0,0,0,0.1,0c0,0,0,0,0,0c0,0,0,0,0,0l0.2-0.1c0-0.1,0.1,0,0-0.1l-0.1,0
		c0.5,0,0,0,0.3,0.1c0.1-0.1,0.1-0.1,0-0.1c0.2,0,0.2,0,0.3-0.2c-0.6,0-0.4,0-0.6,0.1c-0.1-0.1-0.1-0.1-0.2-0.2l-0.1-0.1
		c-0.2,0-0.2,0.1-0.4,0.1C40.2,13.5,40.1,13.5,39.9,13.6z M14.9,26c-0.6,0.2-0.1,0.8,0,1.1c0.1,0.1,0.1,0.3,0.3,0.2
		c0.2-0.1-0.1-0.5-0.2-0.7c-0.3-0.5,0.2-0.3,0.1-0.6C15,25.8,14.9,25.9,14.9,26z M39.1,10.7l0.1,0c-0.1,0.1,0,0.1-0.2,0.1
		c0.2,0,0.2-0.1,0.3,0c0.2,0.1,0.1,0,0.1,0.1c0.4-0.1,0.3-0.1,0.3-0.2l0.1,0c0,0,0,0,0,0c0.1,0,0,0,0.1,0c0-0.3,0.1-0.2,0.3-0.2
		c-0.1-0.1,0.1,0-0.1,0c0,0,0,0.1-0.1-0.1c-0.1-0.1-0.4,0-0.5,0.1C39.4,10.6,39.4,10.6,39.1,10.7z M17.8,25.4l-0.2,0.2l0.1,0.2
		c0.1,0,0.3-0.1,0.3-0.2c0.2-0.3,0-0.8-0.3-0.6C17.6,25.1,17.8,25.1,17.8,25.4z M17.1,25.4l0.2-0.1c0-0.2-0.1-0.2-0.1-0.4
		c0.1-0.1,0.3-0.2,0.2-0.3C17.2,24.3,16.5,25,17.1,25.4z M30.5,15.7l0.2,0l0.1-0.3c0,0,0,0,0,0h0.3l0-0.2
		C30.7,15.1,30.5,15.2,30.5,15.7z M30.8,16.3c0.5,0.1,0.6,0,0.7-0.5l-0.2,0l-0.1,0.3l-0.3,0L30.8,16.3z M5.8,32.2
		c0.1-0.2,0.1-0.1,0.4-0.1l0-0.2c-0.4-0.1-0.7,0-0.6,0.5C5.8,32.4,5.7,32.5,5.8,32.2z M29,29.4l0,0.1c0.2,0.1,0.5,0.1,0.6-0.2
		c0.1-0.3,0-0.2-0.1-0.3c-0.2,0.1-0.1,0.1-0.2,0.3C29.3,29.4,29.2,29.3,29,29.4z M42.8,21.3L42.8,21.3c-0.2,0.1,0.1,0-0.1,0.1
		c-0.1,0-0.1,0-0.2,0.1c0,0,0,0,0,0c0,0,0-0.1-0.2-0.1c-0.1,0.2-0.1,0.2-0.2,0.4c0.2,0,0.2,0,0.4-0.1c0.3,0,0.4-0.1,0.6-0.3
		C42.9,21.3,42.9,21.3,42.8,21.3z M22.8,21.7l-0.3,0l0,0.2c0.4,0.1,0.7,0,0.6-0.5l-0.2,0L22.8,21.7z M6.2,32.8
		c-0.3,0.1-0.3-0.1-0.3,0.2C6,33.1,6.2,33,6.4,33c0-0.1,0.1-0.3,0.1-0.5l-0.2,0.1C6.2,32.7,6.2,32.7,6.2,32.8z M28.7,29
		c0.1,0,0.1,0,0.2,0c0.3-0.1-0.2,0.1,0.1,0c0.1-0.1,0,0,0.1-0.1c-0.2,0-0.1,0-0.1-0.1c0.2-0.2,0.2,0.1,0.4-0.1
		c0-0.1,0.1-0.1-0.2-0.2c-0.1,0-0.2,0-0.2,0C28.7,28.6,28.7,28.8,28.7,29z M41.7,21.2c-0.1,0.1,0,0-0.1,0.1c0,0,0,0,0,0l-0.1,0.1
		c0,0,0,0,0,0c0.1,0.1,0.4,0.4,0.5,0c0,0,0-0.1,0-0.1c0,0,0,0,0,0c0.1-0.1,0.2-0.1,0.3-0.1c-0.1-0.1,0,0-0.1-0.1L41.7,21.2z
		 M22.3,21.3c0.2-0.1,0-0.2,0.2-0.3c0.1-0.1,0.3,0,0.3-0.1c0-0.3-0.4-0.1-0.5-0.1c-0.1,0.1-0.1,0.1-0.1,0.2
		C22.1,21.3,22.2,21.2,22.3,21.3z M13.9,27.1c0.2,0,0.1,0,0.3-0.1c0.1-0.1,0.1,0,0.2-0.2C14.1,26.6,13.8,26.8,13.9,27.1z M37,23.5
		l0,0.3c0.2,0,0.2,0,0.3-0.1c0,0,0,0-0.1-0.1l0.2-0.1C37.1,23.4,37.2,23.4,37,23.5z"/>
	<polygon class="st6" points="24.2,9.5 32.9,26.8 41.6,44 24.2,44 6.9,44 15.5,26.8 	"/>
	<polygon class="st7" points="24.2,9.5 32.9,26.8 41.6,44 24.2,44 6.9,44 15.5,26.8 	"/>
	<path class="st8" d="M24,13.5l0.2,0.2c0.1,0.1,0.1,0.2,0.1,0.2c0.1,0.2,0.2,0.3,0.3,0.5c0.2,0.3,0.3,0.6,0.5,0.9
		c0.3,0.6,0.7,1.2,1,1.9c0.7,1.2,1.3,2.4,2,3.7c2.7,4.9,5.3,9.9,8,14.8l4,7.4L8,43.1L24,13.5z M24.1,9.2c-1.8,0-2.8,2.4-3.6,3.9
		C15,22.6,9.6,32.3,4.2,41.9c-0.4,0.7-1.1,1.7-0.9,2.8c0.2,1,1,1.6,2,1.6h37.5c1.1,0,1.8-0.7,2-1.7c0.2-1.2-0.5-2.1-0.9-2.8
		c-0.9-1.6-1.8-3.2-2.7-4.8L30.3,17.8c-0.9-1.6-1.8-3.2-2.7-4.8C26.8,11.6,25.8,9.2,24.1,9.2z"/>
	<path class="st6" d="M24.1,9.2c1.7,0,2.8,2.4,3.6,3.9c0.9,1.6,1.8,3.2,2.7,4.8L41.1,37c0.9,1.6,1.8,3.2,2.7,4.8
		c0.4,0.8,1.1,1.6,0.9,2.8c-0.2,1-0.9,1.7-2,1.7H5.3c-1.1,0-1.8-0.6-2-1.6c-0.2-1.1,0.5-2.1,0.9-2.8C9.6,32.3,15,22.6,20.4,13
		C21.3,11.6,22.3,9.2,24.1,9.2 M23.7,8.9c-1.3,0.2-2,1.4-2.6,2.4L4.8,40.2c-0.3,0.6-0.6,1.1-0.9,1.6c-0.3,0.5-0.7,1.1-0.8,1.7
		c-0.4,1.6,0.6,2.9,2,3c1.3,0.1,7.7,0,9.6,0h19.4c1.6,0,8.6,0.2,9.5-0.1c1.1-0.4,1.8-1.9,1.2-3.4l-16.3-29c-0.6-1.1-1.2-2.2-1.8-3.2
		C26.2,10,25.2,8.7,23.7,8.9z"/>
	<path class="st9" d="M27.2,35.5h7c0.3,0,0.6,0.3,0.6,0.8V40c0,0.4-0.3,0.8-0.6,0.8h-7c-0.3,0-0.6-0.3-0.6-0.8v-3.8
		C26.6,35.8,26.9,35.5,27.2,35.5"/>
	<path class="st10" d="M27.7,36.2c-0.5,0.3-0.3,1.4-0.3,2.4c0,1.3,0,1.4,1.2,1.4c0.7,0,4.7,0.1,5.1-0.1c0.5-0.2,0.4-1.4,0.4-2.4
		c0-1.3,0-1.5-1.3-1.5C32.1,36.1,28,36,27.7,36.2"/>
	<path class="st10" d="M33.5,41c-0.5-0.2-0.9,0.2-0.6,0.5C33.1,41.8,33.7,41.7,33.5,41"/>
	<g>
		<path class="st9" d="M30.4,34.4h0.5c0.2,0,0.3,0.1,0.4,0.2c0.1,0.1,0.2,0.3,0.2,0.4c0,0.1,0,0.1,0,0.2h-0.2c0-0.1,0-0.1,0-0.2
			c0-0.1,0-0.2-0.1-0.3c-0.1-0.1-0.2-0.1-0.3-0.1h-0.5c-0.1,0-0.2,0-0.3,0.1C30,34.8,30,34.9,30,35c0,0.1,0,0.1,0,0.2h-0.2
			c0-0.1,0-0.1,0-0.2c0-0.2,0.1-0.3,0.2-0.4C30.1,34.5,30.2,34.4,30.4,34.4"/>
		<path class="st9" d="M31.4,35.4h-0.2c0,0-0.1,0-0.1-0.1c0,0,0-0.1,0-0.1c0,0,0-0.1,0-0.1c0-0.1,0-0.2-0.1-0.2c0,0-0.1-0.1-0.2-0.1
			h-0.5c-0.1,0-0.1,0-0.2,0.1c0,0.1-0.1,0.1-0.1,0.2c0,0.1,0,0.1,0,0.1c0,0,0,0.1,0,0.1c0,0-0.1,0.1-0.1,0.1h-0.2
			c-0.1,0-0.1,0-0.1-0.1c0-0.1,0-0.2,0-0.2c0-0.2,0.1-0.4,0.2-0.5c0.1-0.2,0.3-0.2,0.5-0.2h0.5c0.2,0,0.4,0.1,0.5,0.2
			c0.1,0.1,0.2,0.3,0.2,0.5c0,0.1,0,0.2,0,0.2C31.5,35.3,31.5,35.4,31.4,35.4z"/>
	</g>
	<path class="st11" d="M33.2,41c0.2,0,0.4,0.2,0.4,0.4c0,0.2-0.2,0.4-0.4,0.4c-0.2,0-0.4-0.2-0.4-0.4C32.8,41.2,33,41,33.2,41"/>
	<g>
		<path class="st7" d="M33.2,41c0.2,0,0.4,0.2,0.4,0.4c0,0.2-0.2,0.4-0.4,0.4c-0.2,0-0.4-0.2-0.4-0.4C32.8,41.2,33,41,33.2,41z"/>
	</g>
	<path class="st11" d="M28.4,41c0.2,0,0.4,0.2,0.4,0.4c0,0.2-0.2,0.4-0.4,0.4c-0.2,0-0.4-0.2-0.4-0.4C28,41.2,28.2,41,28.4,41"/>
	<g>
		<path class="st7" d="M28.4,41c0.2,0,0.4,0.2,0.4,0.4c0,0.2-0.2,0.4-0.4,0.4c-0.2,0-0.4-0.2-0.4-0.4C28,41.2,28.2,41,28.4,41z"/>
	</g>
	<path class="st6" d="M27.6,36h6.1c0.3,0,0.6,0.3,0.6,0.6v3.1c0,0.3-0.2,0.6-0.6,0.6h-6.1c-0.3,0-0.6-0.3-0.6-0.6v-3.1
		C27.1,36.3,27.3,36,27.6,36"/>
	<path class="st9" d="M27.9,36.4h5.6c0.3,0,0.5,0.2,0.5,0.5v2.6c0,0.3-0.2,0.5-0.5,0.5h-5.6c-0.3,0-0.5-0.2-0.5-0.5v-2.6
		C27.4,36.6,27.6,36.4,27.9,36.4"/>
	<path class="st7" d="M27.9,36.4h5.6c0.3,0,0.5,0.2,0.5,0.5v2.6c0,0.3-0.2,0.5-0.5,0.5h-5.6c-0.3,0-0.5-0.2-0.5-0.5v-2.6
		C27.4,36.6,27.6,36.4,27.9,36.4z"/>
	<path class="st9" d="M22.5,28.1l0.9,0.9l2.4,2.5c0.4,0.4,0.7,0.7,1,0.7c0.6,0,1-0.6,0.5-1.1l-1.1-1.2l-1-1L24,27.7
		c-0.4-0.4-1.4-1.6-1.8-1.8c-0.1-0.1-0.2-0.1-0.4-0.1c-0.5-0.1-1.3,0-1.5,0.2c-0.3,0.3-0.2,0.8-0.2,1.6c0,1.3,0,2.6,0,3.9
		c0,0.2,0,0.3,0,0.5c0,0.2,0,0.2-0.1,0.3c-0.1,0.2-0.2,0.3-0.4,0.5c-0.3,0.3-0.5,0.6-0.7,1c-0.1,0.2-0.2,0.3-0.4,0.5
		c-0.1,0.1-0.3,0.3-0.4,0.5c-0.1,0.2-0.8,4.3-0.9,4.7c-0.1,0.4-0.3,1.2-0.2,1.6c0.2,0.5,0.7,0.7,1,0.4c0.4-0.2,0.4-0.7,0.5-1.3
		c0.2-1,0.4-2.1,0.6-3.1c0.1-0.8,0.1-0.7,0.5-1.3c0.5-0.7,1-1.3,1.5-2c0.2-0.3,0.5-0.6,0.7-1c0.3-0.5,0.5-0.6,0.6-1.2
		C22.6,30.5,22.5,29.4,22.5,28.1"/>
	<path class="st9" d="M21.7,35.6c0.4,1,0.8,2,1.3,3c0.3,0.7,0.6,1.3,0.9,2c0.1,0.2,0.1,0.3,0.2,0.5c0.7,1.2,1.8,0.2,1.3-0.9
		c-0.1-0.3-0.3-0.7-0.4-1c-0.1-0.3-0.3-0.7-0.4-1c-0.6-1.5-1.4-3.2-2-4.8l-0.1-0.2l-1,1.4L21.7,35.6z"/>
	<path class="st9" d="M20.8,22.1c-0.4,0.1-0.7,0.3-0.9,0.5c-0.2,0.3-0.4,0.6-0.4,1.1c0,0.5,0.1,1,0.3,1.3c0.2,0.3,0.6,0.5,0.9,0.4
		c0.3-0.1,0.6-0.4,0.8-0.6c0.2-0.2,0.4-0.5,0.5-1C22.1,22.7,21.5,22,20.8,22.1"/>
	<path class="st9" d="M19.8,29c-0.1,0-0.3,0.3-0.3,0.4l-1.7,2.3c-0.3,0.3-0.4,0.8-0.1,1.2c0.3,0.4,0.6,0.2,0.9-0.1l1-1.3
		c0.1-0.2,0.2-0.2,0.2-0.6C19.8,30.3,19.8,29.6,19.8,29"/>
	<path class="st12" d="M94.1,36.9h1.6c0.7,0,1.4,0.2,1.4,1.1c0,0.7-0.4,1.2-1.3,1.2h-1.7V36.9z M93.3,39.8h2.6
		c1.3,0,2.1-0.9,2.1-1.9c0-1.1-0.7-1.4-1.1-1.6c0.7-0.3,0.8-0.9,0.8-1.3c0-0.9-0.6-1.6-1.7-1.6h-2.7V39.8z M94.1,34.2h1.5
		c0.9,0,1.3,0.3,1.3,0.9c0,0.8-0.5,1-1.3,1h-1.5V34.2z M92.4,36.6c0-1.4-0.7-3.4-2.9-3.4c-2.3,0-2.9,2-2.9,3.4
		c0,1.4,0.7,3.4,2.9,3.4C91.7,40,92.4,38,92.4,36.6z M91.6,36.6c0,1.5-0.8,2.6-2.1,2.6c-1.3,0-2.1-1.1-2.1-2.6
		c0-1.5,0.8-2.6,2.1-2.6C90.8,34,91.6,35.1,91.6,36.6z M84.3,34.2h2.1v-0.8h-4.9v0.8h2.1v5.6h0.8V34.2z M81,35.4
		c-0.1-1.1-0.9-2.1-2.5-2.1c-1.8,0-2.8,1.4-2.8,3.3c0,2.5,1.3,3.4,2.7,3.4c0.5,0,2.3-0.1,2.6-2.5h-0.8c-0.3,1.5-1.2,1.8-1.7,1.8
		c-1.5,0-2-1.2-2-2.7c0-1.7,0.9-2.5,2-2.5c0.6,0,1.5,0.2,1.7,1.3H81z M70.8,33.4H70v6.4h0.9l3.1-5.2h0v5.2h0.8v-6.4h-0.9l-3.1,5.2h0
		V33.4z M65.5,37.1h1.9c1.3,0,1.8-1,1.8-1.9c0-1-0.7-1.8-1.8-1.8h-2.7v6.4h0.8V37.1z M65.5,34.2h1.7c0.7,0,1.2,0.3,1.2,1.1
		c0,0.9-0.5,1.2-1.2,1.2h-1.6V34.2z M63.1,33.4l-1.8,4.4l-1.9-4.4h-0.9l2.3,5.2c-0.3,0.5-0.4,0.6-0.7,0.6c-0.2,0-0.3,0-0.5,0V40
		c0.2,0,0.4,0.1,0.6,0.1c0.5,0,0.9-0.2,1.3-1.2l2.3-5.4H63.1z M56.1,34.2h2.1v-0.8h-4.9v0.8h2.1v5.6h0.8V34.2z"/>
	<path class="st12" d="M116.5,30.2h-3.7V28h3.3v-0.8h-3.3v-1.9h3.6v-0.8h-4.4V31h4.5V30.2z M106.9,24.6h-0.8V31h0.9l3.1-5.2h0V31
		h0.8v-6.4H110l-3.1,5.2h0V24.6z M101,24.6h-0.8V31h0.8v-3h3.2v3h0.8v-6.4h-0.8v2.7H101V24.6z M99.3,30.2h-3.7V28H99v-0.8h-3.3v-1.9
		h3.6v-0.8h-4.4V31h4.5V30.2z M89.8,24.6h-0.8V31h0.8v-3h3.2v3h0.8v-6.4h-0.8v2.7h-3.2V24.6z M83.8,24.6H83V31h0.9l3.1-5.2h0V31h0.8
		v-6.4h-0.9l-3.1,5.2h0V24.6z M80.9,30.2h-3c0.5-1.1,0.6-2,0.6-3.4v-1.4h2.3V30.2z M77.7,24.6v2c0,1.5-0.1,2.3-0.6,3.6h-0.5v2.2h0.8
		V31h4.1v1.4h0.8v-2.2h-0.5v-5.6H77.7z M76,30.2h-3.7V28h3.3v-0.8h-3.3v-1.9h3.6v-0.8h-4.4V31H76V30.2z M66.9,28h1.7
		c0.7,0,1.3,0.3,1.3,1.2c0,0.8-0.5,1-1.2,1h-1.8V28z M66.9,24.6H65v0.7h1.1V31h2.8c1.1,0,1.8-0.8,1.8-1.8c0-0.9-0.5-2-1.8-2h-2V24.6
		z M60.9,28h1.7c0.7,0,1.3,0.3,1.3,1.2c0,0.8-0.5,1-1.2,1h-1.8V28z M60,24.6V31h2.8c1.1,0,1.8-0.8,1.8-1.8c0-0.9-0.5-2-1.8-2h-2
		v-1.9h3.4v-0.8H60z M59.2,27.8c0-1.4-0.7-3.4-2.9-3.4c-2.3,0-2.9,2-2.9,3.4c0,1.4,0.7,3.4,2.9,3.4C58.5,31.2,59.2,29.2,59.2,27.8z
		 M58.3,27.8c0,1.5-0.8,2.6-2.1,2.6c-1.3,0-2.1-1.1-2.1-2.6c0-1.5,0.8-2.6,2.1-2.6C57.5,25.2,58.3,26.3,58.3,27.8z"/>
	<path class="st12" d="M128,21.4h-3.7v-2.2h3.3v-0.8h-3.3v-1.9h3.6v-0.8h-4.4v6.4h4.5V21.4z M122.7,19c0-1.4-0.7-3.4-2.9-3.4
		c-2.3,0-2.9,2-2.9,3.4c0,1.4,0.7,3.4,2.9,3.4C122,22.3,122.7,20.4,122.7,19z M121.8,19c0,1.5-0.8,2.6-2.1,2.6
		c-1.3,0-2.1-1.1-2.1-2.6c0-1.5,0.8-2.6,2.1-2.6C121,16.4,121.8,17.5,121.8,19z M112.7,15.8h-0.8v6.4h0.8v-2.3l1-1l2.1,3.2h1.1
		l-2.6-3.8l2.5-2.6h-1.1l-2.9,3.1V15.8z M111,17.7c-0.1-1.1-0.9-2.1-2.5-2.1c-1.8,0-2.8,1.4-2.8,3.3c0,2.5,1.3,3.4,2.7,3.4
		c0.5,0,2.3-0.1,2.6-2.5h-0.8c-0.3,1.5-1.2,1.8-1.7,1.8c-1.5,0-2-1.2-2-2.7c0-1.7,0.9-2.5,2-2.5c0.6,0,1.5,0.2,1.7,1.3H111z
		 M101.5,14h-0.4c0,0.3,0.2,1.2,1.3,1.2c1.1,0,1.2-0.9,1.3-1.2h-0.4c-0.1,0.4-0.3,0.7-0.8,0.7C101.8,14.7,101.6,14.4,101.5,14z
		 M100.8,15.8H100v6.4h0.9L104,17h0v5.2h0.8v-6.4h-0.9l-3.1,5.2h0V15.8z M94.8,15.8H94v6.4h0.9L98,17h0v5.2h0.8v-6.4h-0.9L94.8,21h0
		V15.8z M93.1,17.7c-0.1-1.1-0.9-2.1-2.5-2.1c-1.8,0-2.8,1.4-2.8,3.3c0,2.5,1.3,3.4,2.7,3.4c0.5,0,2.3-0.1,2.6-2.5h-0.8
		c-0.3,1.5-1.2,1.8-1.7,1.8c-1.5,0-2-1.2-2-2.7c0-1.7,0.9-2.5,2-2.5c0.6,0,1.5,0.2,1.7,1.3H93.1z M87.1,17.7
		c-0.1-1.1-0.9-2.1-2.5-2.1c-1.8,0-2.8,1.4-2.8,3.3c0,2.5,1.3,3.4,2.7,3.4c0.5,0,2.3-0.1,2.6-2.5h-0.8c-0.3,1.5-1.2,1.8-1.7,1.8
		c-1.5,0-2-1.2-2-2.7c0-1.7,0.9-2.5,2-2.5c0.6,0,1.5,0.2,1.7,1.3H87.1z M81.1,19c0-1.4-0.7-3.4-2.9-3.4c-2.3,0-2.9,2-2.9,3.4
		c0,1.4,0.7,3.4,2.9,3.4C80.4,22.3,81.1,20.4,81.1,19z M80.3,19c0,1.5-0.8,2.6-2.1,2.6c-1.3,0-2.1-1.1-2.1-2.6
		c0-1.5,0.8-2.6,2.1-2.6C79.5,16.4,80.3,17.5,80.3,19z M70.9,19.5h1.9c1.3,0,1.8-1,1.8-1.9c0-1-0.7-1.8-1.8-1.8h-2.7v6.4h0.8V19.5z
		 M70.9,16.5h1.7c0.7,0,1.2,0.3,1.2,1.1c0,0.9-0.5,1.2-1.2,1.2h-1.6V16.5z M69.2,21.4h-3.7v-2.2h3.3v-0.8h-3.3v-1.9h3.6v-0.8h-4.4
		v6.4h4.5V21.4z M63.9,17.7c-0.1-1.1-0.9-2.1-2.5-2.1c-1.8,0-2.8,1.4-2.8,3.3c0,2.5,1.3,3.4,2.7,3.4c0.5,0,2.3-0.1,2.6-2.5h-0.8
		c-0.3,1.5-1.2,1.8-1.7,1.8c-1.5,0-2-1.2-2-2.7c0-1.7,0.9-2.5,2-2.5c0.6,0,1.5,0.2,1.7,1.3H63.9z M54.1,19.2h1.6
		c0.7,0,1.4,0.2,1.4,1.1c0,0.7-0.4,1.2-1.3,1.2h-1.7V19.2z M53.3,22.2h2.6c1.3,0,2.1-0.9,2.1-1.9c0-1.1-0.7-1.4-1.1-1.6
		c0.7-0.3,0.8-0.9,0.8-1.3c0-0.9-0.6-1.6-1.7-1.6h-2.7V22.2z M54.1,16.5h1.5c0.9,0,1.3,0.3,1.3,0.9c0,0.8-0.5,1-1.3,1h-1.5V16.5z"/>
</g>
</svg>
