<?xml version="1.0" encoding="utf-8"?>
<!-- Generator: Adobe Illustrator 23.0.2, SVG Export Plug-In . SVG Version: 6.00 Build 0)  -->
<svg version="1.1" id="Слой_1" xmlns="http://www.w3.org/2000/svg" xmlns:xlink="http://www.w3.org/1999/xlink" x="0px" y="0px"
	 viewBox="0 0 51.3 47" style="enable-background:new 0 0 51.3 47;" xml:space="preserve">
<style type="text/css">
	.st0{fill:#E31F25;}
	.st1{fill:#EAECEC;}
	.st2{fill:#FBFBFB;}
	.st3{fill:#F9F9F9;}
	.st4{fill:#D8D8D8;}
	.st5{fill:#1D61AB;}
	.st6{fill:#FFFFFF;}
	.st7{fill:none;}
	.st8{fill:#E32023;}
	.st9{fill:#2B2929;}
	.st10{fill:#292929;}
	.st11{fill:#2B2929;stroke:#2B2929;stroke-width:0.5;stroke-miterlimit:10;}
</style>
<g>
	<path class="st0" d="M12.7,45.1C12.7,45.1,12.8,45,12.7,45.1"/>
	<path class="st0" d="M41.2,35.4L41.2,35.4C41,35.3,41.3,35.5,41.2,35.4"/>
	<path class="st0" d="M7.6,45.3L7.6,45.3L7.6,45.3L7.6,45.3"/>
	<path class="st0" d="M28.2,29.3c-0.1,0.3-0.4,0.3-0.6,0.2v-0.1c0.2-0.1,0.2,0,0.3-0.1c0.1-0.1,0-0.2,0.2-0.3
		C28.2,29.1,28.3,29,28.2,29.3 M49.2,25.7c-0.3-0.1-2.4,0.4-3.1,0.5c-0.3,0-0.5,0-0.8,0.1s-1.4,0.3-1.6,0.2c0.3,0,0.5-0.1,0.8-0.1
		c0.3-0.1,0.5-0.1,0.7-0.2l1.5-0.3c0.4-0.1,2.9-0.5,3-0.7c-0.1,0-0.2,0-0.3,0c-0.4,0.1-0.4,0.1-0.8,0.2c-0.2,0-0.4,0-0.6,0.1
		c-0.7,0.2-0.5,0.1-0.6,0l0.6-0.2c-0.2-0.1-0.1,0-0.2,0l0,0h-0.1c-0.5,0.1-0.4,0.2-0.7,0.1h-0.5c0.1-0.1,0.1,0,0.2-0.1
		c-0.1,0-0.2,0-0.2,0c-0.1,0-0.1,0-0.1,0c0.3,0,1.1-0.2,1.5-0.3l0.5-0.1c0.3-0.1,0.6-0.1,0.8-0.3c-0.2,0-0.4,0-0.6,0
		c-0.1,0-0.1,0-0.2,0h-0.1c-0.1,0-0.1,0-0.2,0l0,0l0.4-0.2c0.1,0,0.1,0,0.1-0.1c-0.1-0.1-0.7,0.1-0.9,0.1c0-0.1,0,0,0-0.1l0,0v-0.1
		c-0.3,0-0.4,0.1-0.6,0.1c-0.6,0.1-0.2-0.1-0.6-0.1c-0.3,0-1,0.1-1.3,0.2c-0.3,0-2.3,0.3-2.6,0.4c0.1-0.1,3.4-0.6,3.8-0.6
		c0.1,0,0.2,0,0.3,0h0.1l0,0c0.1-0.1,0,0,0.1-0.1c-0.1,0-0.4,0-0.6,0c-0.3,0-0.5,0.1-0.7,0.1c0.1-0.1,0.1-0.1,0.4-0.1
		c0.2,0,0.2-0.1,0.4-0.1c0.1,0,0.4,0,0.5-0.1s-0.1,0,0.1-0.1l0,0c-0.4,0-0.6,0-0.9,0c-0.1,0-0.1,0-0.1,0l0,0v-0.1l0,0l0,0l-0.9,0.1
		c-0.2,0-0.4-0.1-0.8,0l0,0l0,0L42.8,24c-0.4,0-0.5,0.1-0.6-0.1c-0.4,0.1-0.8,0.2-1.2,0.4c-0.3,0.1-0.8,0.3-1.1,0.4
		c-0.4,0.1-2.1,0.6-2.2,0.8c-0.1,0,0,0-0.2,0c0,0-0.1,0-0.2,0.1L36.2,26c-0.6,0.2-4,1.4-4.4,1.5c-0.1,0.1-4,1.4-4.2,1.4
		c0,0,0.1,0-0.1,0.1l0,0c0.2-0.1-0.2,0.1,0,0l0,0c-0.1,0-0.1,0-0.2,0l-2.6,0.9c-4.4,1.5-8.9,3-13.3,4.5c-1.6,0.5-3.8,1.3-5.3,1.8H6
		c-0.2,0.2-2.1,0.7-2.3,0.8c-0.8,0.3-0.6,0.5-1.4,0.8c0,0.4,0,0.3-0.2,0.5l0.4,0.2L2,38.7h0.5c-0.1,0.1-0.2,0.2-0.3,0.3
		c0.3,0,0.2,0,0.5-0.1c-0.1,0.2-0.3,0.2-0.5,0.3h0.1c0.1,0,0.1,0,0.2,0c0.4,0,0.6-0.4,0.9-0.5c0.2,0,0.1,0.3,0.1,0.3h0.1
		c0.1,0.2,0,0,0.1,0.1c0.1,0,0.2-0.1,0.3-0.3c-0.1,0.3-0.3,0.4-0.7,0.8C3.2,39.7,3.2,39.8,3,40c0.3-0.1,0.4-0.2,0.7-0.5L4.3,39
		c0.1-0.1,0-0.1,0.2-0.1c-0.2,0.2-0.3,0.2-0.2,0.3v0.1c0,0,0,0,0.1,0c0.1-0.2-0.1,0,0.1-0.2C4.6,39,4.6,39,4.6,38.9
		c0,0.1,0.1,0,0.2,0.1h0.1l0,0c0.1,0,0-0.1,0.1-0.1c0.1-0.1,0.1-0.1,0.3-0.1c-0.1,0.2-0.2,0.1-0.4,0.3L4.6,39l0.2,0.2l0,0l0.1-0.1
		L5,39c0.1-0.1,0,0,0.1-0.1s0-0.1,0.1-0.1l0.5-0.3l-1.1,0.9c-0.1,0-0.1,0-0.2,0.1l-0.1,0.1c-0.1,0.1-0.1,0-0.1,0l-0.1,0.1
		C4.2,39.9,4,40,3.9,40.2l-0.3,0.4c-0.1,0.1-0.4,0.2-0.2,0.3c0.1-0.1,0.2-0.1,0.3-0.2l0.9-0.8c0.1,0.2-0.4,0.4-0.7,0.9
		c-0.1,0.1-0.2,0.4-0.4,0.5S3.1,41.4,3,41.7c0.1-0.1,0.2-0.1,0.4-0.2l-0.2,0.3c0.2,0.3,0.2,0,0,0.4c0,0.1,0,0.1-0.1,0.2
		c-0.2,0.1-0.2,0-0.2,0.2c0.2,0.1,0.3-0.1,0.6-0.1l-0.7,0.4c-0.1,0-0.1,0-0.1,0c-0.1,0.1-0.2,0.2-0.2,0.3h0.1c0,0,0.1,0,0.2,0
		l-0.2,0.2c0.3,0.1,0.1,0.1,0.3,0l0.7-0.3c0.2-0.1,0.8-0.3,0.9-0.3l-1,0.5c-0.1,0.1-0.9,0.5-1,0.7c0.3-0.1,0.4-0.2,0.6-0.2
		C3,44,3,43.8,2.9,44.1c0.5-0.1,0.5-0.2,0.8-0.2c0.2,0,0.1,0.1,0.3-0.1l0-0.4c0.2-0.1,0.7,0,1-0.2c0.4,0,0.8-0.3,1.1-0.4l-2.3,1
		c-0.2,0.1-0.4,0.2-0.5,0.3l0.3,0.1l-0.3,0.2c0.2,0,0.2,0,0.4,0.1l1.1-0.4c0.2,0,0.2,0,0.3-0.1l0.2,0.1C5.4,44,5.5,44,5.6,44h0.1
		c0.1,0,0,0,0.1,0c-0.1,0.1-0.2,0.1-0.2,0.2l0,0c0,0,0,0,0,0.1c-0.4-0.1-0.2,0-0.4,0c-0.4,0.1,0.1-0.2-0.3,0c-0.2,0-0.6,0.3-0.7,0.4
		c0.2-0.1,0.6-0.3,0.8-0.3c-0.1,0.1,0,0.2-0.3,0.3l-0.3,0.1c-0.1,0.2,0,0.2-0.2,0.4c0,0-0.1,0-0.1,0.1h0.6c0.1,0,0.1,0,0.1,0h2
		c0.1-0.1,0.1-0.1,0.4-0.2l0.7-0.2c-0.1,0.2-0.3,0.2-0.7,0.4H7.1h1.8c0.1,0,0.1,0,0.2,0h0.1v-0.1c0,0,0,0,0.1,0c0,0,0.1,0,0.2,0
		c0,0,0,0,0.1,0l0,0c-0.1-0.2,0.1-0.1-0.2-0.1c-0.2,0,0,0-0.1,0c0,0,0,0-0.1,0l0,0c0.2,0,0.3-0.1,0.4-0.1c0.1,0.4,0.3,0.3,0.6,0.1
		h0.1l2.3-0.9c0,0.1,0.1,0,0,0.3h0.2c0.3,0.4,0.8,0.3,1.3,0.3c0.3,0,0.4-0.1,0.7-0.1c0.1,0,0.1,0,0.1,0H15c0.4,0,0.6-0.3,0.8-0.4
		c0.1-0.1,0,0,0.1-0.1c0.1,0,0,0,0.1-0.1c0.7-0.4,0.5-0.2,0.9-0.4c0.2-0.1,1.1-0.4,1.4-0.6c0.1-0.1,0.2-0.1,0.3-0.1l2.2-0.6
		c0.3-0.1,0.6-0.3,1-0.2c0.7,0,0-0.2,0.6,0c0.2-0.2-0.1-0.1,0.4-0.2c0.1,0,0.1,0,0.2-0.1l0,0c0.5-0.2,0.2,0.1,0.6-0.1
		c0.4-0.1,0.1,0.1,0.5,0l0.5-0.2c0.3-0.1,0.1,0,0.3-0.1c0.1,0.1,0.3,0.1,0.4,0.1c0.2,0,0.2-0.1,0.3-0.2c0.7,0.2,0.2-0.1,0.7-0.1
		l0.4-0.1c0.2,0,0.3-0.1,0.4-0.1v0.1l0.5-0.2c0.2-0.1,0.1-0.1,0.3-0.1c0.2,0,0.1,0,0.2-0.1l0,0c0,0.1,0.1-0.1,0.1-0.1h0.1
		c0.3,0,0.1,0.1,0.3-0.1c0.1-0.1,0.1,0,0.1-0.2c0.2,0,0,0,0.2,0.1c0.2-0.1,0.1-0.1,0.3-0.1c0.1,0.1,0,0,0.1,0l0.3-0.1l0.3-0.1
		c0-0.1-0.1-0.1,0-0.2H30c0.2,0,0.1,0.2,0.4,0.1c0.1,0,0,0,0.2-0.1c0,0,0.2,0,0.2-0.1c0.3-0.1,0.1-0.2,0.4-0.2s0.3,0.1,0.4-0.2
		c0.1,0,0.1,0,0.2,0.1c0.1-0.1,0.1,0,0.1-0.2c0,0,0.1,0.1,0.2,0.1c0.1,0,0.1,0,0.2-0.1c0.2-0.1,0.4,0,0.4-0.2h0.2
		C33,39.1,33,39.1,33,39c0.2,0.1,0.1,0.3,0.4,0c0.2,0,0.1,0,0.2-0.1c0.1,0,0,0.1,0.1-0.1c0.1,0.1,0.1,0.1,0.2,0.1c0-0.1,0,0,0-0.2
		c0.3,0.1,0,0.1,0.2,0.1c0-0.1,0-0.1-0.1-0.2h0.2c0.1,0,0,0,0.1,0l0.1-0.1c0.7-0.4,0.3-0.2,0.2-0.3c0.2-0.1,0.4-0.2,0.6-0.2
		c-0.2,0.1-0.1,0-0.2,0.2c0.2,0,0,0,0.2,0c0.2-0.1,0.1,0,0.1-0.1c-0.1-0.1,0.2,0.1,0,0l0,0c0,0,0,0,0.1,0.1s-0.1,0,0.1,0.1
		c0.1-0.1,0.1-0.1,0.2-0.1c0-0.1,0.1-0.2,0.1-0.2c0.4,0,0.1,0,0.3,0.1l0.1-0.1c0,0,0.2-0.2,0.2-0.4l0.2,0.3c0.3-0.1,0.3-0.2,0.5-0.4
		c0.2-0.1,0.1-0.1,0.2-0.1c0,0,0.1,0,0.2,0c0.1-0.1-0.1-0.1,0.2-0.1h0.1c0.4-0.1,0.4-0.2,0.5-0.3c0.2-0.1,0.3-0.1,0.5-0.2
		c0.3-0.2,0.1-0.1,0.4-0.1c0.1,0,0.3-0.1,0.4-0.3c-0.3,0.1,0.1,0.1-0.2,0.1c-0.1,0,0.1,0-0.1,0c-0.2,0-1.1,0.5-1.4,0.6
		c-0.2,0.1-0.2,0.1-0.4,0.1l-0.7,0.3c0.2-0.1,1.9-0.8,2.2-1c0.2-0.5,0.2-0.5-0.1-0.5c-0.2,0-0.4,0.1-0.8,0.3
		c-0.6,0.3-0.3,0.1-0.7,0.3c-0.2,0.1-0.1-0.1-0.3,0.2C37,36.7,37,36.7,36.6,37l-0.2,0.2c-0.5-0.1-0.1,0-0.7,0.2
		c-0.5,0.2-0.5,0.1-0.6,0.4C35,37.6,35,37.7,34.5,38l-0.1,0c-0.3,0-0.6,0.3-0.8,0.2c0.4-0.3,1.2-0.5,1.4-0.6c0.1,0,0.2-0.1,0.2-0.1
		c0.1-0.1,0.1-0.2,0.4-0.3l0.2-0.1l0,0c0.7-0.1,0.2-0.3,1-0.4l0,0l0.6-0.3c0.2-0.1,0.1-0.1,0.3-0.2h0.1l0,0c1.5-0.6,0.6-0.4,1.1-0.6
		l1.7-0.7c0.1-0.1,0.1,0,0.2-0.1c0.1-0.1,0.2-0.1,0.3-0.1c-0.1,0.2,0,0-0.2,0.2l-0.6,0.3c-0.3,0.1-0.2-0.1-0.2,0.2
		c0.2,0,0.4-0.1,0.6-0.2l0,0l0,0c0,0.1,0,0.2-0.1,0.2l0,0l0,0h-0.1c-0.2,0-0.1,0.1-0.3,0.2L40,35.7c-0.1,0,0,0-0.1,0
		c-0.1,0.1-0.4,0.2-0.4,0.3c0-0.3,0.1-0.1-0.2-0.2c-0.1,0.2-0.1,0.1,0,0.3c-0.2,0-0.1,0-0.3,0.1c0.2,0.2,0.3,0,0.8-0.2l0.4-0.1
		c-0.1,0.2-0.1,0.1-0.1,0.3c0.1-0.1,0.2-0.1,0.3-0.2c0.1-0.1,0.2-0.2,0.3-0.2c0.1-0.1,0.1-0.3,0.3-0.3l0,0c0,0,0.1,0,0,0l0,0
		l0.1,0.1l0.5-0.3c0.3-0.2-0.2,0,0.6-0.3c0.3-0.1,0.5-0.3,0.8-0.4c0,0,0.1,0,0.2-0.1l0.2-0.2c-0.1,0-0.8,0.3-1,0.4
		c-0.2,0.1-0.3,0.1-0.4,0.1v0c-0.2,0.1-0.1,0-0.2,0.1c0,0-0.3,0,0,0l0,0c0,0,0,0-0.1-0.1c-0.1,0-0.2,0.1-0.4,0
		c0.1,0,0.3-0.1,0.4-0.1c0.2,0.1,0,0,0.1,0.1l0.1,0.1c0.1-0.2,0.1-0.1,0-0.3c-0.2,0.1-0.1,0.2-0.4,0.1c0.2-0.1,0.2-0.1,0.5-0.2
		l0.2-0.1c0.3-0.2,0.2,0,0.5-0.2c0.2-0.1,0,0,0.2-0.1c0.3,0,0.3-0.1,0.5-0.1c-0.4,0.1-0.6,0-0.4,0.3c0.2-0.2-0.1-0.2,0.7-0.5
		c0.1,0,0.3-0.1,0.4-0.2l0.4-0.3c-0.1-0.1,0.1-0.1-0.1,0l-0.7,0.4c-0.2,0.1-0.1,0.1-0.4,0.1v-0.2c0.1,0,0.2,0,0.3-0.1
		c0.7-0.4,0.1,0,0.6-0.2c0.1,0,0.2-0.1,0.3-0.1c-0.2,0,0-0.2-0.3-0.1c-0.2,0.1-0.1,0.2-0.5,0.1c0.1-0.2,1-0.5,1.3-0.6
		c0.2-0.1,0.4-0.2,0.6-0.3c0.1,0,0.2-0.1,0.3-0.2c0.1-0.1,0.1,0,0.1-0.2C45.8,32,46,32,45.7,32c-0.2,0,0-0.1-0.3,0.1
		c-0.3,0.2-1.6,0.8-1.8,0.8c0.1-0.1,0.9-0.5,1.1-0.6c0.2-0.1,0.2,0,0.3-0.1s0,0,0.1-0.1c0.5-0.2,0.1-0.1,0.4-0.3
		c0.1-0.1,0.2-0.1,0.3-0.2l-0.4,0.1c0.1-0.1,0.1-0.1,0.1-0.2l-0.8,0.3c0.2-0.1,0.4-0.3,0.6-0.4c-0.3,0-0.3,0.2-0.6,0.1
		c-0.1,0.1-0.1,0.1-0.3,0.2c-0.8,0.3-1.3,0.5-2.2,0.8l1.1-0.5c0.2-0.1,0.2,0,0.3-0.2L42,32.5l0.1-0.3c-0.3,0-0.5,0.1-0.7,0.2
		c0.3-0.2,0.2-0.1,0.1-0.2c-0.1,0.1-0.1,0.1-0.3,0.1s-0.2,0-0.4,0.2s-0.1,0-0.4,0.2c-0.1,0-0.3,0.1-0.4,0.1c-0.1,0-0.2,0.1-0.2,0.1
		h-0.1c-0.1,0,0,0-0.1,0c0.1-0.1,0.2-0.1,0.4-0.2c0.1-0.1,0.2-0.1,0.4-0.2l2.4-1c0-0.2,0.1-0.1-0.1-0.1c-0.1,0.1-1.4,0.5-1.5,0.6
		c-0.3,0.1-1.3,0.6-1.5,0.5L41,32c0.2,0,0.4-0.1,0.6-0.2l0,0l0,0l0,0l0.3-0.1c-0.1-0.1,0-0.1-0.2-0.1c-0.1,0-0.1,0-0.2,0
		c0.1-0.2,0-0.1,0.1-0.2l0,0c0.2-0.1,0.3-0.1,0.5-0.3c-0.2,0-0.9,0.3-1,0.4c-0.2,0.1-0.1,0.1-0.3,0.1c0.1,0.1,0,0,0,0.2
		c-0.4,0-0.8,0.2-1.1,0.3L39,32.4c-0.2,0.1,0,0-0.2,0.2h-0.1v-0.1c0.1-0.3,0.5-0.4,0.8-0.6h-0.1c0.2-0.3,0.4-0.2,0.7-0.4
		c0.1-0.1,0.1,0.1,0.1-0.2c0.5,0.2,0.3-0.1,0.5-0.2s0,0,0.3,0l0.1-0.2c-0.3,0-0.5,0.3-0.8,0.3c0.2-0.1,0.1-0.1,0.3-0.1l0.1-0.2
		l0.4-0.2c0.3,0,0.1,0,0.3,0h0.3c0.1,0-0.1,0,0.1,0c0.1-0.1,0-0.1,0.1-0.1c0.1-0.1,0,0,0.1-0.1c-0.5,0-0.1,0-0.2-0.1
		c0.2,0,0.1,0,0.2-0.1c0.1,0.1,0,0,0.1,0.1c0,0.1,0,0,0,0.1l0.5-0.1l0.2-0.3c-0.3,0-0.2,0.1-0.5,0.1v-0.1c0.2-0.1,0.5-0.2,0.7-0.2
		c-0.1-0.1-0.1,0-0.1-0.1c-0.1-0.1,0,0-0.1-0.1l0.3-0.1v0.2c0.2,0,0.3,0,0.4-0.2c0.3,0.1,0.3,0.1,0.6,0.2l0.3-0.2v-0.3l0,0l0,0v0.2
		c0.3-0.1,0.3-0.1,0.6,0l0.1-0.1c0.1-0.2,0-0.1,0.2-0.2s0.1,0.1,0.2-0.2l0.1,0.1c0.1,0-0.1,0,0.1,0c0.1,0,0.1-0.2,0.3-0.1l0.1,0.1
		l0,0c0,0,0-0.1,0.2-0.2l0.2-0.1l0.1,0.2c0.2-0.1,0.3-0.1,0.4-0.2c-0.2-0.2,0,0-0.2-0.1l-0.1-0.1c-0.1,0,0,0-0.2,0
		c-0.5-0.1-0.1,0-0.6,0c-0.2,0-0.2,0-0.3,0.1c0,0-0.1,0-0.1-0.1c0,0,0,0,0.1,0c0.1-0.1,0.4-0.1,0.5-0.1s0.2-0.1,0.3-0.1
		s0.2-0.1,0.3-0.2c-0.2-0.1-0.1,0.1-0.5,0l0.3-0.1c-0.2-0.2-0.2,0-0.6,0c-0.5,0-0.3-0.1-0.6,0.1c0,0.1,0.1,0.1,0.1,0.2
		c-0.3,0.1,0-0.1-0.4,0c0,0,0,0-0.1,0c0.2,0-0.1,0,0,0l0,0h-0.2l-0.1,0.1c-0.1,0-0.2,0-0.3,0c-0.2,0-0.3,0.1-0.2,0.1s0,0,0,0h0.1
		c0,0,0.2,0.1,0,0.1h-0.1H44v-0.1l0,0l0,0c0,0,0,0,0-0.1c0.1-0.1,0.2-0.1,0.3-0.1c0.3-0.1,0.2,0.1,0.5-0.1l0.1-0.1
		c-0.1,0,0-0.1-0.1-0.1s-0.1,0-0.2,0c0-0.2,0-0.2-0.1-0.3c0.1,0,0.2,0,0.3,0c0.4-0.1,0.1-0.1,0.8-0.2c0.1,0,0.2-0.1,0.4-0.1
		c0.3,0,0.5-0.3,0.7-0.1c-0.2,0.1-0.4,0.1-0.6,0.2c0.1,0,0.9-0.1,1-0.2l0,0H47c-0.2,0-0.1,0.1-0.2,0c0.1-0.1,0.2-0.1,0.3-0.1
		l0.4-0.1c-0.2-0.3-0.4,0-0.8,0c-0.4,0-0.6,0.1-0.9,0.2c-0.3,0-0.2,0-0.4,0.1l-0.1-0.1c-0.1-0.1-0.1-0.2,0.1-0.2
		c0.2,0,0.2,0,0.4,0.1c0,0,0,0,0-0.1l0,0c0.1-0.2,0.1-0.1,0,0c0.4,0,0.2,0,0.4-0.1c0.1,0,0.2,0,0.2,0c0.1-0.1-0.1-0.1,0.3-0.2
		c0.2,0,0.3-0.1,0.4-0.1c-0.2-0.2-0.4,0.1-0.7,0l0.1-0.2l0,0c0.1,0,0,0,0.1,0s0.1,0,0.2,0c-0.1-0.1-0.1-0.1-0.2-0.2
		c0.2-0.1,0.7-0.2,1-0.2c0.2,0.1-0.1,0,0.1,0h0.2c-0.2-0.1-0.1,0-0.1-0.1l0.3,0.1C48,25.9,48,26.1,48.3,26L49.2,25.7
		c0.2-0.1,0.3,0,0.4-0.2C49.3,25.7,49.7,25.9,49.2,25.7z"/>
	<path class="st0" d="M43.1,31.1c0,0.2,0,0.2,0.2,0.2c0.1-0.1,0.1-0.2,0.1-0.3c0.2,0,0.2,0,0.3,0v-0.2C43.3,30.6,43,30.8,43.1,31.1"
		/>
	<path class="st0" d="M8.5,39.4H8.3c-0.2,0.1,0,0.1-0.3,0.3c0.1-0.1,0.1-0.1,0.2-0.3c-0.3,0-0.2,0-0.3,0.2l-0.5,0.5
		c-0.1,0,0,0-0.1,0.1l-0.1,0.1c0,0.1,0,0.1,0.1,0.1c-0.1,0.1-0.1,0.2-0.2,0.3c0.2,0,0.1,0,0.4-0.3l0.2-0.2c0.3-0.5-0.1,0,0.3-0.3
		c0.2-0.2,0-0.1,0.2-0.1h0.1c0.1-0.1,0.1-0.1,0.2-0.1C8.4,39.5,8.5,39.4,8.5,39.4"/>
	<path class="st1" d="M36.6,7.8l-1.7-0.3l0.2-1.8L36.8,6L36.6,7.8z M17,7.8c0,0.4-0.3,0.2-0.2,0C17,7.8,16.8,7.8,17,7.8z M27.9,11.7
		c0,0.1,0,0.2-0.1,0.2c-0.1,0.1,0,0.1-0.1,0.1c-0.1-0.1-0.1,0-0.1-0.3c0.1-0.3,0.3-0.3,0.6-0.2v0.2H27.9z M13.9,9.6h-0.2
		c0-0.3,0.1-0.6,0.4-0.5c0.3,0.1,0.2,0,0.2,0.2c-0.1,0.1,0,0.1-0.1,0.1c0,0-0.1,0-0.2,0L13.9,9.6z M14.5,9.6c0.1,0.1,0.2,0,0.1,0.3
		c-0.1,0.3-0.4,0.3-0.6,0.2V9.9c0.4,0.1,0.3,0,0.3-0.2C14.4,9.6,14.4,9.7,14.5,9.6z M28.4,12.1c0.1,0.1,0.1,0,0.1,0.3
		c0,0.2-0.2,0.3-0.4,0.3c-0.3-0.1-0.2-0.1-0.2-0.2c0.1-0.2,0.2,0,0.3-0.1C28.4,12.3,28.2,12.2,28.4,12.1z M20.5,17.1
		c-0.2,0.1-0.2,0-0.3,0.1c-0.1,0.1,0,0.2-0.2,0.3c-0.1-0.1-0.2,0-0.1-0.3s0.4-0.3,0.6-0.2V17.1z M16.9,18.9c0.1-0.1,3.5-1.3,3.6-1.3
		c0,0-0.1,0,0.1-0.1c0.3-0.2-0.2,0.1,0.1,0c0.1,0,0.1,0,0.2,0l2.3-0.8c3.9-1.4,7.7-2.8,11.6-4.1c1.4-0.5,3.3-1.2,4.6-1.7l-1-1.2
		c-0.2-0.2-0.1,0-0.3-0.3l0,0l0,0l-0.2-0.2l0,0c-0.1-0.1-0.1-0.1-0.1-0.1l-0.5-0.6C37,8.1,37.1,8.2,36.9,8l0,0l0,0V6.2
		c0.1-0.1,0.1,0,0.1,0L37.3,6c0.1-0.1,0.1-0.1,0.2-0.1c0,0,0.1,0,0.1-0.1c0.2-0.1,0.2-0.1,0.5-0.4c0.1-0.1,0.3-0.2,0.4-0.3
		C39,4.8,39,4.9,39.3,4.6s-0.2,0.1,0.2-0.1l0.3-0.1c0.2-0.1-0.1,0,0.2-0.2c0.2-0.1,0.2,0,0.1-0.2L40,3.9c-0.3,0-0.7,0.3-1,0.4l2-1
		c0.2-0.1,0.3-0.2,0.4-0.3l-0.2-0.1l0.2-0.2c-0.1,0-0.2,0-0.3-0.1L40.2,3c-0.1,0-0.2,0-0.3,0.1c-0.1,0.2-0.4,0.3-0.5,0.3
		c-0.3,0-0.1,0-0.2-0.1c0,0.1,0,0.3-0.2,0.3c-0.4,0-0.1,0-0.2-0.1c0.1,0,0,0,0,0.1l0,0c0,0,0.1-0.1,0,0.1c-0.1,0.2,0,0-0.1,0.1
		c0,0,0,0,0-0.1s-0.1-0.1,0.1-0.2c-0.3,0-0.2,0.1-0.4,0.1c-0.1,0-0.1,0-0.2,0c0.2,0,0.1,0,0,0.2c-0.2,0-0.2,0-0.4,0.1L37.4,4
		c-0.2,0-0.1,0-0.2,0l-0.1,0.1l0,0l0,0l0,0c-0.1,0,0,0.1,0,0c0,0,0,0.1,0,0.2l0,0l0,0l0,0h-0.2c-0.3,0-0.2-0.1-0.5,0
		c-0.2,0.1,0,0.1-0.2,0.1C36,4.6,36,4.3,36,4.4l0,0c0,0.2,0,0.2-0.1,0.3l-0.3,0.1c0.1,0.2,0,0.1-0.1,0.1c0,0.1,0,0-0.1,0
		c-0.2,0-0.4,0.2-0.6,0.2l-0.1,0.1c-0.2,0.1-0.1,0.1-0.4,0.1c0-0.2,0-0.2,0.1-0.3c0.1-0.1,0,0,0,0V4.9l0,0c-0.1-0.3-0.1-0.2-0.2-0.4
		c-0.3,0-0.1,0.1-0.5,0.1l0.2-0.4c0-0.1-0.2,0,0.1-0.1c-0.2,0-0.1,0-0.2,0c0-0.3-0.1-0.3-0.2-0.3l-0.1-0.1c-0.1-0.1-0.2-0.3-0.2-0.4
		c0-0.1,0.1-0.2,0.2-0.3c-0.2,0-0.1,0-0.3-0.1c0.1-0.1,0-0.1,0.2-0.1c0.1,0,0.1,0,0.1,0.1l-0.1-0.2c0.1-0.2,0.1-0.1,0.1,0
		c-0.1-0.1,0,0-0.1-0.1c-0.2-0.4-0.7-0.3-1.1-0.3c-0.2,0-0.4,0.1-0.6,0.1c-0.1,0-0.1,0-0.1,0h-0.1c-0.3,0-0.5,0.3-0.7,0.4
		c-0.1,0,0,0-0.1,0.1c-0.1,0,0,0-0.1,0.1c-0.6,0.4-0.5,0.2-0.8,0.4c-0.2,0.1-1,0.4-1.3,0.5c-0.1,0-0.2,0.1-0.3,0.1l-1.9,0.6
		c-0.3,0.1-0.5,0.2-0.9,0.2c-0.6,0,0,0.2-0.5,0C24.7,5.1,25,5,24.6,5c-0.1,0-0.1,0-0.1,0l0,0c-0.5,0.2-0.2-0.1-0.6,0.1
		c-0.3,0.1-0.1-0.1-0.5,0l-0.5,0.2c-0.2,0.1-0.1,0-0.3,0.1c-0.1-0.1-0.3-0.1-0.4-0.1c-0.2,0-0.2,0.1-0.3,0.2
		c-0.6-0.3-0.2,0.1-0.6,0.1L21,5.7c-0.2,0-0.2,0.1-0.4,0.1l0,0l0,0c-0.1,0-0.1,0-0.1,0l0,0c0.1,0.2,0.2,0.3,0,0.5L20.2,6
		c-0.2,0-0.1,0.1-0.3,0.1L19.8,6c-0.1,0-0.1,0-0.1,0.1c0,0.3-0.2,0.4-0.3,0.5c-0.2-0.1,0,0-0.1-0.1c-0.1,0,0,0-0.1-0.1
		c-0.2,0,0,0-0.2-0.1c-0.1,0-0.1,0.1-0.3,0.1l-0.1,0.1c0.2,0.3,0.2,0.4,0,0.7c0.2,0,0.2-0.1,0.3,0c-0.1,0.1-0.1,0-0.2,0
		c-0.3,0-0.4,0.2-0.7-0.1c0.2-0.3,0.1,0,0.4-0.2c0,0,0.1-0.1,0.1-0.2c0-0.2,0-0.1-0.2-0.1l0,0l0,0l0,0l-0.1-0.1h-0.3
		c0,0.1,0,0.1,0,0.2h-0.1v0.2c-0.2,0,0.2,0-0.2-0.1c0,0.2,0.3,0.6,0.4,0.9c0.1,0.1,0.1,0.1,0.1,0.3L18,7.9c-0.1-0.1-0.1-0.1-0.2-0.2
		s-0.1-0.2-0.1-0.3h-0.3c-0.1,0.4,0,0.2-0.3,0.4c0-0.1,0-0.1,0-0.1V7.6l0,0l-1,0.4c-0.2,0-0.2,0.1-0.4,0v0.2l0,0l0,0
		c-0.1,0-0.1-0.1-0.2,0c-0.2,0.1-0.1,0.1-0.3,0.1c0.1-0.3,0-0.2,0.3-0.3c0.2-0.1,0.1,0,0.3-0.1s0.4-0.1,0.6-0.2c0.2-0.1,0,0,0.3-0.1
		c0.1,0,0.1-0.1,0.3-0.1c0.3-0.1,0.4,0.1,0.5-0.3c-0.6-0.3-0.3,0-0.8,0c-0.1,0-0.1,0-0.2-0.1c-0.1,0.1-0.1,0-0.1,0.2l-0.1-0.1
		c-0.1,0-0.1,0-0.2,0.1c-0.2,0.1-0.3,0-0.3,0.2l-0.1,0.2c0.4-0.1,0-0.1,0.5-0.2c-0.1,0.2-0.1,0.1-0.3,0.2c-0.5,0.2,0,0.4-0.8,0.5
		C15.2,8,15.1,8,15.3,8c-0.3,0-0.1,0-0.1-0.1h0.1c0.1,0,0,0,0.1-0.1l-0.2-0.1c-0.2,0-0.1,0-0.1,0.1c0,0.4,0,0.1-0.1,0.2
		c-0.2-0.1,0.1-0.1,0,0.1c-0.1,0.2-0.2,0.1-0.2,0.1c-0.1-0.1,0-0.1,0-0.1c-0.1,0.3,0,0.2-0.1,0.4c0-0.1-0.1,0,0,0
		c0.3,0,0.5-0.3,0.7-0.1c-0.3,0.3-1,0.4-1.2,0.5C14.1,8.9,14,9,14,9c-0.5,0-0.5,0-0.7,0.1l-0.2,0.1l0,0c-0.6,0.1-0.1,0.2-0.9,0.4
		l0,0l-0.5,0.3c-0.2,0.1-0.1,0.1-0.3,0.2h-0.1l0,0c-1.3,0.6-0.5,0.4-1,0.6l-1.5,0.7c-0.1,0.1-0.1,0-0.1,0.1c0,0,0,0.1-0.1,0.1
		c-0.1,0.2-0.4,0.3-0.6,0.3l-1,0.4l0,0l-0.2,0.1c-0.1,0-0.1,0-0.1,0.1c-0.1,0,0.1,0-0.1,0c-0.1,0-0.2,0-0.3,0.1
		c-0.6,0.4-0.1,0-0.5,0.2c-0.1,0-0.2,0.1-0.3,0.1c0.2,0,0,0.2,0.3,0.1c0.3,0,0.2-0.1,0.5-0.1c-0.1,0.1-0.9,0.5-1.1,0.6
		s-0.3,0.2-0.5,0.3c-0.1,0-0.2,0.1-0.3,0.2c-0.1,0-0.2,0-0.2,0.1C4.4,14,4.2,14,4.4,14c0.2,0,0,0.1,0.2-0.1C5,13.8,6,13.3,6.2,13.3
		c-0.1,0.1-0.8,0.5-1,0.6l0.1,0.5c0,0-0.1,0-0.2,0c-0.1,0.1-0.4,0.3-0.5,0.4c0.2,0,0.3-0.2,0.5-0.1c0.1-0.1,0.1-0.1,0.3-0.2
		c0.7-0.3,1.1-0.5,1.9-0.7l-0.9,0.4c-0.2,0.1-0.2,0-0.2,0.2l1.5-0.6c0.2-0.2,0.6-0.3,0.9-0.4c0.2-0.1,0.6-0.4,0.8-0.3
		c0.2,0.1,0,0,0,0c0,0.2,0.1,0,0,0.1s-0.6,0.2-0.8,0.4c0.4,0.1,0.1-0.2,0.5-0.1c0.1,0,0.2-0.1,0.4-0.1l0.2-0.1h0.1c0.1,0,0,0,0.1,0
		c-0.1,0.1-0.2,0.1-0.3,0.2c-0.1,0-0.2,0.1-0.3,0.2l-2.1,0.9c0,0.2-0.1,0.1,0.1,0.1c0.1-0.1,1.2-0.5,1.3-0.5
		c0.3-0.1,1.1-0.6,1.3-0.5l-1.1,0.5c0.4,0,0.4-0.4,0.8-0.1c-0.1,0.3,0,0.1-0.2,0.1c-0.1,0-0.1-0.1-0.2,0c-0.2,0.3-0.3,0.1-0.3,0.1
		c-0.1,0.1-0.1,0,0,0.2c0.4,0,0.7-0.2,1-0.3l0.7-0.3c0.2-0.1,0,0,0.2-0.2c0.1-0.1,0.1-0.1,0.3-0.2c0.1,0,0.1,0,0.2-0.1v0.2
		c0,0.1,0,0.1-0.1,0.2c-0.3,0-0.2-0.1-0.4,0c-0.1,0.3-0.4,0.4-0.7,0.5l0.1,0.1c-0.2,0.3-0.3,0.2-0.6,0.4c-0.1,0.2,0.1,0.2,0,0.3l0,0
		l0,0v0.1c-0.1,0.1,0,0.2-0.3,0.2l-0.4,0.2c0,0.1-0.1,0.1,0.3,0c0,0.2,0,0.1-0.1,0.3c-0.2-0.1-0.1-0.1-0.2-0.2
		c-0.1,0.2,0,0.1-0.3,0.2v0.2c-0.2,0-0.2,0.1-0.2,0.2c-0.2,0.2-0.6,0.2-0.8,0.2c0.1-0.2,0-0.1,0.3-0.2H7.7c0.2-0.1,0.2-0.1,0.4-0.1
		S8.4,16,8.4,16l0,0c-0.1-0.1,0-0.1-0.1-0.1c-0.2,0-0.1,0-0.2,0.1l-0.3,0H7.6c-0.2,0.1-0.5,0.1-0.6,0.2c0,0.1,0,0.1,0,0.2
		c0.1,0.1,0,0,0.1,0.1l-0.2,0.1c-0.3,0-0.2,0-0.4,0.1c-0.5,0.1-0.4,0.1-0.5,0v-0.1c0,0.2,0,0.1-0.1,0.3H5.7l0,0
		c-0.1,0.1-0.1,0,0,0.1c0.1,0,0.2-0.1,0.3,0l0.1,0.1c0,0.1,0-0.1,0,0.1c0.2-0.1,0,0,0.2,0c-0.1-0.2-0.1,0,0-0.3
		c0.2,0,0.2,0.1,0.4-0.1c0.1,0.1,0.1,0,0.1,0.2l0,0L7,16.8v0.1C7.1,17,7.1,17,7.2,17.1l0,0C7,17.2,7,17.2,7,17.3
		c0.2,0.1,0.4-0.1,0.5-0.1C7.4,17.1,7.2,17,7.1,17c0.1-0.2-0.1-0.1,0.2-0.2c0,0-0.1,0-0.3,0c0.3-0.2,0.4-0.3,0.9-0.3
		c-0.1,0-0.2,0.1-0.3,0.1c0.1,0.1,0,0,0.1,0.1h0.1c0.2,0-0.1-0.1,0.1,0v0.2c0.3,0,0.6-0.2,0.9-0.1h0.1C9,17,8.7,17,9.1,17
		c0.1-0.1,0-0.1,0-0.2c0.1,0,0,0,0.1,0c0.2,0.1,0,0,0.1,0.1c0.2,0.2,0,0,0.3,0c0.2,0,0,0,0.1,0s0.2-0.1,0.2-0.1l0,0
		c0.1,0.1,0,0,0.1,0.1c0.1-0.1-0.1-0.1,0.1-0.1c0.2,0,0.1,0.1,0.2,0.3c-0.1-0.2,0.2-0.1,0.3,0l0.4,0.1c0,0.3-0.1,0.1,0.1,0.2
		c0.1,0,0.1,0,0.1,0c0,0.1,0,0.1-0.1,0.1c-0.3-0.1-0.1-0.1-0.4,0.1h-0.1l0,0h-0.1l0,0c-0.2,0-0.1,0.1-0.3,0.1l0.1,0.2
		c0,0.1,0,0,0,0.2c-0.2-0.1,0,0-0.2,0l-0.6,0.1c-0.1,0-0.1,0-0.2,0.1c-0.4,0.1-0.1-0.3-0.3,0c0.1,0,0-0.1,0.1,0.1l0.2,0.3
		c0.1,0.1,0.1,0.1,0.1,0.2L9.7,19l0,0l0.6,0.6c0,0,0.1,0.1,0.1,0.2l0.2,0.1c0.1,0.1,0.2,0.2,0.3,0.3c0.1,0.1,0,0,0.2,0.1
		c0.1,0.1,0.1,0,0.1,0.1c0.2,0,0.1,0,0.3,0c0.2,0.3-0.1,0.1,0.2,0.2c0.1,0,0,0,0.2,0c0,0,0.1,0,0.2-0.1l1-0.3
		C13.5,20.1,16.5,19,16.9,18.9z M4,22.1l1.1-0.2L5.2,22c0.1,0.1,0.2,0,0.6,0.1v0.1l1.5-0.1c0.4,0,0.4-0.1,0.5,0.1
		c0.4-0.1,0.7-0.2,1.1-0.4c0.3-0.1,0.7-0.2,1-0.4c0.3-0.1,1.8-0.6,2-0.7c-0.2-0.1,0.1,0.1-0.2-0.2c-0.2,0-0.1,0-0.3,0
		c-0.1-0.1,0-0.1-0.1-0.1c-0.1-0.1-0.1,0-0.2-0.1c-0.1-0.1-0.2-0.2-0.3-0.3l-0.2-0.1c-0.1-0.1-0.1-0.1-0.1-0.2L9.7,19l0,0l-0.3-0.3
		c-0.1-0.1-0.1-0.1-0.1-0.2L9,18.3c-0.1-0.1,0.1,0-0.1-0.1c0.2-0.3-0.1,0.1,0.3,0c0.1,0,0.1,0,0.2-0.1L10,18c0.2-0.1,0-0.1,0.2,0
		c0-0.2,0-0.1,0-0.2l-0.1-0.2c0.2,0,0.1,0,0.3-0.1l0,0h0.1l0,0h0.1c0.4-0.2,0.2-0.2,0.4-0.1c0-0.1,0,0,0.1-0.1c0,0-0.1,0.1-0.1,0
		c-0.1-0.1-0.1,0.1-0.1-0.2L10.5,17c-0.1,0-0.3-0.2-0.3,0c0-0.1,0-0.3-0.2-0.3s0-0.1-0.1,0.1v0.1c-0.1,0.1,0,0-0.1,0.1l-0.6,0.2
		c-0.2,0.1-0.2,0-0.4,0l0,0H8.7c-0.7,0.2-0.4,0-1.1,0.3c-0.1,0.1-0.7,0.1-0.9,0.1c-0.1,0.1-0.6,0.1-0.7,0.1c0,0,0,0-0.1,0.1
		c-0.1,0,0,0-0.1,0s-0.2,0-0.2,0c-0.1,0-0.2,0-0.3,0c-0.4,0-0.1,0.1-0.7,0.1c-0.1,0-0.2,0.1-0.3,0.1c0.1,0.1,0,0,0.1,0.1l0,0l0,0
		c0.2,0,0.2,0,0.4-0.1l0.5-0.1c0.2,0,0.3,0,0.5-0.1C6,18.1,6,18,6.2,18.2c0-0.1,0-0.1,0.1-0.2l0.3,0.2c0.2-0.3-0.2,0,0.1-0.1
		c0.1,0,0.2-0.1,0.3,0c0.2,0.1,0-0.1,0.1,0.1c-0.3,0-0.3,0-0.6,0.1c-0.2,0-0.2,0-0.4,0l-0.4,0.2c0.3,0.1,0,0,0.1,0.2
		c0.3,0,0.5-0.2,0.7,0c-0.3,0.1-0.8,0.2-1.1,0.2c-0.1-0.1,0.1-0.1-0.2-0.1l-0.3,0.1h0.3C5.2,19,5,19,4.9,19.1
		c-0.4,0.1-0.4,0.2-0.6,0c-0.2,0.2,0,0.1-0.2,0.1c-0.5-0.1-0.2-0.2-0.3,0.1l-0.1,0.1c-0.1-0.1,0-0.1,0-0.3H3.6c-0.1,0,0,0-0.1,0
		s-0.1,0-0.2,0c0.1,0.1,0.1,0.1,0.2,0.2c-0.1,0.1-0.7,0.2-0.8,0.2c-0.1-0.1,0.1,0-0.1,0H2.4c0.1,0.1,0.1,0,0.1,0.1l-0.3-0.1
		c0.1,0.3,0.1,0.1-0.2,0.2L1.3,20c-0.2,0.1-0.2,0-0.3,0.2c0.5,0,0.1-0.2,0.6,0c0.2,0.1,2.1-0.4,2.7-0.4c0.3,0,0.5,0,0.7-0.1
		s1.3-0.3,1.4-0.2c-0.2,0-0.5,0-0.7,0.1S5.3,19.7,5,19.7L3.7,20c-0.4,0.1-2.5,0.5-2.6,0.6c0.1,0,0.1,0,0.2,0
		c0.3-0.1,0.3-0.1,0.7-0.2c0.2,0,0.3,0,0.5-0.1c0.6-0.2,0.4-0.1,0.5,0l-0.6,0.2c0.1,0.1,0.1,0,0.1,0l0,0h0.1C3,20.4,3,20.4,3.2,20.4
		c0.1-0.1,0.1-0.1,0.3-0.1c0.3,0,0.1,0,0.3-0.1s0.5-0.1,0.6-0.1v0.1l0.8-0.1c-0.1,0.1,0,0-0.1,0.1L5,20.3l0,0v0.1l0,0
		c-0.1-0.2-0.4,0-0.5,0.1l-0.6,0.2c-0.2,0-1,0.2-1.3,0.2L2.2,21c-0.2,0.1-0.5,0.1-0.7,0.3c0.1,0,0.3,0,0.5,0c0.1,0,0.1,0,0.2,0h0.1
		c0.1,0,0.1,0,0.1,0l0,0L2,21.5c-0.1,0-0.1,0-0.1,0.1c0.1,0.1,0.6-0.1,0.8-0.1c0,0.1,0,0,0,0.1l0,0v0.1c0.2,0,0.3,0,0.5-0.1
		c0.5-0.1,0.2,0.1,0.5,0.1c0.2,0,0.9-0.1,1.2-0.2c0.2,0,2-0.2,2.3-0.3c-0.1,0.1-2.9,0.5-3.3,0.5c-0.1,0-0.2,0-0.3,0H3.5l0,0
		c-0.1,0.1,0,0-0.1,0.1c0.1,0,0.4,0,0.5,0c0.2,0,0.4-0.1,0.6-0.1c-0.1,0.1-0.1,0-0.3,0.1c-0.2,0-0.2,0.1-0.4,0.1
		c-0.1,0-0.3,0-0.4,0.1c-0.1,0.1,0.1,0-0.1,0.1l0,0C3.6,22.2,3.8,22.1,4,22.1z M43.5,9.4c0-0.4,0-0.3,0.2-0.5l-0.4-0.2l0.4-0.3h-0.4
		c0.1-0.1,0.2-0.2,0.2-0.3c-0.3,0-0.2,0-0.4,0.1C43.2,8,43.3,8,43.5,7.9h-0.1c-0.1,0-0.1,0-0.1,0c-0.4,0-0.8,0.3-1.1,0.3h-0.1l0,0
		c-0.2,0.1,0,0.1-0.3,0.1c-0.2,0,0,0.1-0.2,0.1c0.1-0.2,0.1-0.1,0.2-0.3c0-0.1-0.1-0.1-0.1-0.2h-0.1l-0.5,0.5
		c-0.2,0.2-0.2,0.4-0.5,0.5c0-0.4,0-0.1,0.1-0.5c-0.1,0.1-0.1,0.2-0.3,0.2c-0.3,0.2-0.6,0.6-0.8,0.7l0,0V9.2l0.1-0.1L39.6,9
		c0.1-0.2,0.2-0.3,0.4-0.4c0.1,0,0,0,0.1-0.1L40,8.3c-0.2,0-0.5,0.4-0.6,0.5c-0.2-0.1,0-0.2-0.3-0.1c0.1-0.2,0.4-0.4,0.4-0.4l0,0
		l0.9-0.9c-0.1-0.2,0.1-0.1-0.1-0.1c-0.2,0.4-0.7,0.7-0.9,1c-0.1,0.1-0.2,0.3-0.4,0.3c-0.1-0.3,0.3-0.5,0.8-1.1
		c-0.6,0.3-0.2,0.2-0.5,0.4c-0.2,0.1-0.2,0.2-0.6,0.5c0-0.1,0.5-0.6,0.6-0.7c0.3-0.3,0.3-0.4,0.5-0.6s0.1,0,0.2-0.2
		c0-0.2,0,0-0.1-0.1h-0.1c-0.1,0-0.1,0.1-0.2,0.2c-0.2-0.1,0,0.1-0.1-0.1c-0.2-0.2,0,0,0-0.1c-0.1,0.2,0,0-0.1,0.2
		c-0.1,0.1-0.1,0.1-0.2,0.2C39.3,7.4,39,7.7,39,7.8c-0.2-0.1,0-0.1-0.2-0.1c-0.1,0.1-0.1,0.1-0.2,0.1c0.1-0.2,0.1-0.1,0.2-0.2
		c0,0,0,0,0.1-0.1c0,0,0,0,0-0.1C39,7.3,39.2,7.1,39.4,7l-0.1-0.1c0-0.1,0,0-0.1-0.1L39,7c0.1-0.4,0.1-0.1,0.3-0.4
		c-0.1,0.1-0.2,0.2-0.3,0.3c-0.1,0-0.2,0.1-0.4,0.1c0.1-0.2,0,0,0.2-0.2c0.2-0.3-0.1,0.1,0-0.2c0.2-0.1,0.4-0.2,0.6-0.3
		c0.1-0.1,0.1-0.1,0.3-0.1C40,6.1,39.8,6.2,40,6c0.1-0.1,0.2-0.1,0.6-0.3c0.1-0.1,0.3-0.4,0.5-0.4c0,0.4-0.1,0.3-0.3,0.5
		c-0.1,0.1-0.1,0.1-0.2,0.2c-0.1,0-0.2,0-0.2,0.2c0.1,0,0.1-0.1,0.2-0.1c0.1-0.1,0.2-0.3,0.3-0.3l0.3-0.4c0.2-0.2,0.3-0.3,0.5-0.4
		c0-0.1,0-0.1,0.1-0.2s0.1,0,0.1-0.2c-0.2-0.1-0.3,0.1-0.5,0.1L42,4.4c0.1,0,0,0,0.1,0c0.1-0.1,0.1-0.2,0.2-0.3c0,0,0,0-0.1,0
		c0,0-0.1,0-0.2,0l0.2-0.2c-0.2-0.1-0.1-0.1-0.2,0l-0.6,0.3c-0.2,0.1-0.7,0.3-0.8,0.3L41.5,4c0.1-0.1,0.8-0.5,0.8-0.7
		c-0.2,0-0.3,0.2-0.6,0.2c0.1-0.2,0.1,0,0.2-0.2c-0.4,0.1-0.4,0.2-0.7,0.2c-0.2,0-0.1-0.1-0.2,0.1l-0.1,0.1c-0.2,0.1-0.7,0-0.9,0.2
		L40.1,4c0.1,0.1,0.1,0-0.1,0.1c-0.3,0.2,0,0.1-0.2,0.2l-0.3,0.1c-0.4,0.2,0.2-0.2-0.2,0.1C39,4.9,39,4.8,38.6,5.1
		c-0.1,0.1-0.3,0.2-0.4,0.3c-0.4,0.2-0.3,0.2-0.5,0.4c0,0-0.1,0-0.1,0.1c-0.1,0-0.1,0.1-0.2,0.1L37,6.1c0,0,0,0-0.1,0v1.8l0,0l0,0
		C37.1,8.1,37,8,37.2,8.2l0.5,0.6c0,0.1,0,0.1,0.1,0.1l0,0L38,9.3l0,0l0,0c0.2,0.3,0.2,0.2,0.3,0.3l1,1.2h0.1c0.2-0.1,1.8-0.7,2-0.8
		C42.1,9.8,42.8,9.6,43.5,9.4z M34.8,5.1V4.9c0.1-0.1,0-0.1,0.3-0.2c0.1,0,0.2-0.1,0.4-0.1v0.2c0.1,0,0.1,0.1,0.1,0
		c0.1,0,0.2,0.1,0.1-0.1c0,0,0,0-0.1-0.2c0.1,0,0.2-0.1,0.3-0.2l0,0l0,0l0,0c0.3-0.1,0.1-0.1,0.7-0.1c0,0.1,0,0.1-0.1,0.1
		c0,0,0,0-0.1,0.1c0.2-0.1,0.2,0,0.5,0h0.2l0,0l0,0l0,0c0,0,0-0.1,0-0.2c0,0.1-0.1,0.1,0,0l0,0l0,0l0,0L37.2,4c0.1-0.1,0,0,0.2,0
		l0.4-0.2C38,3.6,38,3.7,38.2,3.6c0-0.2,0.2-0.1,0-0.2c0.1,0,0.1,0,0.2,0c0.2,0,0.1-0.1,0.4-0.1c-0.2,0.1-0.1,0.1-0.1,0.2
		c0,0,0,0,0,0.1c0.2,0,0,0.1,0.1-0.1c0.1-0.2,0-0.1,0-0.1l0,0c0-0.1,0.1,0,0-0.1c0.1,0.1-0.2,0.1,0.2,0.1c0.2,0,0.3-0.2,0.2-0.3
		c0,0.1-0.1,0.1,0.2,0.1c0.1,0,0.3-0.1,0.5-0.3L39.8,3c-0.1,0-0.2,0-0.3,0.1L39.4,3c-0.1,0,0,0-0.1,0c0.1-0.1,0.1-0.1,0.1-0.2l0,0
		c0,0,0,0,0-0.1c0.3,0.1,0.2,0,0.4,0c0.4-0.1-0.1,0.2,0.3,0c0.1,0,0.5-0.2,0.6-0.3c-0.2,0.1-0.5,0.3-0.7,0.3c0.1-0.1,0-0.2,0.2-0.3
		V2.1c-0.1-0.1-0.3,0-0.4,0.1c-0.2,0.1-0.1,0.2-0.4,0.2c0.1-0.1,0.2-0.1,0.3-0.2c-0.1,0-0.3,0.1-0.4,0.1c-0.2,0.1-0.2,0.1-0.4,0.2
		c0.1-0.1,0.5-0.3,0.8-0.4C40,1.8,40,1.8,40.2,1.7c0.2,0,0.5-0.2,0.6-0.3c0.3-0.1,0.1-0.1,0.2-0.3C41.1,1,41.2,1,41.2,0.8l-0.8,0.4
		c0-0.1,0.5-0.4,0.6-0.5l0.4-0.3c-0.1,0-0.3,0.1-0.4,0.2c-0.1,0.1-0.3,0.1-0.4,0.2c-0.5,0.3-0.7,0.1-0.8,0.4
		c-0.4-0.2-0.3,0.2-1.2,0.4c-0.4,0.1-0.2,0.2-0.6,0.3l-0.6,0.2c0-0.2,0.3-0.2,0.6-0.4c0.2-0.1,1.9-0.9,2-1L39.6,1
		c-0.2,0.1-0.6,0.3-0.9,0.4L40,0.8c0.3-0.1,0.2-0.1,0.5-0.3c0.1-0.1,0.1,0,0.2-0.1l-0.3,0.1c-0.3,0.1-0.1,0.1-0.6,0.3
		c-0.4,0.1-1.5,0.6-1.7,0.6c-0.1,0.1-0.7,0.5-0.9,0.4l0,0h-0.1c0,0.1,0,0.1,0,0.2c-0.2,0-0.5,0.1-0.5,0.2l0,0
		c-0.1,0-0.2,0.1-0.4,0.1c-0.1,0.1,0,0.1-0.2,0.1c-0.2,0.1-0.1,0-0.2,0c0.1-0.3,0,0.1-0.1-0.3h-0.1v0.2c0,0.3-0.1,0.2-0.2,0.3
		c-0.1-0.1,0,0-0.1-0.1l0,0l0,0v0.1c-0.1,0.2,0,0.1-0.1,0.2C35,2.9,35.2,2.6,35,3c0.4,0,0.3,0.2,0.3,0.3c-0.3-0.1,0,0-0.6,0.1
		c0.2-0.1,0.2-0.1,0.3-0.5c-0.2,0-0.1,0-0.2,0L34.7,3c-0.1,0,0,0-0.1,0.1l-0.4,0.2C33.8,3.1,34,3,33.9,3.2L33.8,3
		c-0.1-0.1,0-0.1-0.2-0.1h-0.3c0.1-0.1,0-0.1,0.1-0.2c-0.2,0-0.1,0-0.2,0.1C33.3,3,33.2,3,33.4,3c-0.1,0.1-0.2,0.1-0.2,0.3
		c0,0.1,0.1,0.2,0.2,0.4l0.1,0.1c0.1,0.1,0.2,0.1,0.2,0.3c0.1,0,0.1,0,0.2,0c-0.3,0.1-0.1,0-0.1,0.1l-0.2,0.4c0.4,0,0.2-0.1,0.5-0.1
		c0.1,0.2,0.1,0.1,0.2,0.4l0,0V5c0-0.1,0.1-0.1,0,0s-0.1,0.1-0.1,0.3c0.3,0,0.3,0,0.4-0.1L34.8,5.1z M40.2,6.6h0.2c0.1,0,0,0,0.2,0
		l-0.1,0.1C40.3,7,40.4,6.8,40.2,7c0-0.1,0-0.1,0-0.1c0.1-0.1,0,0.1,0.1-0.1l0,0l-0.1-0.1C40.2,6.7,40.2,6.8,40.2,6.6z M40.4,7.5
		c0.2,0,0.3-0.2,0.4-0.3C40.9,7.1,41,7,41.1,6.8l0.2-0.4c0.1-0.1,0.3-0.1,0.2-0.3c-0.1,0.1-0.2,0.1-0.3,0.2l-0.8,0.8
		c-0.1-0.2,0.3-0.4,0.6-0.9c0.1-0.1,0.2-0.4,0.3-0.5c0.2-0.1,0.3-0.1,0.4-0.4c-0.1,0.1-0.2,0.1-0.3,0.2l0.1-0.3
		c-0.2-0.3-0.2,0,0-0.4c-0.2,0.1-0.3,0.1-0.5,0.4l-0.3,0.4h0.1c0.2,0,0.2,0.1,0.4-0.1l0.2-0.2c0.1,0,0,0,0.1,0
		c0.1,0.2,0.1,0.1,0,0.3c0,0.1,0.2,0.1-0.1,0.2c-0.2,0.2-0.2,0-0.3,0.2C41,6.2,41,6.2,40.8,6.2c0-0.2,0-0.2-0.1-0.3
		c-0.1,0.3,0,0.1-0.2,0.2c0,0.2-0.3,0.4-0.4,0.5c-0.2,0,0,0-0.1-0.1V6.1c-0.2,0-0.1,0-0.2,0.1l-0.4,0.4c0.1,0-0.1,0.1,0,0
		c0,0,0-0.1,0.1-0.1c0.1-0.1,0.1-0.1,0.1-0.2c-0.2,0.1,0.1,0-0.3,0.2c-0.1,0.1-0.1,0-0.1,0.1c-0.1,0.2,0,0-0.1,0.2
		c0.1,0.1,0,0,0.1,0.1L39.4,7c-0.2,0.1-0.4,0.3-0.5,0.5c0,0,0,0,0,0.1s0,0-0.1,0.1s-0.1,0.1-0.2,0.2c0.1-0.1,0.1-0.1,0.2-0.1
		c0.1-0.1-0.1-0.1,0.2,0.1c0-0.1,0.3-0.4,0.4-0.4c0.1-0.1,0.2,0,0.2-0.2c0.1-0.2-0.1-0.1,0.1-0.2c0,0-0.1-0.1,0,0.1
		c0.1,0.1-0.1,0,0.1,0.1c0.1-0.1,0.1-0.2,0.2-0.2h0.1c0.1,0.1,0-0.1,0.1,0.1c-0.1,0.1,0,0-0.2,0.2S39.8,7.7,39.5,8
		c-0.1,0.1-0.6,0.6-0.6,0.7c0.3-0.3,0.3-0.3,0.6-0.5s0-0.1,0.5-0.4c-0.5,0.6-1,0.7-0.8,1.1c0.2-0.1,0.3-0.2,0.4-0.3
		c0.2-0.3,0.8-0.6,0.9-1C40.5,7.4,40.3,7.4,40.4,7.5z M36,6.2v0.2c-0.2,0.1-0.1,0-0.3,0c-0.2,0.3,0.1,0.3-0.3,0.3c0-0.1,0,0.1,0-0.2
		C35.4,6.2,35.7,6.1,36,6.2z M36.3,6.8c0,0.4-0.1,0.6-0.5,0.5c-0.3-0.1-0.1,0-0.1-0.1c0.1-0.3,0-0.1,0.3-0.1l0.1-0.3H36.3z M36.8,6
		l-1.7-0.3l-0.2,1.8l1.7,0.3L36.8,6z M14.4,8.4C14.3,8.3,14.3,8.3,14.4,8.4c0.1-0.2,0-0.1,0.1-0.4c0,0-0.1,0,0,0.1
		c0,0,0.1,0.2,0.2-0.1c0.1-0.2-0.2-0.2,0-0.1c0.1-0.1,0.1,0.2,0.1-0.2c-0.1,0,0-0.1-0.1,0.1c-0.1-0.1-0.1-0.1-0.2-0.1
		c0,0.1,0,0,0,0.2c-0.2-0.1,0-0.1-0.2-0.1c0,0.1,0,0.1,0.1,0.2c0,0-0.1,0-0.2,0c-0.1,0,0,0-0.1,0L14,8c-0.6,0.4-0.2,0.2-0.2,0.3
		c-0.2,0.1-0.4,0.2-0.5,0.2c0.2,0,0.1,0,0.2-0.2c-0.1,0,0,0-0.2,0s-0.1,0-0.1,0.1c-0.2-0.1,0.1,0.1-0.1-0.1c-0.1-0.1,0.1,0-0.1-0.1
		c-0.1,0.1-0.1,0.1-0.1,0.1c0,0.1-0.1,0.2-0.1,0.2c-0.3,0-0.1,0-0.2-0.1l-0.1,0.1c0,0-0.1,0.2-0.2,0.4l-0.2-0.3
		c-0.3,0.1-0.2,0.2-0.4,0.3s-0.1,0-0.2,0.1c0,0-0.1,0-0.2,0c-0.1,0.1,0,0.1-0.2,0.1H11c-0.4,0.1-0.4,0.2-0.5,0.2
		c-0.1,0.1-0.3,0-0.5,0.2C9.7,9.7,9.9,9.6,9.7,9.6c-0.1,0-0.3,0.1-0.3,0.3c0.3-0.1-0.1-0.1,0.2-0.1c0.1,0-0.1,0,0.1,0
		c0.2,0,1-0.5,1.2-0.5c0.2-0.1,0.2-0.1,0.3-0.1H12c-0.1,0.1-1.7,0.8-1.9,1c0.1,0.1,0.1,0.1,0.3,0.1s0.4-0.1,0.7-0.3
		c0.6-0.2,0.3-0.1,0.6-0.3c0.2-0.1,0.1,0.1,0.2-0.2c0.2,0.1,0.2,0.1,0.5-0.1l0.2-0.2c0.5,0.1,0.1,0,0.6-0.2c0.4-0.2,0.5-0.1,0.5-0.3
		c0.1,0.2,0.1,0.1,0.5-0.1L14.4,8.4z M6.6,12.5C6.8,12.5,6.6,12.5,6.6,12.5c0.2,0,0.1,0,0.2-0.1L7,12.3l0,0l1-0.4
		c0.1-0.1,0.5-0.1,0.6-0.3c0,0,0-0.1,0.1-0.1c-0.1,0.1-0.1,0.1-0.3,0.1c0.1-0.1,0,0,0.2-0.1L9,11.2c0.2-0.2,0.2,0,0.2-0.2
		c-0.2,0-0.3,0.1-0.5,0.2l0,0l0,0c0-0.1,0-0.2,0.1-0.2l0,0l0,0h0.1C9,11,9,10.9,9.1,10.8l0.1-0.1c0.1,0,0,0,0.1,0
		c0.1-0.1,0.3-0.2,0.4-0.3c0,0.3,0,0.1,0.1,0.2c0-0.2,0.1-0.1,0-0.3c0.2,0,0.1,0,0.3-0.1c-0.2-0.3-0.2,0-0.7,0.2L9,10.6
		c0.1-0.2,0.1-0.1,0.1-0.3c-0.1,0-0.1,0-0.2,0.1c-0.1,0.1-0.2,0.2-0.3,0.2c-0.1,0.1-0.1,0.3-0.3,0.3s0,0-0.1,0
		C8,10.7,8.3,11,8.1,10.8l-0.5,0.3c-0.3,0.2,0.2,0-0.5,0.3c-0.3,0.1-0.4,0.3-0.7,0.3H6.3L6.2,12c0.1,0,0.7-0.3,0.9-0.4
		c0.2-0.1,0.3-0.1,0.4-0.1l0.2-0.2c0.1-0.1,0.1,0,0.2-0.1c0.3,0.1-0.2-0.1,0.1,0.1c0.1,0,0.1-0.1,0.3,0c-0.1,0-0.2,0.1-0.3,0.1
		c-0.2-0.1,0,0-0.1-0.1l-0.1-0.1c-0.1,0.2-0.1,0.1,0,0.3c0.2-0.1,0.1-0.2,0.3-0.1C8,11.5,8,11.5,7.7,11.6l-0.1,0.1
		c-0.3,0.2-0.2,0-0.4,0.2c-0.1,0.1,0,0-0.2,0.1c-0.3,0-0.2,0.1-0.4,0.1c0.2-0.2,0.3-0.1,0.1-0.4c-0.2,0.2,0.1,0.2-0.6,0.4
		c-0.1,0-0.3,0.1-0.4,0.2l-0.3,0.3c0.1,0.1-0.1,0.1,0.1,0l0.6-0.3c0.2-0.1,0.1-0.1,0.3-0.1L6.6,12.5z M41.4,8
		C41.3,7.8,41.4,8,41.4,8c-0.2,0-0.3,0.1-0.4,0.2c0-0.3,0.3-0.4,0.6-0.7c0.1-0.1,0.1-0.1,0.2-0.4c-0.2,0.1-0.4,0.2-0.6,0.5l-0.5,0.5
		c-0.1,0.1,0,0.1-0.2,0.1C40.6,8,40.7,8,40.7,7.9c-0.1-0.1,0-0.1-0.1,0c-0.1,0.2,0.1,0,0,0.2c-0.1,0.1-0.1,0-0.2,0.2
		c0.1-0.1,0-0.1-0.1-0.2c-0.2,0.1,0,0-0.1,0.1c0,0,0,0.1-0.1,0.1c-0.1,0-0.1-0.1-0.2,0C40,8.1,40.1,8.2,40.2,8h0.3l-0.2-0.2l0,0
		l-0.1,0.1L40.1,8C40,7.9,40,7.9,40,8c-0.1,0.1,0,0.1-0.1,0.1l-0.4,0.3l0,0c0,0-0.3,0.2-0.4,0.4c0.4-0.1,0.2-0.1,0.3,0.1
		c0.1-0.1,0.4-0.5,0.6-0.5l-0.2,0.3c-0.1,0.1,0,0-0.1,0.1S39.4,9,39.3,9.2l0.1,0.1c0,0-0.1,0-0.1,0.1v0.1l0,0
		c0.2-0.1,0.6-0.5,0.8-0.7c0.1-0.1,0.2-0.1,0.3-0.2c-0.2,0.4-0.1,0.1-0.1,0.5c0.3-0.1,0.4-0.3,0.5-0.5L41.4,8z M10.1,17
		c-0.1,0-0.5,0-0.6,0c-0.7,0-0.3-0.2-0.9,0.1c-0.2,0.1,0.1-0.1-0.3,0c-0.2,0,0,0.1-0.4,0.1c-0.1,0,0,0-0.1,0C7.9,17,7.9,17.4,8,17
		l-0.3,0.1c-0.2,0-0.4,0.2-0.5,0.1c0-0.1,0,0,0.1-0.2l0,0c-0.1,0-0.1,0-0.2-0.1v-0.1L7,16.9l0,0c0-0.2,0,0-0.1-0.2
		c-0.2,0.2-0.1,0.1-0.4,0.1c-0.1,0.3-0.1,0.1,0,0.3c-0.2,0,0,0-0.2,0c0.1,0.1-0.1,0,0.1,0.1c-0.1,0,0,0-0.1,0.1h0.2
		c0.1,0.1,0.1-0.1,0,0.2c0.2-0.1,0.1-0.1,0.3-0.1c-0.2,0-0.1,0-0.2,0.2h0.3l-0.1,0.1c0.2-0.1,0.8-0.1,0.9-0.1
		c0.7-0.3,0.5-0.1,1.1-0.3h0.1l0,0c0.3,0,0.2,0.1,0.4,0l0.6-0.2C10,17.1,10,17.1,10.1,17z M17.9,6.6c-0.2,0-0.1-0.2-0.4-0.1
		c-0.1,0,0,0-0.2,0.1h-0.2c-0.3,0.1-0.1,0.2-0.3,0.2c-0.2,0-0.3-0.1-0.4,0.2c0.5,0,0.2-0.3,0.8,0c0,0.4-0.2,0.2-0.5,0.3
		c-0.1,0-0.1,0.1-0.3,0.1c-0.2,0,0,0-0.3,0.1c-0.2,0.1-0.4,0-0.6,0.2c-0.1,0.1-0.1,0.1-0.3,0.1c-0.3,0.1-0.2,0-0.3,0.3
		c0.2,0,0.1,0,0.3-0.1c0.1,0,0.1,0,0.2,0l0,0l0,0V7.8c0.2,0,0.2,0,0.4-0.1l1-0.4l0,0v0.1c0,0.1,0,0,0,0.1c0.3-0.2,0.1,0,0.3-0.4h0.3
		c0,0.1,0.1,0.2,0.1,0.3c0.1,0.2,0.1,0.1,0.2,0.2l0.1-0.1c0-0.1,0-0.1-0.1-0.3c-0.1-0.2-0.4-0.7-0.4-0.9c0.4,0.2,0,0.1,0.2,0.1
		L17.9,6.6z M5.1,18.9C4.9,18.9,5,19,5.1,18.9c-0.1-0.1,0-0.2,0-0.2l0,0v-0.1l0,0l0,0c-0.2-0.1,0,0.1-0.1-0.1c0.1-0.1,0,0,0.1,0
		c0.3-0.1,0.4,0.1,0.4-0.2c0-0.1,0-0.1-0.1-0.1l0,0H5.2l-0.5,0.1l0.1,0.1c0.1,0.1,0.1,0.2-0.1,0.2s-0.2,0-0.3-0.1c0,0.1,0,0.3,0,0.1
		c-0.4-0.1-0.2,0-0.4,0.1c-0.1,0-0.1,0-0.2,0c-0.1,0.1,0.1,0.1-0.3,0.2c-0.1,0-0.3,0.1-0.4,0.1c0.2,0.2,0.3-0.1,0.6,0l-0.1,0.2l0,0
		h0.1c0,0.2,0,0.2,0,0.3l0.1-0.1c0.1-0.3-0.2-0.2,0.3-0.1c0.2,0,0,0.1,0.2-0.1c0.2,0.2,0.2,0.1,0.6,0C5,19.2,5.2,19.1,5.1,18.9
		L5.1,18.9z M35.6,2.1l-2,0.8c0-0.1-0.1,0,0-0.3h-0.1c0.1,0.1-0.1,0,0.1,0.1c0,0,0-0.2-0.1,0l0.1,0.2c0-0.1,0,0-0.1-0.1
		c-0.1,0.1,0,0.1-0.1,0.2h0.3c0.2,0,0.1,0,0.2,0.1L34,3.3c0.1-0.2,0-0.1,0.2-0.1L34.6,3c0.1-0.1,0.1,0,0.1-0.1l0.1-0.1
		c0.1,0,0,0,0.2,0c-0.1,0.4-0.1,0.4-0.3,0.5c0.6-0.1,0.4-0.2,0.6-0.1c0-0.1,0.1-0.4-0.3-0.3c0.2-0.4,0-0.1,0.2-0.2
		c0.1-0.1,0,0.1,0.1-0.2V2.4c0,0,0,0.1,0,0l0,0c0.1,0.1,0,0,0.1,0.1c0.1-0.1,0.1-0.1,0.2-0.3V2.1z M6.1,17.2c0-0.2,0,0,0-0.1L6,17
		c-0.1-0.1-0.2,0-0.3,0c0-0.1-0.1,0,0-0.1v-0.2c-0.3,0.1-0.2,0.1-0.5,0v0.1h0.3v0.1c0-0.2,0-0.1,0.1-0.2c0.2,0.2,0,0,0.1,0.2
		s0,0,0,0.1c-0.3,0-0.2,0-0.5,0l0,0c-0.1,0.2-0.2,0.1-0.5,0.2c0.2,0.1,0.1,0,0,0.1s-0.4,0.1-0.4,0.1c-0.1,0-0.2,0-0.3,0.1
		c-0.1,0-0.2,0.1-0.2,0.2c0.2,0.1,0.1-0.1,0.5,0L4,17.8c0.2,0.2,0.2,0,0.5,0c0.5,0,0.2,0.1,0.5-0.1c0-0.1-0.1-0.1-0.1-0.2
		c0.3-0.1,0,0.1,0.3,0c0.2-0.1-0.1,0,0.1,0h0.2l0.1-0.1c0.1,0,0.2,0,0.3,0C6.3,17.2,6,17.2,6.1,17.2c-0.1,0-0.2-0.1-0.1-0.1
		L6.1,17.2C6,17.1,6.1,17.1,6.1,17.2z M10.1,17L10.1,17C10,16.8,10,17,10,16.8l0,0c0,0-0.1,0.1-0.2,0.1c-0.1,0,0.1,0-0.1,0
		c-0.2,0-0.1,0.1-0.3,0c-0.1-0.1,0.1,0-0.1-0.1c-0.1,0.1,0,0-0.1,0c0,0.1,0.1,0.1,0,0.2c-0.4,0-0.1,0-0.3-0.1H8.8
		C8.6,16.8,8.3,17,7.9,17v-0.2c-0.2-0.1,0.1,0-0.1,0H7.7c-0.1,0,0,0.1-0.1-0.1c0.1,0,0.2-0.1,0.3-0.1c-0.5,0-0.6,0.1-0.9,0.3
		c0.2,0,0.2,0,0.3,0c-0.3,0.1-0.1,0-0.2,0.2c0.1,0,0.4,0.1,0.4,0.2l0.3-0.1c-0.1,0.5-0.1,0.1-0.2,0.2c0.1,0,0,0,0.1,0
		c0.5-0.1,0.3-0.1,0.4-0.1c0.3-0.1,0,0.1,0.3,0C9,17,8.6,17.2,9.3,17.2C9.6,17,9.9,17,10.1,17z M39.2,6.8c0.1-0.2,0,0,0.1-0.2
		c0.1-0.1,0-0.1,0.1-0.1c0.4-0.2,0.1-0.2,0.3-0.2c0,0.1-0.1,0.1-0.1,0.2l-0.1,0.1c-0.1,0.2,0,0,0,0L40,6.2c0.1-0.1,0,0,0.2-0.1v0.4
		c0,0-0.1,0,0.1,0.1c0.1-0.2,0.3-0.3,0.4-0.5c-0.1,0-0.1,0.1-0.2,0.1c-0.1-0.2,0-0.2,0-0.2c0.1-0.1,0.1-0.1,0.2-0.2
		C40.9,5.6,41,5.6,41,5.3c-0.1,0-0.3,0.3-0.5,0.4C40.2,5.9,40,5.9,39.9,6c-0.2,0.1,0,0.1-0.3,0.2c-0.2,0-0.2,0-0.3,0.1
		c-0.2,0.1-0.4,0.2-0.6,0.3c-0.1,0.3,0.2-0.1,0,0.2c-0.1,0.2-0.1,0-0.2,0.2c0.2,0,0.2-0.1,0.4-0.2c0.1-0.1,0.2-0.2,0.3-0.3
		c-0.1,0.4-0.1,0-0.2,0.5L39.2,6.8z M5.2,18.3h0.2l0,0c0.1,0,0.1,0,0.1,0.1c0,0.3-0.1,0.1-0.4,0.2c-0.1,0,0,0-0.1,0
		c0.1,0.2-0.1,0,0.1,0.1l0,0l0,0v0.1l0,0L5,18.9c0.1,0.1-0.1,0,0.1,0.1l0.3-0.1c0.3,0,0.1,0,0.2,0.1c0.3-0.1,0.7-0.1,1.1-0.2
		c-0.1-0.1-0.4,0.1-0.7,0c-0.1-0.3,0.2-0.1-0.1-0.2l0.4-0.2c0.2-0.1,0.1,0,0.4,0s0.3-0.1,0.6-0.1C7,18,7.2,18.2,7,18.1
		c-0.1-0.1-0.2-0.1-0.3,0c-0.3,0.1,0.1-0.2-0.1,0.1L6.3,18c-0.1,0.1-0.2,0.1-0.1,0.2C6,18,6,18.1,5.7,18.2
		C5.5,18.2,5.4,18.2,5.2,18.3z M4.7,17.2c0.3-0.1,0.4,0,0.5-0.2l0,0c0.3,0,0.2,0,0.4,0c0-0.1,0,0,0-0.1c-0.1-0.2,0.1,0-0.1-0.2
		c-0.1,0.1-0.1,0.1-0.1,0.2v-0.1H5.1C5,17,5.1,16.9,4.9,17s-0.1-0.1-0.1,0.2l-0.1-0.1c-0.1,0,0.1,0-0.1,0c-0.1,0-0.1,0.1-0.2,0.1
		l-0.1-0.1l0,0c0,0,0,0.1-0.1,0.2L4,17.4L3.8,17c-0.1,0-0.2,0-0.3,0.1c0.1,0.2,0,0,0.2,0.1l0.1,0.1c0.1,0,0,0,0.1,0
		c0.4,0.1,0.1,0,0.5,0C4.6,17.3,4.6,17.3,4.7,17.2z M9.1,13.4c-0.4-0.1-0.1,0.2-0.5,0.1c0.2-0.2,0.7-0.3,0.8-0.4c0.1-0.2,0,0,0-0.1
		c0,0,0.1,0,0,0c-0.1-0.1-0.5,0.2-0.8,0.3c-0.2,0.1-0.6,0.2-0.9,0.4L7.6,14c0.3,0,0.4-0.1,0.6-0.2C7.9,14,8.1,13.9,8.1,14
		c0.1-0.1,0.1-0.1,0.2-0.1c0.2,0,0.2,0,0.3-0.1C9,13.4,8.9,13.6,9.1,13.4z M8.7,15.5c-0.2-0.1-0.1,0-0.3,0H8.2c-0.1,0,0.1,0-0.1,0
		c0,0.1,0,0.1-0.1,0.1c-0.1,0.1,0,0-0.1,0.1c0.4,0,0.1,0,0.2,0.1c0.1,0,0.1,0,0.1,0.1l0,0c0,0-0.1,0.1-0.3,0.2c-0.2,0-0.2,0-0.4,0.1
		h0.2c-0.2,0.1-0.2,0-0.3,0.2c0.2,0,0.6,0,0.8-0.2c0.1-0.1,0.1-0.1,0.2-0.2v-0.2c0.3,0,0.1,0,0.3-0.2c0.1,0,0,0.1,0.2,0.2
		C9,15.7,9,15.8,9,15.6C8.6,15.6,8.7,15.6,8.7,15.5z M8.7,14.4c-0.1-0.2-0.1-0.1,0-0.2c0.1,0,0.1,0.2,0.3-0.1c0.1-0.1,0.1,0,0.2,0
		c0.2-0.1,0,0.1,0.2-0.1C9,13.8,9,14.1,8.6,14.1c-0.1,0-0.3,0.1-0.5,0.2l0,0l0,0l0,0l-0.3,0.1c0.1,0.1,0,0.1,0.1,0.1s0.1,0,0.2,0
		c-0.1,0.2,0,0.1-0.1,0.2l0,0c-0.2,0.1-0.3,0.1-0.4,0.3c0.2,0,0.8-0.3,0.9-0.4c0.2-0.1,0.1-0.1,0.3,0C8.7,14.5,8.8,14.6,8.7,14.4z
		 M41,7.4c-0.1,0.1-0.1,0.1-0.2,0.3c0.3,0,0.2,0,0.3-0.2L41.6,7c0.1,0,0,0,0.1-0.1l0.1-0.1c0-0.1,0-0.1-0.1-0.1
		c0.1-0.1,0.1-0.2,0.2-0.3c-0.2,0-0.1,0-0.4,0.3l-0.2,0.2c-0.4,0.6-0.1,0.1-0.4,0.4c-0.2,0.2,0,0.1-0.2,0.1c-0.1,0,0-0.1-0.1,0
		s-0.1,0.2-0.2,0.3h0.2C40.9,7.6,40.7,7.5,41,7.4z M40.2,2.4l0.2-0.1c0.2-0.1,0.1-0.2,0.3-0.4c0.1-0.1,0.2-0.1,0.2-0.2
		c0.3,0.1-0.1,0.1,0.1,0.1c0,0,0,0,0-0.1c0,0,0,0,0-0.2c-0.2,0-0.1,0-0.2-0.1c0.1,0,0.2,0,0.2-0.1c-0.1,0-0.2,0.1-0.2,0.1
		c-0.1,0.1-0.1,0.1-0.1,0.2c-0.1,0-0.1,0-0.2,0c-0.2,0,0,0-0.1,0s0,0-0.1,0.1c-0.4,0.1-0.1,0-0.2-0.1C40,1.8,40,1.8,39.8,1.9
		c-0.3,0.2-0.7,0.3-0.8,0.4c0.2,0,0.2-0.1,0.4-0.2c0.1,0,0.3-0.1,0.4-0.1c-0.1,0.1-0.2,0.1-0.3,0.2c0.2,0,0.2-0.1,0.4-0.2
		c0.1,0,0.3-0.1,0.4-0.1L40.2,2.4z M3.3,20.4h0.5c-0.1,0.1-0.1,0-0.2,0.1c0.1,0,0.1,0,0.2,0c0.1,0,0.1,0,0.1,0l0.6-0.2
		c0.1-0.1,0.4-0.2,0.5-0.1l0,0l0.1-0.1l0,0L5.2,20c0.1-0.1,0,0,0.1-0.1L4.5,20v-0.1C4.3,19.9,4,20,3.9,20c-0.3,0.1,0,0.1-0.3,0.1
		C3.4,20.3,3.4,20.3,3.3,20.4z M38,1.4c-0.3,0-0.5,0.1-0.6,0.1c-0.3,0.1,0-0.1-0.4,0.1c0,0-0.2,0-0.2,0.1c-0.1,0-0.3,0.1-0.4,0
		l0.1,0.2l0,0c0,0-0.1,0-0.2,0c-0.2,0.1,0-0.1-0.1,0.1c0,0.1-0.2,0,0.1,0.1c0.2,0,0,0,0.1,0s0-0.1,0.1,0l0,0c0,0,0.4-0.2,0.5-0.2
		c0-0.1,0-0.1,0-0.2h0.1l0,0C37.4,1.9,38,1.5,38,1.4z M5.8,22.2v-0.1C5.4,22,5.3,22.2,5.2,22l-0.1-0.1L4,22.1c0.2,0.1,0,0,0.1,0.1
		v0.1l0,0l0,0l0.8-0.1C5.1,22.2,5.3,22.3,5.8,22.2C5.7,22.2,5.7,22.2,5.8,22.2C5.7,22.2,5.8,22.2,5.8,22.2z M18.6,6.3
		C18.6,6.1,18.6,6.2,18.6,6.3l-0.4,0.1l0.1,0.1l0,0l0,0l0,0c0.2,0,0.2-0.1,0.2,0.1c0,0.1-0.1,0.2-0.1,0.2C18.1,7,18.1,6.7,17.9,7
		c0.2,0.3,0.4,0.1,0.7,0.1c0.1,0,0.1,0,0.2,0c-0.1-0.1-0.1,0-0.3,0C18.7,6.7,18.8,6.6,18.6,6.3L18.6,6.3z M5.2,14.3c0,0,0.1,0,0.2,0
		l-0.1-0.5c-0.1,0.1-0.2,0-0.3,0.1c-0.1,0.1,0,0-0.1,0.1c-0.4,0.2,0,0.1-0.3,0.3c-0.1,0.1-0.1,0.1-0.2,0.2l0.3-0.1
		c-0.1,0.1-0.1,0.1-0.1,0.2L5.2,14.3z M40.9,5.7c-0.1,0.1-0.2,0.2-0.3,0.3c0.2-0.1,0.2,0.1,0.2-0.2c0.1,0.1,0,0.1,0.1,0.3
		c0.2,0,0.3,0,0.3-0.2c0.1-0.3,0.1-0.1,0.2-0.2c0.2-0.1,0-0.1,0.1-0.2c0.1-0.2,0.1-0.1,0-0.3c-0.1,0,0,0-0.1,0l-0.2,0.2
		C41,5.7,41,5.6,41,5.8L40.9,5.7z M4.4,18.4L4.4,18.4C4.4,18.4,4.3,18.3,4.4,18.4c-0.1-0.2,0-0.1-0.1-0.2c-0.2,0-0.4,0.2-0.6,0.1
		c0.2-0.1,0.4-0.1,0.6-0.2c-0.1,0-0.7,0.1-0.9,0.2l0,0h0.1c0.2,0,0.1-0.1,0.2,0.1c-0.1,0.1-0.2,0.1-0.3,0.1l-0.3,0.1
		c0.2,0.3,0.4,0,0.7,0C3.9,18.6,4.1,18.5,4.4,18.4z M15.5,7.4h-0.2c-0.1,0.1-0.1,0.1-0.1,0.2c-0.2-0.1-0.1-0.3-0.3,0l0.2,0.1
		c-0.1,0.1,0,0-0.1,0.1h-0.1c0,0.2-0.2,0.1,0.1,0.1c-0.2-0.1-0.1,0-0.2,0.2c0.8-0.1,0.3-0.3,0.8-0.5c0.3-0.1,0.2,0,0.3-0.2
		c-0.5,0.1-0.1,0.1-0.5,0.2L15.5,7.4z M6.9,16.6v-0.2c-0.2,0-0.3,0-0.3,0.2c-0.3-0.1-0.2-0.1-0.5-0.2l-0.3,0.1v0.3l0,0H6
		c0.1-0.1,0,0,0.1-0.3v0.1c0.1,0.1-0.1,0.1,0.5,0C6.7,16.6,6.6,16.5,6.9,16.6z M36.4,4.4L36.4,4.4c0.1-0.1,0.1-0.1,0.1-0.2
		c-0.6,0-0.4,0-0.7,0.1l0,0l0,0l0,0c-0.1,0.1-0.2,0.1-0.3,0.2c0,0.2,0.1,0.2,0.1,0.2l0.3-0.1C36,4.5,36,4.6,36,4.3l0,0
		c0.1-0.1,0,0.1,0.2,0.1C36.4,4.5,36.1,4.5,36.4,4.4z M6.1,17.8c0.1,0,0.5-0.1,0.7-0.1l0.1-0.1H6.6c0.1-0.2-0.1-0.2,0.2-0.2
		c-0.2,0-0.1,0-0.3,0.1c-0.3,0,0.1,0.1-0.3,0.1v-0.1H6.1C6.1,17.7,6.1,17.7,6.1,17.8L6.1,17.8z M6.1,17.8l-0.2,0.1
		c0-0.2,0-0.2,0-0.3H5.7l0.1-0.2c-0.2,0.1-0.1-0.1-0.5,0.1l-0.1,0.1c0,0.1,0,0.1,0.1,0.1s0.1,0,0.2,0c0,0.2,0,0.2,0.1,0.3
		c0.1,0,0.2,0,0.2,0C5.9,17.9,5.9,17.9,6.1,17.8C6,17.9,6,17.9,6.1,17.8 M9.5,14.8c-0.1,0-0.1-0.1-0.1,0.2c-0.4-0.2-0.3,0.1-0.5,0.2
		c-0.2,0.1,0,0-0.3,0v0.2c0.3,0,0.5-0.3,0.7-0.2c-0.1,0.1-0.1,0.1-0.2,0.1L9,15.5c0.3,0,0.2-0.1,0.3-0.2v-0.1l0,0l0,0
		C9.6,15,9.5,14.9,9.5,14.8z M36,6.2c-0.4-0.1-0.6-0.1-0.6,0.3c0,0.2,0,0.1,0,0.2c0.3,0,0.1,0,0.3-0.3c0.2,0,0.1,0,0.3,0V6.2z
		 M6.3,14.8c-0.1,0.1-0.1,0.2-0.1,0.3c-0.2,0-0.2,0-0.3,0v0.2c0.4,0.1,0.6,0,0.6-0.3C6.5,14.8,6.5,14.8,6.3,14.8z M36.3,6.8h-0.2
		L36,7.1c-0.3,0-0.2-0.2-0.3,0.1c0.1,0.1-0.1,0,0.1,0.1C36.2,7.4,36.3,7.2,36.3,6.8z M27.9,11.7h0.3v-0.2c-0.3-0.1-0.5-0.1-0.6,0.2
		s0,0.2,0.1,0.3c0.1,0,0.1,0,0.1-0.1C27.9,11.9,27.9,11.8,27.9,11.7z M14.5,9.6c-0.1,0-0.1,0-0.1,0.1C14.3,9.9,14.5,10,14,9.9v0.2
		c0.2,0.1,0.5,0.1,0.6-0.2C14.6,9.6,14.6,9.7,14.5,9.6z M14,9.2h0.2c0.1,0,0.1,0,0.1-0.1C14.3,9,14.4,9,14.1,9
		c-0.3-0.1-0.4,0.2-0.4,0.5h0.2L14,9.2z M20.6,5.8L20.6,5.8l-0.5,0.1C19.9,6,20,6,19.8,6l0.1,0.1C20.1,6.1,20,6,20.2,6l0.2,0.3
		c0.3-0.2,0.1-0.3,0-0.5l0,0C20.4,5.8,20.4,5.9,20.6,5.8L20.6,5.8L20.6,5.8z M28.4,12.1c-0.2,0.1-0.1,0.2-0.2,0.3s-0.2-0.1-0.3,0.1
		c0,0.1-0.1,0.1,0.2,0.2c0.2,0,0.3-0.1,0.4-0.3C28.6,12.1,28.5,12.2,28.4,12.1z M19.7,6C19.7,6,19.6,6.1,19.7,6
		C19.6,6,19.6,6.1,19.7,6h-0.2c-0.2,0-0.1-0.1-0.3,0.1c-0.1,0.1-0.1,0-0.1,0.2c0.2,0.1,0.1,0,0.1,0.1c0.1,0.1-0.1,0,0.1,0.1
		C19.5,6.4,19.6,6.3,19.7,6z M36.1,2.2c-0.1-0.4-0.3-0.3-0.5-0.1c0.1,0.4,0.2,0,0.1,0.3c0.1,0,0,0,0.2,0C36.1,2.3,36,2.3,36.1,2.2z
		 M7.9,15.9c-0.1-0.1,0,0-0.1-0.1c0-0.1,0,0,0-0.1H7.3L7.2,16c0.2,0,0.2-0.1,0.4-0.1V16h0.2L7.9,15.9z M35.4,4.8V4.6
		c-0.1,0-0.2,0-0.4,0.1s-0.2,0.1-0.3,0.2v0.2C35,5,35.2,4.8,35.4,4.8z M10.6,13.7h0.1v0.1c0.2-0.1,0.1,0,0.4,0
		c0.1-0.1,0.1-0.1,0.1-0.2v-0.2c-0.1,0-0.1,0.1-0.2,0.1C10.6,13.6,10.7,13.5,10.6,13.7z M6.3,17.5c0.1-0.3,0-0.1,0-0.2H6.1
		c-0.1,0.1-0.2,0.1-0.3,0.1l-0.1,0.2h0.2H6c0,0.1,0,0.1,0,0.1C6.4,17.6,6,17.6,6.3,17.5z M40.2,6.6C40.2,6.8,40.3,6.7,40.2,6.6v0.2
		l0,0c-0.1,0.2,0,0-0.1,0.1c0,0,0,0,0,0.1c0.3-0.3,0.1,0,0.3-0.3l0.1-0.1C40.3,6.6,40.4,6.6,40.2,6.6L40.2,6.6z M17,7.8
		c-0.2-0.1,0-0.1-0.2,0C16.7,8,17,8.2,17,7.8z"/>
	<path class="st2" d="M28.1,6.9C28,7.1,28,7,27.7,6.9l-0.1,0.3c0.2,0,0.1,0,0.3-0.1c0.3-0.1,0.2,0,0.3,0.1c-0.1,0.2,0,0-0.2,0.1
		l-0.6,0.1C27,7.6,27,7.5,26.6,7.6c0,0,0.1-0.1,0.2-0.1c0.1-0.1,0.1,0,0.1-0.2c-0.3-0.1-0.9,0.1-1.2,0.2v0.1l0,0v0.1
		c-0.4-0.1,0.1,0-0.2-0.2c-0.1,0.1-0.4,0.1-0.6,0.2c-0.1,0-0.2,0-0.3,0.1c-0.1,0,0,0-0.2,0.1c-0.1,0,0,0-0.1,0L23.7,8
		c-0.2,0-0.5,0.1-0.6,0.1c0,0,0-0.1,0.1,0c0.1,0.1,0,0,0,0.1c-0.2,0-0.2-0.1-0.4,0l-1.1,0.3c-0.2,0-0.3,0-0.4,0.1
		c-0.1,0-0.2,0.1-0.3,0.1c-0.1,0.1-0.2,0.1-0.4,0.1c-0.2,0.1-0.1,0.1-0.3,0l-0.1-0.1c0.1,0,0.2-0.1,0.4-0.1c0.4-0.1,0.9-0.3,1.2-0.4
		c-0.1-0.1-0.1-0.1-0.1-0.1c-0.1,0,0,0-0.1,0.1c-0.2,0.1-0.2-0.1-0.4,0.1l-0.6,0.3c-0.1,0-0.2,0-0.2-0.1c0.1,0,0.2,0,0.3-0.1
		c-0.2,0-0.3,0-0.4,0.2c0,0.1,0.2-0.1,0,0c-0.1,0-0.2-0.1-0.2-0.1c0.2,0,0.3-0.2,0.4-0.2l0,0c0.1,0,0,0.1,0.1,0c0.2-0.2,0-0.2,0-0.2
		c-0.3,0,0,0-0.2,0.1l0,0l-0.2,0.1c-0.1-0.1,0-0.2-0.1-0.3c-0.6,0,0,0.3-0.5,0.4l-0.4,0.1c0.1,0.2,0.1,0,0.2,0.3l0,0
		C19,8.9,19.4,9,18.9,9l0.2-0.1c-0.1,0-0.1,0-0.1,0l0,0l0,0C18.8,9,18.8,9,18.6,9v0.1c0,0.2-0.2,0.2-0.3,0.2
		c0.2,0.3,0.6-0.1,0.7-0.2c0.1,0,0.6-0.2,0.8-0.2C19.6,9,19.6,9,19.4,9.1h-0.2c-0.4,0.1-1.7,0.5-1.8,0.8c-0.2-0.1-0.1-0.1-0.4,0
		c-0.1,0-0.2,0.1-0.2,0.1c-0.3,0.2-0.6,0.1-0.8,0.3s-0.4,0.2-0.6,0.3c0.2-0.2,0.1-0.1,0.2-0.4c-0.3,0-0.1,0-0.3,0.1
		c-0.1,0-0.1,0-0.1,0.1c-0.1,0,0,0-0.1,0.1c0,0.3-0.1,0.2,0.1,0.3C15,10.8,15,10.9,15,11c-0.1,0.3-0.1,0.2-0.4,0.1
		c0.1-0.2,0.1-0.1,0.1-0.3h-0.2c-0.1,0-0.1,0-0.1,0.1c-0.2-0.2,0.2,0.2-0.1-0.1l-0.1-0.1l-0.9,0.6c-0.2,0.1-0.2,0-0.5,0.4
		c0.2,0.1,0.2,0.1,0.3,0l0.1-0.2c0.3,0.1,0.2,0.2,0,0.3c0.2-0.1,0.1-0.1,0.4-0.1c0,0.1-0.1,0.2-0.1,0.3c-0.1,0.1,0,0-0.2,0.1
		l-0.2,0.1l0,0h-0.2c0.1,0.1,0.3,0,0.3,0c0.1-0.1,0.2-0.1,0.2,0c0,0.2,0,0.1,0,0s0.2-0.1,0.2-0.1c-0.1,0-0.1,0-0.1-0.2l0.2-0.2
		c0.1-0.1,0.1,0,0.2-0.1c0.1,0.2,0.5,0.6,0.7,0.8l1,1.2c0.1,0.1,0,0,0.1,0.1s0.3,0.4,0.4,0.4c-0.2,0.1-0.3,0.1-0.3,0.5l0.1,0.3
		c0.4,0.1,0.2,0.1,0.3-0.2c0.1-0.2,0.1-0.1,0.3-0.1c0-0.1,0,0,0-0.2c0-0.3,0.4-0.2,0.5-0.3l0.1-0.1c0.1-0.1,0.2-0.1,0.4-0.2
		c0.1-0.1,0.1-0.1,0.2-0.1l1.8-1.1c0.3-0.1,0.5-0.3,0.8-0.5l1-0.6c0.2-0.1,0.4-0.3,0.6-0.4c0.1,0,0.1,0,0.1,0
		c0.2-0.2,0.5-0.4,0.7-0.5l0.2-0.2c0.2-0.2,0.2-0.1,0.3-0.3V10c0.1,0.2,0.3,0.3,0.6,0.3c0.2-0.1,0.1,0,0.2-0.2l0,0
		c0.1-0.6,0.1-0.5-0.1-0.6C24,9.4,24,9.4,24.1,9.4c0.2-0.1,0.3,0,0.4-0.1l0,0c0.1,0,0,0,0.1,0l1.7-0.4c0,0,0.1,0,0.2-0.1h0.1l0,0
		h0.1l0,0c0.1,0,0.1,0,0.2-0.1l1-0.3c0.2,0,0.5-0.1,0.7-0.2c0,0,0,0,0.1,0s0,0,0.1,0l0.7-0.1c0.1,0,0.1,0,0.2,0h0.1l0,0h0.1
		c-0.2-0.1-0.1,0-0.1-0.1l0.7-0.2c-0.2,0-0.7,0.1-1.1,0.1c-0.2,0-0.6,0.2-0.8-0.1c0.1,0,0,0,0.1,0c0.2,0,0.1-0.1,0.3-0.1
		c0.2,0,0.4-0.1,0.6-0.1c0.3-0.1,0.9-0.1,1.2-0.3h-0.4c0.1-0.1,0.2-0.1,0.2-0.1c-0.2,0-0.4,0.1-0.6,0.1c-0.3,0-0.6-0.1-1,0
		c-0.2,0.1-0.7,0.2-0.9,0.2C28.5,7,28.3,7,28.8,6.9c0.1,0,0.3,0,0.4-0.1c0.3-0.1,0.6-0.1,0.9-0.2V6.4c-0.2,0.1,0,0.1-0.1,0.2
		s-0.1,0-0.2,0c-0.3-0.2-0.1,0.1-0.5,0C29,6.6,28.2,6.7,28.1,6.9"/>
	<path class="st3" d="M6.8,15.2c0.3,0,0.3-0.1,0.6-0.3L8,14.5c0.1-0.1,0.1,0,0.1-0.1l0.2,0.2c0.1,0.1,0.4,0.6,0.6,0.7
		c-0.2,0.1-0.3,0.1-0.4,0.4c0.2,0,0.4,0,0.5-0.2c0.1,0.1,0.1,0.2,0.2,0.3c0.1,0,0.2,0,0.3,0c0-0.2,0.1-0.3,0.3-0.3l0.1,0.1
		c0.1,0.1,0.1,0.2,0,0.3c0.1,0,0.1,0,0.2,0c0.1,0,0.1,0,0.2,0l0,0c0.1-0.1,0.2-0.1,0.2-0.3c0.2,0,0.3,0,0.3-0.2
		c-0.4-0.1-0.4,0.2-0.7,0c0-0.1,0.2-0.2,0.3-0.3c0.3-0.3,0.3-0.1,0.3-0.6c-0.3,0-0.1-0.2-0.2,0.2c-0.1-0.2,0.4-0.3,0.4-0.5
		c0-0.1,0-0.2,0.2-0.2h0.2l0,0c0,0.3,0.1,0.2,0.1,0.4l0,0c0.1,0,0,0,0.1-0.1c0.1,0,0.1,0,0.2,0.1v0.2c0,0,0,0,0,0.1
		c0.2-0.1,0.4-0.2,0.5-0.4l0,0c0,0.1-0.3-0.2-0.3-0.2L11.8,14l0.2-0.2c0.1-0.1,0.1-0.1,0.3-0.1l0.2,0.3c0-0.3,0-0.1,0-0.3
		s0.2-0.4,0.4-0.4c0,0,0,0.1,0,0.2c0,0,0,0.1-0.1,0.1c-0.2,0.2,0.2,0-0.1,0c0,0-0.1,0-0.2,0c0,0.1,0,0.1,0,0.2
		c-0.2,0.1-0.3,0.1-0.3,0.4c0.3,0,0.1,0,0.2,0l0,0l0.5-0.5c0-0.1,0-0.1,0.1-0.1l0.1,0.1c0.1,0-0.1,0,0.1,0c0.2,0,0.2-0.2,0.2-0.3
		s0.3-0.2,0.4-0.2c0,0-0.1,0.1,0,0l0,0l0.1-0.2l0,0l0.4-0.3c0.1-0.1,0,0,0-0.2v-0.1l0.1-0.2c0.1-0.1,0.2-0.1,0.3-0.2l1-0.7
		c0,0,0,0,0.1-0.1c-0.2,0-0.4,0-0.5,0.2c0-0.2-0.1-0.2,0.1-0.3c0-0.1-0.1-0.1-0.1-0.2c0.4-0.4,0.3,0,0.6-0.5l0.2-0.2
		c-0.2,0.1-1.1,0.7-1.2,0.8c-0.2,0.2-0.3,0.1-0.6,0.5c-0.2,0.3-0.4,0.1-0.9,0.7c-0.1,0.1-0.9,0.6-1,0.6c0.1-0.2,0.2-0.3,0.4-0.4
		l2.5-1.9c0.1-0.1,0.1-0.1,0.3-0.2c0.1-0.1,0.3-0.2,0.4-0.3l0.1-0.1c0.1-0.1,0.4-0.2,0.5-0.3c0.8-0.6,0.3-0.4,1-0.6L18,8.8
		c0.2-0.1,0.4-0.3,0.7-0.4L19.5,8c0.3-0.1,0.6-0.2,0.9-0.4c0.1,0,0.1,0,0.2,0s0.1,0,0.1-0.1c0.1,0,0.2-0.1,0.3,0
		c-0.2,0.1-0.3,0.1-0.5,0.1c0,0.4,0,0-0.1,0.4c0.2,0,0.3,0.1,0.4-0.1c0-0.1,0,0,0-0.1V7.7c0.1,0.1,0.1,0,0.3-0.1
		c0.1-0.1,0.2,0,0.3-0.1c-0.1-0.1-0.1,0-0.2-0.1c0.1-0.1,0.2-0.1,0.4-0.2c0.1,0,0.1-0.1,0.2-0.1c0.2,0,0.4,0,0.6-0.1l0.4-0.2
		c-0.1-0.2-0.1-0.1-0.2-0.1c0.1-0.1,0.4-0.2,0.5-0.1c-0.1,0-0.2,0.1-0.2,0.2c0.2,0,0.4-0.1,0.6-0.1l-0.2-0.2c0.1,0,0.5-0.3,0.7-0.2
		c0,0.1-0.2,0.1-0.3,0.1l-0.2,0.1h0.3l-0.1,0.1c-0.1,0.1,0,0-0.1,0.1l0.2,0.1v0.1V7c0.3,0.1,0.4,0,0.6-0.1s0.1,0,0.2-0.1l-0.2-0.3
		l0,0l0,0h0.1c0.1-0.1,0,0,0.1-0.1c0.2-0.1,0-0.1,0.3-0.1c-0.1,0.3,0,0.1-0.1,0.2l-0.2,0.2l0,0c0.1,0.2,0,0,0.1,0
		c0.2,0,0.3,0,0.4-0.1H26c-0.7-0.2-0.2,0-0.8,0.2c-0.1,0-0.3,0-0.4,0L25,6.6c0-0.1,0-0.2,0-0.2l0.1,0.2l0,0c0.1-0.1,0.1-0.1,0.2-0.2
		c-0.1-0.1-0.1-0.1-0.1-0.1C25.1,6.1,25,6,24.9,6c0.2-0.1,0.3-0.1,0.6-0.2c0.3-0.1,0.5,0,0.7-0.1l0.3-0.1c0.1,0,0.1,0,0.2-0.1
		s0.1-0.1,0.2-0.1H27l0.2,0.1c-0.1,0.1-0.2,0.1-0.3,0.1c-0.1,0.1,0.1,0,0,0.2c-0.1,0-0.2,0.1-0.4,0.1c-0.2,0-0.3,0-0.5,0.1
		c-0.2,0,0,0.1-0.1,0l0,0c-0.2,0-0.5,0-0.7,0.1l0,0c0.2,0.1,0.4-0.1,0.6,0l-0.3,0.1c-0.1,0.1,0,0-0.1,0.1c0.3,0.1,0.3,0,0.5,0.1
		c0,0,0.2-0.2,0.2-0.3c0.2-0.1,0.4,0,0.7-0.1l0.4-0.1c0.1,0.6,0.1-0.1,0.8-0.2h0.1l0.3-0.1l0,0l-0.2-0.2c0.2,0,0,0,0.2-0.1l-0.7,0.1
		c-0.2,0-0.3,0.2-0.5,0.1c0.1-0.2,0-0.2,0.4-0.2c0.3,0,0.9-0.3,1.2-0.3c0.1,0.3-0.1,0.2,0.2,0.2c0-0.1,0,0,0-0.1
		c0-0.2,0.6-0.2,1.1-0.4l-0.2-0.2c-0.3-0.2-0.5,0.1-0.8,0.1c-0.2,0-0.3,0.1-0.4,0c0.1-0.1,1.2-0.4,1.4-0.4c0.1,0,0.2,0,0.2,0
		c0.4-0.1,0.2,0,0.5-0.1c0-0.1,0.8-0.2,1.2-0.4l0,0l-0.7,0.1C31,3.9,30.8,3.9,30.5,4l-7.7,2l-2.6,0.9c-0.4,0,0-0.2-0.3-0.1
		c0,0.3,0.4,0.1-0.4,0.4c-0.2,0.1-0.5,0.2-0.7,0.3l-3.2,1.8c0,0-0.1,0.1-0.2,0.1l-0.5,0.2c-0.1,0.1-0.1,0.2-0.2,0.3l-0.3-0.2
		c-0.1,0.2-0.9,0.7-1.3,1c-0.5,0.5-0.3,0-0.6,0.2c-0.2,0.1-0.1,0.1-0.1,0.3l0,0l0,0c0,0,0,0,0-0.1v0.2l-0.1-0.1c-0.1,0,0,0,0,0
		c0,0.1,0,0,0,0.2c0,0,0,0,0,0.2l0,0c-0.2-0.1,0,0-0.2-0.1v0.4c-0.2-0.1-0.1-0.1-0.3-0.1c-0.4,0.4-0.1,0.2-0.4,0.4c-0.1,0.1,0,0,0,0
		c-0.1,0.2,0-0.1,0,0.1c-0.4,0-0.5,0.2-0.8,0.4c-0.1,0.1-0.1,0.1-0.2,0.3c-0.1-0.2,0-0.1-0.1-0.1c-0.1,0.1-0.1,0.2-0.3,0.3
		s-0.2,0.1-0.3,0.3l-0.1,0.1C9,14,9.4,13.7,9.2,14l-0.1,0.1H9C8.9,14,8.9,14,8.6,14.3c-0.4,0.4-1,0.7-1.4,0.9
		C6.9,15.1,6.9,15,6.8,15.2 M11.5,19.1c0,0,0,0.1,0.1,0.1h0.1L11.5,19.1z"/>
	<path class="st4" d="M36.3,2.6c-0.2,0-1.3,0.3-1.4,0.4c0.1,0.1,0.2,0,0.4,0c0.3,0,0.5-0.3,0.8-0.1l0.2,0.2
		c-0.4,0.2-1.1,0.2-1.1,0.4c0,0.1,0.1,0,0,0.1c-0.3,0,0,0.1-0.2-0.2c-0.4,0-0.9,0.3-1.2,0.3c-0.4,0-0.3,0-0.4,0.2
		c0.2,0.1,0.3-0.1,0.5-0.1l0.7-0.1c-0.2,0,0,0-0.2,0.1L34.6,4l0,0l-0.3,0.1h-0.1c-0.7,0.1-0.7,0.8-0.8,0.2L33,4.4
		c-0.3,0.1-0.5,0-0.7,0.2c0,0-0.2,0.2-0.2,0.3c-0.2-0.2-0.2-0.1-0.5-0.1c0.1-0.1,0,0,0.1-0.1L32,4.6c-0.1-0.1-0.3,0.1-0.6,0l0,0
		c0.2-0.1,0.4-0.1,0.7-0.1l0,0c0.1,0.1-0.1,0,0.1,0.1c0.2-0.1,0.3,0,0.5-0.1c0.1,0,0.2-0.1,0.4-0.1c0.1-0.2-0.1-0.1,0-0.2
		s0.2,0,0.3-0.1L33.2,4h-0.1C33,4,33,4,32.9,4.1c-0.1,0,0,0-0.2,0.1l-0.3,0.1c-0.2,0.1-0.4,0-0.7,0.1c-0.2,0.1-0.3,0.1-0.6,0.2
		c0.1,0.1,0.2,0.2,0.3,0.3c0,0,0.1,0,0.1,0.1c-0.1,0.1-0.1,0.1-0.2,0.2l0,0L31.2,5c-0.1,0.1,0,0.1-0.1,0.2l-0.2,0.2
		c0.1,0,0.3,0,0.4,0c0.9-0.4,0.3-0.5,1-0.4l-0.9,0.3c-0.2,0.1-0.2,0.1-0.4,0.1c0,0,0,0.2-0.1,0l0,0l0.2-0.2C31.2,5,31.2,5.3,31.2,5
		c-0.2-0.2-0.1-0.2-0.3,0c-0.1,0.1,0,0-0.1,0.1h-0.1l0,0l0,0l0.2,0.3c-0.1,0.2,0,0.1-0.2,0.1c-0.2,0.1-0.3,0.1-0.6,0.1V5.5V5.4
		l-0.2-0.1c0.1-0.1,0-0.1,0.1-0.1L30.1,5h-0.3L30,4.9c0,0,0.2-0.1,0.3-0.1C30.1,4.7,29.8,5,29.6,5l0.2,0.2c-0.2,0-0.4,0.1-0.6,0.1
		c0.1-0.1,0.1-0.2,0.2-0.2C29.3,5,29,5.1,29,5.2c0.2,0,0.1-0.1,0.2,0.1l-0.4,0.2c-0.3,0.1-0.4,0.1-0.7,0.2c-0.1,0-0.1,0.1-0.2,0.1
		c-0.2,0.1-0.3,0.1-0.4,0.2c0.1,0,0.2,0,0.2,0.1c-0.2,0.1-0.2,0-0.3,0.1c-0.1,0.1-0.2,0.2-0.3,0.1v0.1c0,0.1,0,0,0,0.1
		c-0.1,0.2-0.2,0.2-0.4,0.1c0.1-0.4,0.1,0.1,0.1-0.4c0.2,0,0.3,0,0.5-0.1c-0.1-0.1-0.2,0-0.3,0c-0.1,0-0.1,0-0.1,0.1
		c-0.1,0-0.1,0-0.2,0c-0.3,0.1-0.6,0.3-0.9,0.4L25,6.8c-0.3,0.1-0.5,0.3-0.7,0.4l-0.4,0.2c-0.7,0.2-0.2,0-0.8,0.4
		C22.9,8,22.7,8,22.5,8.2l-0.1,0.1c-0.1,0.1-0.3,0.2-0.4,0.3s-0.1,0.1-0.3,0.2l-2.5,1.9c-0.2,0.1-0.3,0.3-0.4,0.4c0,0,0.9-0.6,1-0.6
		c0.5-0.6,0.7-0.4,0.9-0.7c0.3-0.4,0.4-0.3,0.6-0.5c0.1-0.1,1-0.7,1.2-0.8l-0.2,0.2C22,9.2,22,8.8,21.7,9.2c0,0.1,0.1,0.1,0.1,0.2
		c-0.2,0.1-0.1,0.2-0.1,0.3c0.1-0.2,0.2-0.3,0.5-0.2c0,0,0,0-0.1,0.1l-1,0.7c-0.1,0.1-0.2,0.1-0.3,0.2l-0.1,0.2c0,0,0,0,0,0.1
		c0.3-0.1,0.5-0.3,0.7-0.5c0.2-0.3,0.5-0.1,0.6-0.5c0.1,0,0.1,0,0.2-0.1l0.2-0.1c0.1-0.1,0.1,0,0.2-0.1s0.1-0.2,0.1-0.3
		c-0.2,0-0.2,0.1-0.4,0.1c0.1-0.1,0.2-0.2,0-0.3l-0.1,0.2c-0.1,0.1,0,0.2-0.3,0c0.3-0.3,0.3-0.2,0.5-0.4l0.9-0.6l0.1,0.1
		c0.3,0.3-0.2-0.1,0.1,0.1c0.1,0,0,0,0.1-0.1h0.2c0,0.1,0,0.1-0.1,0.3C24,8.7,24,8.7,24.1,8.5c0.1-0.2,0.1-0.2,0.2-0.2
		c-0.1-0.1-0.1,0-0.1-0.3c0.1-0.1,0,0,0.1-0.1c0.1,0,0.1,0,0.1-0.1c0.2-0.1,0-0.1,0.3-0.1c-0.1,0.3,0,0.2-0.2,0.4
		C24.8,8,25,8,25.1,7.8c0.2-0.2,0.5-0.1,0.8-0.3c0,0,0.1-0.1,0.2-0.1c0.2-0.1,0.2-0.1,0.4,0c0.1-0.3,1.6-0.7,2-0.9
		c0.2-0.1,0.2-0.1,0.4-0.2c-0.2,0-0.8,0.1-0.8,0.2c-0.1,0-0.5,0.4-0.7,0.2c0.1,0,0.4,0,0.3-0.2V6.4c0.2,0.1,0.2,0,0.4-0.1
		c0.1,0,0.1,0,0.2,0l-0.2,0.1c0.5,0,0.1-0.1,0.5-0.3l0,0c-0.1-0.3-0.1-0.1-0.2-0.3l0.4-0.1c0.5-0.1-0.1-0.3,0.5-0.4
		c0,0.1,0,0.2,0.1,0.3l0.2-0.1l0,0c0.2-0.1,0-0.1,0.2-0.1c0,0,0.2,0.1,0,0.2c-0.1,0.1,0,0-0.1,0l0,0c-0.1,0-0.2,0.2-0.4,0.2
		c0,0.1,0.1,0.2,0.2,0.1c0.2-0.1,0,0.1,0,0c0.1-0.2,0.2-0.2,0.4-0.2C29.8,6,29.7,6,29.6,6c0.1,0.1,0.1,0.1,0.2,0.1l0.6-0.3
		c0.2-0.2,0.3,0,0.4-0.1s0-0.1,0.1-0.1c0,0,0-0.1,0.1,0.1c-0.3,0.1-0.8,0.3-1.2,0.4c-0.2,0-0.3,0.1-0.4,0.1l0.1,0.1
		c0.2,0.1,0.1,0.1,0.3,0c0.1,0,0.2-0.1,0.4-0.1c0.1,0,0.3-0.1,0.3-0.1c0.2,0,0.3,0,0.4-0.1L32,5.7c0.2-0.1,0.2,0,0.4,0
		c0-0.1,0,0,0-0.1c-0.1-0.1,0,0-0.1,0c0.1,0,0.4-0.1,0.6-0.1l0.6-0.1c0.1,0,0.1,0,0.1,0c0.1,0,0.1,0,0.2-0.1c0.1,0,0.2-0.1,0.3-0.1
		s0.5,0,0.6-0.2c0.3,0.1-0.2,0,0.2,0.2V5.1V5c0.3-0.1,0.9-0.3,1.2-0.2c0,0.2,0,0.1-0.1,0.2c0,0-0.1,0.1-0.2,0.1
		c0.4-0.1,0.4,0,0.8-0.2l0.5-0.1c0,0,0-0.1-0.1-0.1s-0.1,0.1-0.3,0L37,4.5c0,0,0.1,0,0.1,0.1V4.5c0-0.1,0-0.1,0.1-0.2
		c0,0,0-0.1-0.1-0.1C37,3.9,37,3.9,37,3.8c-0.1-0.1,0,0-0.1-0.1s0-0.2,0-0.3c0.2,0,0.1-0.1,0.4,0v0.1V3.3l0,0l0,0
		c-0.1-0.1-0.2-0.1-0.3-0.1c-0.2,0.1-0.2,0.3-0.4,0L37,3c0.2,0,0.2,0,0.3-0.1V2.8v0.1c0-0.1,0-0.2,0-0.3c-0.1,0-0.3,0.1-0.5,0.1
		c-0.1,0-0.2,0.1-0.3,0.1c0,0,0,0-0.1,0c-0.2,0,0,0-0.2,0.1C36.3,2.8,36.3,2.8,36.3,2.6 M39,1.5C39,1.5,38.9,1.5,39,1.5
		C38.9,1.5,38.9,1.5,39,1.5L39,1.5z"/>
	<path class="st5" d="M9.6,29.6c0.3,0.1,0.3-0.2,0.7,0c0.1,0.2,0.2,0.4,0,0.6c-0.1,0.1-0.4,0.3-0.6,0.3c0-0.3,0-0.2,0.2-0.3
		c0.1-0.1,0.2-0.1,0.2-0.3c-0.3-0.1-0.8,0.3-0.9-0.2c-0.1-0.4,0.4-0.7,0.7-0.6C10,29.5,9.5,29.1,9.6,29.6 M10.3,28.7
		c0.2,0,0.5-0.5,0.9,0c0.1,0.2,0.4,0.6,0.4,0.8l-0.1,0.1c-0.3-0.2-0.4-1.2-0.9-0.6c0,0.3,0.4,0.6,0.4,0.9L10.8,30
		c-0.1,0-0.9-1.4-0.9-1.5C10,28.1,10.2,28.6,10.3,28.7z M11.8,27.8c0.2-0.1,0.1-0.1,0.4,0.3c0.1,0.2,0.3,0.4,0.3,0.6
		c-0.1,0.3-0.6,0.6-0.9,0.3c-0.1-0.1-0.5-0.7-0.5-0.9l0.2-0.1c0.1,0.1,0.2,0.4,0.3,0.5c0.2,0.3,0.3,0.4,0.6,0.1
		C12.2,28.5,11.8,28.2,11.8,27.8z M12.1,27.4C12,27.2,12,27.3,12.2,27l0.2,0.4c0.2,0,0.3-0.1,0.4-0.2c0-0.3-0.2-0.2,0-0.5
		c0.1,0.1,0.1,0.2,0.2,0.3c0.1-0.1,0.3-0.2,0.3,0c0.1,0.2,0,0.1-0.2,0.3c0,0.1,0.2,0.3,0.2,0.4c0.2,0.3,0.3-0.1,0.4,0.2
		c0.1,0.2-0.3,0.3-0.6,0.1c-0.1-0.2-0.2-0.4-0.4-0.6c-0.1,0.1-0.2,0.1-0.4,0.2c0,0.1,0.2,0.4,0.3,0.5c0.3,0.3,0.3-0.2,0.4,0.2
		C12.9,29,12.5,28,12.5,28c-0.1-0.2-0.2-0.2-0.3-0.2C12.1,27.6,12.2,27.7,12.1,27.4z M14.8,27.3c0,0.4-0.3,0.6-0.6,0.5
		c-0.2,0-0.3-0.1-0.3-0.3c0-0.1-0.2-0.3-0.2-0.4c-0.2-0.6,0.7-1.1,1-0.2c-0.2,0.2-0.5,0.2-0.6,0.5c0.2,0.1,0.2,0.1,0.4,0
		C14.7,27.3,14.5,27.2,14.8,27.3z M14.9,26c0,0,0.1-0.1,0.2,0.1c0.1,0.3-0.4,0.1-0.1,0.6c0.1,0.1,0.5,0.6,0.2,0.7
		c-0.2,0.1-0.2-0.2-0.3-0.2C14.8,26.8,14.3,26.2,14.9,26z M15.6,26.9c0-0.3,0-0.2,0.2-0.3c0.1,0,0.2-0.1,0.3-0.2
		c0.1-0.3-0.4-0.1-0.5-0.1c-0.6,0-0.3-1,0.3-0.9c0.1,0.5-0.4,0-0.4,0.6c0.3,0.1,0.3-0.1,0.5-0.1C16.8,26,16.2,27.1,15.6,26.9z
		 M16.7,25.8c0.1,0.2,0.1,0.1,0.3,0.1c0.1,0,0-0.1,0.1,0c0.1,0.2-0.2,0.3-0.4,0.2c-0.2-0.1-0.3-0.5-0.4-0.6c-0.2-0.2-0.3,0-0.3-0.3
		c0-0.4-0.2-0.2,0-0.6c0.1,0.1,0.2,0.2,0.3,0.3c0.1,0,0.3-0.2,0.3,0c0.1,0.2,0,0.1-0.2,0.3C16.5,25.4,16.7,25.7,16.7,25.8z M18,25.5
		c-0.1,0.1-0.2,0.2-0.3,0.2l-0.1-0.2l0.2-0.2c0-0.2-0.2-0.3-0.1-0.4C18,24.8,18.2,25.3,18,25.5z M17.1,25.4
		c-0.6-0.4,0.1-1.1,0.3-0.7c0,0.1-0.1,0.2-0.2,0.3c0.1,0.2,0.1,0.2,0.1,0.4L17.1,25.4z M19,24.6c0.2,0.3-0.2,0.6-0.4,0.6
		c-0.4,0.1-1-0.8-0.6-1.1c0.1-0.1,0.5-0.4,0.7-0.1c-0.1,0.3-0.2,0-0.5,0.2c-0.1,0.4,0.3,1,0.6,0.6C18.9,24.6,18.7,24.6,19,24.6z
		 M19.2,23.9c0.1-0.4,0-0.6,0.4-0.7L19.5,24c0.2,0,0.6,0.2,0.8,0.3c-0.3,0.3-0.4,0-0.8,0c-0.1,0.3,0.1,0.2,0.1,0.5l-0.1,0.1
		c-0.2-0.1-0.1-0.1-0.3-0.4l-0.5-0.8c-0.2-0.4-0.2-0.3-0.1-0.4C18.8,23,18.9,23.8,19.2,23.9z M22.9,21.4h0.2
		c0.1,0.5-0.2,0.6-0.6,0.5v-0.2h0.3L22.9,21.4z M22.3,21.3c-0.1-0.1-0.1,0-0.1-0.3c0-0.1,0.1-0.2,0.1-0.2c0.1,0,0.5-0.2,0.5,0.1
		c0,0.1-0.2,0-0.3,0.1C22.3,21.1,22.5,21.2,22.3,21.3z M36.1,11.2L20,17c-2.7,1-5.4,2-8,2.9c-1.4,0.5-2.7,1-4,1.4
		c-0.6,0.2-1.4,0.5-2,0.7s-1.4,0.5-1.9,0.7C3.9,23,4,23,3.9,23.1C4,23.1,4,23,4.2,23.2c0.1,0.1-0.1-0.1,0.1,0.1h0.1
		c0.2,0.1,0-0.1,0.2,0c-0.1,0.2-0.2,0.2-0.2,0.4c0.2-0.1,0-0.2,0.3,0c0,0.1,0,0.1,0,0.2h0.2c0,0.4-0.1,0.2,0.1,0.4
		c-0.1,0.2-0.5,0.6-0.6,0.7l0.1,0.1l0,0l0,0l-0.2,0.3h0.3v0.3c0.8,0,0.4-0.2,0.9-0.2c-0.1,0.2-0.2,0.2-0.4,0.3L4.6,26
		c-0.1,0.1,0,0-0.1,0.1L5.1,26c-0.1,0.4,0,0.4-0.4,0.5c0.1,0,0.2-0.1,0.4-0.1c0.2,0,0.1,0,0.3,0c0.2,0,0-0.1,0.3,0
		c-0.1,0.1-0.1,0.1-0.2,0.2L6,26.4l-0.3,0.3c0.2,0,0.1-0.1,0.2,0c-0.1,0.1-0.2,0.1-0.3,0.2c0.2,0,0.2-0.1,0.5-0.2L6,26.9
		c-0.2,0.3,0.1,0.2-0.3,0.5c0.2,0,0.3-0.2,0.5-0.2c-0.2,0.2-0.4,0.3-0.6,0.5c0.2,0,0.3-0.1,0.4-0.2c-0.2,0.2-0.7,0.4-0.9,0.7
		c0.3,0-0.1,0,0.3-0.1c0,0.3,0,0.2-0.3,0.4l-1.2,0.9c0,0.1,0,0.2,0,0.3l0.2,0.1c0.3,0.2,0.1,0.1,0.3,0.3c0.1,0.2,0,0,0.3,0.3L5,30.8
		c0.1,0.1,0.1,0,0.1,0.1c0.2,0.2,0.2,0.3,0.2,0.5c0.2,0,0.4,0.1,0.4,0.3c0.2,0.1,0.4,0,0.5,0.2v0.2c-0.3,0-0.3-0.1-0.4,0.1h0.3
		c0.1,0.1,0.1,0.2,0.1,0.2v0.3l0,0c0-0.1,0-0.1,0.1-0.2l0.2-0.1c0,0.2-0.1,0.4-0.1,0.5l-0.1,0.2l0.2,0.3l0,0l0.3,0.3l0,0l0,0l0,0
		l0.4,0.5l0,0l0.9,1.1c0.3,0.2,0,0,0.4,0.4L8.7,36v0.1h0.1c1.4-0.4,3.5-1.3,5-1.8c4.1-1.5,8.3-3,12.4-4.5l2.5-0.9
		c0-0.2,0-0.4,0.2-0.5c0.1-0.1,0.1-0.1,0.2,0c0.3,0,0.2,0,0.2,0.2c-0.2,0.2-0.2,0-0.4,0.1c0,0.1-0.1,0.1,0.1,0.1s3.8-1.3,3.9-1.4
		c0.1-0.1,0.1-0.1,0-0.2s0.1,0.1-0.1-0.1c-0.1-0.1,0,0.1-0.1-0.1v-0.2c0.2-0.1,0.5-0.1,0.5-0.4c-0.3-0.1-0.3,0-0.5,0
		c-0.6,0-0.6-0.9,0.3-0.9c0.1-0.1,0,0,0.1-0.2c0-0.1-0.1-0.1-0.1-0.2c-0.1-0.3,0.1-0.4,0.3,0.1c0.1,0,0.3-0.1,0.4-0.2
		c0.1-0.2,0-0.1,0.2-0.1c0.1,0,0.1,0,0.2,0.1c0-0.3,0.1-0.1-0.2-0.2c0,0,0.1,0,0.1-0.1s-0.2-0.1,0.1-0.2c0.1,0,0.1,0,0.2,0
		c0.2,0.1,0.2,0.1,0.2,0.2s0.2,0.4,0.3,0.6c0.2,0.3,0.3,0.3,0.5,0.1c0-0.4-0.5-0.7-0.4-1c0.1-0.1,0.1-0.1,0.3-0.2
		c0.1-0.2-0.3-0.2,0.1-0.5l0.2,0.3c0.3-0.1-0.2-0.1,0.3-0.2c0-0.3-0.2-0.1,0-0.5c0.2,0.1,0.1,0.2,0.3,0.3c0.1,0,0.1,0,0.2-0.1
		c0.2-0.1,0.2-0.1,0.4-0.2s0.2-0.3,0.5-0.3c0.4,0,0.3,0.2,0.5,0.3c0-0.2,0,0,0-0.1c0-0.2-0.1-0.3,0-0.6c0.2-0.4,0.4-0.1,0.4-0.1
		c-0.1,0.3-0.2,0-0.2,0.4c0.2,0,0.3-0.1,0.5-0.1c-0.4-0.4,0-0.9,0.5-0.9v0.2c-0.2,0.2-0.4,0-0.4,0.4c0.3,0.1,0.3-0.1,0.6-0.1
		c0.4,0,0.1,0.1,0.4,0.1c-0.1-0.1-0.1-0.2-0.2-0.4c-0.2-0.4-0.1,0-0.3-0.2c-0.1-0.2,0-0.1,0-0.2s0-0.1,0-0.1l-0.1-0.2
		c0-0.2,0,0,0-0.1c-0.2,0-0.1,0.1-0.3,0c0-0.1-0.1,0,0.1-0.1c0,0,0.1,0,0.2,0c0.3-0.1,0.7-0.1,1.1-0.2c0.2,0,0.3-0.1,0.5-0.1
		c0.2-0.1,0.3,0,0.5-0.2c-0.4,0-2.5,0.7-2.6,0.6c0.1-0.1,0.6-0.2,0.8-0.2l2.3-0.6l-0.2-0.1c-0.2-0.1-0.1,0-0.2-0.2L41,20.4l-0.2-0.1
		c-0.1,0-0.8,0.1-0.9,0.1c-0.5,0.1-1.8,0.4-2.1,0.5S37,21,36.7,21c0-0.2,0.1,0.2,0-0.1c-0.5,0.1,0-0.2-0.6,0
		c-0.2-0.2,0.1-0.1-0.2-0.2s-0.8-0.2-1-0.1c0-0.1,0,0.1,0.2-0.2c-0.4,0-0.1,0-0.5-0.1c-0.1,0-0.3,0-0.4,0c0.1-0.2,0.2-0.3,0.2-0.3
		l0,0c0-0.3-0.1-0.2,0.2-0.2c-0.3-0.2-0.2-0.2-0.2-0.3l-0.1-0.1l0,0c-0.1-0.2,0-0.2-0.2-0.3l-0.2-0.2c-0.1-0.1,0,0-0.1-0.1l0,0
		l-0.4-0.4l0,0l0,0l0,0L33,18.1C32.9,18,33,18,32.8,18l0,0h-0.2v-0.2l0,0l-0.2-0.3c0,0,0-0.1-0.1-0.1l-0.2-0.1
		c-0.3-0.4-0.3-0.1-0.3-0.4c-0.4,0-1.5-0.1-1.7-0.3c-0.1-0.2,0.1-1.4,0.2-1.7c0.1,0,0,0,0.2,0c0.4,0,1.3,0.3,1.7,0.2
		c0-0.1-0.1-0.1-0.1-0.3c0.3,0.1,0.6,0,0.8-0.1l0.1-0.1l0,0l0.5-0.3c0.1,0,0.1-0.1,0.1-0.1c0.2-0.2,0.2,0,0.4-0.2l0.2-0.2
		c0.1-0.1,0.1,0,0.4,0c0-0.1,0-0.1,0.1-0.2c0.1-0.1,0,0,0.1-0.1l0.3-0.2l0,0l0.3-0.2c0.3-0.1,0.1,0.1,0.3-0.2c0.1-0.1,0,0,0.1-0.1
		l0.4-0.2c0.2-0.1,0.1-0.1,0.3-0.2c0,0,0,0,0.1,0c0.1-0.1,0.2-0.1,0.2-0.2c-0.1,0,0.1,0-0.1,0l-0.3,0.1c-0.1,0-0.3,0.1-0.4,0.1
		c-0.1,0,0,0.2-0.1,0l0,0c0.1-0.1,0-0.1,0.3-0.2l0.7-0.2c0.3-0.1,1.1-0.4,1.3-0.3c0.3,0,1.1-0.4,1.5-0.4c0-0.1,0.1,0-0.1-0.1
		c-0.1-0.1-0.1,0.1-0.3,0c0.2-0.1,0.1,0,0.2-0.1h-0.1l-2.5,0.6c0-0.1,0-0.1,0.1-0.1c0.1-0.1,1.1-0.3,1.4-0.5
		C37.7,10.6,36.3,11.2,36.1,11.2z M38.1,11.4c-0.2,0-1,0.3-1.3,0.3L36,12c-0.3,0.1-0.2,0-0.3,0.2l0,0c0.1,0.2,0,0,0.1,0
		s0.2,0,0.4-0.1l0.3-0.1c0.2,0,0,0,0.1,0c0,0-0.1,0.1-0.2,0.2c0,0,0,0-0.1,0c-0.2,0.2,0,0.1-0.3,0.2l-0.4,0.2c-0.1,0.1,0,0-0.1,0.1
		c-0.3,0.3-0.1,0-0.3,0.2L35,13.2l0,0l-0.3,0.2c-0.1,0.1,0,0-0.1,0.1s-0.1,0.1-0.1,0.2c-0.3-0.1-0.3-0.1-0.4,0l-0.2,0.2
		c-0.2,0.2-0.1,0-0.4,0.2c-0.1,0.1-0.1,0.1-0.1,0.1l-0.5,0.3l0,0l-0.1,0.1c-0.1,0.1-0.5,0.2-0.8,0.1c0.1,0.2,0.1,0.1,0.1,0.3
		c-0.3,0.1-1.2-0.1-1.7-0.2c-0.2,0-0.1,0-0.2,0c0.2-0.1,1.5,0.1,1.8,0.2l-0.2,1.7c0,0.2,0,0,0.3,0.4l0.2,0.1
		c0.1,0.1,0.1,0.1,0.1,0.1l0.2,0.3l0,0v0.2h0.2l0,0c0.2,0.1,0.1,0.1,0.2,0.1l0.3,0.4l0,0l0,0l0,0l0.4,0.4l0,0c0.1,0.1,0,0,0.1,0.1
		L34,19c0.1,0.1,0.1,0.1,0.2,0.3l0,0l0.1,0.1c0,0-0.1,0.1,0.2,0.3c-0.2,0-0.1-0.1-0.2,0.2c0.2,0,0.3-0.1,0.7-0.3
		c0.2-0.1,0.2-0.1,0.3-0.2l0,0l0,0c0.1,0,0,0,0.1,0c0.4-0.1,0.3-0.1,0.5-0.2l1.1-0.4c0.2-0.1,0.2,0,0.7-0.2c0.2-0.1,0.5-0.2,0.7-0.3
		c0.1,0,1.1-0.7,1.2-0.8l-0.1-0.1c0.2-0.1,0.3,0,0.2-0.2c-0.1-0.1,0,0-0.2,0V17c-0.3,0-0.1,0.1-0.3-0.2c-0.3,0-0.3,0.1-0.6,0.1
		c0.1-0.1,0.2-0.1,0.3-0.2c-0.2-0.2-0.4-0.2-0.6-0.2c-0.2,0-0.1,0.1-0.3,0c0.1,0,0.1-0.1,0.2-0.2c-0.3,0-0.3,0.2-0.6,0
		c0-0.2,0.1-0.2,0.3-0.3l0.1-0.1c-0.6,0.1-0.2,0-0.6,0.2L37.3,16l0,0c0-0.1-0.1,0,0-0.2c0.1-0.1,0.2,0,0.3,0c0.2,0,0.1,0,0.2-0.1
		c-0.2,0-0.3,0.1-0.4,0.1c-0.1-0.1-0.1,0.1,0-0.1c-0.3,0.1,0.3,0-0.5,0.3c-0.1,0,0-0.1-0.1-0.1C36.6,16,36.6,16,36.4,16
		c0.1-0.1,0.2-0.1,0.3-0.2c0.2-0.1,0.3,0,0.3-0.2l-0.8,0.2c0.2-0.4,1-0.4,1.4-0.6c0.5-0.2,0.3,0,0.5-0.1l0.6-0.2
		c0.3-0.1-0.2,0,0.5-0.2l0.4-0.1l2-0.7c0.1-0.1,0.6-0.3,0.7-0.3c-0.3,0-1.4,0.4-1.7,0.5c-1.1,0.3-3.1,1.1-4.2,1.3
		c-0.4,0.1-0.6,0.3-0.8,0.2c0.3-0.1,0.6-0.2,0.9-0.3c0-0.1,0.1-0.1,0-0.1l-1.2,0.2C35,15.7,35,15.5,35,15.5l0,0c0.2,0,0.1,0,0.4-0.1
		l0,0c0.6-0.3,0.5,0,1-0.3h0.1l0,0l0,0l0.3-0.1l0,0c0.2-0.1-0.1-0.1,0.2-0.1c0.2,0,0.1,0,0.2,0.1c-0.2,0.3-0.4,0-0.5,0.4l0,0
		c0.3-0.1,1-0.3,1.3-0.4c-0.1-0.1,0,0-0.1-0.1c0,0,0.1,0,0,0.1c-0.2,0.1,0.2,0-0.2,0.1c0-0.1,0,0-0.1-0.1v-0.1l0,0
		c-0.2,0.1,0,0.1-0.2,0l0.2,0.3c-0.4-0.1-0.1-0.1-0.3-0.3l0.6-0.2c0.3,0,0.2,0,0.4-0.1c0,0-0.1,0.2,0-0.1l0.2-0.1l0,0l0.7-0.2
		c0.2-0.1,0.2-0.1,0.4-0.2c0.3-0.1,0.2,0,0.4-0.1c0.2,0,0.3,0,0.5-0.1s0.2-0.1,0.4-0.1s0.3-0.1,0.4-0.2c-0.2-0.2,0,0-0.3-0.1
		c-0.4-0.1-0.4-0.3-0.5-0.1c0,0.1-0.1,0.2-0.4,0.4c-0.1,0-0.1,0.1-0.2,0c0.1,0,0.2-0.1,0.2-0.1l0.2-0.1l0,0l0,0L40.2,13
		c-0.1,0,0,0.1-0.1,0c0.1-0.1,0.1-0.1,0.3-0.1l0,0l0.6-0.2c0-0.1,0,0-0.1-0.1c-0.3,0-0.7,0.2-1,0.2c0.1-0.1,0-0.1,0.1-0.1
		s0.1,0,0.2-0.1l2.3-0.9c-0.3,0-0.5,0.2-0.8,0.2l0,0l0.2-0.2c-0.3,0-0.3,0.1-0.5-0.1c0.1-0.1,0.1,0,0.2-0.1l0.3-0.1
		c-0.5-0.1-1.3,0.5-1.8,0.5c0.2-0.1,0.5-0.2,0.7-0.3c0.5-0.3,0.1-0.1,0.7-0.3c0.3-0.1,0.3-0.2,0.4-0.3c-0.3,0-1.1,0.4-1.4,0.4
		c-0.2,0,0,0-0.2,0l-0.6,0.1c0.2-0.3,0.6-0.1,1-0.6c-0.2,0-0.2,0-0.6,0.2c-0.6,0.2-0.4,0.1-0.7,0.1l-0.5,0.1
		c-0.2,0.1-0.1,0.1-0.4,0.1C38,11.5,38.1,11.5,38.1,11.4z M4.4,37.7c0.8-0.3,1.4-0.5,2.2-0.8c0.2-0.1,2-0.7,2.2-0.8V36l-0.2-0.2
		c-0.4-0.4-0.1-0.2-0.4-0.4l-0.9-1.1l0,0l-0.4-0.5l0,0l0,0l0,0l-0.3-0.3l0,0l-0.2-0.3l0-0.2c-0.2,0-0.3,0.1-0.5,0
		c0-0.3,0.1-0.1,0.3-0.2l0,0v-0.3c0-0.1,0-0.1-0.1-0.2H5.8c0,0.2,0,0.2-0.2,0.2c0-0.5,0.2-0.6,0.6-0.5c-0.2-0.2-0.3-0.1-0.5-0.2
		c0-0.2-0.1-0.3-0.4-0.3c0-0.2,0-0.3-0.2-0.5c-0.1-0.1,0,0-0.1-0.1l-0.3-0.3c-0.2-0.3-0.1-0.1-0.3-0.3c-0.2-0.2,0-0.1-0.3-0.3
		l-0.2-0.1c-0.1-0.1-0.1-0.1,0-0.3c-0.2,0.1-0.4,0.2-0.5,0.4c-0.2,0-0.4,0.2-0.5,0.3c0.2-0.1,0.2,0,0.3,0c0.2-0.1,0.1-0.1,0.3-0.1
		c-0.3,0.3-0.7,0.4-0.8,0.9C3.1,31.1,3,31,3.3,31c0,0-0.2,0.4-0.3,0.4c-0.1,0.1-0.3,0.1-0.4,0.3c0.4,0,0.4-0.3,0.7-0.2L2.6,32h0.2
		c0.3,0,0,0.1,0.4-0.1c0.1,0,0.4-0.1,0.6-0.3L3.2,32c0.2,0,0.3-0.1,0.5-0.2c0.1-0.1,0.1,0,0.2-0.1l0.3-0.1c-0.1,0.1,0,0.1-0.1,0.1
		c-0.3,0.3-0.4,0-0.4,0.5c0,0,0,0,0,0.1c-0.1,0.3-0.1,0.2-0.3,0.4c0.2,0.1,0.1,0,0.1,0.1l0.3-0.1L4,32.9C3.9,33,3.8,33,3.8,33.1
		c0.1,0,0.1-0.1,0.2,0c-0.1,0.1-0.4,0.3-0.5,0.4c0.1,0.1-0.1,0,0.2,0c-0.1,0.3-0.3,0.3-0.2,0.5h0.1l0,0l0.1,0.1
		c-0.1,0.2-0.2,0.3-0.4,0.3l0.3,0.2c-0.1,0-0.2,0.1-0.3,0.2c0.4-0.1,0-0.2,0.4-0.2c0,0.1,0,0,0,0.1l0.1,0.9v0.1
		C4.2,36,3.9,35.9,4.1,36c0.1,0,0,0,0.1,0C4,36.2,4.1,36.1,4,36.3c-0.1,0.3,0.1,0,0,0.4h0.2c-0.1,0.1-0.1,0.1-0.1,0.2
		c0.5,0,0.4-0.1,0.6-0.1c-0.1,0.3-0.1-0.1-0.2,0.3c-0.1,0.2-0.1,0.2-0.2,0.4c0,0,0,0.1,0.2,0L4.4,37.7z M39.8,23
		c-0.1,0.1-0.2,0.1-0.3,0.2s-0.1,0.1-0.3,0.2s-0.7,0.3-0.4-0.1l-0.2-0.1c0.1,0,0.1,0,0.2,0c0.1,0,0.1,0,0.1-0.1h-0.3l0,0
		c-0.2,0.1-0.3,0.1-0.4,0.1c0.2,0,0.3-0.1,0.5,0c-0.2,0.1-0.2,0.1-0.4,0.1c0.1,0.3,0.3,0.4,0.1,0.5c-0.2,0-0.2-0.1-0.3-0.3
		c0-0.1-0.1-0.1-0.1-0.2l-0.1-0.1c-0.1-0.2,0,0-0.1-0.1c-0.1,0.1,0,0,0,0.1c0,0.5-0.5,0.3-0.6,0.7c0.4,0.4,0.3-0.2,0.7-0.1
		c0,0.4-0.4,0.7-0.8,0.4c-0.1-0.1-0.2-0.3-0.3-0.4c-0.2-0.3-0.2-0.2-0.1-0.6c-0.1,0-0.2,0-0.4,0.2c0.2,0.1,0.1,0,0.2,0.1
		c-0.1,0.3,0,0-0.2,0.3c0.5,1,0.4,0.3,0.7,0.6c-0.1,0.1-0.1,0.2-0.2,0.2c-0.4,0-0.5-0.4-0.7-0.7l-0.4,0.2c0,0.1,0.1,0.4,0.2,0.5
		c0.3,0.3,0.3-0.1,0.5,0.3c-0.4,0.6-0.9-0.4-0.9-0.5c-0.1-0.1,0,0-0.1-0.1c-0.2-0.1-0.2,0-0.2-0.3c-0.2,0.1-0.3,0.1-0.3,0.2h0.2
		l0.6,1c-0.1,0.3-0.6,0.7-1,0.3c-0.1-0.1-0.2-0.3-0.3-0.5s-0.3-0.4,0.1-0.4c0-0.1,0-0.1-0.2-0.2c-0.1,0-0.1,0-0.2,0
		c-0.2,0.1,0,0.1-0.1,0.2c0,0.1-0.1,0.1-0.1,0.1c0.4,0.1,0.2-0.1,0.2,0.2c0,0.1,0,0.1-0.1,0.1c-0.2,0-0.1-0.1-0.2,0.1
		c0.5,0,0.5,0.2,0.6,0.4c0.1,0.1,0.1,0.2,0.2,0.3c0.1,0.2,0.1,0.2,0,0.3c-0.4-0.1-0.5-1.2-1-0.6c0,0.4,0.4,0.6,0.4,0.9l-0.1,0.1
		c-0.2-0.1-0.5-0.8-0.6-0.9s0-0.1-0.1-0.1c0,0.2,0,0.1-0.1,0.2V26c-0.2,0-0.4,0.1-0.4,0.3c0.3,0.1,0.8-0.3,0.9,0.2
		c0.1,0.4-0.4,0.6-0.8,0.6c0.1,0.2-0.1,0,0.1,0.1c0.2,0.2,0,0,0.1,0.1s0.1,0.1,0,0.2c0.3,0,3.6-1.2,4.1-1.5l1-0.4l0.2-0.1
		c0.2,0,0.1,0,0.2,0c0.2-0.2,1.7-0.7,2.1-0.8c0.3-0.1,0.8-0.3,1.1-0.4c0.4-0.1,0.7-0.3,1.1-0.4c0,0,0,0,0.1,0c0.1-0.1,0,0,0.1-0.1
		c-0.3,0-0.4,0.1-1.4,0.1l-0.9,0.2c-0.2,0.1-0.1,0.1-0.3,0c-0.1,0.1-0.5,0.1-0.7,0.1v-0.1c-0.1-0.1,0.1,0,0.1-0.2c0-0.1-0.1,0,0-0.1
		c0.1,0,0.4-0.1,0.6-0.2c0.1,0,0,0,0.1-0.1c0.2-0.1,0.1,0,0.2-0.1c0.2,0,0.1,0,0.2-0.1l0.4-0.1l0,0l0.2-0.1h0.2c0-0.2,0-0.1,0-0.1
		c-0.2,0.1-0.2,0-0.5,0.1l0,0h-0.1l0,0c-0.1,0.1-0.1,0.1-0.3,0.1c-0.1,0-0.3,0-0.4,0c0.3-0.3,1-0.3,1.3-0.6l0,0l0.2-0.1l0,0
		c-0.3-0.1-0.1-0.1-0.2,0c-0.4,0.2,0.3-0.1-0.1,0.1c-0.1,0.1-0.4,0.1-0.6,0.1c0.1-0.1,0,0,0.1-0.1c0.1,0,0.1,0,0.1,0
		c-0.1-0.1-0.2-0.1-0.1-0.1c0.1-0.1,0.1-0.1,0.2-0.1c-0.1-0.1,0.2,0-0.2-0.1l0,0c-0.2,0.1-0.2,0-0.5,0.1c-0.1,0.2,0.1,0.1-0.1,0.2
		C40.6,22.9,40,23,39.8,23z M40.1,21.3c0.1,0.1-0.1-0.1-0.1,0.3c0,0.2,0.1,0.5,0.2,0.5c0.3,0,0-0.4,0-0.4l0.3-0.3
		c0.2-0.2,0.2,0,0.2,0c0.1,0.2,0,0,0,0l0,0l0,0c0.3,0,0.3-0.1,0.4,0l0.4,0.5h-0.3v-0.1c-0.1-0.2,0-0.2-0.2-0.3c-0.1,0-0.1,0-0.2,0.1
		c0,0.1,0.1,0.1,0.1,0.3c-0.1,0.1-0.4,0.2-0.5,0.3c-0.2,0.1-0.5,0.6-0.9-0.3c0.2-0.2,0.2-0.1,0.2-0.3c-0.2,0-0.1,0-0.3,0.1
		c-0.1-0.2-0.1-0.2-0.1-0.3c-0.2,0-0.1,0.1-0.3,0c0,0-0.1,0-0.2,0c-0.2,0.1-0.1,0-0.1,0.1c0.2,0.1,0.1,0,0.3,0c0,0.1,0-0.1,0,0.1
		l0.1,0.2c0,0.1,0,0,0,0.1s-0.1,0,0,0.2c0.2,0.2,0.1-0.1,0.3,0.2c0.1,0.1,0.1,0.3,0.2,0.4c-0.4,0.1,0,0-0.4-0.1
		c-0.3,0-0.3,0.1-0.6,0.1c0-0.4,0.2-0.2,0.4-0.4v-0.2c-0.5,0-0.9,0.5-0.5,0.9c-0.2,0-0.3,0.1-0.5,0.1c0-0.4,0.1-0.2,0.2-0.4
		c0,0-0.1-0.3-0.4,0.1c-0.2,0.2-0.1,0.3,0,0.6c0.1,0.1,0-0.1,0.1,0.1l0.1,0.1c0,0.1,0.1,0.1,0.1,0.2c0.1,0.2,0.1,0.3,0.3,0.3
		c0.2-0.2,0-0.3-0.1-0.5c0.2,0,0.2,0,0.4-0.1c-0.2-0.2-0.3,0-0.5,0c0.2-0.1,0.3-0.1,0.4-0.1l0,0c0-0.2,0,0,0-0.2
		c0.3-0.1,0.4-0.2,0.6-0.1c0.3,0,0.2,0.1,0.2,0.2c0.1,0.3,0,0,0,0l0,0c0.5,0.2,0.1,0.1,0.4,0v0.1c0.2,0,0.8-0.1,0.9-0.2
		c0.2-0.1,0.1,0,0.1-0.2c0.2,0,0.3,0,0.5-0.1c-0.2,0-0.1,0-0.1-0.1c0.2,0,0.5-0.1,0.7-0.2c0.7-0.2,1.4-0.4,2-0.7
		c-0.2-0.1-3.1,0.8-3.5,0.9c0.1-0.3,0.6-0.2,0.7-0.3c0.4-0.2,0.3-0.1,0.8-0.3c0.1,0,0.2-0.1,0.3-0.1c0.3-0.1,0.2,0,0.3-0.1
		c0,0,0,0,0-0.1C42.3,22,42.3,22,42.1,22c0.1-0.2,0.1-0.3,0.2-0.4c0.2,0.1,0.2,0.2,0.2,0.1l0,0c0.1,0,0.1,0,0.2-0.1
		c0.2-0.1-0.1,0,0.1,0h0.1c-0.2,0-0.1,0-0.1-0.1l0.4-0.1C43,21,43.3,21,42.9,21c-0.2,0-0.3,0.3-0.5,0.2c0.2-0.2,0.3,0,0.6-0.3
		c-0.4,0-0.1,0-0.6,0.2h-0.1c0.1,0,0.1,0,0.1,0.1c-0.1,0-0.3,0-0.3,0.1l0,0v0.1c-0.2,0.4-0.4,0.1-0.5,0l0,0l0.1-0.1l0,0
		c0.1-0.1,0,0,0.1-0.1c0-0.1,0.1,0,0.2-0.2l0,0c-0.5-0.1-0.1,0.1-0.5,0.1c0.1-0.1,0.1,0,0.2-0.1c0.5-0.3,0.4,0,0.5-0.2
		c-0.1-0.1,0.1,0-0.1,0c-0.1,0-0.5,0.1-0.7,0.1l0,0v0.2c-0.4,0.1-0.3,0-0.5-0.1C40.8,21.1,40.3,21.2,40.1,21.3z M30.8,16.3v-0.2h0.3
		l0.1-0.3h0.2C31.5,16.3,31.3,16.5,30.8,16.3z M30.5,15.7c0-0.5,0.2-0.7,0.7-0.5v0.2h-0.3l0,0l-0.1,0.3H30.5z M31.8,16.8L32,15
		c-0.3-0.1-1.5-0.3-1.8-0.2c-0.1,0.3-0.3,1.5-0.2,1.7C30.3,16.6,31.4,16.8,31.8,16.8z M39.9,13.6c-0.2,0.1-0.1,0.1-0.4,0.1
		c-0.2,0.1-0.3,0.1-0.4,0.2l-0.7,0.2l0,0l-0.2,0.1c0,0.3,0,0.1,0,0.1c-0.2,0.1-0.1,0.1-0.4,0.1l-0.6,0.2c0.2,0.2-0.1,0.2,0.3,0.3
		l-0.2-0.3c0.2,0,0.1,0.1,0.2,0l0,0v0.1c0,0.1,0,0,0.1,0.1c0.4-0.1,0,0.1,0.2-0.1c0.1-0.1,0-0.1,0-0.1c0.2,0.1,0.1,0,0.1,0.1
		c-0.2,0.1-1,0.3-1.3,0.4l0,0c0.1-0.4,0.4-0.1,0.5-0.4c-0.1-0.1,0-0.1-0.2-0.1c-0.3,0,0,0-0.2,0.1l0,0L36.6,15l0,0l0,0h-0.1
		c-0.5,0.3-0.4,0-1,0.3l0,0c-0.2,0.1-0.1,0.1-0.4,0.1l0,0c0,0,0,0.2,0.4,0.1l1.2-0.2c0.1,0.1,0,0,0,0.1c0.5-0.1,1.6-0.6,1.9-0.6
		l-0.1-0.1l0,0h-0.1l0,0c0.1-0.1,0.1-0.2,0.2-0.2l0,0c0.3,0.1-0.2,0.2,1-0.2c0.1,0,0.5-0.2,0.7-0.3c0.1-0.1,0.2-0.1,0.3-0.2l0.3-0.1
		c0.2-0.1,0.2-0.1,0.2-0.2c-0.2,0-0.3,0-0.4,0l-0.5,0.1l0.1-0.1l0,0c-0.2,0.1-0.1,0-0.2,0.1C39.7,13.7,40,13.7,39.9,13.6z
		 M39.7,15.2c-0.2,0-0.5,0.1-0.7,0.2l-0.2,0.1c0.3,0,0.1-0.1,0.4-0.1l0.1,0.2l0,0c-0.1,0.2,0.1-0.1-0.4,0c-0.3,0.1-0.2,0.1-0.5,0.1
		l0,0l0.2-0.1c0.1-0.1,0,0,0.2-0.1c-0.3,0-0.2,0.1-0.3,0c0.2,0,0.7-0.2,1-0.3l1-0.4c0.1-0.3,0,0-0.1-0.2c-0.1,0.1-0.4,0.1-0.6,0.2
		c-0.1-0.1,0,0,0-0.1l-0.4,0.1c-0.8,0.2-0.2,0.1-0.5,0.2l-0.6,0.2h0.3l0,0c-0.1,0.2-1.1,0.2-1.3,0.5c0.2,0.2,0.3,0,0.5,0
		c0.4-0.1,0.4-0.2,0.6-0.2c-0.1,0.2,0,0.3-0.3,0.3c-0.1,0-0.1,0-0.1,0c-0.1,0,0,0-0.1-0.1c-0.1,0.1,0,0-0.1,0.1L37.4,16
		c0,0.2,0,0,0,0.1c0.1,0,0.3-0.1,0.4-0.1c-0.1,0.1,0,0.1-0.2,0.1c-0.1,0-0.1,0-0.3,0c0,0.2,0,0.1,0,0.2l0,0l0.1,0.1
		c0.4-0.2-0.1-0.1,0.6-0.2v0.1c0.2,0,0.4-0.1,0.6-0.2c0.1-0.1,0.3-0.2,0.5-0.2c0-0.2,0,0.1-0.1-0.1c0,0-0.1,0,0,0
		c0.1-0.1,0.6,0.2,0.8-0.2c0-0.1-0.2,0,0.3-0.1c0.1,0,0.2-0.1,0.4-0.1c0.1,0,0.3-0.1,0.4-0.2c0.2,0,0,0,0.1,0c0.2,0,0.3-0.1,0.6-0.2
		v-0.1l0,0l0,0c0,0-0.2,0,0.1,0c0.4,0-0.3,0.2,0.2,0c0.1,0,0,0,0.1-0.1l0.5-0.1c0.1-0.1,0.1-0.1,0.1-0.2c0.4,0.1,0.3,0.1,0.6-0.1
		c0.5-0.2,0.2,0,0.4-0.3c-0.3,0-2.5,0.9-3,1c-0.2,0-0.4,0.1-0.5,0.1c-0.3,0.1,0.4,0-0.5,0.2c-0.2,0-0.1,0-0.2,0c0.1-0.1,0,0,0.2-0.1
		C39.6,15.3,39.6,15.3,39.7,15.2L39.7,15.2z M35.2,24.2c0,0.2,0,0.2,0.2,0.3c0.1,0.1,0,0,0.1,0.1c0,0,0.5,1.1,0.9,0.5
		c-0.2-0.4-0.2,0.1-0.5-0.3c-0.1-0.1-0.2-0.3-0.2-0.5l0.4-0.2c0.2,0.3,0.3,0.7,0.7,0.7c0.2,0,0.2-0.1,0.2-0.2
		c-0.3-0.4-0.2,0.4-0.7-0.6c0.2-0.2,0.1,0,0.2-0.3c-0.1-0.1,0,0-0.2-0.1c-0.1,0.1-0.1,0.1-0.2,0.1c-0.1-0.2-0.1-0.2-0.3-0.3
		c-0.2,0.4,0,0.2,0,0.5c-0.5,0.2,0,0.1-0.3,0.2l-0.2-0.3C35,24,35.3,24,35.2,24.2z M12.8,27.2c-0.1,0.1-0.2,0.2-0.4,0.2L12.2,27
		c-0.2,0.3-0.1,0.1-0.1,0.4c0.1,0.2,0,0.2,0.1,0.3c0,0.1,0.2,0.1,0.3,0.2c0,0,0.5,1,0.9,0.4c-0.2-0.4-0.1,0.1-0.4-0.2
		c-0.1-0.1-0.2-0.4-0.3-0.5c0.1-0.1,0.2-0.2,0.4-0.2c0.2,0.2,0.2,0.4,0.4,0.6c0.2,0.3,0.7,0.1,0.6-0.1c-0.2-0.2-0.2,0.1-0.4-0.2
		c-0.1-0.1-0.2-0.3-0.2-0.4c0.1-0.2,0.3-0.1,0.2-0.3c-0.1-0.2-0.2,0-0.3,0c-0.1-0.2-0.1-0.2-0.2-0.3C12.6,27,12.8,26.9,12.8,27.2z
		 M40.1,21.3l-0.7,0.1c-0.1,0.1,0,0.1,0.1,0.3c0.2-0.1,0.1-0.1,0.3-0.1c0.1,0.2,0,0.2-0.2,0.3c0.4,0.9,0.7,0.4,0.9,0.3
		c0.1-0.1,0.4-0.1,0.5-0.3c0-0.2-0.1-0.2-0.1-0.3c0.1-0.1,0.1-0.1,0.2-0.1c0.1,0.1,0.1,0.1,0.2,0.3v0.1h0.3l-0.4-0.5
		c-0.2,0-0.2,0.1-0.4,0l0,0l0,0c0,0,0.1,0.2,0,0c0,0,0.1-0.2-0.2,0l-0.3,0.3c0,0,0.3,0.4,0,0.4c-0.2,0-0.3-0.3-0.2-0.5
		C40,21.2,40.2,21.4,40.1,21.3z M41.4,22.6c0.3,0,0.1,0,0.2,0.1c-0.2,0.1-0.1,0-0.2,0.1c-0.1,0,0,0,0.1,0.1c-0.1,0-0.1,0-0.1,0
		c-0.1,0.1,0,0-0.1,0.1c0.1,0.1,0.5,0,0.6-0.1c0.4-0.2-0.3,0.2,0.1-0.1c0.1-0.1-0.1-0.1,0.2,0l0,0L41.7,23l0,0
		c-0.3,0.2-1.1,0.3-1.3,0.6c0.1,0,0.3,0,0.4,0c0.2,0,0.2,0,0.3-0.1l0,0h0.1l0,0c0.3-0.1,0.3,0,0.5-0.1c0.1,0.1,0,0,0,0.1l0.6-0.2
		l0,0c0.1,0,0.1,0,0.2-0.1c-0.1-0.1-0.5,0.1-0.8,0.1c0.2-0.2,0.3-0.1,0.8-0.3c0.4-0.2,0.5-0.1,0.8-0.3c-0.1,0-0.1,0-0.2,0
		c-0.1,0-0.1,0-0.1,0c-0.2-0.1-0.8,0.2-1.1,0.2c0.2-0.1,0.7-0.2,0.8-0.3c-0.3,0-0.4,0.1-0.7,0.1c-0.2,0-0.3-0.1-0.4,0
		c-0.2,0,0,0-0.2,0L41.4,22.6L41.4,22.6L41.4,22.6z M40.2,14.7c0.1,0.1,0.2-0.1,0.1,0.2l-1,0.4c-0.3,0.1-0.7,0.3-1,0.3
		c0.1,0.1,0,0.1,0.3,0c-0.2,0.1-0.1,0-0.2,0.1l-0.2,0.1l0,0c0.4,0.1,0.2,0,0.5-0.1c0.5-0.1,0.3,0.2,0.4,0l0,0L39,15.5
		c-0.3,0-0.1,0.1-0.4,0.1l0.2-0.1c0.2-0.1,0.4-0.2,0.7-0.2c0.3,0.1,0.9-0.3,1.4-0.4l0.2-0.1l0,0c0.1,0,0.1,0,0.2,0l0.3-0.2
		c-0.2-0.2-0.1-0.2-0.2-0.3c-0.1,0-0.1,0.1-0.2,0.1H41c-0.3,0.1-0.2,0.2-0.6,0.2l0,0l-0.1,0.2C40.4,14.7,40.4,14.6,40.2,14.7z
		 M19.2,23.9c-0.3-0.1-0.4-0.9-0.7-0.7c-0.1,0.1-0.1,0,0.1,0.4l0.5,0.8c0.2,0.3,0.1,0.3,0.3,0.4l0.1-0.1c0-0.3-0.2-0.2-0.1-0.5
		c0.4,0.1,0.5,0.4,0.8,0c-0.2-0.1-0.6-0.3-0.8-0.3l0.1-0.8C19.2,23.3,19.3,23.5,19.2,23.9z M11.2,28.7c-0.3-0.5-0.7-0.1-0.9,0
		c-0.1-0.1-0.3-0.6-0.4-0.3c-0.1,0.1,0.8,1.5,0.9,1.5l0.2-0.1c-0.1-0.3-0.4-0.7-0.4-0.9c0.5-0.6,0.6,0.4,0.9,0.6l0.1-0.1
		C11.6,29.3,11.3,28.9,11.2,28.7z M33.1,25.5c0.1,0.1,0.1,0,0.1,0.1c0.1,0.2,0.5,0.9,0.6,0.9l0.1-0.1c-0.1-0.4-0.4-0.5-0.4-0.9
		c0.5-0.6,0.6,0.5,1,0.6c0.2-0.1,0.1-0.1,0-0.3c-0.1-0.1-0.1-0.2-0.2-0.3c-0.2-0.3-0.1-0.4-0.6-0.4c-0.1,0.1-0.3,0.2-0.4,0.2
		c-0.2-0.5-0.5-0.4-0.3-0.1C33.1,25.3,33.1,25.3,33.1,25.5z M37,23.5c0.2-0.1,0.2-0.1,0.4-0.1l-0.2,0.1c0.2,0,0.1,0.1,0.1,0.1
		c-0.1,0.1-0.2,0.1-0.3,0.1V23.5z M36.7,23.4c0,0.4,0,0.3,0.1,0.6c0.1,0.1,0.2,0.3,0.3,0.4c0.3,0.2,0.8-0.1,0.8-0.4
		c-0.4-0.1-0.3,0.5-0.7,0.1c0.1-0.3,0.6-0.2,0.6-0.7c-0.3-0.1-0.1-0.3-0.5-0.3C36.9,23.1,36.9,23.3,36.7,23.4z M40.9,12.5
		c0.1,0.1,0.1,0,0.1,0.1l-0.6,0.2l0,0c-0.2,0.1-0.1,0-0.3,0.1c0.1,0.1,0,0,0.1,0l0.2,0.1l0,0l0,0L40,13.2c-0.1,0-0.2,0.1-0.2,0.1
		c0.1,0.1,0.1,0.1,0.2,0c0.3-0.1,0.4-0.3,0.4-0.4c0.1-0.2,0.1,0.1,0.5,0.1c0.3,0.1,0.1-0.2,0.3,0.1c0.2,0,0.2-0.1,0.3-0.1
		c0.4-0.1,0,0.1,0.3,0c0.1,0,0.2-0.1,0.2-0.1v-0.1c-0.3,0.1-0.3,0.1-0.6,0.1c0.3-0.2,0.6-0.1,0.8-0.4c-0.2,0-0.3,0.1-0.5,0.1
		c-0.3,0.1-0.2,0.1-0.4,0.1c0.2-0.1,0.2-0.1,0.3-0.2c-0.4,0.1,0,0.1-0.4,0h-0.1l0,0C41,12.5,41.1,12.5,40.9,12.5
		c0.6-0.1,0.5-0.1,0.9-0.2c0.2-0.1,0.2-0.1,0.3-0.2c-0.3,0-0.5,0.2-0.9,0.2C40.9,12.4,41,12.4,40.9,12.5z M13.9,27.1
		c-0.1-0.3,0.2-0.5,0.4-0.2c-0.1,0.1,0,0.1-0.2,0.2C14,27.2,14.1,27.2,13.9,27.1z M14.8,27.3c-0.3,0-0.1,0-0.3,0.2
		c-0.1,0.1-0.2,0.1-0.4,0c0.1-0.2,0.4-0.3,0.6-0.5c-0.3-0.9-1.3-0.4-1,0.2c0,0.1,0.2,0.3,0.2,0.4c0.1,0.1,0.2,0.2,0.3,0.3
		C14.5,27.8,14.8,27.6,14.8,27.3z M12.6,28.8c-0.1-0.2-0.2-0.4-0.3-0.6c-0.3-0.5-0.2-0.5-0.4-0.3c0,0.3,0.4,0.6,0.4,1
		c-0.3,0.2-0.4,0.2-0.6-0.1c-0.1-0.2-0.2-0.4-0.3-0.5l-0.2,0.1c0,0.2,0.4,0.8,0.5,0.9C12,29.4,12.4,29,12.6,28.8z M34.9,24.4
		c-0.1,0.4,0.4,0.6,0.4,1c-0.3,0.2-0.4,0.2-0.5-0.1c-0.1-0.1-0.3-0.5-0.3-0.6c-0.4,0-0.2,0.2-0.1,0.4c0.1,0.2,0.2,0.3,0.3,0.5
		c0.3,0.4,0.8,0,1-0.3l-0.6-1L34.9,24.4z M15.6,26.9c0.6,0.2,1.1-0.9,0.4-0.9c-0.3,0-0.2,0.1-0.5,0.1c0-0.5,0.5-0.1,0.4-0.6
		c-0.6-0.1-1,0.9-0.3,0.9c0.1,0,0.6-0.3,0.5,0.1c0,0.1-0.2,0.2-0.3,0.2C15.6,26.7,15.6,26.6,15.6,26.9z M9.6,29.6
		C9.5,29.1,10,29.5,10,29c-0.3-0.1-0.7,0.2-0.7,0.6c0.1,0.5,0.6,0.2,0.9,0.2c0,0.2-0.1,0.3-0.2,0.3c-0.3,0.1-0.3,0-0.2,0.3
		c0.3,0,0.5-0.1,0.6-0.3c0.2-0.3,0.1-0.4,0-0.6C9.9,29.5,9.9,29.7,9.6,29.6z M32.8,27.1c0.3,0,0.8-0.2,0.8-0.6
		c-0.1-0.5-0.6-0.2-0.9-0.2c0-0.3,0.2-0.3,0.4-0.3v-0.3c-0.8,0-0.9,0.9-0.3,0.9c0.2,0,0.2-0.2,0.5,0c0,0.3-0.3,0.3-0.5,0.4V27.1z
		 M40.4,24.2h-0.3c0.1,0,0.1,0,0.2-0.1V24c0.1,0.1,0.1,0.1,0.3,0.1c0.2-0.3,0.3,0,0.9-0.3c0.1,0.1-0.1-0.1,0,0.1h0.3l-0.2-0.1
		l0.2-0.1l0,0l-0.2-0.1l-0.2,0.1l0,0L41,23.6c-0.1,0-0.1,0-0.2,0.1c-0.2,0,0,0-0.2,0.1c-0.1,0,0,0-0.1,0.1c-0.2,0.1-0.6,0.1-0.6,0.2
		c-0.1,0.1,0,0,0,0.1c0,0.2-0.2,0.1-0.1,0.2v0.1C39.8,24.3,40.3,24.3,40.4,24.2z M19,24.6c-0.3,0-0.1,0-0.3,0.2
		c-0.3,0.4-0.7-0.2-0.6-0.6c0.3-0.2,0.4,0.1,0.5-0.2c-0.2-0.3-0.6-0.1-0.7,0.1c-0.4,0.4,0.2,1.2,0.6,1.1
		C18.8,25.2,19.2,24.9,19,24.6z M37.4,16l0.2-0.1c0.1-0.1,0,0,0.1-0.1c0.1,0.1,0,0.1,0.1,0.1c0,0,0,0,0.1,0c0.2,0,0.2,0,0.3-0.3
		c-0.3,0-0.2,0.1-0.6,0.2c-0.3,0.1-0.3,0.2-0.5,0c0.2-0.3,1.2-0.3,1.3-0.5l0,0h-0.3c-0.1,0.1,0-0.1-0.5,0.1
		c-0.4,0.1-1.2,0.2-1.4,0.6l0.8-0.2c-0.1,0.2-0.1,0.1-0.3,0.2c-0.1,0.1-0.2,0.1-0.3,0.2c0.2,0,0.3,0,0.4-0.1
		c0.1,0.1,0.1,0.1,0.1,0.1C37.7,16,37.1,16.1,37.4,16z M17.1,26C17,25.9,17.2,26,17.1,26c-0.3-0.1-0.3,0-0.4-0.2
		c0-0.1-0.2-0.3-0.2-0.4c0.1-0.2,0.3-0.1,0.2-0.3c-0.1-0.2-0.2,0-0.3,0c-0.1-0.1-0.1-0.3-0.3-0.3c-0.2,0.3,0,0.1,0,0.6
		c0,0.3,0,0.1,0.3,0.3c0.1,0.1,0.2,0.5,0.4,0.6C16.9,26.3,17.3,26.2,17.1,26z M38.6,23h0.3c-0.1,0,0,0-0.1,0.1
		C38.7,23.1,38.7,23.1,38.6,23l0.2,0.2c-0.3,0.4,0.2,0.3,0.4,0.1c0.1-0.1,0.2-0.1,0.3-0.2s0.2-0.1,0.3-0.2v-0.1c-0.4,0,0,0.1-0.4,0
		l0,0c0,0,0.1,0.3,0,0c0,0,0.1-0.1-0.2-0.2c-0.2,0-0.2,0.1-0.6,0.1C38.6,23,38.6,22.9,38.6,23z M39.9,13.6c0.1,0.2-0.2,0.1,0.2,0.2
		c0.1-0.1-0.1,0,0.2-0.1l0,0l-0.1,0.1l0.5-0.1c0.2-0.1,0.3-0.1,0.4,0c0,0,0,0.1-0.2,0.2l0,0c0,0,0,0,0.1,0l0,0l0,0l0.2-0.1
		c0-0.1,0.1,0,0-0.1h-0.1c0.5,0,0,0,0.3,0.1c0.1-0.1,0.1-0.1,0-0.1c0.2,0,0.2,0,0.3-0.2c-0.6,0-0.4,0-0.6,0.1
		c-0.1-0.1-0.1-0.1-0.2-0.2l-0.1-0.1c-0.2,0-0.2,0.1-0.4,0.1C40.2,13.5,40.1,13.5,39.9,13.6z M14.9,26c-0.6,0.2-0.1,0.8,0,1.1
		c0.1,0.1,0.1,0.3,0.3,0.2c0.2-0.1-0.1-0.5-0.2-0.7c-0.3-0.5,0.2-0.3,0.1-0.6C15,25.8,14.9,25.9,14.9,26z M39.1,10.7L39.1,10.7
		c0,0.1,0.1,0.1-0.1,0.1c0.2,0,0.2-0.1,0.3,0c0.2,0.1,0.1,0,0.1,0.1c0.4-0.1,0.3-0.1,0.3-0.2h0.1l0,0c0.1,0,0,0,0.1,0
		c0-0.3,0.1-0.2,0.3-0.2c-0.1-0.1,0.1,0-0.1,0c0,0,0,0.1-0.1-0.1c-0.1-0.1-0.4,0-0.5,0.1C39.4,10.6,39.4,10.6,39.1,10.7z M17.8,25.4
		l-0.2,0.2l0.1,0.2c0.1,0,0.3-0.1,0.3-0.2c0.2-0.3,0-0.8-0.3-0.6C17.6,25.1,17.8,25.1,17.8,25.4z M17.1,25.4l0.2-0.1
		c0-0.2-0.1-0.2-0.1-0.4c0.1-0.1,0.3-0.2,0.2-0.3C17.2,24.3,16.5,25,17.1,25.4z M30.5,15.7h0.2l0.1-0.3l0,0h0.3v-0.2
		C30.7,15.1,30.5,15.2,30.5,15.7z M30.8,16.3c0.5,0.1,0.6,0,0.7-0.5h-0.2l-0.1,0.3h-0.3L30.8,16.3z M5.8,32.2
		c0.1-0.2,0.1-0.1,0.4-0.1v-0.2c-0.4-0.1-0.7,0-0.6,0.5C5.8,32.4,5.7,32.5,5.8,32.2z M29,29.4v0.1c0.2,0.1,0.5,0.1,0.6-0.2
		c0.1-0.3,0-0.2-0.1-0.3c-0.2,0.1-0.1,0.1-0.2,0.3C29.3,29.4,29.2,29.3,29,29.4z M42.8,21.3L42.8,21.3c-0.2,0.1,0.1,0-0.1,0.1
		c-0.1,0-0.1,0-0.2,0.1l0,0c0,0,0-0.1-0.2-0.1c-0.1,0.2-0.1,0.2-0.2,0.4c0.2,0,0.2,0,0.4-0.1c0.3,0,0.4-0.1,0.6-0.3
		C42.9,21.3,42.9,21.3,42.8,21.3z M22.8,21.7h-0.3v0.2c0.4,0.1,0.7,0,0.6-0.5h-0.2L22.8,21.7z M6.2,32.8c-0.3,0.1-0.3-0.1-0.3,0.2
		c0.1,0.1,0.3,0,0.5,0c0-0.1,0.1-0.3,0.1-0.5l-0.2,0.1C6.2,32.7,6.2,32.7,6.2,32.8z M28.7,29c0.1,0,0.1,0,0.2,0
		c0.3-0.1-0.2,0.1,0.1,0c0.1-0.1,0,0,0.1-0.1c-0.2,0-0.1,0-0.1-0.1c0.2-0.2,0.2,0.1,0.4-0.1c0-0.1,0.1-0.1-0.2-0.2
		c-0.1,0-0.2,0-0.2,0C28.7,28.6,28.7,28.8,28.7,29z M41.7,21.2c-0.1,0.1,0,0-0.1,0.1l0,0l-0.1,0.1l0,0c0.1,0.1,0.4,0.4,0.5,0v-0.1
		l0,0c0.1-0.1,0.2-0.1,0.3-0.1c-0.1-0.1,0,0-0.1-0.1L41.7,21.2z M22.3,21.3c0.2-0.1,0-0.2,0.2-0.3c0.1-0.1,0.3,0,0.3-0.1
		c0-0.3-0.4-0.1-0.5-0.1c-0.1,0.1-0.1,0.1-0.1,0.2C22.1,21.3,22.2,21.2,22.3,21.3z M13.9,27.1c0.2,0,0.1,0,0.3-0.1
		c0.1-0.1,0.1,0,0.2-0.2C14.1,26.6,13.8,26.8,13.9,27.1z M37,23.5v0.3c0.2,0,0.2,0,0.3-0.1c0,0,0,0-0.1-0.1l0.2-0.1
		C37.1,23.4,37.2,23.4,37,23.5z"/>
	<polygon class="st6" points="24.2,9.5 32.9,26.8 41.6,44 24.2,44 6.9,44 15.5,26.8 	"/>
	<polygon class="st7" points="24.2,9.5 32.9,26.8 41.6,44 24.2,44 6.9,44 15.5,26.8 	"/>
	<path class="st8" d="M24,13.5l0.2,0.2c0.1,0.1,0.1,0.2,0.1,0.2c0.1,0.2,0.2,0.3,0.3,0.5c0.2,0.3,0.3,0.6,0.5,0.9
		c0.3,0.6,0.7,1.2,1,1.9c0.7,1.2,1.3,2.4,2,3.7c2.7,4.9,5.3,9.9,8,14.8l4,7.4L8,43.1L24,13.5z M24.1,9.2c-1.8,0-2.8,2.4-3.6,3.9
		C15,22.6,9.6,32.3,4.2,41.9c-0.4,0.7-1.1,1.7-0.9,2.8c0.2,1,1,1.6,2,1.6h37.5c1.1,0,1.8-0.7,2-1.7c0.2-1.2-0.5-2.1-0.9-2.8
		c-0.9-1.6-1.8-3.2-2.7-4.8L30.3,17.8c-0.9-1.6-1.8-3.2-2.7-4.8C26.8,11.6,25.8,9.2,24.1,9.2z"/>
	<path class="st6" d="M24.1,9.2c1.7,0,2.8,2.4,3.6,3.9c0.9,1.6,1.8,3.2,2.7,4.8L41.1,37c0.9,1.6,1.8,3.2,2.7,4.8
		c0.4,0.8,1.1,1.6,0.9,2.8c-0.2,1-0.9,1.7-2,1.7H5.3c-1.1,0-1.8-0.6-2-1.6c-0.2-1.1,0.5-2.1,0.9-2.8C9.6,32.3,15,22.6,20.4,13
		C21.3,11.6,22.3,9.2,24.1,9.2 M23.7,8.9c-1.3,0.2-2,1.4-2.6,2.4L4.8,40.2c-0.3,0.6-0.6,1.1-0.9,1.6s-0.7,1.1-0.8,1.7
		c-0.4,1.6,0.6,2.9,2,3c1.3,0.1,7.7,0,9.6,0h19.4c1.6,0,8.6,0.2,9.5-0.1c1.1-0.4,1.8-1.9,1.2-3.4L28.5,14c-0.6-1.1-1.2-2.2-1.8-3.2
		C26.2,10,25.2,8.7,23.7,8.9z"/>
	<path class="st9" d="M27.2,35.5h7c0.3,0,0.6,0.3,0.6,0.8V40c0,0.4-0.3,0.8-0.6,0.8h-7c-0.3,0-0.6-0.3-0.6-0.8v-3.8
		C26.6,35.8,26.9,35.5,27.2,35.5"/>
	<path class="st10" d="M27.7,36.2c-0.5,0.3-0.3,1.4-0.3,2.4c0,1.3,0,1.4,1.2,1.4c0.7,0,4.7,0.1,5.1-0.1c0.5-0.2,0.4-1.4,0.4-2.4
		c0-1.3,0-1.5-1.3-1.5C32.1,36.1,28,36,27.7,36.2"/>
	<path class="st10" d="M33.5,41c-0.5-0.2-0.9,0.2-0.6,0.5C33.1,41.8,33.7,41.7,33.5,41"/>
	<g>
		<path class="st9" d="M30.4,34.4h0.5c0.2,0,0.3,0.1,0.4,0.2c0.1,0.1,0.2,0.3,0.2,0.4c0,0.1,0,0.1,0,0.2h-0.2c0-0.1,0-0.1,0-0.2
			c0-0.1,0-0.2-0.1-0.3s-0.2-0.1-0.3-0.1h-0.5c-0.1,0-0.2,0-0.3,0.1C30,34.8,30,34.9,30,35s0,0.1,0,0.2h-0.2c0-0.1,0-0.1,0-0.2
			c0-0.2,0.1-0.3,0.2-0.4C30.1,34.5,30.2,34.4,30.4,34.4"/>
		<path class="st9" d="M31.4,35.4h-0.2c0,0-0.1,0-0.1-0.1v-0.1v-0.1c0-0.1,0-0.2-0.1-0.2c0,0-0.1-0.1-0.2-0.1h-0.5
			c-0.1,0-0.1,0-0.2,0.1c0,0.1-0.1,0.1-0.1,0.2c0,0.1,0,0.1,0,0.1v0.1l-0.1,0.1h-0.2c-0.1,0-0.1,0-0.1-0.1s0-0.2,0-0.2
			c0-0.2,0.1-0.4,0.2-0.5c0.1-0.2,0.3-0.2,0.5-0.2h0.5c0.2,0,0.4,0.1,0.5,0.2c0.1,0.1,0.2,0.3,0.2,0.5
			C31.5,35.2,31.5,35.3,31.4,35.4C31.5,35.3,31.5,35.4,31.4,35.4z"/>
	</g>
	<path class="st11" d="M33.2,41c0.2,0,0.4,0.2,0.4,0.4s-0.2,0.4-0.4,0.4s-0.4-0.2-0.4-0.4S33,41,33.2,41"/>
	<g>
		<path class="st7" d="M33.2,41c0.2,0,0.4,0.2,0.4,0.4s-0.2,0.4-0.4,0.4s-0.4-0.2-0.4-0.4S33,41,33.2,41z"/>
	</g>
	<path class="st11" d="M28.4,41c0.2,0,0.4,0.2,0.4,0.4s-0.2,0.4-0.4,0.4c-0.2,0-0.4-0.2-0.4-0.4S28.2,41,28.4,41"/>
	<g>
		<path class="st7" d="M28.4,41c0.2,0,0.4,0.2,0.4,0.4s-0.2,0.4-0.4,0.4c-0.2,0-0.4-0.2-0.4-0.4S28.2,41,28.4,41z"/>
	</g>
	<path class="st6" d="M27.6,36h6.1c0.3,0,0.6,0.3,0.6,0.6v3.1c0,0.3-0.2,0.6-0.6,0.6h-6.1c-0.3,0-0.6-0.3-0.6-0.6v-3.1
		C27.1,36.3,27.3,36,27.6,36"/>
	<path class="st9" d="M27.9,36.4h5.6c0.3,0,0.5,0.2,0.5,0.5v2.6c0,0.3-0.2,0.5-0.5,0.5h-5.6c-0.3,0-0.5-0.2-0.5-0.5v-2.6
		C27.4,36.6,27.6,36.4,27.9,36.4"/>
	<path class="st7" d="M27.9,36.4h5.6c0.3,0,0.5,0.2,0.5,0.5v2.6c0,0.3-0.2,0.5-0.5,0.5h-5.6c-0.3,0-0.5-0.2-0.5-0.5v-2.6
		C27.4,36.6,27.6,36.4,27.9,36.4z"/>
	<path class="st9" d="M22.5,28.1l0.9,0.9l2.4,2.5c0.4,0.4,0.7,0.7,1,0.7c0.6,0,1-0.6,0.5-1.1l-1.1-1.2l-1-1L24,27.7
		c-0.4-0.4-1.4-1.6-1.8-1.8c-0.1-0.1-0.2-0.1-0.4-0.1c-0.5-0.1-1.3,0-1.5,0.2c-0.3,0.3-0.2,0.8-0.2,1.6c0,1.3,0,2.6,0,3.9
		c0,0.2,0,0.3,0,0.5c0,0.2,0,0.2-0.1,0.3c-0.1,0.2-0.2,0.3-0.4,0.5c-0.3,0.3-0.5,0.6-0.7,1c-0.1,0.2-0.2,0.3-0.4,0.5
		c-0.1,0.1-0.3,0.3-0.4,0.5s-0.8,4.3-0.9,4.7s-0.3,1.2-0.2,1.6c0.2,0.5,0.7,0.7,1,0.4c0.4-0.2,0.4-0.7,0.5-1.3
		c0.2-1,0.4-2.1,0.6-3.1c0.1-0.8,0.1-0.7,0.5-1.3c0.5-0.7,1-1.3,1.5-2c0.2-0.3,0.5-0.6,0.7-1c0.3-0.5,0.5-0.6,0.6-1.2
		C22.6,30.5,22.5,29.4,22.5,28.1"/>
	<path class="st9" d="M21.7,35.6c0.4,1,0.8,2,1.3,3c0.3,0.7,0.6,1.3,0.9,2c0.1,0.2,0.1,0.3,0.2,0.5c0.7,1.2,1.8,0.2,1.3-0.9
		c-0.1-0.3-0.3-0.7-0.4-1s-0.3-0.7-0.4-1c-0.6-1.5-1.4-3.2-2-4.8l-0.1-0.2l-1,1.4L21.7,35.6z"/>
	<path class="st9" d="M20.8,22.1c-0.4,0.1-0.7,0.3-0.9,0.5c-0.2,0.3-0.4,0.6-0.4,1.1s0.1,1,0.3,1.3c0.2,0.3,0.6,0.5,0.9,0.4
		s0.6-0.4,0.8-0.6c0.2-0.2,0.4-0.5,0.5-1C22.1,22.7,21.5,22,20.8,22.1"/>
	<path class="st9" d="M19.8,29c-0.1,0-0.3,0.3-0.3,0.4l-1.7,2.3c-0.3,0.3-0.4,0.8-0.1,1.2c0.3,0.4,0.6,0.2,0.9-0.1l1-1.3
		c0.1-0.2,0.2-0.2,0.2-0.6C19.8,30.3,19.8,29.6,19.8,29"/>
</g>
</svg>
