<svg width="16" height="16" viewBox="0 0 16 16" fill="none" xmlns="http://www.w3.org/2000/svg">
<path d="M7.99967 1.33301C4.31967 1.33301 1.33301 4.31967 1.33301 7.99967C1.33301 11.6797 4.31967 14.6663 7.99967 14.6663C11.6797 14.6663 14.6663 11.6797 14.6663 7.99967C14.6663 4.31967 11.6797 1.33301 7.99967 1.33301ZM7.99967 3.33301C9.10634 3.33301 9.99967 4.22634 9.99967 5.33301C9.99967 6.43967 9.10634 7.33301 7.99967 7.33301C6.89301 7.33301 5.99967 6.43967 5.99967 5.33301C5.99967 4.22634 6.89301 3.33301 7.99967 3.33301ZM7.99967 12.7997C6.33301 12.7997 4.85967 11.9463 3.99967 10.653C4.01967 9.32634 6.66634 8.59967 7.99967 8.59967C9.32634 8.59967 11.9797 9.32634 11.9997 10.653C11.1397 11.9463 9.66634 12.7997 7.99967 12.7997Z" fill="white"/>
</svg>
