<svg width="50" height="50" viewBox="0 0 50 50" fill="none" xmlns="http://www.w3.org/2000/svg">
<path d="M0 10C0 4.47715 4.47715 0 10 0H40C45.5228 0 50 4.47715 50 10V40C50 45.5228 45.5228 50 40 50H10C4.47715 50 0 45.5228 0 40V10Z" fill="#FF0303"/>
<path d="M32.0865 8.33203H27.0354C22.0731 8.33203 17.8642 12.1097 17.8642 19.4436C17.8642 23.8434 19.9025 27.0877 23.5351 28.6878L16.7567 40.9547C16.5351 41.3551 16.7567 41.6654 17.1106 41.6654H20.2564C20.5223 41.6654 20.6996 41.5767 20.7883 41.3551L26.9468 29.3098H29.1624V41.3551C29.1624 41.4881 29.2954 41.6654 29.4719 41.6654H32.2194C32.4854 41.6654 32.5741 41.5324 32.5741 41.3107V8.77668C32.5741 8.46497 32.3967 8.33203 32.0865 8.33203ZM29.1624 26.4658H27.3014C24.3773 26.4658 21.5419 24.3323 21.5419 18.9989C21.5419 13.4423 24.1999 11.176 26.9024 11.176H29.1624V26.4658Z" fill="white"/>
</svg>
