<svg width="50" height="50" viewBox="0 0 50 50" fill="none" xmlns="http://www.w3.org/2000/svg">
<rect width="50" height="50" rx="10" fill="#005FF9"/>
<path d="M30.0118 24.9987C30.0118 27.763 27.763 30.0118 24.9987 30.0118C22.2344 30.0118 19.9856 27.763 19.9856 24.9987C19.9856 22.2344 22.2344 19.9856 24.9987 19.9856C27.763 19.9856 30.0118 22.2344 30.0118 24.9987ZM24.9987 8.33203C15.8082 8.33203 8.33203 15.8082 8.33203 24.9987C8.33203 34.1892 15.8082 41.6654 24.9987 41.6654C28.3654 41.6654 31.6118 40.663 34.3868 38.7666L34.4344 38.7332L32.1892 36.1237L32.1511 36.1475C30.0154 37.5225 27.5416 38.2487 24.9987 38.2487C17.6927 38.2487 11.7487 32.3046 11.7487 24.9987C11.7487 17.6927 17.6927 11.7487 24.9987 11.7487C32.3046 11.7487 38.2487 17.6927 38.2487 24.9987C38.2487 25.9451 38.1427 26.9035 37.9368 27.8463C37.5177 29.5666 36.313 30.0927 35.4094 30.0237C34.4999 29.9499 33.4356 29.3023 33.4285 27.7166V26.5082V24.9987C33.4285 20.3499 29.6475 16.5689 24.9987 16.5689C20.3499 16.5689 16.5689 20.3499 16.5689 24.9987C16.5689 29.6475 20.3499 33.4285 24.9987 33.4285C27.257 33.4285 29.3749 32.5463 30.9713 30.9404C31.8999 32.3856 33.413 33.2916 35.1356 33.4296C35.2832 33.4416 35.4344 33.4475 35.5832 33.4475C36.7963 33.4475 37.9975 33.0416 38.9666 32.307C39.9654 31.5475 40.7118 30.4511 41.1237 29.1332C41.1892 28.9201 41.3106 28.4332 41.3106 28.4296L41.3142 28.4118C41.557 27.3546 41.6654 26.3011 41.6654 24.9987C41.6654 15.8082 34.1892 8.33203 24.9987 8.33203Z" fill="#FF9E00"/>
</svg>
