<svg width="50" height="50" viewBox="0 0 50 50" fill="none" xmlns="http://www.w3.org/2000/svg">
<path d="M40 0H10C4.47715 0 0 4.47715 0 10V40C0 45.5228 4.47715 50 10 50H40C45.5228 50 50 45.5228 50 40V10C50 4.47715 45.5228 0 40 0Z" fill="#44678D"/>
<path d="M15.2224 16.9944C16.1964 19.4039 17.4308 21.6756 19.0566 23.715C19.2723 23.9864 19.5441 24.2277 19.8304 24.4241C20.2487 24.7119 20.6433 24.6108 20.8134 24.1315C20.9932 23.6285 21.1583 22.6092 21.1681 22.0811C21.195 20.7011 21.1641 19.7967 21.0901 18.4183C21.0421 17.5356 20.7288 16.7604 19.4325 16.5264C19.0322 16.4539 18.995 16.1238 19.2522 15.7945C19.7876 15.109 20.5335 14.9997 21.3424 14.9565C22.6533 14.8856 23.969 14.9435 25.2816 14.9565C25.8162 14.9614 26.354 15.0046 26.8806 15.1195C27.5673 15.2695 27.9351 15.7521 28.0483 16.4237C28.1068 16.7701 28.137 17.1263 28.1288 17.4769C28.0946 18.9832 28.0222 20.4887 28.0051 21.9943C27.9978 22.5852 28.0409 23.1909 28.167 23.7664C28.3436 24.5684 28.8888 24.7698 29.4462 24.1903C30.1541 23.4542 30.7783 22.626 31.3641 21.7849C32.4285 20.2549 33.2234 18.5758 33.9078 16.8445C34.2617 15.9511 34.5327 15.7571 35.492 15.7547C37.2952 15.7506 39.0984 15.749 40.9016 15.7547C41.2214 15.7563 41.5558 15.7865 41.8577 15.8827C42.3476 16.0392 42.5421 16.4394 42.4273 16.9473C42.1596 18.1374 41.5176 19.1489 40.83 20.1214C39.7266 21.6815 38.5703 23.2042 37.4409 24.7464C37.2969 24.9428 37.17 25.1523 37.0519 25.365C36.6296 26.1296 36.6589 26.5583 37.2749 27.1949C38.2554 28.2081 39.3051 29.156 40.2547 30.1969C40.9448 30.9542 41.5835 31.7758 42.1303 32.6406C42.822 33.7345 42.3947 34.7648 41.1026 34.9482C40.2898 35.0632 36.319 34.9491 36.1138 34.9482C35.0462 34.9434 34.1105 34.5725 33.3569 33.8462C32.5188 33.0376 31.7571 32.1507 30.9524 31.3071C30.7099 31.0528 30.4511 30.8091 30.1721 30.5963C29.5137 30.0933 28.8676 30.205 28.5601 30.9794C28.2972 31.6446 28.0702 33.3913 28.0596 33.5405C28.0043 34.3206 27.5087 34.8178 26.6364 34.8659C24.118 35.0028 21.6776 34.7216 19.4042 33.5014C17.4773 32.4678 15.9386 31.0063 14.6057 29.3019C12.4884 26.5948 10.816 23.619 9.28922 20.5558C9.21119 20.3992 7.66473 17.1028 7.62318 16.9471C7.48504 16.4258 7.6139 15.9277 8.05364 15.7563C8.32778 15.6495 13.4265 15.7559 13.5113 15.7605C14.3249 15.8046 14.8797 16.1485 15.2224 16.9944Z" fill="white"/>
</svg>
