<svg width="50" height="50" viewBox="0 0 50 50" fill="none" xmlns="http://www.w3.org/2000/svg">
<rect width="50" height="50" rx="10" fill="#F7931E"/>
<path d="M27.8958 32.4822C31.3539 31.7778 33.4262 30.1401 33.5358 30.0522C34.5477 29.2407 34.7103 27.7625 33.8987 26.7505C33.0873 25.7386 31.6093 25.5761 30.5971 26.3875C30.5758 26.4048 28.3655 28.1003 24.729 28.1027C21.0925 28.1003 18.8355 26.4048 18.8142 26.3875C17.802 25.5761 16.324 25.7386 15.5126 26.7505C14.701 27.7625 14.8636 29.2407 15.8755 30.0522C15.9866 30.1414 18.1444 31.8216 21.6994 32.5096L16.7449 37.6875C15.8445 38.6213 15.8715 40.1081 16.8053 41.0085C17.2611 41.4479 17.8485 41.6664 18.4354 41.6664C19.0508 41.6664 19.6655 41.4259 20.1263 40.9479L24.7291 36.0448L29.7967 40.9797C30.715 41.8964 32.2018 41.8949 33.1183 40.9771C34.0347 40.0591 34.0336 38.5721 33.1157 37.6556L27.8958 32.4822Z" fill="white"/>
<path d="M24.8449 8.33594C20.0743 8.33594 16.207 12.2033 16.207 16.9738C16.207 21.7444 20.0743 25.6121 24.8449 25.6121C29.6155 25.6121 33.4828 21.7444 33.4828 16.9738C33.4828 12.2033 29.6155 8.33594 24.8449 8.33594ZM24.8449 20.5448C22.8729 20.5448 21.2742 18.946 21.2742 16.9739C21.2742 15.0019 22.8729 13.4032 24.8449 13.4032C26.8169 13.4032 28.4156 15.0019 28.4156 16.9739C28.4156 18.946 26.8169 20.5448 24.8449 20.5448Z" fill="white"/>
</svg>
