<svg width="18" height="19" viewBox="0 0 18 19" fill="none" xmlns="http://www.w3.org/2000/svg">
<path d="M12.5 11.584H11.71L11.43 11.314C12.41 10.174 13 8.69398 13 7.08398C13 3.49398 10.09 0.583984 6.5 0.583984C2.91 0.583984 0 3.49398 0 7.08398C0 10.674 2.91 13.584 6.5 13.584C8.11 13.584 9.59 12.994 10.73 12.014L11 12.294V13.084L16 18.074L17.49 16.584L12.5 11.584ZM6.5 11.584C4.01 11.584 2 9.57398 2 7.08398C2 4.59398 4.01 2.58398 6.5 2.58398C8.99 2.58398 11 4.59398 11 7.08398C11 9.57398 8.99 11.584 6.5 11.584Z" fill="#979797"/>
</svg>
